<?xml version="1.0" encoding="UTF-8"?>
<svg version="1.1" xmlns="http://www.w3.org/2000/svg" width="512" height="512">
<path d="M0 0 C0.69507156 -0.00671722 1.39014313 -0.01343445 2.10627747 -0.02035522 C4.39628326 -0.03929589 6.68599503 -0.04325818 8.97607422 -0.04541016 C10.57925534 -0.05184367 12.18243531 -0.05857244 13.78561401 -0.06558228 C17.1463289 -0.07754727 20.5069411 -0.08126419 23.86767578 -0.08007812 C28.14783395 -0.07987563 32.42732293 -0.1071082 36.70732307 -0.14162254 C40.02075138 -0.16400728 43.33402202 -0.16791206 46.64751816 -0.16685867 C48.2237871 -0.16919994 49.80006139 -0.17793918 51.37625504 -0.19352341 C66.381875 -0.32792891 76.75471918 2.59046021 87.80810547 13.09912109 C98.1235299 23.95627459 103.08747356 40.63978938 108.67453003 54.30825806 C112.05603897 62.52453441 115.44767496 70.64493722 119.67164135 78.46953106 C137.62554037 111.73601283 137.39091877 143.66570354 136.4439016 180.37947065 C136.24469897 188.30744047 136.18096282 196.23520216 136.11758876 204.16520524 C136.05860749 210.98070678 135.96591876 217.79582102 135.86669922 224.61083984 C135.85645076 225.33457621 135.84620231 226.05831258 135.83564329 226.80398035 C135.76561983 231.56613473 135.66442668 236.32664667 135.54785156 241.08789062 C135.52878754 242.28745895 135.50972351 243.48702728 135.49008179 244.72294617 C135.45849976 245.81477707 135.42691772 246.90660797 135.39437866 248.03152466 C135.37246649 248.98059755 135.35055431 249.92967045 135.32797813 250.90750313 C134.83103769 253.71227591 134.19974171 254.639602 131.90576172 256.29052734 C128.90307617 256.63110352 128.90307617 256.63110352 125.26904297 256.58349609 C123.9703125 256.57382812 122.67158203 256.56416016 121.33349609 256.55419922 C119.96174533 256.52913319 118.59000054 256.50373835 117.21826172 256.47802734 C115.83481248 256.46297754 114.45134771 256.44928964 113.06787109 256.43701172 C109.68010965 256.40159958 106.29313032 256.35220788 102.90576172 256.29052734 C102.78096436 256.95366943 102.65616699 257.61681152 102.52758789 258.30004883 C100.62888863 268.1328871 97.96418628 275.59360172 91.49169922 283.38037109 C89.75142386 285.4085764 89.75142386 285.4085764 87.90576172 288.29052734 C89.22294189 288.27481689 90.54012207 288.25910645 91.8972168 288.24291992 C96.77801411 288.18867348 101.65878472 288.15419644 106.53979492 288.12573242 C108.65344725 288.11063375 110.7670682 288.09015309 112.88061523 288.06420898 C115.91641987 288.02787337 118.95181078 288.0108119 121.98779297 287.99755859 C122.9347554 287.98207474 123.88171783 287.96659088 124.8573761 287.95063782 C126.17840584 287.95029793 126.17840584 287.95029793 127.52612305 287.94995117 C128.30111649 287.94328934 129.07610992 287.9366275 129.87458801 287.92976379 C132.45118232 288.38740132 133.32805503 289.23872169 134.90576172 291.29052734 C135.30419922 293.66552734 135.30419922 293.66552734 135.28076172 296.29052734 C135.28849609 297.15677734 135.29623047 298.02302734 135.30419922 298.91552734 C134.81363478 301.83967613 134.27605514 302.53950159 131.90576172 304.29052734 C129.1399231 304.66805077 129.1399231 304.66805077 125.71875 304.67147827 C124.42318176 304.67993774 123.12761353 304.68839722 121.79278564 304.69711304 C120.35388058 304.69127991 118.91497676 304.68513539 117.47607422 304.67871094 C115.96327332 304.68277527 114.45047539 304.68811636 112.93768311 304.69464111 C108.8261464 304.70833714 104.7148351 304.70300671 100.60329437 304.69350386 C96.30453373 304.68591906 92.00579264 304.69294958 87.70703125 304.69766235 C80.48743213 304.70312336 73.26792501 304.69591928 66.04833984 304.68164062 C57.69641052 304.66531342 49.34470087 304.67060169 40.99277687 304.68711984 C33.82752919 304.70072491 26.66234772 304.70265918 19.49709129 304.69480383 C15.21516696 304.69012191 10.93334596 304.68951666 6.65142822 304.6994133 C2.62618962 304.7080665 -1.3987652 304.70209145 -5.42397308 304.68473053 C-6.90303831 304.68075684 -8.38212734 304.68191479 -9.86118317 304.68851852 C-11.87652241 304.69668844 -13.89191372 304.68463735 -15.90722656 304.67147827 C-17.03621368 304.67034719 -18.16520081 304.66921612 -19.32839966 304.66805077 C-22.09423828 304.29052734 -22.09423828 304.29052734 -23.95602417 302.91515541 C-25.53702343 300.65851867 -25.49363785 299.02327939 -25.46923828 296.29052734 C-25.47697266 295.42427734 -25.48470703 294.55802734 -25.49267578 293.66552734 C-25.00109356 290.73531177 -24.4813473 290.03341202 -22.09423828 288.29052734 C-19.18334961 287.94995117 -19.18334961 287.94995117 -15.67626953 287.99755859 C-14.42265625 288.00722656 -13.16904297 288.01689453 -11.87744141 288.02685547 C-10.56710937 288.05199219 -9.25677734 288.07712891 -7.90673828 288.10302734 C-6.57146665 288.11807767 -5.23617891 288.13176548 -3.90087891 288.14404297 C-0.63159252 288.1794504 2.63688265 288.22883844 5.90576172 288.29052734 C5.30248047 287.45650391 4.69919922 286.62248047 4.07763672 285.76318359 C-2.61304873 276.39538606 -6.526718 268.8443686 -9.09423828 257.29052734 C-77.73423828 256.96052734 -146.37423828 256.63052734 -217.09423828 256.29052734 C-217.75423828 259.59052734 -218.41423828 262.89052734 -219.09423828 266.29052734 C-221.0215239 272.94925347 -224.0895329 278.06434248 -228.50830078 283.38037109 C-230.24857614 285.4085764 -230.24857614 285.4085764 -232.09423828 288.29052734 C-231.26174561 288.27481689 -230.42925293 288.25910645 -229.5715332 288.24291992 C-226.47975972 288.19176092 -223.3882021 288.15416254 -220.29614258 288.12573242 C-218.30096127 288.10324401 -216.30597615 288.06512536 -214.31103516 288.02685547 C-213.05742187 288.0171875 -211.80380859 288.00751953 -210.51220703 287.99755859 C-209.35487061 287.98184814 -208.19753418 287.9661377 -207.00512695 287.94995117 C-204.09423828 288.29052734 -204.09423828 288.29052734 -202.21801758 289.66040039 C-200.65871755 291.92228313 -200.69490079 293.56472777 -200.71923828 296.29052734 C-200.71150391 297.15677734 -200.70376953 298.02302734 -200.69580078 298.91552734 C-201.18636522 301.83967613 -201.72394486 302.53950159 -204.09423828 304.29052734 C-206.8600769 304.66805077 -206.8600769 304.66805077 -210.28125 304.67147827 C-211.57681824 304.67993774 -212.87238647 304.68839722 -214.20721436 304.69711304 C-215.64611942 304.69127991 -217.08502324 304.68513539 -218.52392578 304.67871094 C-220.03672668 304.68277527 -221.54952461 304.68811636 -223.06231689 304.69464111 C-227.1738536 304.70833714 -231.2851649 304.70300671 -235.39670563 304.69350386 C-239.69546627 304.68591906 -243.99420736 304.69294958 -248.29296875 304.69766235 C-255.51256787 304.70312336 -262.73207499 304.69591928 -269.95166016 304.68164062 C-278.30358948 304.66531342 -286.65529913 304.67060169 -295.00722313 304.68711984 C-302.17247081 304.70072491 -309.33765228 304.70265918 -316.50290871 304.69480383 C-320.78483304 304.69012191 -325.06665404 304.68951666 -329.34857178 304.6994133 C-333.37381038 304.7080665 -337.3987652 304.70209145 -341.42397308 304.68473053 C-342.90303831 304.68075684 -344.38212734 304.68191479 -345.86118317 304.68851852 C-347.87652241 304.69668844 -349.89191372 304.68463735 -351.90722656 304.67147827 C-353.03621368 304.67034719 -354.16520081 304.66921612 -355.32839966 304.66805077 C-358.09423828 304.29052734 -358.09423828 304.29052734 -359.95602417 302.91515541 C-361.53702343 300.65851867 -361.49363785 299.02327939 -361.46923828 296.29052734 C-361.47697266 295.42427734 -361.48470703 294.55802734 -361.49267578 293.66552734 C-361.01004545 290.78867203 -360.36168043 290.07049643 -358.09423828 288.29052734 C-356.06306458 287.92976379 -356.06306458 287.92976379 -353.71459961 287.94995117 C-352.83391312 287.95017776 -351.95322662 287.95040436 -351.04585266 287.95063782 C-350.09889023 287.96612167 -349.1519278 287.98160553 -348.17626953 287.99755859 C-347.2038884 288.00180344 -346.23150726 288.00604828 -345.22966003 288.01042175 C-342.12173862 288.0272242 -339.01446394 288.06487955 -335.90673828 288.10302734 C-333.80062785 288.11807215 -331.69450726 288.1317609 -329.58837891 288.14404297 C-324.4234159 288.17713291 -319.25893677 288.22892625 -314.09423828 288.29052734 C-314.71564697 287.40719727 -315.33705566 286.52386719 -315.97729492 285.61376953 C-316.79898263 284.4384218 -317.62050722 283.26296003 -318.44189453 282.08740234 C-318.85072876 281.50716309 -319.25956299 280.92692383 -319.68078613 280.32910156 C-323.87433451 274.3134702 -326.66568143 268.68687207 -328.19189453 261.52490234 C-328.36342041 260.72793945 -328.53494629 259.93097656 -328.71166992 259.10986328 C-328.83791748 258.50948242 -328.96416504 257.90910156 -329.09423828 257.29052734 C-329.95702393 257.27594482 -330.81980957 257.2613623 -331.70874023 257.24633789 C-334.91273475 257.18524981 -338.11608454 257.11109185 -341.31958008 257.02807617 C-342.70553205 256.99484186 -344.09161889 256.96680509 -345.4777832 256.9440918 C-347.47130671 256.91052118 -349.46445569 256.85664734 -351.45751953 256.80224609 C-352.65675049 256.77606201 -353.85598145 256.74987793 -355.09155273 256.72290039 C-358.42360528 256.2431 -359.0972586 255.87865587 -361.09423828 253.29052734 C-361.47518921 251.35546875 -361.47518921 251.35546875 -361.48242188 249.14208984 C-361.49187836 248.31112793 -361.50133484 247.48016602 -361.51107788 246.62402344 C-361.50500519 245.73021973 -361.4989325 244.83641602 -361.49267578 243.91552734 C-361.49554596 242.99465332 -361.49841614 242.0737793 -361.50137329 241.125 C-361.50341459 239.1782164 -361.49788012 237.23141232 -361.48535156 235.28466797 C-361.46929884 232.30178035 -361.485198 229.32024773 -361.50439453 226.33740234 C-361.50241211 224.44677435 -361.49856846 222.5561472 -361.49267578 220.66552734 C-361.49874847 219.77172363 -361.50482117 218.87791992 -361.51107788 217.95703125 C-361.5016214 217.12606934 -361.49216492 216.29510742 -361.48242188 215.43896484 C-361.4800351 214.7085498 -361.47764832 213.97813477 -361.47518921 213.22558594 C-361.09423828 211.29052734 -361.09423828 211.29052734 -359.98794556 209.54296875 C-357.14593733 207.66334943 -354.76726777 208.00320964 -351.40673828 208.10302734 C-349.6375 208.14363281 -349.6375 208.14363281 -347.83251953 208.18505859 C-346.92888672 208.21986328 -346.02525391 208.25466797 -345.09423828 208.29052734 C-345.10312073 207.30604614 -345.11200317 206.32156494 -345.12115479 205.30725098 C-345.20239875 196.00920499 -345.2622794 186.71123145 -345.30148697 177.41291046 C-345.322322 172.63303278 -345.35056468 167.85344267 -345.39599609 163.07373047 C-345.4396 158.45716035 -345.46340609 153.84086607 -345.47374725 149.22410583 C-345.48111259 147.46670696 -345.49549534 145.70932241 -345.51715851 143.95204163 C-345.54638666 141.48186141 -345.55018632 139.01280702 -345.54833984 136.54248047 C-345.56272095 135.82318359 -345.57710205 135.10388672 -345.59191895 134.36279297 C-345.5417004 128.11472303 -343.43770777 123.00622577 -339.34814453 118.26708984 C-338.51089844 117.59806641 -338.51089844 117.59806641 -337.65673828 116.91552734 C-336.82335937 116.22330078 -336.82335937 116.22330078 -335.97314453 115.51708984 C-330.28498362 111.80382056 -324.99245889 112.01106422 -318.40063477 112.04760742 C-317.32368347 112.04570908 -316.24673218 112.04381073 -315.137146 112.04185486 C-311.57980046 112.03815227 -308.0226594 112.04884384 -304.46533203 112.06005859 C-301.99341353 112.06125076 -299.52149458 112.06170348 -297.04957581 112.06144714 C-291.87050539 112.0630111 -286.69150418 112.07129452 -281.51245117 112.0847168 C-274.86878568 112.1017153 -268.22519619 112.10553081 -261.5815115 112.10477161 C-256.47808607 112.10504333 -251.3746773 112.11052459 -246.2712574 112.11777306 C-243.82119943 112.12095835 -241.37113957 112.12292681 -238.92107964 112.12366676 C-235.50016935 112.12583127 -232.07934017 112.13457779 -228.65844727 112.14526367 C-227.64275162 112.14481049 -226.62705597 112.1443573 -225.58058167 112.14389038 C-224.18221573 112.15028786 -224.18221573 112.15028786 -222.75559998 112.15681458 C-221.54304362 112.15932834 -221.54304362 112.15932834 -220.30599117 112.16189289 C-218.09423828 112.29052734 -218.09423828 112.29052734 -215.96316624 112.87246227 C-212.88964209 113.55998641 -211.18612028 111.89672367 -208.59814453 110.26708984 C-207.49672119 109.58420898 -206.39529785 108.90132813 -205.26049805 108.19775391 C-204.67438751 107.82654419 -204.08827698 107.45533447 -203.48440552 107.07287598 C-200.34867145 105.08720951 -197.18799648 103.14177296 -194.03173828 101.18896484 C-193.05129295 100.57976196 -193.05129295 100.57976196 -192.05104065 99.95825195 C-185.76417853 96.06010367 -179.38925557 92.32149389 -172.99273682 88.60693359 C-163.35135496 83.00691285 -153.78896219 77.30475995 -144.33911133 71.38549805 C-135.60546601 65.93694683 -126.73757238 60.7183976 -117.8706665 55.49078369 C-108.7924163 50.13661606 -99.77321747 44.72337242 -91.01367188 38.85473633 C-82.53536339 33.30932508 -74.22713081 31.1158863 -64.09423828 32.29052734 C-55.29406421 34.49906524 -49.64741908 37.56622365 -44.84423828 45.35302734 C-40.17512376 53.35550455 -39.53662851 63.12781042 -41.81298828 72.13427734 C-44.48480859 78.42598323 -48.62198787 84.58121322 -55.09423828 87.29052734 C-59.02638926 87.9275358 -62.11323214 87.94453144 -65.53173828 85.66552734 C-67.4665496 82.72461414 -68.02233021 80.81402279 -68.09423828 77.29052734 C-66.27130814 73.13829757 -63.31148696 70.42311158 -60.09423828 67.29052734 C-58.36159916 63.8252491 -58.62226088 60.07945706 -59.09423828 56.29052734 C-60.88697426 53.16983879 -62.33683234 51.74087682 -65.40673828 49.91552734 C-71.50687312 48.49689133 -76.10442318 50.54479867 -81.19189453 53.67797852 C-81.96404297 54.16886963 -82.73619141 54.65976074 -83.53173828 55.16552734 C-85.3107512 56.26469834 -87.09077172 57.36223953 -88.87158203 58.45849609 C-89.85497559 59.06741699 -90.83836914 59.67633789 -91.8515625 60.30371094 C-97.37596455 63.6885614 -102.96155108 66.96982747 -108.54016113 70.26428223 C-120.07474528 77.08001707 -131.55531807 83.97881996 -142.99108887 90.9588623 C-152.66081159 96.8571927 -162.41109238 102.60875528 -172.19921875 108.30813599 C-180.12903857 112.92648151 -188.00501772 117.60812389 -195.70654297 122.60083008 C-199.89303736 125.29052734 -199.89303736 125.29052734 -202.09423828 125.29052734 C-201.78486328 126.42490234 -201.47548828 127.55927734 -201.15673828 128.72802734 C-199.48167956 136.11729348 -199.42336354 143.74663005 -199.09423828 151.29052734 C-178.47948858 139.2508656 -178.47948858 139.2508656 -157.97485352 127.02514648 C-152.8713347 123.95150066 -147.75675761 120.89718637 -142.63330078 117.85693359 C-141.63569481 117.26477806 -141.63569481 117.26477806 -140.61793518 116.66065979 C-137.16899961 114.61423156 -133.71826951 112.5709072 -130.26489258 110.53198242 C-123.72213479 106.66440217 -117.20848096 102.76248869 -110.76220703 98.73583984 C-109.62078265 98.02879791 -108.4791061 97.32216288 -107.3371582 96.6159668 C-105.23565634 95.31152632 -103.14271318 93.99315389 -101.06030273 92.65844727 C-95.44747647 89.19197117 -91.73112208 87.2890156 -85.09423828 88.29052734 C-81.84437907 90.9716612 -81.19848814 92.64186153 -80.53173828 96.79052734 C-81.25193733 101.27176587 -82.7255555 102.31740199 -86.09423828 105.29052734 C-88.21831408 106.70759442 -90.39158033 108.05254768 -92.59814453 109.33740234 C-93.224785 109.70557068 -93.85142548 110.07373901 -94.49705505 110.45306396 C-95.84400251 111.24341857 -97.19295015 112.03037257 -98.54370117 112.81420898 C-101.4343357 114.49181236 -104.31510596 116.18602569 -107.19638062 117.87963867 C-108.67722047 118.75005583 -110.15852669 119.61968003 -111.64028931 120.48852539 C-118.50316276 124.51655023 -125.30373205 128.64203086 -132.09423828 132.79052734 C-142.87109929 139.36340682 -153.70918748 145.82717793 -164.57672119 152.24893188 C-174.16162377 157.9146055 -183.67870022 163.66814681 -193.08032227 169.63525391 C-193.85577393 170.12348633 -194.63122559 170.61171875 -195.43017578 171.11474609 C-196.42863525 171.75029419 -196.42863525 171.75029419 -197.44726562 172.39868164 C-199.09423828 173.29052734 -199.09423828 173.29052734 -201.09423828 173.29052734 C-201.09423828 184.84052734 -201.09423828 196.39052734 -201.09423828 208.29052734 C-191.73000139 208.13250704 -191.73000139 208.13250704 -182.36669922 207.93017578 C-181.19913086 207.92018555 -180.0315625 207.91019531 -178.82861328 207.89990234 C-177.63461914 207.87895508 -176.440625 207.85800781 -175.21044922 207.83642578 C-171.48945272 208.37865811 -170.35248227 209.34838149 -168.09423828 212.29052734 C-167.56298828 214.29052734 -167.56298828 214.29052734 -167.59423828 216.29052734 C-167.57876953 217.28052734 -167.57876953 217.28052734 -167.56298828 218.29052734 C-168.39948031 221.43967382 -169.41350464 222.36335039 -172.09423828 224.29052734 C-175.78778536 224.92622326 -179.4627916 224.89552996 -183.20361328 224.89990234 C-184.28555969 224.9164386 -185.3675061 224.93297485 -186.48223877 224.95001221 C-189.93629586 224.99857836 -193.38991239 225.01988301 -196.84423828 225.04052734 C-199.18670847 225.0686797 -201.52915805 225.09860608 -203.87158203 225.13037109 C-209.61238724 225.20433958 -215.35306811 225.25593162 -221.09423828 225.29052734 C-220.88927734 225.88220703 -220.68431641 226.47388672 -220.47314453 227.08349609 C-220.20373047 227.87369141 -219.93431641 228.66388672 -219.65673828 229.47802734 C-219.38990234 230.25533203 -219.12306641 231.03263672 -218.84814453 231.83349609 C-218.09910405 234.27466948 -217.59502186 236.78660943 -217.09423828 239.29052734 C-148.45423828 239.29052734 -79.81423828 239.29052734 -9.09423828 239.29052734 C-7.60923828 233.35052734 -7.60923828 233.35052734 -6.09423828 227.29052734 C-5.76423828 226.63052734 -5.43423828 225.97052734 -5.09423828 225.29052734 C-6.1941831 225.28971019 -6.1941831 225.28971019 -7.31634903 225.28887653 C-25.15158065 225.27391519 -42.98655292 225.23149471 -60.82164383 225.15843678 C-69.4465544 225.12377008 -78.07130487 225.09842907 -86.69628906 225.0949707 C-94.21304832 225.09193312 -101.72952257 225.07147073 -109.24617171 225.03000277 C-113.22699737 225.00865198 -117.20741763 224.99608261 -121.18830109 225.00437355 C-124.93465878 225.01190088 -128.68019421 224.99614626 -132.42640114 224.96246719 C-133.80182026 224.95421776 -135.17732091 224.95450313 -136.55273247 224.96393013 C-138.42994946 224.97552351 -140.30728454 224.95350469 -142.18438721 224.92976379 C-143.23523121 224.92699841 -144.28607521 224.92423304 -145.36876297 224.92138386 C-149.0723843 224.06411921 -150.10994747 222.45170084 -152.09423828 219.29052734 C-152.69185149 215.70484807 -152.39143181 213.89812541 -150.79705811 210.63850403 C-146.45691373 206.86816103 -141.90992811 207.63488602 -136.34912109 207.72290039 C-134.54871117 207.72180519 -134.54871117 207.72180519 -132.71192932 207.72068787 C-129.42465489 207.7235735 -126.13844622 207.74863791 -122.85138416 207.78355765 C-119.41478423 207.81482544 -115.9781631 207.81775218 -112.54144287 207.82368469 C-106.03546109 207.83922206 -99.52989965 207.8802485 -93.02410293 207.93043214 C-85.6167136 207.9863294 -78.20930413 208.01381297 -70.80175638 208.03890932 C-55.56567361 208.09116492 -40.33001016 208.17910447 -25.09423828 208.29052734 C-25.09884725 207.32053614 -25.10345621 206.35054493 -25.10820484 205.35116005 C-25.21928567 181.73079001 -25.3014064 158.11045392 -25.35329914 134.4898777 C-25.37906221 123.0670505 -25.41417664 111.64439602 -25.47143555 100.22167969 C-25.52132839 90.26367652 -25.55354308 80.30579847 -25.56468076 70.34767377 C-25.5711895 65.07664268 -25.58644764 59.80596946 -25.62288857 54.53505325 C-25.65694081 49.56919561 -25.66727257 44.60384173 -25.65977669 39.63787842 C-25.66114711 37.81986118 -25.67102442 36.0018263 -25.69026566 34.18391037 C-25.87624836 15.69842711 -25.87624836 15.69842711 -20.09423828 8.29052734 C-13.97070181 2.55242097 -8.46192711 0.05150295 0 0 Z M-6.09423828 19.29052734 C-8.98566875 24.65132919 -9.5181647 28.9598407 -9.43481445 34.97973633 C-9.43525253 35.81956558 -9.43569061 36.65939484 -9.43614197 37.52467346 C-9.43406504 40.278899 -9.41078621 43.03250292 -9.38720703 45.78662109 C-9.38160717 47.70475431 -9.37733892 49.62289183 -9.37434387 51.54103088 C-9.36292582 56.57331323 -9.33348488 61.60533309 -9.30023193 66.63751221 C-9.2694654 71.77897593 -9.25582449 76.92048234 -9.24072266 82.06201172 C-9.2086122 92.1382985 -9.15745274 102.21439104 -9.09423828 112.29052734 C-8.18635056 112.29639359 -7.27846283 112.30225983 -6.34306335 112.30830383 C2.206257 112.36616912 10.75531438 112.43821014 19.30437946 112.52624226 C23.69972723 112.57100052 28.09498113 112.6102444 32.49047852 112.63696289 C36.73112772 112.66294174 40.97141677 112.70330511 45.21184349 112.75371361 C46.83093988 112.77041915 48.4500986 112.78191042 50.06926918 112.78814125 C52.33456954 112.79774265 54.59894086 112.8257522 56.86401367 112.8581543 C58.154189 112.86925735 59.44436432 112.88036041 60.77363586 112.89179993 C63.90576172 113.29052734 63.90576172 113.29052734 65.82096863 114.69645691 C67.17446461 116.68537807 67.30796019 117.89706225 67.28076172 120.29052734 C67.29236328 121.31146484 67.29236328 121.31146484 67.30419922 122.35302734 C66.7635714 124.98196263 66.0774877 125.69629032 63.90576172 127.29052734 C60.77363586 127.68925476 60.77363586 127.68925476 56.86401367 127.72290039 C56.14006251 127.73317418 55.41611135 127.74344797 54.67022228 127.75403309 C52.32807748 127.78390973 49.98635197 127.79346078 47.64404297 127.80224609 C46.1975355 127.81771053 44.75104164 127.83450709 43.30456543 127.85266113 C37.94261441 127.9106029 32.58040973 127.9427478 27.21826172 127.97802734 C15.23513672 128.08115234 3.25201172 128.18427734 -9.09423828 128.29052734 C-9.09423828 154.69052734 -9.09423828 181.09052734 -9.09423828 208.29052734 C5.97528218 208.81166757 5.97528218 208.81166757 16.79638672 201.62255859 C28.65071038 192.73181585 42.68674629 192.22869024 56.90576172 193.29052734 C65.05122356 194.7968238 74.43455074 197.88499829 80.48461914 203.84619141 C85.42104561 208.58340954 90.27705593 208.90432019 96.81767273 208.86300659 C99.01472892 208.81722846 101.20958687 208.74217172 103.40576172 208.66552734 C104.91091662 208.63538535 106.41612975 208.608017 107.92138672 208.58349609 C111.58547466 208.52296601 115.24137693 208.40557198 118.90576172 208.29052734 C118.90576172 203.01052734 118.90576172 197.73052734 118.90576172 192.29052734 C115.58544922 192.09521484 112.26513672 191.89990234 108.94482422 191.70458984 C105.90576172 191.29052734 105.90576172 191.29052734 103.90576172 189.29052734 C103.64013672 186.97802734 103.64013672 186.97802734 103.65576172 184.29052734 C103.64802734 182.96021484 103.64802734 182.96021484 103.64013672 181.60302734 C103.90576172 179.29052734 103.90576172 179.29052734 105.90576172 177.29052734 C108.94482422 176.87646484 108.94482422 176.87646484 112.53076172 176.66552734 C114.63451172 176.54177734 116.73826172 176.41802734 118.90576172 176.29052734 C118.90576172 171.01052734 118.90576172 165.73052734 118.90576172 160.29052734 C115.58544922 160.09521484 112.26513672 159.89990234 108.94482422 159.70458984 C105.90576172 159.29052734 105.90576172 159.29052734 103.90576172 157.29052734 C103.64013672 154.97802734 103.64013672 154.97802734 103.65576172 152.29052734 C103.64802734 150.96021484 103.64802734 150.96021484 103.64013672 149.60302734 C103.90576172 147.29052734 103.90576172 147.29052734 105.90576172 145.29052734 C108.94482422 144.87646484 108.94482422 144.87646484 112.53076172 144.66552734 C114.63451172 144.54177734 116.73826172 144.41802734 118.90576172 144.29052734 C118.90576172 139.01052734 118.90576172 133.73052734 118.90576172 128.29052734 C115.80041016 128.21705078 115.80041016 128.21705078 112.63232422 128.14208984 C110.63002613 128.08647045 108.62772926 128.03078337 106.62548828 127.97314453 C105.232676 127.93483408 103.83976407 127.89998475 102.44677734 127.86865234 C100.44589864 127.82304827 98.44534026 127.76401111 96.44482422 127.70458984 C94.63812256 127.6574585 94.63812256 127.6574585 92.79492188 127.609375 C89.90576172 127.29052734 89.90576172 127.29052734 87.90576172 125.29052734 C87.64013672 122.97802734 87.64013672 122.97802734 87.65576172 120.29052734 C87.64802734 118.96021484 87.64802734 118.96021484 87.64013672 117.60302734 C87.90576172 115.29052734 87.90576172 115.29052734 89.90576172 113.29052734 C92.3359375 112.97167969 92.3359375 112.97167969 95.35107422 112.87646484 C96.42744141 112.83779297 97.50380859 112.79912109 98.61279297 112.75927734 C99.74072266 112.72833984 100.86865234 112.69740234 102.03076172 112.66552734 C103.16642578 112.62685547 104.30208984 112.58818359 105.47216797 112.54833984 C108.28320128 112.45385133 111.09422404 112.36829193 113.90576172 112.29052734 C111.63163446 105.10471553 108.86560997 98.22747096 105.89794922 91.30224609 C105.41303009 90.16382767 104.92811096 89.02540924 104.42849731 87.85249329 C103.4030702 85.44724946 102.37592656 83.0427368 101.34716797 80.63891602 C99.80261996 77.02911281 98.26388771 73.41687571 96.72607422 69.80419922 C94.26450089 64.02909174 91.78473175 58.26209461 89.29187012 52.50042725 C88.39220192 50.41700805 87.49653495 48.33185476 86.60559082 46.24468994 C85.42860886 43.49025504 84.23599689 40.74315645 83.03857422 37.99755859 C82.53872513 36.814524 82.53872513 36.814524 82.02877808 35.60758972 C78.97298078 28.68931118 74.93963017 22.68447262 67.90576172 19.41552734 C67.10138672 19.02623047 66.29701172 18.63693359 65.46826172 18.23583984 C60.80114943 16.51413074 56.13788751 16.16453582 51.19506836 16.12939453 C49.54789574 16.11498322 49.54789574 16.11498322 47.8674469 16.10028076 C46.69544235 16.09603088 45.52343781 16.09178101 44.31591797 16.08740234 C43.09803085 16.08170227 41.88014374 16.0760022 40.62535095 16.07012939 C38.05419783 16.06070051 35.48303274 16.05415382 32.91186523 16.05029297 C28.98578848 16.04057075 25.06023175 16.00951961 21.13427734 15.97802734 C18.63232732 15.97149831 16.13037356 15.96624745 13.62841797 15.96240234 C12.45843765 15.95005554 11.28845734 15.93770874 10.08302307 15.92498779 C1.53420451 15.90952151 1.53420451 15.90952151 -6.09423828 19.29052734 Z M-327.09423828 131.29052734 C-329.66395811 134.73506213 -329.33570994 138.26374687 -329.32128906 142.44580078 C-329.32158112 143.15839554 -329.32187317 143.8709903 -329.32217407 144.60517883 C-329.32078405 146.95354515 -329.3052385 149.30159165 -329.28955078 151.64990234 C-329.28581948 153.28086168 -329.28297306 154.91182326 -329.28097534 156.54278564 C-329.27334808 160.83032446 -329.25370741 165.11772724 -329.23156738 169.4052124 C-329.2110894 173.78232992 -329.20196945 178.15946946 -329.19189453 182.53662109 C-329.17046063 191.12131885 -329.13633567 199.70590617 -329.09423828 208.29052734 C-326.50263314 208.35975438 -323.91288212 208.41055373 -321.32080078 208.45068359 C-320.58804932 208.47215454 -319.85529785 208.49362549 -319.1003418 208.51574707 C-316.0053155 208.55173575 -313.6282235 208.57458811 -310.86010742 207.10205078 C-309.87218763 206.12609632 -308.91789266 205.11558274 -307.98876953 204.08349609 C-305.37272515 201.60769326 -302.35495213 200.12287653 -299.15673828 198.54052734 C-298.01333984 197.96818359 -296.86994141 197.39583984 -295.69189453 196.80615234 C-283.09937362 191.50115982 -266.47696843 190.86954501 -253.73486328 196.02099609 C-241.5197617 201.89364109 -241.5197617 201.89364109 -237.45703125 205.87475586 C-233.71987882 209.01999594 -230.42846514 208.87979022 -225.71923828 208.60302734 C-224.98318359 208.58046875 -224.24712891 208.55791016 -223.48876953 208.53466797 C-221.68969986 208.47625662 -219.89169075 208.38659072 -218.09423828 208.29052734 C-218.0479041 198.71122469 -218.01236357 189.1319606 -217.99061394 179.55257034 C-217.98017538 175.10450534 -217.96601483 170.65651698 -217.94335938 166.20849609 C-217.92163361 161.916158 -217.9096702 157.62389365 -217.9044838 153.33150482 C-217.90078756 151.69364003 -217.89356979 150.05577928 -217.88277817 148.41794586 C-217.86826673 146.12440763 -217.86626018 143.83117439 -217.8671875 141.53759766 C-217.86274628 140.23187805 -217.85830505 138.92615845 -217.85372925 137.58087158 C-218.13228844 133.60097644 -218.13228844 133.60097644 -220.09423828 130.29052734 C-224.5438152 127.59882648 -229.45053467 128.00170991 -234.48681641 128.01586914 C-235.42561142 128.01075821 -236.36440643 128.00564728 -237.33164978 128.00038147 C-240.42966109 127.98650031 -243.52744961 127.98744093 -246.62548828 127.98974609 C-248.78112877 127.98585881 -250.9367685 127.98152407 -253.09240723 127.97676086 C-257.60817957 127.96930216 -262.12387373 127.96958775 -266.63964844 127.97485352 C-272.42687433 127.98065244 -278.21378063 127.96370507 -284.00095367 127.94050884 C-288.45161816 127.92578015 -292.90220548 127.92489855 -297.35289001 127.92801857 C-299.48673639 127.92750508 -301.62058705 127.9222622 -303.75440979 127.91220665 C-306.73703834 127.89987438 -309.71904167 127.90661447 -312.70166016 127.91821289 C-313.58285019 127.91056915 -314.46404022 127.90292542 -315.37193298 127.89505005 C-320.06475516 127.93539829 -323.35816101 128.12501587 -327.09423828 131.29052734 Z M-304.09423828 223.29052734 C-311.87753112 234.01273988 -313.44803815 244.34589623 -312.09423828 257.29052734 C-309.79523118 267.26777177 -303.72824437 275.20078196 -295.50048828 281.17333984 C-284.69068746 287.91318554 -273.01031542 289.34501492 -260.60205078 286.48583984 C-249.40353554 282.26821722 -241.1565035 274.04784094 -236.09423828 263.29052734 C-232.33957513 254.10524414 -232.5525107 242.02847644 -236.03173828 232.79052734 C-241.34752581 222.00963241 -249.82186309 214.67202159 -260.85595703 210.16162109 C-277.30873323 205.73584414 -292.84228351 210.63708355 -304.09423828 223.29052734 Z M15.90576172 223.29052734 C8.12246888 234.01273988 6.55196185 244.34589623 7.90576172 257.29052734 C10.20476882 267.26777177 16.27175563 275.20078196 24.49951172 281.17333984 C35.30931254 287.91318554 46.98968458 289.34501492 59.39794922 286.48583984 C70.59646446 282.26821722 78.8434965 274.04784094 83.90576172 263.29052734 C87.66042487 254.10524414 87.4474893 242.02847644 83.96826172 232.79052734 C78.65247419 222.00963241 70.17813691 214.67202159 59.14404297 210.16162109 C42.69126677 205.73584414 27.15771649 210.63708355 15.90576172 223.29052734 Z M-345.09423828 224.29052734 C-345.09423828 229.57052734 -345.09423828 234.85052734 -345.09423828 240.29052734 C-339.81423828 240.29052734 -334.53423828 240.29052734 -329.09423828 240.29052734 C-327.32725718 234.98958403 -325.69984771 229.64255879 -324.09423828 224.29052734 C-331.02423828 224.29052734 -337.95423828 224.29052734 -345.09423828 224.29052734 Z M97.90576172 224.29052734 C98.54513672 226.74490234 99.18451172 229.19927734 99.84326172 231.72802734 C100.04298584 232.50202881 100.24270996 233.27603027 100.44848633 234.07348633 C101.12686868 237.46013241 101.12686868 237.46013241 102.90576172 240.29052734 C105.60445222 240.3637817 108.27078728 240.38275086 110.96826172 240.35302734 C114.89732422 240.32208984 114.89732422 240.32208984 118.90576172 240.29052734 C118.90576172 235.01052734 118.90576172 229.73052734 118.90576172 224.29052734 C111.97576172 224.29052734 105.04576172 224.29052734 97.90576172 224.29052734 Z " fill="#000000" transform="translate(369.09423828125,159.70947265625)"/>
<path d="M0 0 C0.76313004 -0.00524185 1.52626007 -0.0104837 2.31251526 -0.0158844 C3.92553491 -0.02230379 5.53860139 -0.02096861 7.15161133 -0.01245117 C9.61689885 -0.00394767 12.07986374 -0.03268882 14.54492188 -0.06445312 C16.11328056 -0.06606546 17.68164333 -0.06548699 19.25 -0.0625 C19.98552597 -0.07373398 20.72105194 -0.08496796 21.47886658 -0.09654236 C24.97827535 -0.04901691 26.84963608 0.16912753 29.65454102 2.33959961 C31.32088969 4.61001622 31.73486983 5.65192435 31.69140625 8.43359375 C31.70171875 9.09359375 31.71203125 9.75359375 31.72265625 10.43359375 C30.8722491 13.63512654 29.99309924 14.58218259 27.19140625 16.43359375 C23.43064514 16.92826903 19.72603891 16.80846742 15.94140625 16.68359375 C14.91015625 16.66554688 13.87890625 16.6475 12.81640625 16.62890625 C10.27434175 16.58183098 7.73275558 16.51008921 5.19140625 16.43359375 C5.19140625 21.71359375 5.19140625 26.99359375 5.19140625 32.43359375 C42.15140625 32.43359375 79.11140625 32.43359375 117.19140625 32.43359375 C117.19140625 27.15359375 117.19140625 21.87359375 117.19140625 16.43359375 C115.11690186 16.4493042 113.04239746 16.46501465 110.9050293 16.48120117 C104.05586436 16.53087922 97.20669152 16.56403554 90.35739422 16.58903027 C86.20406768 16.60469564 82.0509255 16.62594957 77.89770508 16.65991211 C73.8906504 16.69247485 69.88377321 16.7104402 65.87659645 16.71822548 C64.3467409 16.72377457 62.81689522 16.73461051 61.2871151 16.75078392 C59.1465177 16.7725179 57.00665652 16.77556247 54.8659668 16.77416992 C53.64685104 16.78083176 52.42773529 16.78749359 51.17167664 16.7943573 C48.19140625 16.43359375 48.19140625 16.43359375 46.29914856 15.06074524 C44.75972414 12.79950026 44.79216828 11.14824609 44.81640625 8.43359375 C44.80480469 7.13421875 44.80480469 7.13421875 44.79296875 5.80859375 C45.19140625 3.43359375 45.19140625 3.43359375 46.22753906 1.80941772 C49.2656138 -0.31896249 52.43416585 0.01649163 56.01171875 0.04541016 C56.80713074 0.0401532 57.60254272 0.03489624 58.42205811 0.02947998 C61.05370671 0.01626628 63.6847514 0.02502272 66.31640625 0.03515625 C68.14339311 0.0331359 69.97037919 0.0302248 71.79736328 0.02645874 C75.62735671 0.02203354 79.45714032 0.02847273 83.28710938 0.04248047 C88.2002533 0.0595725 93.11290561 0.04973236 98.02603149 0.03176308 C101.79894729 0.02093052 105.57174624 0.02436914 109.34466553 0.03214645 C111.156393 0.03414993 112.96813104 0.03168404 114.77984619 0.02470779 C117.31054855 0.01710194 119.84045108 0.02868488 122.37109375 0.04541016 C123.49798615 0.03630112 123.49798615 0.03630112 124.64764404 0.02700806 C127.43244844 0.06116247 129.67197815 0.1579735 132.15888977 1.47758484 C133.79380281 4.57477945 133.58194642 7.70259352 133.53198242 11.11791992 C133.5324205 11.89864365 133.53285858 12.67936737 133.53330994 13.48374939 C133.53121949 16.06494128 133.50787685 18.64548405 133.484375 21.2265625 C133.47877994 23.01589096 133.47450942 24.80522402 133.47151184 26.59455872 C133.46005593 31.30468427 133.43058236 36.01453241 133.3973999 40.72454834 C133.36671508 45.53052009 133.3530099 50.33653666 133.33789062 55.14257812 C133.30571335 64.57303857 133.254508 74.00329309 133.19140625 83.43359375 C134.11058334 83.72974075 135.02976044 84.02588776 135.97679138 84.33100891 C139.63930198 85.58721808 142.99234378 87.25093109 146.4140625 89.0390625 C147.44808952 89.5727948 147.44808952 89.5727948 148.50300598 90.11730957 C150.75543597 91.28117277 153.00465954 92.45109226 155.25390625 93.62109375 C156.83263985 94.43830345 158.41158129 95.25511174 159.99072266 96.0715332 C163.19735108 97.7302333 166.40271409 99.39133877 169.60693359 101.0546875 C174.31834462 103.50032418 179.03376268 105.93814622 183.75035095 108.3737793 C186.68780237 109.89094018 189.62396985 111.41049822 192.55834961 112.93359375 C198.11654934 115.81818479 203.68055631 118.68815759 209.26864624 121.514328 C211.96987288 122.88140126 214.66746086 124.25556912 217.36480713 125.63027954 C218.65251845 126.28404222 219.94200098 126.93432933 221.2333374 127.5809021 C223.01807929 128.47479581 224.79631036 129.38165337 226.57421875 130.2890625 C228.09619873 131.05706177 228.09619873 131.05706177 229.64892578 131.84057617 C232.27620212 133.48672348 233.6404659 134.76725109 235.19140625 137.43359375 C235.68215162 141.35955669 235.82848364 143.50248065 233.56640625 146.80859375 C230.53113433 148.88535875 228.89279165 149.28041328 225.19140625 149.43359375 C221.97983493 148.39866137 219.05704551 146.87182047 216.06494141 145.32446289 C215.16673676 144.87594467 214.2685321 144.42742645 213.34310913 143.96531677 C210.38105622 142.48150733 207.4309783 140.97536445 204.48046875 139.46875 C202.42708285 138.43459547 200.3729851 137.40185327 198.31820679 136.37046814 C192.91551064 133.65385741 187.52270021 130.91816416 182.13171387 128.17840576 C176.62749735 125.38535889 171.11416221 122.6104378 165.6015625 119.83398438 C154.78914781 114.38489488 143.98799932 108.91396485 133.19140625 103.43359375 C133.19140625 110.03359375 133.19140625 116.63359375 133.19140625 123.43359375 C136.16140625 124.42359375 136.16140625 124.42359375 139.19140625 125.43359375 C140.60994215 126.07468341 142.01388266 126.74943986 143.39819336 127.46142578 C144.17017563 127.85588898 144.9421579 128.25035217 145.73753357 128.6567688 C146.55633499 129.08069916 147.37513641 129.50462952 148.21875 129.94140625 C149.08472305 130.38571991 149.95069611 130.83003357 150.84291077 131.28781128 C152.67534656 132.22895338 154.50674169 133.17212412 156.3371582 134.1171875 C159.08657368 135.53673704 161.83884733 136.95059972 164.59179688 138.36328125 C168.9836766 140.61932031 173.36763175 142.89023469 177.74822998 145.16809082 C180.07623533 146.37393816 182.41062365 147.5664888 184.74658203 148.75683594 C186.1047405 149.45850395 187.46266675 150.1606217 188.8203125 150.86328125 C190.57130249 151.76022705 190.57130249 151.76022705 192.35766602 152.67529297 C195.13625862 154.39937533 196.59361701 155.60973878 198.19140625 158.43359375 C198.67645636 162.31399464 198.75992243 164.50975495 196.69140625 167.87109375 C193.12908641 170.09754365 190.22165511 170.14948775 186.19140625 169.43359375 C182.24098999 167.89435749 178.50729388 166.00565835 174.75702858 164.03234673 C172.8679899 163.0386714 170.96952926 162.06559155 169.06755066 161.09693909 C165.03698529 159.03957439 161.01997643 156.95657554 157.00390625 154.87109375 C152.33693476 152.450091 147.66483128 150.03992121 142.98084068 147.65199471 C141.11286722 146.6935056 139.25435541 145.71822324 137.39570618 144.74180603 C136.26070175 144.16112869 135.12569733 143.58045135 133.95629883 142.98217773 C132.46360222 142.20607399 132.46360222 142.20607399 130.94075012 141.41429138 C127.80162847 140.29455907 126.32379325 140.4026408 123.19140625 141.43359375 C122.34578125 141.94921875 121.50015625 142.46484375 120.62890625 142.99609375 C115.63686064 145.08367646 110.53689311 145.22037537 105.19140625 144.43359375 C102.43938663 142.43644777 102.20063031 141.46917228 101.31640625 138.05859375 C101.19140625 134.43359375 101.19140625 134.43359375 102.00390625 131.74609375 C104.90129065 128.68314453 107.92892097 127.83828823 111.9140625 126.62109375 C114.34676931 125.6268884 114.34676931 125.6268884 115.31381226 123.30793762 C116.36968211 119.84969489 116.47224224 116.87403496 116.51025391 113.2565918 C116.52040716 112.54231175 116.53056042 111.82803171 116.54102135 111.09210682 C116.57151656 108.79318014 116.58877284 106.49437639 116.60546875 104.1953125 C116.62241452 102.77070057 116.64023241 101.34609873 116.65893555 99.92150879 C116.72198597 94.65481961 116.76818406 89.38793957 116.81640625 84.12109375 C116.94015625 72.34421875 117.06390625 60.56734375 117.19140625 48.43359375 C80.23140625 48.43359375 43.27140625 48.43359375 5.19140625 48.43359375 C5.29453125 60.37546875 5.39765625 72.31734375 5.50390625 84.62109375 C5.52880127 88.38668701 5.55369629 92.15228027 5.5793457 96.03198242 C5.61592594 99.41821287 5.61592594 99.41821287 5.65641785 102.80439758 C5.67252859 104.3082963 5.68284319 105.81226411 5.68852234 107.3162384 C5.69828369 109.59946426 5.72664527 111.88179256 5.7590332 114.16479492 C5.77013626 115.45052902 5.78123932 116.73626312 5.79267883 118.06095886 C6.21991241 121.67471304 6.95088614 123.58894998 9.19140625 126.43359375 C12.62319951 127.57752484 15.28994621 127.5721564 18.91015625 127.59130859 C19.92770996 127.59892967 19.92770996 127.59892967 20.96582031 127.60670471 C22.43740554 127.61739623 23.9090069 127.62602118 25.38061523 127.63282394 C27.70890794 127.64461992 30.03701575 127.66407277 32.36523438 127.6859436 C38.98431269 127.74754828 45.60337013 127.80166505 52.22265625 127.83496094 C56.27223223 127.85587927 60.32146783 127.8911547 64.37084961 127.93571854 C65.91459148 127.94989674 67.45839354 127.95860508 69.00219727 127.96177292 C71.15938081 127.96666943 73.31565652 127.98979112 75.47265625 128.01708984 C77.3144043 128.02922012 77.3144043 128.02922012 79.19335938 128.04159546 C82.19140625 128.43359375 82.19140625 128.43359375 84.08642578 129.81118774 C85.62441021 132.06935903 85.59061262 133.72248017 85.56640625 136.43359375 C85.57800781 137.73296875 85.57800781 137.73296875 85.58984375 139.05859375 C85.09352324 142.01705327 84.62756122 142.6958986 82.19140625 144.43359375 C79.68219633 144.7347473 77.41961858 144.85386692 74.90942383 144.83764648 C74.17081116 144.84450974 73.43219849 144.85137299 72.67120361 144.85844421 C70.22591996 144.87676463 67.78127518 144.87286531 65.3359375 144.8671875 C63.63302909 144.87174893 61.93012252 144.87705438 60.22721863 144.8830719 C56.65360045 144.89201485 53.08020554 144.88956899 49.5065918 144.87963867 C44.94132817 144.86818548 40.37684224 144.88829778 35.81168079 144.91755581 C32.29161221 144.93596947 28.77172785 144.93561446 25.25162315 144.92991829 C23.56961672 144.9297655 21.88759745 144.93577464 20.20563698 144.94820976 C2.55296396 145.06026614 2.55296396 145.06026614 -4.83203125 138.6875 C-5.27804688 138.12933594 -5.7240625 137.57117188 -6.18359375 136.99609375 C-6.64507813 136.44050781 -7.1065625 135.88492188 -7.58203125 135.3125 C-10.17038966 131.34753059 -11.05871771 127.81053468 -11.06929016 123.10702515 C-11.07637497 122.05271805 -11.08345978 120.99841095 -11.09075928 119.91215515 C-11.08828186 118.76600235 -11.08580444 117.61984955 -11.08325195 116.43896484 C-11.08836288 115.22385727 -11.09347382 114.00874969 -11.09873962 112.75682068 C-11.11024466 109.4325588 -11.1127117 106.10854652 -11.11017632 102.78428221 C-11.10910541 100.00819315 -11.11399271 97.23212702 -11.11878175 94.45604289 C-11.12986609 87.9091543 -11.13031946 81.36232311 -11.12426758 74.81542969 C-11.11821881 68.05963717 -11.13056398 61.30405245 -11.15183765 54.54829538 C-11.16943734 48.74605906 -11.17545786 42.943889 -11.1721999 37.14162695 C-11.17038532 33.67684309 -11.17304112 30.21220768 -11.18691444 26.74744797 C-11.20179126 22.88802627 -11.19253702 19.02887099 -11.1809082 15.16943359 C-11.18855194 14.01923233 -11.19619568 12.86903107 -11.20407104 11.68397522 C-11.19705673 10.63530777 -11.19004242 9.58664032 -11.18281555 8.50619507 C-11.18298329 7.59366156 -11.18315104 6.68112804 -11.18332386 5.740942 C-10.80859375 3.43359375 -10.80859375 3.43359375 -9.50332928 1.64180946 C-6.65112485 -0.3915923 -3.37669933 -0.01344013 0 0 Z " fill="#000000" transform="translate(34.80859375,47.56640625)"/>
<path d="M0 0 C1.16094177 -0.00845947 2.32188354 -0.01691895 3.51800537 -0.02563477 C5.4303598 -0.01652573 5.4303598 -0.01652573 7.38134766 -0.00723267 C8.73651554 -0.01129741 10.09168011 -0.01663875 11.44683838 -0.02316284 C15.12864538 -0.03685399 18.81020055 -0.03153052 22.49201202 -0.02202559 C26.34233791 -0.01443824 30.19264203 -0.02147202 34.04296875 -0.02618408 C40.50931679 -0.03164435 46.97556209 -0.02444297 53.44189453 -0.01016235 C60.92132742 0.00616474 68.400515 0.00087642 75.87994194 -0.01564157 C82.29785197 -0.02924877 88.71568808 -0.03117987 95.13360786 -0.02332556 C98.96840563 -0.0186448 102.80308803 -0.01803517 106.63787842 -0.02793503 C110.24289197 -0.03659136 113.84758878 -0.03060759 117.45256805 -0.01325226 C119.40931257 -0.00738312 121.36608382 -0.01631435 123.32281494 -0.02563477 C124.48375671 -0.01717529 125.64469849 -0.00871582 126.84082031 0 C128.35731674 0.00169662 128.35731674 0.00169662 129.90444946 0.00342751 C132.42041016 0.38095093 132.42041016 0.38095093 134.24423218 1.75632286 C135.8753231 4.00931189 135.820025 5.62408817 135.79541016 8.38095093 C135.80314453 9.24720093 135.81087891 10.11345093 135.81884766 11.00595093 C135.33115387 13.91298842 134.75490692 14.6204714 132.42041016 16.38095093 C129.90444946 16.75847435 129.90444946 16.75847435 126.84082031 16.76190186 C125.67987854 16.77036133 124.51893677 16.7788208 123.32281494 16.78753662 C122.04791199 16.78146393 120.77300903 16.77539124 119.45947266 16.76913452 C118.10430477 16.77319927 116.74914021 16.7785406 115.39398193 16.7850647 C111.71217493 16.79875584 108.03061977 16.79343237 104.34880829 16.78392744 C100.4984824 16.77634009 96.64817829 16.78337387 92.79785156 16.78808594 C86.33150352 16.7935462 79.86525823 16.78634482 73.39892578 16.77206421 C65.91949289 16.75573711 58.44030532 16.76102544 50.96087837 16.77754343 C44.54296835 16.79115063 38.12513224 16.79308173 31.70721245 16.78522742 C27.87241468 16.78054666 24.03773228 16.77993702 20.20294189 16.78983688 C16.59792834 16.79849321 12.99323154 16.79250945 9.38825226 16.77515411 C7.43150774 16.76928497 5.47473649 16.7782162 3.51800537 16.78753662 C2.3570636 16.77907715 1.19612183 16.77061768 0 16.76190186 C-1.51649643 16.76020524 -1.51649643 16.76020524 -3.06362915 16.75847435 C-5.57958984 16.38095093 -5.57958984 16.38095093 -7.40341187 15.00557899 C-9.03450278 12.75258996 -8.97920469 11.13781368 -8.95458984 8.38095093 C-8.96232422 7.51470093 -8.97005859 6.64845093 -8.97802734 5.75595093 C-8.09060777 0.46623428 -4.85742869 0.00543436 0 0 Z " fill="#000000" transform="translate(192.57958984375,447.6190490722656)"/>
<path d="M0 0 C7.14546651 2.06291711 11.1427698 5.60811078 14.94140625 11.9140625 C18.29941562 18.5309518 18.12525652 26.87771879 16.19921875 33.93359375 C13.35689215 40.35080534 9.19994388 43.85358653 3 47 C-4.10539783 49.36846594 -12.64665643 49.09799921 -19.5 46.0625 C-25.39945599 42.67055578 -28.87536233 37.37391301 -31 31 C-31.1441942 29.00346488 -31.2205659 27.00151894 -31.25 25 C-31.27578125 23.948125 -31.3015625 22.89625 -31.328125 21.8125 C-31 19 -31 19 -29.796875 17.1484375 C-27.42423208 15.6320092 -25.80228216 15.59997962 -23 15.625 C-22.13375 15.61726563 -21.2675 15.60953125 -20.375 15.6015625 C-18 16 -18 16 -16.25390625 17.23828125 C-14.74548602 19.35758818 -14.37120244 21.00660312 -13.9375 23.5625 C-13.35397552 27.19635678 -13.35397552 27.19635678 -11 30 C-9.08993694 30.3176246 -9.08993694 30.3176246 -7 30.25 C-6.29875 30.25515625 -5.5975 30.2603125 -4.875 30.265625 C-2.7564331 30.15705515 -2.7564331 30.15705515 -1 28 C-0.6823754 26.08993694 -0.6823754 26.08993694 -0.75 24 C-0.74484375 23.29875 -0.7396875 22.5975 -0.734375 21.875 C-0.84294485 19.7564331 -0.84294485 19.7564331 -3 18 C-5.25577528 17.42214485 -7.51340296 17.04962025 -9.80859375 16.66015625 C-12.40099824 15.87920017 -13.43488511 15.20696011 -15 13 C-15.3984375 10.625 -15.3984375 10.625 -15.375 8 C-15.38273437 7.13375 -15.39046875 6.2675 -15.3984375 5.375 C-15 3 -15 3 -13.82421875 1.21875 C-9.79628196 -1.47229128 -4.60262819 -0.57743082 0 0 Z " fill="#000000" transform="translate(423,384)"/>
<path d="M0 0 C5.89945599 3.39194422 9.37536233 8.68858699 11.5 15.0625 C11.6441942 17.05903512 11.7205659 19.06098106 11.75 21.0625 C11.77578125 22.114375 11.8015625 23.16625 11.828125 24.25 C11.5 27.0625 11.5 27.0625 10.296875 28.9140625 C7.92423208 30.4304908 6.30228216 30.46252038 3.5 30.4375 C2.200625 30.44910156 2.200625 30.44910156 0.875 30.4609375 C-1.5 30.0625 -1.5 30.0625 -3.24609375 28.82421875 C-4.75451398 26.70491182 -5.12879756 25.05589688 -5.5625 22.5 C-6.14602448 18.86614322 -6.14602448 18.86614322 -8.5 16.0625 C-10.41006306 15.7448754 -10.41006306 15.7448754 -12.5 15.8125 C-13.20125 15.80734375 -13.9025 15.8021875 -14.625 15.796875 C-16.7435669 15.90544485 -16.7435669 15.90544485 -18.5 18.0625 C-18.8176246 19.97256306 -18.8176246 19.97256306 -18.75 22.0625 C-18.75515625 22.76375 -18.7603125 23.465 -18.765625 24.1875 C-18.65705515 26.3060669 -18.65705515 26.3060669 -16.5 28.0625 C-14.24422472 28.64035515 -11.98659704 29.01287975 -9.69140625 29.40234375 C-7.09900176 30.18329983 -6.06511489 30.85553989 -4.5 33.0625 C-4.1015625 35.4375 -4.1015625 35.4375 -4.125 38.0625 C-4.11339844 39.361875 -4.11339844 39.361875 -4.1015625 40.6875 C-4.5 43.0625 -4.5 43.0625 -5.67578125 44.84375 C-9.70371804 47.53479128 -14.89737181 46.63993082 -19.5 46.0625 C-26.64546651 43.99958289 -30.6427698 40.45438922 -34.44140625 34.1484375 C-37.79941562 27.5315482 -37.62525652 19.18478121 -35.69921875 12.12890625 C-32.85689215 5.71169466 -28.69994388 2.20891347 -22.5 -0.9375 C-15.39460217 -3.30596594 -6.85334357 -3.03549921 0 0 Z " fill="#000000" transform="translate(108.5,385.9375)"/>
<path d="M0 0 C1.14984375 -0.00386719 2.2996875 -0.00773437 3.484375 -0.01171875 C4.68578125 -0.00011719 5.8871875 0.01148438 7.125 0.0234375 C8.32640625 0.01183594 9.5278125 0.00023437 10.765625 -0.01171875 C12.49039063 -0.00591797 12.49039063 -0.00591797 14.25 0 C15.83167969 0.00507568 15.83167969 0.00507568 17.4453125 0.01025391 C20.125 0.3984375 20.125 0.3984375 21.96728516 1.77490234 C23.57456373 4.02888853 23.52450596 5.65377045 23.5 8.3984375 C23.51160156 9.6978125 23.51160156 9.6978125 23.5234375 11.0234375 C23.125 13.3984375 23.125 13.3984375 22.01953125 15.19921875 C19.16896363 17.00359866 16.76759776 16.68485129 13.4375 16.5859375 C12.25800781 16.55886719 11.07851562 16.53179687 9.86328125 16.50390625 C8.95964844 16.46910156 8.05601563 16.43429687 7.125 16.3984375 C7.17720703 17.75388672 7.17720703 17.75388672 7.23046875 19.13671875 C7.25753906 20.31621094 7.28460938 21.49570312 7.3125 22.7109375 C7.36470703 24.46857422 7.36470703 24.46857422 7.41796875 26.26171875 C7.125 29.3984375 7.125 29.3984375 5.92578125 31.29296875 C3.54991429 32.75147277 1.90141359 32.79822691 -0.875 32.7734375 C-2.174375 32.78503906 -2.174375 32.78503906 -3.5 32.796875 C-6.41535725 32.30778546 -7.11829239 31.74964638 -8.875 29.3984375 C-9.26318359 26.71875 -9.26318359 26.71875 -9.2734375 23.5234375 C-9.27730469 22.37359375 -9.28117187 21.22375 -9.28515625 20.0390625 C-9.27355469 18.83765625 -9.26195312 17.63625 -9.25 16.3984375 C-9.26160156 15.19703125 -9.27320313 13.995625 -9.28515625 12.7578125 C-9.28128906 11.60796875 -9.27742188 10.458125 -9.2734375 9.2734375 C-9.27005371 8.21898437 -9.26666992 7.16453125 -9.26318359 6.078125 C-8.875 3.3984375 -8.875 3.3984375 -7.71728516 1.55615234 C-5.09586456 -0.09118088 -3.082399 0.00989156 0 0 Z " fill="#000000" transform="translate(64.875,303.6015625)"/>
<path d="M0 0 C2.5 1.5 2.5 1.5 4 4 C4.74101214 8.04188439 5.00003078 10.39139785 2.8125 13.91015625 C0.97449673 16.06185719 -0.97446161 18.02301904 -3 20 C-3.94990272 20.96941206 -4.8976989 21.94089127 -5.84375 22.9140625 C-14.63459505 31.8898867 -14.63459505 31.8898867 -19.875 32.3125 C-22.82968653 32.25340627 -23.89058393 32.06564964 -26.5 30.5 C-28.19231675 27.67947208 -28.75699258 25.42920215 -28.5625 22.12890625 C-27.41194619 17.77437967 -24.14020753 15.06492859 -21 12 C-20.05009728 11.03058794 -19.1023011 10.05910873 -18.15625 9.0859375 C-8.1668505 -1.11366143 -8.1668505 -1.11366143 0 0 Z " fill="#000000" transform="translate(404,208)"/>
<path d="M0 0 C2.5 1.5 2.5 1.5 4 4 C4.74727852 8.07606465 5.00045115 10.40822788 2.77734375 13.9453125 C0.94788795 16.08184008 -0.98611643 18.03592981 -3 20 C-3.85335938 20.8765625 -4.70671875 21.753125 -5.5859375 22.65625 C-14.64518874 31.90146827 -14.64518874 31.90146827 -19.4375 32.25 C-22.6709668 32.02309005 -24.37899482 31.81454205 -27 30 C-28.6559361 26.6881278 -28.73848946 23.55358605 -28 20 C-26.10186752 16.9037108 -23.58926864 14.52719713 -21 12 C-20.05009728 11.03058794 -19.1023011 10.05910873 -18.15625 9.0859375 C-8.1668505 -1.11366143 -8.1668505 -1.11366143 0 0 Z " fill="#000000" transform="translate(436,208)"/>
<path d="M0 0 C1.14984375 -0.00386719 2.2996875 -0.00773437 3.484375 -0.01171875 C4.68578125 -0.00011719 5.8871875 0.01148438 7.125 0.0234375 C8.32640625 0.01183594 9.5278125 0.00023437 10.765625 -0.01171875 C12.49039062 -0.00591797 12.49039062 -0.00591797 14.25 0 C15.83167969 0.00507568 15.83167969 0.00507568 17.4453125 0.01025391 C20.125 0.3984375 20.125 0.3984375 21.96728516 1.77490234 C23.57456373 4.02888853 23.52450596 5.65377045 23.5 8.3984375 C23.51160156 9.6978125 23.51160156 9.6978125 23.5234375 11.0234375 C23.03434796 13.93879475 22.47620888 14.64172989 20.125 16.3984375 C17.4453125 16.78662109 17.4453125 16.78662109 14.25 16.796875 C13.10015625 16.80074219 11.9503125 16.80460937 10.765625 16.80859375 C9.56421875 16.79699219 8.3628125 16.78539062 7.125 16.7734375 C5.92359375 16.78503906 4.7221875 16.79664063 3.484375 16.80859375 C1.75960938 16.80279297 1.75960938 16.80279297 0 16.796875 C-1.05445313 16.79349121 -2.10890625 16.79010742 -3.1953125 16.78662109 C-5.875 16.3984375 -5.875 16.3984375 -7.71728516 15.02197266 C-9.32456373 12.76798647 -9.27450596 11.14310455 -9.25 8.3984375 C-9.25773437 7.5321875 -9.26546875 6.6659375 -9.2734375 5.7734375 C-8.36230848 0.34239395 -4.95634198 0.01590513 0 0 Z " fill="#000000" transform="translate(384.875,303.6015625)"/>
<path d="M0 0 C1.14984375 -0.00386719 2.2996875 -0.00773437 3.484375 -0.01171875 C4.68578125 -0.00011719 5.8871875 0.01148438 7.125 0.0234375 C8.32640625 0.01183594 9.5278125 0.00023437 10.765625 -0.01171875 C12.49039063 -0.00591797 12.49039063 -0.00591797 14.25 0 C15.83167969 0.00507568 15.83167969 0.00507568 17.4453125 0.01025391 C20.125 0.3984375 20.125 0.3984375 21.96728516 1.77490234 C23.57456373 4.02888853 23.52450596 5.65377045 23.5 8.3984375 C23.51160156 9.6978125 23.51160156 9.6978125 23.5234375 11.0234375 C23.03434796 13.93879475 22.47620888 14.64172989 20.125 16.3984375 C17.4453125 16.78662109 17.4453125 16.78662109 14.25 16.796875 C13.10015625 16.80074219 11.9503125 16.80460937 10.765625 16.80859375 C9.56421875 16.79699219 8.3628125 16.78539062 7.125 16.7734375 C5.92359375 16.78503906 4.7221875 16.79664063 3.484375 16.80859375 C1.75960937 16.80279297 1.75960937 16.80279297 0 16.796875 C-1.05445312 16.79349121 -2.10890625 16.79010742 -3.1953125 16.78662109 C-5.875 16.3984375 -5.875 16.3984375 -7.71728516 15.02197266 C-9.32456373 12.76798647 -9.27450596 11.14310455 -9.25 8.3984375 C-9.25773437 7.5321875 -9.26546875 6.6659375 -9.2734375 5.7734375 C-8.36230848 0.34239395 -4.95634198 0.01590513 0 0 Z " fill="#000000" transform="translate(112.875,303.6015625)"/>
</svg>
