<svg xmlns="http://www.w3.org/2000/svg" width="512" height="512" style="shape-rendering:geometricPrecision;text-rendering:geometricPrecision;image-rendering:optimizeQuality;fill-rule:evenodd;clip-rule:evenodd"><path d="M246.5 12.5q18.587-2.232 35 6.5 10 9 0 18-26.019 12.998-52 0-8.048-6.73-2.5-15.5 8.658-7.209 19.5-9M214.5 62.5q40.517 21.757 81 0a3337 3337 0 0 1 22 76.5q-2.42 8.842-10 14-33.662 16.793-71 11-20.3-2.407-37-14-4.575-4.65-6-11a3326 3326 0 0 0 21-76.5M183.5 175.5q32.991 20.25 72 19 38.574 1.484 71-19a2869 2869 0 0 1 20.5 72q.998 7.021-3 13-10.761 11.25-25.5 16.5-45.065 14.084-92 8-24.706-3.05-47-14-12.84-6.577-16-20.5 10.007-37.518 20-75" style="opacity:1"/><path d="M152.5 288.5q31.714 21.16 70 25.5 58.77 8.519 114-13a140 140 0 0 0 21-12.5 1758 1758 0 0 1 19.5 69q1.186 6.639-1 13-9.576 15.177-26.5 21.5-45.325 17.414-94 16.5-44.623.304-87-13.5-17.871-5.802-30.5-19.5-6.11-8.038-4-18a5275 5275 0 0 0 18.5-69" style="opacity:1"/><path d="M105.5 341.5q1.762-.329 3 1-12.648 32.658 12 57.5 24.331 19.917 55 28 73.657 17.243 148 3 37.964-7.111 67.5-31.5 23.72-24.844 11.5-57l1.5-1a3493 3493 0 0 1 90.5 34.5 20.9 20.9 0 0 1 4.5 8.5q1.69 11.318-2 22-3.839 4.547-9.5 6.5l-227 85a25.2 25.2 0 0 1-10 0 48947 48947 0 0 1-233-88q-4.45-3.15-5.5-8.5a72.5 72.5 0 0 1 0-17q1.272-4.797 4.5-8.5a78555 78555 0 0 1 89-34.5" style="opacity:1"/></svg>