<svg xmlns="http://www.w3.org/2000/svg" width="512" height="512" style="shape-rendering:geometricPrecision;text-rendering:geometricPrecision;image-rendering:optimizeQuality;fill-rule:evenodd;clip-rule:evenodd"><path fill="#1fce64" d="M232.5-.5h46q134.466 16.332 202.5 133 25.042 47.206 30.5 100v46q-16.332 134.466-133 202.5-47.206 25.042-100 30.5h-46Q98.034 495.168 30 378.5 4.958 331.294-.5 278.5v-46Q15.831 98.036 132.5 30q47.206-25.042 100-30.5" style="opacity:1"/><path fill="#f8f9f8" d="M243.5 94.5q99.546-2.866 151.5 81 37.111 69.767 7 143-38.177 80.483-126.5 93.5-33.06 4.748-65-5a668 668 0 0 1-32-12.5l-82 21a2406 2406 0 0 1 21-81q-16.45-32.604-20.5-69-1.803-110.69 97.5-158.5 23.908-9.35 49-12.5" style="opacity:1"/><path fill="#20ce64" d="M136.5 377.5q-1.487.258-2-1a3573 3573 0 0 1 12-46.5q-47.715-78.954 3.5-155.5 65.551-76.951 160.5-41.5 85.928 44.584 76.5 141.5-16.868 84.37-99.5 108.5-55.917 12.389-104.5-17.5a4751 4751 0 0 0-46.5 12" style="opacity:1"/><path fill="#f8f9f9" d="M195.5 180.5q8.016-.249 16 .5 3.909 2.907 5.5 7.5a649 649 0 0 1 12.5 32q-3.474 11.243-12.5 19-1 3 0 6 20.317 35.06 58.5 49a10.3 10.3 0 0 0 4-1.5 555 555 0 0 0 14-17.5q1.589-1.794 4-2a326 326 0 0 1 38 17.5q4.738 21.606-14 33-19.616 10.608-41 4-52.565-16.65-84.5-61.5-14.76-17.52-20-40-4.347-29.265 19.5-46" style="opacity:1"/><path fill="#9ae8b6" d="M134.5 376.5q.513 1.258 2 1-1.329 1.914-3 0 .186-.91 1-1" style="opacity:1"/></svg>