<svg xmlns="http://www.w3.org/2000/svg" width="512" height="512"><path fill="#f69b15" d="m112.875-.437 2.396.029c10.479.318 16.675 3.797 24.405 10.799 6.697 7.519 9.806 16.475 13.254 25.761l1.7 4.513q1.789 4.746 3.562 9.5c1.771 4.741 3.556 9.478 5.344 14.214 2.948 7.814 5.884 15.633 8.816 23.453q2.254 6.015 4.514 12.028l3.547 9.453q.832 2.22 1.667 4.44c11.817 31.449 11.817 31.449 5.92 46.247-4.936 9.336-10.907 18.086-16.744 26.872-9.621 13.032-9.621 13.032-12.85 28.265 1.18 5.685 4.334 10.158 7.594 14.863l1.348 1.979c12.477 18.26 26.219 35.32 41.264 51.515a474 474 0 0 1 4.243 4.678c4.407 4.898 8.814 9.634 13.875 13.871 2.44 2.103 4.767 4.3 7.104 6.514a255 255 0 0 0 21.334 18.053 828 828 0 0 1 5.672 4.355c18.679 15.783 18.679 15.783 40.98 22.598 6.467-1.144 11.788-4.997 17.18-8.563l1.83-1.2a928 928 0 0 0 9.291-6.202 556 556 0 0 1 12.317-8.036l1.933-1.251c6.054-3.816 12.188-6.516 19.379-7.186l2.734-.305c10.621.543 20.772 4.927 30.63 8.633l4.341 1.615q5.75 2.14 11.495 4.296 4.745 1.778 9.493 3.55 12.733 4.757 25.455 9.544 5.53 2.079 11.063 4.152 7.01 2.627 14.006 5.288 2.378.903 4.758 1.798c14.27 5.375 25.615 10.751 32.33 25.07 3.354 7.928 3.573 20.075.632 28.296-3.337 6.85-7.863 13.158-12.075 19.49-2.845 4.32-5.596 8.701-8.362 13.073q-2.689 4.223-5.382 8.444a2931 2931 0 0 0-3.81 5.994 2215 2215 0 0 1-5.87 9.187l-1.775 2.811c-12.358 19.153-29.476 34.092-52.124 39.04C373.2 520.112 313.527 489.855 272 469l-2.6-1.304C236.259 450.945 205.446 429.818 177 406l-1.839-1.539q-2.681-2.253-5.349-4.524l-1.507-1.277c-10.732-9.223-20.88-19.07-30.864-29.089q-2.75-2.755-5.507-5.5C126.076 358.215 120.338 352.338 115 346q-1.424-1.626-2.852-3.246c-7.184-8.237-13.916-16.759-20.464-25.508-1.7-2.266-3.412-4.522-5.125-6.777C68.064 285.945 52.829 259.379 39 232l-1.324-2.616c-19.474-38.79-49.458-101.476-35-146.068C7.66 70.83 14.062 60.211 24 51l1.637-1.652c7.021-6.746 15.3-11.512 23.543-16.594C54.32 29.557 59.406 26.272 64.5 23l6.371-4.074a2489 2489 0 0 0 11.664-7.508l5.028-3.23 2.25-1.471c7.557-4.833 14.035-7.28 23.062-7.154M93 25l-5.23 3.379q-5.879 3.812-11.727 7.668c-4.928 3.24-9.9 6.403-14.892 9.541-19.541 12.3-35.362 23.834-43.088 46.475C9.46 130.279 33.453 178.846 49 213l1.288 2.863C56.696 230.049 64.12 243.583 72 257l1.442 2.458c15.717 26.615 34.28 51.21 54.433 74.604l1.549 1.803c3.178 3.656 6.495 7.116 9.961 10.5 1.648 1.668 3.167 3.404 4.678 5.197 7.274 8.427 15.337 16.433 23.84 23.618 2.244 1.948 4.404 3.977 6.567 6.015 6.633 6.233 13.555 11.918 20.777 17.45a369 369 0 0 1 5.151 4.066C220.355 418.683 241.733 432.489 264 445l2.713 1.54C300.4 465.576 335.923 479.112 373 490l2.88.873c18.522 5.572 37.395 7.136 55.288-1.38 17.534-9.557 26.648-25.009 36.96-41.368q4.015-6.363 8.087-12.687l2.133-3.316q2.026-3.15 4.058-6.294A870 870 0 0 0 488 417l2.001-3.19 1.925-3.162 1.735-2.83c2.326-4.896 2.4-9.562 1.339-14.818-2.529-6.266-6.785-10.508-12.931-13.36l-3.288-1.227-1.835-.693a971 971 0 0 0-6.016-2.236l-4.272-1.602a3312 3312 0 0 0-11.423-4.256c-3.934-1.46-7.864-2.93-11.794-4.4q-8.226-3.072-16.456-6.133a4247 4247 0 0 1-24.84-9.331l-8.765-3.307a1882 1882 0 0 1-5.336-2.026q-3.638-1.383-7.282-2.745l-2.062-.795c-6.902-2.56-12.884-3.818-19.766-.852-3.122 1.554-6.074 3.319-8.997 5.213l-2.012 1.274c-4.27 2.718-8.485 5.512-12.69 8.328l-3.032 2.014a646 646 0 0 0-5.87 3.955c-11.932 7.947-22.882 11.388-37.208 8.624-8.6-2.687-15.862-8.278-23.125-13.445l-2.251-1.587C254.56 347.927 245.565 341.3 237 334l-3.32-2.797c-11.105-9.393-21.745-19.193-32.055-29.453l-1.982-1.968c-4.416-4.43-8.565-9.04-12.643-13.782q-1.442-1.642-2.887-3.281c-42.916-49.122-42.916-49.122-42.406-73.961.897-11.508 7.514-20.198 13.779-29.501 5.362-7.993 10.705-16.054 15.639-24.32l1.07-1.785c2.337-6.25 1.941-11.402-.34-17.539l-.797-2.266A653 653 0 0 0 168 125l-1.32-3.569c-3.456-9.338-6.974-18.652-10.503-27.962q-2.556-6.753-5.105-13.508-2.09-5.535-4.193-11.065c-2.434-6.402-4.858-12.807-7.2-19.244a2034 2034 0 0 0-2.944-8.024 654 654 0 0 1-1.974-5.492c-2.811-7.603-5.806-13.217-12.386-18.074C110.585 14.352 102.7 18.6 93 25"/><path fill="#eb4125" d="m282.438-.312 3.935.014c54.681.656 107.959 23.31 148.123 60.017a339 339 0 0 0 5.04 4.5C478.185 98.15 501.367 148.009 510 198l.394 2.121c1.735 9.51 1.887 19.112 2.043 28.754l.105 3.749c.04 8.876-1.359 15.852-7.519 22.514-6.323 5.995-13.336 8.834-22.023 8.862-8.408-.61-15.11-3.744-20.824-9.996-6.146-7.872-7.13-15.558-7.415-25.293-1.332-41.212-17.105-82.09-45.452-112.25-2.051-2.186-4-4.422-5.934-6.711C393.095 97.994 379.443 88.74 366 81l-3.414-1.992c-25.713-14.6-54.419-20.817-83.744-21.955-9.614-.555-17.05-2.805-23.78-9.928-5.597-7.06-7.572-14.529-6.882-23.45 1.519-8.88 6.601-15.322 13.793-20.484C268.63-.72 274.899-.346 282.437-.312M267 21.188c-1.58 4.444-1.677 8.536-.312 13.125C269.35 37.736 272.862 39.147 277 40c2.08.093 4.16.182 6.242.239 49.28 1.444 94.939 21.532 130.361 55.427a339 339 0 0 0 3.604 3.38c6.327 6.032 11.547 12.99 16.793 19.954l1.906 2.527c22.337 30.819 34.726 68.148 35.524 106.139.227 6.205 1.227 10.937 4.82 16.147 2.872 1.948 5.33 2.617 8.75 3.187 3.746-1.061 6.122-1.976 8.676-4.953 1.978-4.552 1.811-8.82 1.762-13.734l-.023-3.193C494.574 183.51 479.42 141.534 455 108l-1.209-1.676C447.474 97.637 440.428 89.745 433 82l-2.715-2.875C423.385 71.992 415.911 65.947 408 60l-2.809-2.152C378.396 37.74 345.991 24.443 313 19l-3.758-.64c-7.36-1.114-14.753-1.705-22.18-2.172l-2.655-.198c-6.497-.34-12.752.106-17.407 5.198"/><path fill="#ee5b20" d="m281.125 80.563 3.18.025c24.13.509 47.743 7.533 68.695 19.412l2.01 1.136c10.285 5.91 19.31 12.798 27.99 20.864l1.511 1.395c27.562 25.7 45.062 63.372 46.868 101.011q.082 3.202.121 6.406l.056 2.982c-.077 8.756-2.69 16.186-8.76 22.632-7.114 6.233-14.727 7.557-23.948 7.05-8.5-1.052-13.905-4.794-19.375-11.218-4.756-7.29-5.152-14.16-5.848-22.696C371.059 202.815 360.709 178.817 340 161c-18.316-14.257-37.587-20.966-60.509-22.925-10.476-.939-18.286-2.994-25.491-11.075-5.958-7.819-6.163-16.611-5-26 2.07-7.302 6.57-12.98 13-17 6.475-3.021 12.028-3.51 19.125-3.437M267 103c-1.62 3.24-1.566 6.499-1 10 2.714 4.441 4.929 6.298 9.937 7.598 3.923.765 7.894.942 11.875 1.215C311.044 123.79 331.78 132.49 350 147l2.543 2.023c23.13 19.508 35.146 48.268 37.957 77.727l.249 3.392c.58 6.603 1.264 10.333 6.251 14.858 3.229 1.614 6.51 1.596 10 1 3.025-1.736 5.418-3.836 7-7 1.859-34.353-10.306-68.183-33-94l-2.18-2.582C357.016 117.16 324.85 101.846 292 98c-3.189-.224-6.367-.32-9.562-.375l-2.499-.113c-6.083-.088-8.731 1.06-12.939 5.488"/><path fill="#f1741c" d="M311.75 169.688c18.168 10 30.651 25.743 36.75 45.5 2.45 10.439 4.013 23.588-.5 33.625-4.272 6.83-10.305 11.757-18 14.187-8.431 1.879-16.345.935-23.75-3.625-7.033-5.091-11.436-11.573-12.89-20.152-.313-2.083-.61-4.162-.864-6.252-.733-4.656-2.09-7.625-5.641-10.794-3.453-2.191-7.179-2.606-11.168-3.177-9.031-1.598-15.259-4.066-21.562-10.937-5.23-7.537-7.11-15.574-5.562-24.625 2.29-8.589 7.86-14.985 15.437-19.438 13.852-7.289 34.957-.953 47.75 5.688M267 184c-1.741 3.483-1.579 7.2-1 11 3.07 4.243 5.975 5.812 11 7l2.7.348c9.797 1.292 17.872 4.688 24.058 12.691 3.768 5.949 5.324 11.828 6.18 18.774.558 4.127.868 5.913 3.312 9.375 3.043 2.005 5.134 3.233 8.75 3.812 5.252-1.54 8.014-3.455 11-8 2.283-12.186-2.08-24.589-8.312-34.937C315.706 191.06 302.678 181.949 287 179c-8.08-.891-14.517-1.58-20 5"/></svg>