<svg xmlns="http://www.w3.org/2000/svg" width="512" height="512"><path fill="#fe9b00" d="M273 36q1.783.981 3.57 1.953a537 537 0 0 1 18.028 10.371 655 655 0 0 0 3.722 2.212c3.08 1.832 6.059 3.704 8.94 5.836 10.678 7.62 20.212 7.867 33.013 7.655q3.03 0 6.06.015c5.274.013 10.546-.025 15.82-.077 7.443-.063 14.886-.057 22.329-.057q5.928-.001 11.856-.056l5.433-.028 2.437-.036c9.016-.022 16.78 1.271 23.42 7.817 6.39 6.974 6.571 13.268 6.224 22.383q-.058 3.259-.102 6.518a353 353 0 0 1-.274 10.21c-1.051 12.192-1.051 12.192 3.032 23.154 3.788 3.072 8.022 4.842 12.596 6.441 2.336.849 4.36 2.002 6.459 3.326l1.772 1.05c16.148 9.707 16.148 9.707 17.24 13.095.463 2.416.553 4.63.556 7.09l.012 2.986-.003 3.273.01 3.482q.01 4.785.01 9.572c.002 3.441.01 6.882.016 10.323q.02 11.292.024 22.582l.012 14.112q.019 19.549.026 39.097v2.528l.002 7.616v2.547q.009 20.4.046 40.797.035 20.961.037 41.922-.001 11.762.025 23.523.023 10.02.012 20.043-.006 5.106.011 10.213c.125 36.09.125 36.09-11.933 49.325-7.92 7.107-15.003 11.304-25.774 11.321l-3.975.014h-4.377q-2.321.003-4.642.01-6.388.014-12.776.017-6.885.007-13.771.022c-11.09.02-22.179.03-33.268.039l-15.666.015a92516 92516 0 0 1-65.586.044l-3.393.002c-18.138.008-36.276.033-54.414.066q-27.93.049-55.861.054c-10.456.002-20.911.01-31.366.036q-13.356.034-26.712.02c-4.542-.004-9.084-.002-13.626.017q-6.241.026-12.484.001-2.253-.004-4.506.014c-12.574.093-22.175-2.146-31.741-10.755-10.747-11.822-12.656-22.672-12.634-38.302l-.007-3.51a4800 4800 0 0 1-.004-9.603c0-3.457-.006-6.915-.01-10.372q-.012-10.15-.012-20.302 0-8.25-.006-16.498-.013-23.391-.012-46.781v-5.095q-.002-20.465-.023-40.931-.023-21.017-.02-42.034.001-11.798-.014-23.597-.015-10.04-.005-20.08.007-5.122-.005-10.246c-.008-3.7-.003-7.4.005-11.101l-.016-3.278.014-3.005v-2.587c.375-3.654 1.238-6.534 4.022-8.996l2.157-1.33 2.44-1.527L48 149l2.685-1.63a856 856 0 0 1 8.44-4.995l2.879-1.695c7.89-4.64 7.89-4.64 9.848-5.376 2.118-.897 3.53-1.66 5.148-3.304 1.023-3.61.883-7.134.797-10.863l.016-3.229c.011-3.408-.023-6.813-.063-10.22a1304 1304 0 0 1-.02-10.19q.005-3.168-.043-6.337c-.026-9.068 2.235-14.7 8.418-21.43 6.53-5.964 15.207-5.887 23.561-5.667q2.649.055 5.297.106l2.823.059c6.063.11 12.127.139 18.19.179 5.288.039 10.573.108 15.86.247 26.309.665 45.868-.257 67.284-16.524 4.56-3.375 9.433-6.194 14.317-9.068q2.313-1.418 4.622-2.84C248.712 30.003 262.35 29.67 273 36m-30.125 17.188c-.686.41-1.372.82-2.078 1.244A420 420 0 0 0 235 58l-2.805 1.676A136 136 0 0 0 227 63v1h58c-4.605-3.684-9.152-6.731-14.187-9.75l-2.424-1.535c-9.192-5.478-16.563-5.188-25.514.472M96 84c-1.167 2.334-1.177 3.824-1.262 6.427l-.096 2.823-.089 3.109-.102 3.268c-.299 10.012-.478 20.025-.621 30.04-.097 6.721-.235 13.435-.47 20.153-2.936 31.525-2.936 31.525 7.514 59.81 3.735 3.907 8.024 6.901 12.62 9.698 3.911 2.61 6.575 6.047 9.506 9.672a256 256 0 0 0 4.813 4.875l2.57 2.547L133 239c5.25 5.172 10.37 10.35 15.168 15.945 3.749 4.205 7.82 8.103 11.832 12.055 5.25 5.172 10.37 10.35 15.168 15.945 3.749 4.205 7.82 8.103 11.832 12.055 9.629 9.485 9.629 9.485 13.492 13.992 4.271 4.982 8.962 9.53 13.633 14.133 9.782 9.639 9.782 9.639 12.695 13.262 5.29 6.343 12.973 11.27 21.18 12.613 12.51 1.047 22.48-.197 32.625-8.125 4.2-3.646 7.89-7.534 11.523-11.734 4.71-5.312 9.882-10.21 14.938-15.19 3.581-3.543 7.094-7.086 10.375-10.912 5.04-5.87 10.648-11.191 16.156-16.617 3.748-3.714 7.447-7.415 10.883-11.422 5.024-5.86 10.622-11.165 16.117-16.578 3.748-3.714 7.447-7.415 10.883-11.422 5.024-5.86 10.622-11.165 16.117-16.578 4.23-4.191 8.35-8.363 12.095-12.996 1.908-2.024 3.687-3.538 5.885-5.205 6.253-5.004 11.388-9.77 12.756-17.943.634-6.847.444-13.675.252-20.54q-.026-3.788-.035-7.574a920 920 0 0 0-.219-15.782c-.15-6.747-.212-13.491-.245-20.24-.032-6.447-.11-12.894-.188-19.341l-.037-3.724a973 973 0 0 0-.189-10.396l-.028-3.115c-.082-5.465-.082-5.465-2.582-10.171-3.325-2.228-5.173-2.521-9.156-2.526l-3.275-.012-3.627.003-3.83-.01q-5.28-.011-10.561-.01c-3.792-.002-7.585-.01-11.377-.016q-12.446-.02-24.892-.024-7.768-.005-15.535-.012-21.495-.019-42.991-.026h-5.568l-5.593-.002h-2.801a34845 34845 0 0 1-44.958-.046q-23.064-.035-46.129-.037-12.956.001-25.91-.025-11.032-.023-22.063-.012c-3.754.004-7.507.003-11.26-.011-4.067-.015-8.133-.007-12.2.004l-3.606-.025-3.299.02-2.845-.002c-3.148.452-5.04 1.524-7.606 3.374m338 68v29c4.469-3.83 8.788-7.606 12.938-11.75l1.494-1.457c1.23-1.225 2.404-2.505 3.568-3.793v-2c-1.598-1.23-1.598-1.23-3.684-2.383l-2.31-1.347-2.443-1.395-2.432-1.418c-3.371-2.323-3.371-2.323-7.131-3.457m-360.816 2.188-2.315 1.367L68.438 157l-2.444 1.445q-3 1.774-5.994 3.555c1.39 3.136 3.013 5.26 5.441 7.672l2.018 2.012 2.103 2.066 2.116 2.113c2.77 3.348 2.77 3.348 6.322 5.137v-29c-1.815 0-3.292 1.284-4.816 2.188M54 182a87902 87902 0 0 0-.167 112.883c-.013 12.538-.037 25.077-.064 37.615q-.043 19.306-.051 38.613a9317 9317 0 0 1-.042 23.815 5107 5107 0 0 0-.015 18.279q-.001 3.743-.019 7.485c-.015 3.413-.01 6.825-.003 10.237l-.026 2.977C53.655 440.386 54.817 445.9 57 452c13.686-10.198 27.158-20.686 40.457-31.383a812 812 0 0 1 17.98-14.055c6.351-4.822 12.579-9.773 18.75-14.823 5.968-4.881 12.019-9.65 18.095-14.396 2.91-2.275 5.814-4.56 8.718-6.843q5.23-4.111 10.465-8.215c6.2-4.86 12.381-9.742 18.535-14.66l1.851-1.478A639 639 0 0 0 203 337c-5.188-7.481-11.462-13.659-17.937-20q-3.175-3.12-6.34-6.25l-1.543-1.526c-3.304-3.29-6.398-6.694-9.42-10.24-3.715-4.189-7.773-8.057-11.76-11.984-5.25-5.172-10.37-10.35-15.168-15.945-3.749-4.205-7.82-8.103-11.832-12.055-5.25-5.172-10.37-10.35-15.168-15.945-3.749-4.205-7.82-8.103-11.832-12.055-5.25-5.172-10.37-10.35-15.168-15.945C83.083 210.85 79.012 206.952 75 203c-5.355-5.275-10.622-10.523-15.43-16.309-1.705-1.837-3.552-3.212-5.57-4.691m401.18 1.688L452.875 186l-2.258 2.25a166 166 0 0 0-5.797 6.438c-5.16 5.941-10.835 11.371-16.437 16.89-3.748 3.714-7.447 7.415-10.883 11.422-5.024 5.86-10.622 11.165-16.117 16.578-3.748 3.714-7.447 7.415-10.883 11.422-5.024 5.86-10.622 11.165-16.117 16.578-3.748 3.714-7.447 7.415-10.883 11.422-5.024 5.86-10.622 11.165-16.117 16.578-3.745 3.711-7.44 7.408-10.871 11.414-5.093 5.941-10.798 11.3-16.393 16.762-4.235 4.18-8.117 8.088-11.119 13.246 6.449 5.868 13.279 11.21 20.153 16.56 2.956 2.305 5.901 4.623 8.847 6.94l3.5 2.75 7 5.5 1.75 1.375 3.502 2.752q4.354 3.422 8.713 6.838a2298 2298 0 0 1 19.927 15.802c5.927 4.748 11.896 9.441 17.874 14.124q5.246 4.115 10.486 8.236a7054 7054 0 0 0 8.713 6.838q10.168 7.972 20.248 16.06A928 928 0 0 0 454 452c4.53-4.53 4.232-11.783 4.258-17.838l-.017-2.995.005-3.238c.003-3.568-.008-7.136-.019-10.704v-7.689q.002-8.266-.016-16.533c-.016-7.968-.021-15.936-.024-23.904q-.007-19.394-.036-38.786a47891 47891 0 0 1-.041-37.668l-.002-2.347-.007-11.658q-.033-48.32-.101-96.64c-1.291-.113-1.291-.113-2.82 1.688M215 349l-3.043 2.492c-7.479 6.11-15.005 12.126-22.684 17.985-3.611 2.768-7.162 5.611-10.71 8.46a2090 2090 0 0 1-19.83 15.704q-4.369 3.427-8.733 6.859a8093 8093 0 0 1-10.465 8.215A2079 2079 0 0 0 121.5 423a2224 2224 0 0 1-19.766 15.641 6514 6514 0 0 0-10.453 8.212 1822 1822 0 0 1-9.273 7.249l-1.969 1.533q-1.884 1.467-3.773 2.926A206 206 0 0 0 72 462v1c3.793.883 7.301 1.125 11.192 1.126l3.8.008 4.167-.007 4.432.005q6.091.005 12.182-.001c4.38-.003 8.759.001 13.138.004q12.868.005 25.736 0a43573 43573 0 0 1 29.96 0q28.341.004 56.681-.006 24.328-.006 48.655.001a126248 126248 0 0 0 62.496.004h2.992q10.446-.002 20.893.002 12.728.004 25.455-.003 6.495-.005 12.992 0 5.944.004 11.887-.004 2.152-.001 4.306.002 2.922.003 5.844-.005h3.281c2.746-.119 5.238-.504 7.911-1.126-3.916-4.075-8.098-7.648-12.5-11.187l-2.14-1.73c-5.301-4.27-10.676-8.431-16.087-12.56-4.257-3.263-8.432-6.63-12.615-9.99-5.94-4.768-11.927-9.476-17.924-14.174q-5.246-4.115-10.486-8.236a7054 7054 0 0 0-8.713-6.838 2298 2298 0 0 1-19.927-15.802c-5.92-4.742-11.881-9.43-17.852-14.107q-3.633-2.85-7.261-5.705A3161 3161 0 0 0 297 349l-1.398 1.102C280.134 362.023 265.539 366.882 246 365c-11.905-2.096-21.941-8.222-31-16"/><path fill="#fe9b00" d="M315.477 135.703c15.285 13.913 25.234 33.386 26.728 54.15.098 3.011.124 6.01.108 9.022l-.018 3.205c-.177 11.37-1.552 21.13-9.295 29.92-8.79 8.487-19.264 12.3-31.371 12.156-5.22-.31-9.934-1.078-14.379-3.906L285 239c-2.36.762-2.36.762-5 2-14.176 5.76-27.291 8.468-42.02 2.848-12.758-5.913-22.118-15.15-27.355-28.223-3.663-12.035-3.171-26.291 2.375-37.625 6.371-11.8 16.033-20.4 28.824-24.422 14.628-3.887 27.797-1.412 40.766 5.922A74 74 0 0 1 289 164l2-2c7.123-.69 7.123-.69 10.101 1.65 2.426 3.002 2.385 4.577 2.353 8.404v3.7l-.063 3.98q-.012 2.043-.018 4.086c-.015 3.578-.054 7.155-.098 10.732-.041 3.653-.06 7.306-.08 10.96Q303.13 216.256 303 227q2.628-.653 5.25-1.332l2.953-.75c4.106-1.348 7.259-3.407 9.797-6.918 2.85-6.142 3.517-11.335 3.438-18.062l-.028-2.796c-.45-17.996-7.565-34.71-20.363-47.42-14.408-13.364-32.763-19.288-52.211-18.972-18.268 1.19-34.343 8.645-46.934 21.957C191.834 168.458 186.91 187.816 188 208c2.367 17.484 10.023 33.8 24 45 12.29 8.142 25.211 13.603 40 15l2.29.219c11.789.53 23.154-3.388 33.71-8.219 4.49-1.996 7.144-2.259 12-1 2.988 2.41 3.014 4.1 3.563 7.938-.177 3.295-.503 3.987-2.688 6.687C289.509 281.541 274.661 285.202 261 286l-2.363.16c-21.486.75-42.576-6.372-58.762-20.473A297 297 0 0 1 195 261l-2.344-2.305c-16.36-17.088-23.171-39.77-23.082-63.002.289-12.153 2.706-23.88 8.426-34.693l1.2-2.559c4.013-8.108 9.55-14.038 15.8-20.441l2.031-2.254c31.185-33.761 86.086-27.674 118.446-.043m-83.305 44.477c-5.734 8.266-7.12 15.84-6.172 25.82 2.07 8.13 7.553 14.327 14.063 19.375 7.876 4.357 16.82 5.143 25.566 2.973 7.805-3.163 14.305-8.998 18.371-16.348 3.065-7.941 3.31-16.417.313-24.437-4.382-9.386-11.423-14.329-20.938-17.938-11.639-2.155-23.41 1.264-31.203 10.555"/></svg>