<?xml version="1.0" encoding="UTF-8"?>
<svg version="1.1" xmlns="http://www.w3.org/2000/svg" width="512" height="512">
<path d="M0 0 C19.34357371 16.51124647 33.37829459 35.80752851 41.6640625 59.91015625 C41.89456299 60.57257324 42.12506348 61.23499023 42.36254883 61.91748047 C46.50938352 74.73718465 47.91187697 87.62665946 47.7890625 101.03515625 C47.78450043 102.10449402 47.78450043 102.10449402 47.77984619 103.19543457 C47.70106471 115.77176002 46.41700197 127.6984172 43.3515625 139.91015625 C43.15320801 140.74272949 42.95485352 141.57530273 42.75048828 142.43310547 C31.69830386 188.09260723 5.75315939 230.01366732 -22.6484375 266.91015625 C-23.43605469 267.95300781 -24.22367188 268.99585938 -25.03515625 270.0703125 C-30.15724762 276.83365875 -35.49564842 283.36684596 -41.015625 289.80859375 C-43.35347401 292.54308717 -45.59775998 295.34328645 -47.8359375 298.16015625 C-51.97565329 303.23730768 -56.37178488 308.05438457 -60.8359375 312.84765625 C-61.51358154 313.58209961 -62.19122559 314.31654297 -62.8894043 315.07324219 C-71.64547626 324.37838186 -71.64547626 324.37838186 -77.6484375 325.44140625 C-86.80178194 325.34605891 -90.59197877 322.96888461 -97.0859375 316.66015625 C-101.10582346 312.54027313 -104.90438923 308.27939664 -108.6484375 303.91015625 C-109.61486796 302.80639997 -110.58241685 301.70362246 -111.55078125 300.6015625 C-158.76002053 246.75139946 -209.24508788 176.28149566 -209.0234375 101.84765625 C-209.02256134 101.12471375 -209.02168518 100.40177124 -209.02078247 99.65692139 C-208.87575614 63.24979325 -194.6265582 32.25177832 -168.95483398 6.72851562 C-153.06640434 -8.53977841 -133.70532562 -18.12678839 -112.6484375 -24.08984375 C-111.47023438 -24.43144531 -110.29203125 -24.77304687 -109.078125 -25.125 C-71.91216204 -33.90596927 -29.43835184 -24.14652242 0 0 Z M-144.6484375 29.91015625 C-145.92267578 31.06451172 -145.92267578 31.06451172 -147.22265625 32.2421875 C-162.47792574 46.70315506 -174.52614497 68.44418716 -175.82543945 89.82250977 C-176.12702507 105.65275067 -176.02348217 120.62260989 -171.6484375 135.91015625 C-171.38530762 136.83038574 -171.12217773 137.75061523 -170.85107422 138.69873047 C-158.35888705 181.06753507 -134.06333976 219.61361617 -106.6484375 253.91015625 C-106.15520996 254.52810059 -105.66198242 255.14604492 -105.15380859 255.78271484 C-97.51296381 265.32730748 -89.65817824 274.67369846 -81.6484375 283.91015625 C-77.41335505 282.33570207 -75.0095937 279.16107855 -72.2109375 275.78515625 C-71.68943115 275.16479492 -71.1679248 274.54443359 -70.63061523 273.90527344 C-68.96208029 271.91327493 -67.30497931 269.91213347 -65.6484375 267.91015625 C-65.11476563 267.27174805 -64.58109375 266.63333984 -64.03125 265.97558594 C-45.1463065 243.37122979 -28.10841152 218.86408054 -13.85253906 193.08349609 C-12.69356048 190.99160086 -11.51191185 188.91386123 -10.328125 186.8359375 C7.60317008 154.7975021 21.9948435 113.19883837 12.12207031 76.3894043 C10.3315747 70.35757656 8.08963194 64.5704343 5.3515625 58.91015625 C4.69027344 57.52763672 4.69027344 57.52763672 4.015625 56.1171875 C-7.43738199 33.68574562 -27.79402013 18.14639037 -51.078125 9.66015625 C-83.52172848 -0.52998249 -119.61714411 6.6921534 -144.6484375 29.91015625 Z " fill="#F89426" transform="translate(336.6484375,59.08984375)"/>
<path d="M0 0 C1.08096954 0.00007553 2.16193909 0.00015106 3.27566528 0.00022888 C5.03195755 0.00797081 5.03195755 0.00797081 6.82373047 0.01586914 C8.019487 0.01728409 9.21524353 0.01869904 10.44723511 0.02015686 C14.27848784 0.02576876 18.10968281 0.03832331 21.94091797 0.05102539 C24.53336504 0.05603886 27.12581303 0.06060203 29.71826172 0.06469727 C36.08418746 0.07489253 42.44998782 0.09446572 48.81591797 0.11352539 C48.81591797 10.67352539 48.81591797 21.23352539 48.81591797 32.11352539 C37.59591797 32.11352539 26.37591797 32.11352539 14.81591797 32.11352539 C14.15591797 36.73352539 13.49591797 41.35352539 12.81591797 46.11352539 C7.53591797 75.81352539 2.25591797 105.51352539 -3.18408203 136.11352539 C94.49591797 136.11352539 192.17591797 136.11352539 292.81591797 136.11352539 C286.87591797 102.78352539 280.93591797 69.45352539 274.81591797 35.11352539 C274.81591797 34.12352539 274.81591797 33.13352539 274.81591797 32.11352539 C263.59591797 32.11352539 252.37591797 32.11352539 240.81591797 32.11352539 C240.81591797 21.55352539 240.81591797 10.99352539 240.81591797 0.11352539 C248.39709219 0.02163237 255.97632951 -0.05799255 263.55761719 -0.10620117 C266.13580885 -0.12630024 268.71395501 -0.15358402 271.29199219 -0.18823242 C275.00060258 -0.23682308 278.70860953 -0.25946119 282.41748047 -0.27709961 C283.56769684 -0.29774475 284.71791321 -0.31838989 285.90298462 -0.33966064 C293.65927808 -0.34182908 297.47838025 0.79543383 303.07861328 6.36303711 C305.26549959 9.82529977 305.95454988 13.14838763 306.61279297 17.12133789 C306.76360321 17.95482254 306.91441345 18.78830719 307.0697937 19.64704895 C307.58339715 22.50844117 308.07478854 25.37319578 308.56591797 28.23852539 C308.93113777 30.31107606 309.29755908 32.38341529 309.66503906 34.45556641 C310.40930755 38.66402161 311.14752027 42.87346443 311.88031578 47.08393192 C313.51095223 56.44315003 315.19728803 65.79194644 316.88952637 75.14019775 C318.19089268 82.33134954 319.48094194 89.52451797 320.76806641 96.7182312 C321.6951265 101.89834449 322.62605577 107.07769135 323.56628418 112.25543213 C324.46646157 117.21596958 325.35306537 122.17876001 326.23010635 127.14343834 C326.55950711 128.99509119 326.89355179 130.8459248 327.23257065 132.69584084 C331.33861875 155.13852539 331.33861875 155.13852539 327.4503479 161.26524353 C324.94767306 164.46211465 322.59038801 166.56360537 318.81591797 168.11352539 C316.0946418 168.36652505 316.0946418 168.36652505 312.90564156 168.3707943 C311.08091306 168.38046763 311.08091306 168.38046763 309.21932137 168.39033639 C307.86749679 168.38739405 306.51567261 168.3842586 305.16384888 168.38095093 C303.72923985 168.38468655 302.29463285 168.38928772 300.8600291 168.39468157 C296.91287922 168.40693781 292.96581392 168.40664803 289.01864934 168.40429282 C284.76360973 168.40388532 280.50859748 168.41491741 276.25357056 168.42440796 C267.91544625 168.44103311 259.57735023 168.44651818 251.23921074 168.44763272 C244.46303698 168.44858243 237.68687256 168.45268892 230.91070175 168.45903397 C211.7072637 168.4766502 192.50384801 168.48587219 173.30040182 168.48437302 C171.74694706 168.48425315 171.74694706 168.48425315 170.16210938 168.48413086 C169.1252113 168.4840491 168.08831323 168.48396734 167.01999401 168.4838831 C150.21129442 168.48307 133.4026844 168.50221265 116.59401073 168.53040759 C99.34307941 168.55911652 82.09219181 168.572949 64.841236 168.57122004 C55.15285834 168.57055547 45.46457459 168.57607718 35.77621841 168.59757614 C27.5280326 168.61576172 19.27998325 168.62015689 11.0317861 168.60655729 C6.82241555 168.60001445 2.61330702 168.59995767 -1.59603882 168.61726379 C-5.44893459 168.6329417 -9.30135945 168.63018551 -13.15424336 168.61269553 C-14.54857064 168.60961392 -15.9429326 168.61330162 -17.33721898 168.62441568 C-30.27861799 168.72074706 -30.27861799 168.72074706 -35.18408203 164.11352539 C-39.18402955 159.46493773 -40.09677746 155.10965169 -40.18408203 149.11352539 C-39.74489185 144.60332485 -38.95227696 140.17524751 -38.14208984 135.71850586 C-37.90960474 134.38883468 -37.67819958 133.05897431 -37.44778442 131.72894287 C-36.822718 128.14023624 -36.18205918 124.55447966 -35.53797245 120.96914434 C-34.86402706 117.204896 -34.20305903 113.43836678 -33.54022217 109.67214966 C-32.42567633 103.35106848 -31.30114551 97.03182701 -30.17041016 90.71362305 C-28.86550584 83.42161647 -27.57556326 76.127086 -26.29379773 68.83097923 C-25.05725339 61.79387455 -23.81098675 54.75852654 -22.56002045 47.72397232 C-22.02918263 44.73823604 -21.50156435 41.75195772 -20.97653961 38.76519394 C-20.35736275 35.24576641 -19.72960345 31.72797271 -19.0953331 28.21123505 C-18.75509345 26.31356799 -18.42316209 24.41441712 -18.09152222 22.51522827 C-16.40921434 13.26543336 -15.00806509 6.77342803 -7.18408203 1.11352539 C-4.63469388 -0.16116868 -2.85367205 -0.00663645 0 0 Z " fill="#F89426" transform="translate(111.18408203125,311.886474609375)"/>
<path d="M0 0 C14.35546434 11.70990834 26.06794902 27.89121936 28.30664062 46.72021484 C29.76601625 68.44058871 26.97909464 88.67535502 12.32739258 105.62890625 C-0.87957734 120.09489289 -17.32732525 130.10586173 -37.24804688 131.03271484 C-57.93878131 131.62467515 -76.50369154 127.612305 -92.13085938 113.34521484 C-106.8738166 99.20544466 -115.50400135 82.70692505 -116.09399414 62.08496094 C-116.33065412 41.68831843 -111.22582647 23.74080029 -96.89331055 8.796875 C-71.34187485 -16.78517169 -29.7766123 -22.50418132 0 0 Z M-74.69335938 33.72021484 C-82.14717355 43.84936067 -83.93724945 54.34350859 -82.69335938 66.72021484 C-80.33270448 77.71872059 -73.69599121 86.19247626 -64.69335938 92.72021484 C-55.85951692 98.11120996 -45.5974613 99.57399824 -35.50585938 97.72021484 C-26.09721611 95.33669188 -17.59555906 90.58021735 -11.69335938 82.72021484 C-5.13058825 71.28733301 -2.74257018 60.4976643 -5.34179688 47.47021484 C-9.04405066 36.33181029 -16.9012631 27.9681641 -27.11523438 22.39990234 C-44.28043673 14.96164799 -62.48806371 20.01640423 -74.69335938 33.72021484 Z " fill="#F89426" transform="translate(299.693359375,101.27978515625)"/>
</svg>
