<?xml version="1.0" encoding="UTF-8"?>
<svg version="1.1" xmlns="http://www.w3.org/2000/svg" width="512" height="512">
<path d="M0 0 C2.90993431 1.36779987 5.3395656 3.2239772 7.875 5.1875 C8.60477051 5.72777832 9.33454102 6.26805664 10.08642578 6.82470703 C11.62671256 7.96538026 13.16163866 9.11332405 14.69140625 10.26806641 C17.64649556 12.48500841 20.64733893 14.63399659 23.65185547 16.78320312 C31.54887171 22.43755694 39.36156113 28.20629877 47.1730957 33.9777832 C52.88491391 38.1926543 58.64000299 42.34068457 64.42578125 46.453125 C70.87525511 51.03990213 77.27707393 55.69333353 83.68994141 60.33105469 C85.95180829 61.96518299 88.21576308 63.5963713 90.48046875 65.2265625 C98.26984096 70.83648065 106.0297697 76.48272122 113.75 82.1875 C120.26722873 87.00286929 126.82113315 91.75864473 133.42578125 96.453125 C137.54889574 99.38542733 141.64965194 102.34848276 145.75 105.3125 C146.50804932 105.86043213 147.26609863 106.40836426 148.04711914 106.97290039 C149.59333097 108.09072453 151.13947313 109.20864504 152.68554688 110.32666016 C155.70908087 112.51266248 158.73373551 114.69711062 161.75854492 116.88134766 C163.25622381 117.96288682 164.75378189 119.04459331 166.2512207 120.12646484 C169.98707173 122.82541173 173.72439233 125.52227542 177.46484375 128.21484375 C186.06917274 134.41247915 194.63002584 140.66468832 203.15795898 146.96704102 C207.91153668 150.47524731 212.68679566 153.94907184 217.5 157.375 C218.05679443 157.77162842 218.61358887 158.16825684 219.18725586 158.5769043 C221.33801797 160.10793898 223.48946603 161.63799879 225.64306641 163.16503906 C227.2024255 164.27264747 228.75756207 165.38619337 230.3125 166.5 C231.19550781 167.1290625 232.07851563 167.758125 232.98828125 168.40625 C235 170 235 170 236 172 C236.09039906 173.6648064 236.11755257 175.33323421 236.11352539 177.00048828 C236.11344986 178.04141632 236.11337433 179.08234436 236.11329651 180.15481567 C236.10813522 181.28192963 236.10297394 182.40904358 236.09765625 183.5703125 C236.09553383 185.29735916 236.09553383 185.29735916 236.09336853 187.05929565 C236.08775716 190.74788986 236.0752027 194.43642405 236.0625 198.125 C236.05748647 200.62109288 236.05292331 203.1171867 236.04882812 205.61328125 C236.03778403 211.74220809 236.0210348 217.87109976 236 224 C236.82725586 223.97905273 237.65451172 223.95810547 238.50683594 223.93652344 C242.2544337 223.85338381 246.00183749 223.80134469 249.75 223.75 C251.05195313 223.71648437 252.35390625 223.68296875 253.6953125 223.6484375 C254.94570313 223.63554687 256.19609375 223.62265625 257.484375 223.609375 C258.63647461 223.58842773 259.78857422 223.56748047 260.97558594 223.54589844 C264 224 264 224 266.3828125 225.5078125 C268.66042944 229.01776325 268.49945649 232.22335795 268.390625 236.265625 C268.38496521 237.05902283 268.37930542 237.85242065 268.37347412 238.66986084 C268.35113147 241.19719473 268.30094176 243.72309665 268.25 246.25 C268.22993214 247.96612532 268.21168187 249.68227292 268.1953125 251.3984375 C268.15127395 255.5995078 268.08226326 259.79951135 268 264 C270.31 264 272.62 264 275 264 C274.99000725 262.21927345 274.99000725 262.21927345 274.97981262 260.40257263 C274.91895404 249.2057959 274.87400449 238.0090528 274.84456348 226.81214809 C274.82891867 221.0559289 274.80770176 215.29984342 274.77368164 209.54370117 C274.74104636 203.98699189 274.72313807 198.43041109 274.71536827 192.87361336 C274.70983228 190.75536133 274.69902184 188.63711621 274.68280983 186.51891899 C274.66098043 183.5481849 274.65803542 180.57797934 274.65942383 177.60717773 C274.64324509 176.29842178 274.64324509 176.29842178 274.6267395 174.96322632 C274.65396122 169.56784245 275.41667225 165.7713929 278 161 C280.81824192 159.59087904 283.17251282 159.88816447 286.3203125 159.90234375 C287.57714844 159.90556641 288.83398438 159.90878906 290.12890625 159.91210938 C291.44761719 159.92048828 292.76632812 159.92886719 294.125 159.9375 C295.46484211 159.94251511 296.804686 159.94707799 298.14453125 159.95117188 C301.42973206 159.96298914 304.71484397 159.97946383 308 160 C307.97905273 159.17274414 307.95810547 158.34548828 307.93652344 157.49316406 C307.85338381 153.7455663 307.80134469 149.99816251 307.75 146.25 C307.69972656 144.29707031 307.69972656 144.29707031 307.6484375 142.3046875 C307.63554687 141.05429688 307.62265625 139.80390625 307.609375 138.515625 C307.58842773 137.36352539 307.56748047 136.21142578 307.54589844 135.02441406 C308.10928814 131.27211747 309.07280709 130.34143829 312 128 C314.4800415 127.49663544 314.4800415 127.49663544 317.31347656 127.49206543 C318.3902063 127.48078613 319.46693604 127.46950684 320.57629395 127.45788574 C322.34063782 127.47003113 322.34063782 127.47003113 324.140625 127.48242188 C326.00454895 127.47190796 326.00454895 127.47190796 327.90612793 127.46118164 C331.31135186 127.44659127 334.71560382 127.45001252 338.12077332 127.46269798 C341.68502098 127.47282884 345.24922726 127.46343208 348.81347656 127.45715332 C354.79890394 127.44987712 360.78413386 127.45946373 366.76953125 127.47851562 C373.68838958 127.50028454 380.60677642 127.49323313 387.52562332 127.47121 C393.46715962 127.45305505 399.40855402 127.45049807 405.3501091 127.46096468 C408.89823891 127.46719918 412.44614714 127.46803671 415.9942627 127.45481873 C419.94948641 127.44111322 423.90418248 127.46011165 427.859375 127.48242188 C429.03560425 127.47432495 430.2118335 127.46622803 431.42370605 127.45788574 C433.03880066 127.47480469 433.03880066 127.47480469 434.68652344 127.49206543 C435.62155701 127.49357353 436.55659058 127.49508163 437.5199585 127.49663544 C441.78103308 128.36148949 443.55086929 131.37906421 445.99957275 134.76446533 C452.48798311 144.69980295 458.52359391 154.85661069 464.25 165.25 C464.7189418 166.09933609 465.18788361 166.94867218 465.67103577 167.82374573 C484.35901646 202.07929835 487.61293725 234.14395981 486.75 272.75 C486.72416336 274.01292374 486.69832672 275.27584747 486.67170715 276.57704163 C486.48601858 285.0307296 486.19608701 293.47559891 485.796875 301.921875 C485.74509598 303.02716049 485.69331696 304.13244598 485.63996887 305.27122498 C485.48208208 308.36111652 485.29313894 311.44704318 485.08886719 314.53417969 C485.04050846 315.44156513 484.99214973 316.34895058 484.94232559 317.28383255 C484.64740847 321.15409205 484.47405771 323.36245076 482.1194458 326.52911377 C478.01080019 329.38049608 474.06790652 329.13166469 469.26953125 329.09765625 C468.51911057 329.0962413 467.76868988 329.09482635 466.99552917 329.09336853 C464.6011454 329.0877756 462.20685547 329.07522444 459.8125 329.0625 C458.18815239 329.05748408 456.56380332 329.05292134 454.93945312 329.04882812 C450.95959931 329.03780848 446.97981556 329.02054873 443 329 C443.15090088 330.07161377 443.30180176 331.14322754 443.45727539 332.24731445 C443.65029361 333.68175079 443.84289852 335.11624279 444.03515625 336.55078125 C444.13526001 337.25368286 444.23536377 337.95658447 444.33850098 338.68078613 C446.22762024 353.02073084 442.0469543 367.22191545 433.4375 378.75 C424.57812605 389.93964766 412.96675654 396.97247745 399 400 C387.42240311 400.89753611 375.61694434 401.16499995 365 396 C364.03835938 395.54109375 363.07671875 395.0821875 362.0859375 394.609375 C347.43573948 387.10657817 338.70438483 375.34961558 333.25390625 359.8828125 C331.63916572 354.33701399 332 350.10397129 332 344 C288.935 344.495 288.935 344.495 245 345 C244.34 349.62 243.68 354.24 243 359 C238.36263315 374.21635999 229.82450953 385.81779954 216 394 C202.04299802 400.45841248 185.3101552 403.14968283 170.3125 398.375 C168.52083641 397.63167748 166.74797583 396.8409324 165 396 C163.64455078 395.41605469 163.64455078 395.41605469 162.26171875 394.8203125 C148.16216967 388.07965113 139.47307693 376.28998908 134 362 C133.25743459 359.67823065 132.61668764 357.35989875 132 355 C131.79246094 355.81082031 131.58492187 356.62164062 131.37109375 357.45703125 C129.09135701 365.6507294 126.00365248 372.13658287 121 379 C120.56171875 379.63421875 120.1234375 380.2684375 119.671875 380.921875 C112.12395129 390.83420854 99.17508413 398.03593613 87 400 C75.3642136 401.16271094 63.69973638 401.15591527 53 396 C52.08476563 395.59910156 51.16953125 395.19820313 50.2265625 394.78515625 C36.04888246 387.93459657 27.37707004 375.65876529 21.76171875 361.32421875 C19.85884026 355.51799976 19.89411283 350.05909895 20 344 C18.93040039 344.02094727 17.86080078 344.04189453 16.75878906 344.06347656 C12.78561827 344.13594626 8.81250575 344.18182463 4.83886719 344.21972656 C3.12001721 344.23982628 1.40123548 344.26711089 -0.31738281 344.30175781 C-2.78988489 344.35035034 -5.2614821 344.37298435 -7.734375 344.390625 C-8.88459137 344.42159271 -8.88459137 344.42159271 -10.05804443 344.45318604 C-13.50140455 344.45463003 -15.59581664 344.28194724 -18.45410156 342.28808594 C-20.28817015 339.57347905 -20.9185234 338.29377754 -21 335 C-20.27998811 331.95798408 -19.20734359 329.07602471 -18.109375 326.15234375 C-17.79264832 325.28028793 -17.47592163 324.40823212 -17.14959717 323.50975037 C-16.1128902 320.66813714 -15.05752164 317.83392638 -14 315 C-13.29063111 313.07712749 -12.58164835 311.15411248 -11.87304688 309.23095703 C-10.0590905 304.32657736 -8.22169189 299.43137926 -6.37353516 294.53979492 C-5.23200815 291.51482277 -4.09836418 288.48696453 -2.96484375 285.45898438 C-2.23224447 283.5154464 -1.49918912 281.57208026 -0.765625 279.62890625 C-0.43121399 278.7331337 -0.09680298 277.83736115 0.2477417 276.91444397 C4.4854913 265.75725435 4.4854913 265.75725435 8 264 C9.43182823 263.90810163 10.86786948 263.87806542 12.30264282 263.87974548 C13.20570663 263.87837082 14.10877045 263.87699615 15.03919983 263.87557983 C16.0325383 263.87917511 17.02587677 263.88277039 18.04931641 263.88647461 C19.09324051 263.88632858 20.13716461 263.88618256 21.21272278 263.8860321 C24.67569023 263.88673078 28.1386044 263.89452109 31.6015625 263.90234375 C33.99767019 263.90420809 36.39377827 263.90563192 38.78988647 263.90663147 C45.10608975 263.91045539 51.42227014 263.92028462 57.73846436 263.93133545 C64.17980642 263.94155226 70.62115217 263.94612967 77.0625 263.95117188 C89.70834311 263.96190698 102.35417034 263.97879055 115 264 C114.97643433 262.49433472 114.97643433 262.49433472 114.95239258 260.95825195 C114.89794886 257.22168045 114.86359774 253.48514379 114.83520508 249.74829102 C114.82015124 248.13332211 114.79970352 246.51839387 114.77368164 244.90356445 C114.73714714 242.57753445 114.72023985 240.25204659 114.70703125 237.92578125 C114.69154739 237.20787918 114.67606354 236.48997711 114.66011047 235.75032043 C114.65861173 231.25046011 115.47033876 228.68449176 118 225 C117.92650589 222.7340431 117.92650589 222.7340431 117.0390625 220.5078125 C116.73516602 219.63286133 116.43126953 218.75791016 116.11816406 217.85644531 C114.00804342 212.46596245 111.72295347 207.16576474 109.375 201.875 C108.20777347 199.21883108 107.04529321 196.56059253 105.8828125 193.90234375 C105.57508911 193.19995071 105.26736572 192.49755768 104.95031738 191.77388 C101.35750421 183.5592891 97.85861717 175.30503955 94.35952759 167.05020142 C93.25364038 164.44607233 92.14257056 161.84421241 91.0300293 159.24291992 C88.04393364 152.2514575 85.0663943 145.2698388 82.33984375 138.171875 C77.98886532 126.97046039 73.70006894 120.28505866 64 113 C62.65553129 111.84618339 61.32083992 110.68079244 60 109.5 C59.38125 108.96375 58.7625 108.4275 58.125 107.875 C54.84568857 104.98148991 51.63893288 102.00911641 48.421875 99.046875 C45.64505943 96.49444857 42.85019283 93.97016712 40 91.5 C36.6094922 88.5615599 33.3003097 85.53885858 30 82.5 C26.67798442 79.44148124 23.34688456 76.39883402 19.9375 73.4375 C14.89224253 69.03291015 9.95566735 64.50515214 5 60 C4.67 95.64 4.34 131.28 4 168 C5.98 168.33 7.96 168.66 10 169 C12.44794742 172.67192113 12.71435887 175.73106028 12 180 C9.79259319 182.96858157 8.51402627 183.82865791 5 185 C6.05305386 187.68050073 6.91614494 188.9371087 9.25 190.6875 C15.62071657 196.04469348 19.55907888 203.29342341 20.3359375 211.5859375 C20.42638281 220.35913298 20.30742134 226.48575049 14.12890625 232.9609375 C8.34896707 238.3147564 3.01042114 240.87079966 -5 241 C-13.63873862 240.07755842 -19.09999952 236.37069948 -24.703125 229.87890625 C-28.53375106 224.32911367 -28.78491957 218.54099641 -28 212 C-26.5 209.3125 -26.5 209.3125 -24 208 C-20.07937398 207.25283152 -17.11377013 207.30765641 -13.6875 209.4375 C-11.65708492 212.5207229 -10.69618409 215.53312658 -9.7109375 219.07421875 C-9.17694938 221.19660691 -9.17694938 221.19660691 -7 222 C-2.90814871 222.349104 -2.90814871 222.349104 0.875 221 C2.7021016 217.75181938 2.58622213 214.57186506 2 211 C-0.06028604 206.61069497 -2.80490977 204.31124192 -6.625 201.5 C-10.42402068 198.64917495 -12.30260951 196.88173341 -13 192 C-13.12209956 189.30892567 -13.09302982 186.69786469 -13 184 C-14.175625 183.8453125 -14.175625 183.8453125 -15.375 183.6875 C-18 183 -18 183 -20 180 C-20.67343977 172.92888244 -20.67343977 172.92888244 -18.1875 169.5 C-16 168 -16 168 -13 168 C-13.00276538 167.17577986 -13.00553076 166.35155972 -13.00837994 165.5023632 C-13.07463455 145.44676235 -13.12427806 125.39118035 -13.15543652 105.33549309 C-13.17090503 95.63670801 -13.19199429 85.937996 -13.22631836 76.23925781 C-13.25622114 67.78578363 -13.27557511 59.33236235 -13.28226548 50.87883675 C-13.28617625 46.40279918 -13.2953668 41.92691298 -13.31719017 37.45092392 C-13.33756919 33.23698579 -13.34383094 29.02326122 -13.33932304 24.80927849 C-13.34014761 23.26373191 -13.3461049 21.71817811 -13.35761642 20.17267418 C-13.37258318 18.05942507 -13.36893901 15.94697811 -13.36076355 13.83370972 C-13.36352893 12.65197111 -13.36629431 11.47023251 -13.36914349 10.25268364 C-12.95134958 6.57132001 -11.91741354 4.15337846 -10 1 C-6.74101212 -0.62949394 -3.51984471 -0.56527049 0 0 Z M4 25 C2.900935 28.98919887 2.85087329 32.00829671 4 36 C8.11236904 41.45625118 13.75570507 45.68410048 19 50 C20.40043111 51.22392569 21.79756228 52.45167051 23.1875 53.6875 C23.77917969 54.19667969 24.37085937 54.70585938 24.98046875 55.23046875 C27.69486193 57.6088442 30.34572387 60.05508905 33 62.5 C36.30022784 65.53894492 39.60949474 68.56156211 43 71.5 C46.9308925 74.9067735 50.75196573 78.43002785 54.578125 81.953125 C57.35494057 84.50555143 60.14980717 87.02983288 63 89.5 C66.9308925 92.9067735 70.75196573 96.43002785 74.578125 99.953125 C77.35494057 102.50555143 80.14980717 105.02983288 83 107.5 C86.9308925 110.9067735 90.75196573 114.43002785 94.578125 117.953125 C97.35494057 120.50555143 100.14980717 123.02983288 103 125.5 C106.9308925 128.9067735 110.75196573 132.43002785 114.578125 135.953125 C117.35494057 138.50555143 120.14980717 141.02983288 123 143.5 C126.93167214 146.90744919 130.75361244 150.43129673 134.58032227 153.95532227 C137.33473428 156.48740116 140.10742499 158.99035268 142.9375 161.4375 C146.62827689 164.63773059 150.22298616 167.9372489 153.8125 171.25 C154.37638428 171.77005615 154.94026855 172.2901123 155.52124023 172.82592773 C157.01905771 174.21201149 158.50985821 175.6056676 160 177 C160.54497635 177.45977737 161.0899527 177.91955475 161.65144348 178.39326477 C163.402282 180.47929817 163.39367177 181.6782896 163.43237305 184.37963867 C163.45231323 185.27259644 163.47225342 186.1655542 163.49279785 187.08557129 C163.49904175 188.02026245 163.50528564 188.95495361 163.51171875 189.91796875 C163.52835571 190.77990845 163.54499268 191.64184814 163.56213379 192.52990723 C163.61995584 195.74885675 163.65219116 198.96822482 163.6875 202.1875 C163.790625 209.385625 163.89375 216.58375 164 224 C182.15 224 200.3 224 219 224 C219.33 216.9875 219.66 209.975 220 202.75 C220.21849609 199.46820801 220.21849609 199.46820801 220.44140625 196.12011719 C220.98545558 186.55962203 220.98545558 186.55962203 217.52093506 177.94186401 C213.78782675 174.2626337 209.502586 171.61261879 204.93444824 169.08721924 C202.51345289 167.7265456 200.33627631 166.12773059 198.1328125 164.44140625 C196.79798504 163.4802274 195.46206945 162.52055763 194.125 161.5625 C192.60674072 160.47009393 191.08851247 159.37764474 189.5703125 158.28515625 C188.81524414 157.74262207 188.06017578 157.20008789 187.28222656 156.64111328 C183.5170093 153.93360468 179.75883948 151.21635203 176 148.5 C174.50003434 147.41661912 173.00003433 146.3332858 171.5 145.25 C162.5 138.75 153.5 132.25 144.5 125.75 C143.75758057 125.21383057 143.01516113 124.67766113 142.25024414 124.12524414 C140.7493445 123.04121584 139.24853078 121.95706858 137.74780273 120.87280273 C134.01226033 118.17412345 130.27527746 115.47748688 126.53515625 112.78515625 C118.74084153 107.17096822 110.975464 101.52114617 103.25 95.8125 C96.73277127 90.99713071 90.17886685 86.24135527 83.57421875 81.546875 C79.45110426 78.61457267 75.35034806 75.65151724 71.25 72.6875 C70.49195068 72.13956787 69.73390137 71.59163574 68.95288086 71.02709961 C67.40666903 69.90927547 65.86052687 68.79135496 64.31445312 67.67333984 C61.29091913 65.48733752 58.26626449 63.30288938 55.24145508 61.11865234 C53.74377619 60.03711318 52.24621811 58.95540669 50.7487793 57.87353516 C47.01292827 55.17458827 43.27560767 52.47772458 39.53515625 49.78515625 C38.04419033 48.71104924 36.55330479 47.63683064 35.0625 46.5625 C34.33345459 46.0375293 33.60440918 45.51255859 32.85327148 44.97167969 C28.79761982 42.04425193 24.76381715 39.09004534 20.75 36.10546875 C19.88366943 35.462146 19.01733887 34.81882324 18.12475586 34.15600586 C16.44845991 32.90904612 14.77468472 31.65868874 13.10375977 30.40454102 C12.34893311 29.84307373 11.59410645 29.28160645 10.81640625 28.703125 C10.15068604 28.20458008 9.48496582 27.70603516 8.79907227 27.19238281 C6.90194756 25.82258614 6.90194756 25.82258614 4 25 Z M325 145 C325 205.39 325 265.78 325 328 C327.97 328 330.94 328 334 328 C334.49628906 326.9378125 334.99257813 325.875625 335.50390625 324.78125 C339.20516434 317.0179713 342.66851545 309.97973541 349 304 C349.58007812 303.40058594 350.16015625 302.80117188 350.7578125 302.18359375 C360.5811807 292.66849024 373.77999257 288.71673871 387.16992188 288.68115234 C388.48840622 288.66608391 388.48840622 288.66608391 389.83352661 288.65071106 C392.71192832 288.62005031 395.59023776 288.60289183 398.46875 288.5859375 C400.47514633 288.56721207 402.48153489 288.54763764 404.48791504 288.5272522 C409.74852916 288.47607028 415.00916878 288.43637013 420.26989746 288.39910889 C425.64614089 288.3589816 431.02227955 288.30792916 436.3984375 288.2578125 C446.93221792 288.16121837 457.46605769 288.076761 468 288 C469.13164197 277.84915156 469.84542264 267.70301139 470.25 257.5 C470.28066936 256.73007847 470.31133873 255.96015694 470.34293747 255.16690445 C471.3705107 225.80220208 463.8603754 203.38830281 450.0625 177.6875 C449.41982933 176.48898911 449.41982933 176.48898911 448.76417542 175.26626587 C441.14337978 159.22240922 441.14337978 159.22240922 431 145 C429.62123975 144.9046081 428.23763084 144.87811378 426.85557556 144.87974548 C425.96416587 144.87836799 425.07275618 144.87699049 424.15433407 144.87557125 C423.16488576 144.87916936 422.17543745 144.88276747 421.15600586 144.88647461 C420.10519364 144.88635407 419.05438143 144.88623354 417.97172642 144.88610935 C414.55274438 144.88685883 411.1338161 144.89448864 407.71484375 144.90234375 C405.61104356 144.90381306 403.50724301 144.90483384 401.40344238 144.90539551 C393.58145603 144.91064964 385.7594775 144.9246107 377.9375 144.9375 C360.468125 144.958125 342.99875 144.97875 325 145 Z M108 153 C110.31514963 160.33186787 113.15867778 167.34468742 116.18359375 174.41015625 C116.68037125 175.57703476 117.17714874 176.74391327 117.6889801 177.94615173 C118.73537926 180.40177444 119.78311295 182.85677105 120.83325195 185.31079102 C122.16980112 188.4344607 123.50097468 191.56038614 124.83042812 194.68708134 C126.11222297 197.70004666 127.39803761 200.71129427 128.68359375 203.72265625 C129.39315468 205.39014671 129.39315468 205.39014671 130.11705017 207.09132385 C132.57476077 212.82772177 135.13855262 218.45345853 138 224 C140.97 224 143.94 224 147 224 C147.29950746 218.93256419 147.51560938 213.87039574 147.65917969 208.79614258 C147.71907271 207.0758281 147.80063318 205.35611275 147.90527344 203.63793945 C148.79617231 192.9004843 148.79617231 192.9004843 144.45556641 183.50878906 C141.55768908 180.65653481 138.3214108 178.33995405 135 176 C133.27158585 174.48088071 131.55934408 172.94284052 129.875 171.375 C129.07191406 170.65570313 128.26882812 169.93640625 127.44140625 169.1953125 C125.75390719 167.67791335 124.07471556 166.15124284 122.40234375 164.6171875 C117.78397277 160.39587104 113.1904944 156.49794188 108 153 Z M292 177 C292 205.71 292 234.42 292 264 C297.28 264 302.56 264 308 264 C308 235.29 308 206.58 308 177 C302.72 177 297.44 177 292 177 Z M132 240 C132 247.92 132 255.84 132 264 C171.27 264 210.54 264 251 264 C251 256.08 251 248.16 251 240 C211.73 240 172.46 240 132 240 Z M18 280 C11.08372936 297.28464693 11.08372936 297.28464693 4.5 314.6875 C4.05914062 315.87666016 3.61828125 317.06582031 3.1640625 318.29101562 C1.04547325 323.02461386 1.04547325 323.02461386 0 328 C7.26 328 14.52 328 22 328 C23.134375 325.56625 24.26875 323.1325 25.4375 320.625 C32.43823152 306.27749873 43.01531008 296.55883658 58 291 C72.40707003 286.68242381 88.42201749 287.46426835 102 294 C105.55639501 296.09916333 108.79814816 298.39776769 112 301 C112.82113281 301.60457031 113.64226562 302.20914062 114.48828125 302.83203125 C121.91214204 309.23987377 127.01916266 318.76565775 130 328 C131.32 328 132.64 328 134 328 C134.49628906 326.9378125 134.99257812 325.875625 135.50390625 324.78125 C139.20516434 317.0179713 142.66851545 309.97973541 149 304 C149.87011719 303.10087891 149.87011719 303.10087891 150.7578125 302.18359375 C161.78318153 291.50420911 176.06955591 288.54672673 190.84692383 288.56616211 C205.04854192 288.86442703 216.22966005 293.93605459 226.75 303.5 C227.4925 304.325 228.235 305.15 229 306 C229.47953125 306.49886719 229.9590625 306.99773437 230.453125 307.51171875 C235.99029961 313.51032458 238.99373768 320.48434419 242 328 C263.78 328 285.56 328 308 328 C308 312.16 308 296.32 308 280 C212.3 280 116.6 280 18 280 Z M429 304 C431.03514456 308.38259323 431.03514456 308.38259323 434 312 C436.71630443 312.35632458 439.02142924 312.46742617 441.73046875 312.390625 C442.48088943 312.38496521 443.23131012 312.37930542 444.00447083 312.37347412 C446.39946504 312.35109668 448.79295869 312.30090171 451.1875 312.25 C452.81182734 312.22993659 454.43617815 312.21168553 456.06054688 312.1953125 C460.04094207 312.15122794 464.02021671 312.08219427 468 312 C468 309.36 468 306.72 468 304 C455.13 304 442.26 304 429 304 Z M44.1875 320.25 C37.09321935 330.06650462 35.84643472 340.21460626 37 352 C39.26216315 362.80216367 45.75399325 371.05097124 54.546875 377.49609375 C64.00763887 383.29608434 74.30379479 385.13121777 85.1015625 382.84765625 C95.52433102 379.7994881 103.99795437 374.4675916 109.75 365.171875 C115.56847035 354.26224308 117.60869296 344.0192927 114.12890625 331.98828125 C110.16559589 321.27774357 103.38090178 313.84685221 93.5546875 308.15625 C75.49937809 299.98442801 56.60550382 305.51185958 44.1875 320.25 Z M156.1875 320.25 C149.09321935 330.06650462 147.84643472 340.21460626 149 352 C151.26216315 362.80216367 157.75399325 371.05097124 166.546875 377.49609375 C176.00763887 383.29608434 186.30379479 385.13121777 197.1015625 382.84765625 C208.9217645 379.39080472 217.46153516 373.10173032 223.375 362.3125 C227.90801154 352.47858972 229.33079364 342.40504562 226 332 C221.19318432 319.65308128 214.62754026 312.78278144 202.734375 307.12890625 C185.69015748 300.0920793 167.62727131 306.67286165 156.1875 320.25 Z M356.1875 320.25 C349.09321935 330.06650462 347.84643472 340.21460626 349 352 C351.26216315 362.80216367 357.75399325 371.05097124 366.546875 377.49609375 C376.00763887 383.29608434 386.30379479 385.13121777 397.1015625 382.84765625 C408.9217645 379.39080472 417.46153516 373.10173032 423.375 362.3125 C427.90801154 352.47858972 429.33079364 342.40504562 426 332 C421.19318432 319.65308128 414.62754026 312.78278144 402.734375 307.12890625 C385.69015748 300.0920793 367.62727131 306.67286165 356.1875 320.25 Z " fill="#000000" transform="translate(28,56)"/>
<path d="M0 0 C0.69641602 -0.00700928 1.39283203 -0.01401855 2.11035156 -0.02124023 C4.40730932 -0.03881383 6.70303021 -0.02720107 9 -0.01367188 C10.59896073 -0.01636701 12.19791987 -0.0202496 13.796875 -0.02526855 C17.14599226 -0.03116269 20.49468243 -0.0226038 23.84375 -0.00390625 C28.13478591 0.01888377 32.42482111 0.00576017 36.71582031 -0.01819611 C40.01700366 -0.03265667 43.31795011 -0.02804703 46.61914062 -0.01768494 C48.20117308 -0.01501834 49.78322711 -0.0182851 51.36523438 -0.02760315 C53.57740163 -0.03777366 55.787953 -0.02226378 58 0 C59.8871875 0.00477356 59.8871875 0.00477356 61.8125 0.00964355 C65.63755239 0.61917339 66.67967443 1.47433521 69 4.51757812 C70.43684387 6.84968567 70.43684387 6.84968567 71.76489258 9.45043945 C72.26833694 10.42858109 72.77178131 11.40672272 73.29048157 12.414505 C74.08448616 13.99113167 74.08448616 13.99113167 74.89453125 15.59960938 C75.72195076 17.23092049 75.72195076 17.23092049 76.56608582 18.89518738 C77.72762772 21.1936684 78.88478001 23.49437227 80.0378418 25.79711914 C81.80540418 29.3159519 83.60020171 32.81997905 85.39648438 36.32421875 C86.5225362 38.5609925 87.64694098 40.79859634 88.76953125 43.03710938 C89.3089888 44.08212112 89.84844635 45.12713287 90.4042511 46.20381165 C93.16736947 51.79934675 94.91009321 55.42405757 93 61.51757812 C91.03062077 64.33097702 89.27602853 64.84497465 86 65.51757812 C83.11859285 65.62248588 80.26103083 65.6747718 77.37939453 65.67871094 C76.51062683 65.68367584 75.64185913 65.68864075 74.74676514 65.6937561 C71.87543951 65.70835 69.00416911 65.71517469 66.1328125 65.72070312 C64.13508096 65.72645633 62.13734943 65.73221404 60.13961792 65.73797607 C55.9516372 65.7484778 51.76367563 65.75432607 47.57568359 65.7578125 C42.2134007 65.76329915 36.85137148 65.78733439 31.48916817 65.81578445 C27.3627346 65.83442042 23.23636207 65.83961692 19.10988998 65.84114838 C17.13316331 65.84417265 15.15643766 65.85219357 13.17975235 65.86533356 C10.41277059 65.88241593 7.64640785 65.88050858 4.87939453 65.87402344 C4.0656839 65.88323822 3.25197327 65.892453 2.41360474 65.90194702 C-2.44707053 65.86631667 -5.78698728 65.21037453 -10 62.51757812 C-11.28342577 59.95072658 -11.14808107 58.08756747 -11.17700195 55.21337891 C-11.18983719 54.10527863 -11.20267242 52.99717834 -11.21589661 51.85549927 C-11.22328354 50.65343842 -11.23067047 49.45137756 -11.23828125 48.21289062 C-11.25038887 46.36689774 -11.25038887 46.36689774 -11.26274109 44.48361206 C-11.27659032 41.87597059 -11.2873087 39.26831094 -11.29516602 36.66064453 C-11.30403561 33.98528332 -11.32492948 31.3104399 -11.35668945 28.63525391 C-11.3991954 24.78597227 -11.41551205 20.9373773 -11.42578125 17.08789062 C-11.44328934 15.88987823 -11.46079742 14.69186584 -11.47883606 13.45755005 C-11.47591049 12.34314545 -11.47298492 11.22874084 -11.4699707 10.08056641 C-11.47583694 9.10064728 -11.48170319 8.12072815 -11.48774719 7.1111145 C-10.25916746 0.57829117 -5.93751875 0.0150187 0 0 Z M6 17.51757812 C6 27.74757812 6 37.97757813 6 48.51757812 C27.45 48.51757812 48.9 48.51757812 71 48.51757812 C69.57709822 44.24887277 68.20387911 40.67804769 66.21484375 36.71679688 C65.68439453 35.65783203 65.15394531 34.59886719 64.60742188 33.5078125 C64.05634766 32.41791016 63.50527344 31.32800781 62.9375 30.20507812 C62.38255859 29.09583984 61.82761719 27.98660156 61.25585938 26.84375 C59.08228092 21.87490981 59.08228092 21.87490981 56 17.51757812 C54.43452952 17.42431097 52.86487228 17.4001223 51.29663086 17.40405273 C49.79518776 17.40416603 49.79518776 17.40416603 48.26341248 17.40428162 C47.1748848 17.4094429 46.08635712 17.41460419 44.96484375 17.41992188 C43.3022628 17.4220443 43.3022628 17.4220443 41.60609436 17.42420959 C38.04986931 17.42982779 34.49370617 17.44238338 30.9375 17.45507812 C28.53320403 17.46009078 26.12890708 17.46465409 23.72460938 17.46875 C17.81636294 17.47895423 11.90825115 17.49852608 6 17.51757812 Z " fill="#000000" transform="translate(379,215.482421875)"/>
<path d="M0 0 C5.59137949 3.37887664 10.95614309 9.07457238 12.5625 15.5 C14.04442542 22.90962711 13.44011931 28.95338574 9.875 35.6875 C5.02071288 41.59136272 0.14418266 46.02924169 -7.70703125 46.8359375 C-16.22326573 46.92983204 -22.11345494 46.6177288 -28.40234375 40.62890625 C-34.7841668 33.72505269 -35.91792252 28.29832071 -35.7421875 18.9453125 C-35.04689797 11.08319245 -31.38995981 6.95041296 -25.53515625 1.9453125 C-18.47077988 -2.92213491 -7.84396301 -3.47595223 0 0 Z M-16.8125 17.125 C-18.92456506 20.21186432 -19.04945145 21.8282913 -18.4375 25.5 C-16.9375 28 -16.9375 28 -14.4375 29.5 C-10.7657913 30.11195145 -9.14936432 29.98706506 -6.0625 27.875 C-3.95043494 24.78813568 -3.82554855 23.1717087 -4.4375 19.5 C-5.9375 17 -5.9375 17 -8.4375 15.5 C-12.1092087 14.88804855 -13.72563568 15.01293494 -16.8125 17.125 Z " fill="#000000" transform="translate(427.4375,377.5)"/>
<path d="M0 0 C5.59137949 3.37887664 10.95614309 9.07457238 12.5625 15.5 C14.04442542 22.90962711 13.44011931 28.95338574 9.875 35.6875 C5.02071288 41.59136272 0.14418266 46.02924169 -7.70703125 46.8359375 C-16.22326573 46.92983204 -22.11345494 46.6177288 -28.40234375 40.62890625 C-34.7841668 33.72505269 -35.91792252 28.29832071 -35.7421875 18.9453125 C-35.04689797 11.08319245 -31.38995981 6.95041296 -25.53515625 1.9453125 C-18.47077988 -2.92213491 -7.84396301 -3.47595223 0 0 Z M-16.8125 17.125 C-18.92456506 20.21186432 -19.04945145 21.8282913 -18.4375 25.5 C-16.9375 28 -16.9375 28 -14.4375 29.5 C-10.7657913 30.11195145 -9.14936432 29.98706506 -6.0625 27.875 C-3.95043494 24.78813568 -3.82554855 23.1717087 -4.4375 19.5 C-5.9375 17 -5.9375 17 -8.4375 15.5 C-12.1092087 14.88804855 -13.72563568 15.01293494 -16.8125 17.125 Z " fill="#000000" transform="translate(227.4375,377.5)"/>
<path d="M0 0 C5.44741947 3.28016656 10.11914586 8.62698362 12.5625 14.5 C14.1946584 22.23958983 13.66722307 28.60236468 9.875 35.625 C5.88544663 40.58498528 1.72468856 44.55873251 -4.4375 46.5 C-12.27358208 47.30514105 -20.05672577 47.62460392 -26.4375 42.5 C-31.48271222 37.69551361 -35.04312995 33.33822945 -35.7734375 26.23046875 C-35.86733204 17.71423427 -35.5552288 11.82404506 -29.56640625 5.53515625 C-21.52363185 -1.89946886 -10.4806088 -4.64434821 0 0 Z M-16.8125 17.125 C-18.92456506 20.21186432 -19.04945145 21.8282913 -18.4375 25.5 C-17.00088689 28.02006844 -17.00088689 28.02006844 -14.4375 29.5 C-9.7711133 30.07872098 -9.7711133 30.07872098 -5.5625 28.3125 C-4.08344594 25.92957957 -3.57158693 24.31582552 -3.4375 21.5 C-5.18863525 17.78738773 -5.18863525 17.78738773 -8.4375 15.5 C-12.0192622 15.11067802 -13.80031721 15.06403282 -16.8125 17.125 Z " fill="#000000" transform="translate(115.4375,377.5)"/>
<path d="M0 0 C0.7115625 -0.01546875 1.423125 -0.0309375 2.15625 -0.046875 C5.60314984 -0.02115187 7.64752229 0.24568064 10.46875 2.28125 C12.53165601 5.27035871 12.57203305 7.06734258 12.39453125 10.59765625 C11.78611893 13.53128795 10.38853486 14.79390367 8 16.5 C2.44459122 18.35180293 -3.11482844 18.22761008 -8.5625 16.125 C-11 14.5 -11 14.5 -12 12.5 C-12.57698012 5.34544646 -12.57698012 5.34544646 -10.48046875 2.2734375 C-7.07562445 -0.16089213 -4.02999516 -0.08760859 0 0 Z " fill="#000000" transform="translate(380,287.5)"/>
</svg>
