<svg xmlns="http://www.w3.org/2000/svg" width="512" height="512"><path fill="#ff940e" d="M227 161c13.792 8.553 21.675 24.151 25.438 39.563 1.703 7.461 2.717 14.708 2.765 22.363l.022 2.244c.174 23.68-.592 46.348-12.337 67.604l-1.639 2.974L240 298l1.893.002q22.85.022 45.7.13c7.367.035 14.734.06 22.101.064q9.638.003 19.274.065c3.399.02 6.797.033 10.196.025 3.803-.005 7.606.021 11.41.055l3.376-.027c8.7.127 15.123 2.457 21.863 7.998 6.727 8.266 9.224 14.953 8.187 25.688-2.017 7.397-5.372 13.802-12 18h-2l1.277 2.047 1.66 2.703 1.653 2.672c3.573 6.533 3.623 15.121 1.691 22.219-3.04 7.207-7.39 12.464-14.281 16.359h-3l1.059 2.012 1.378 2.675 1.372 2.637c3.205 7.2 2.815 14.65.43 22.043-2.864 6.088-7.86 11.91-14.051 14.758C346 441 346 441 342 441l.84 1.645 1.098 2.168 1.09 2.144c3.158 6.634 2.92 14.735.91 21.73-3.22 8.292-8.98 14.438-16.938 18.313-3.446 1.149-6.128 1.14-9.765 1.16l-2.096.016c-2.324.016-4.647.024-6.97.033l-4.993.03q-8.209.043-16.418.07l-2.825.01q-13.196.047-26.393.074-16.854.031-33.709.133c-7.908.048-15.817.072-23.725.08-4.719.004-9.436.02-14.155.059q-6.67.053-13.34.032-2.436 0-4.87.032c-10.625.133-18.376-1.348-27.741-6.729l-.425 2.85c-1.102 6.04-4.838 10.677-9.45 14.587-6.89 3.446-13.498 3.859-21.054 3.838l-2.91.015c-3.156.014-6.31.013-9.466.01l-6.62.014q-6.927.01-13.854.002c-5.9-.006-11.8.01-17.699.034-4.556.015-9.111.016-13.667.013q-3.26 0-6.523.015c-3.048.013-6.096.006-9.144-.006l-2.687.023c-7.698-.064-16.074-1.247-21.938-6.645l-1.872-1.64c-4.272-5.328-5.134-10.634-5.085-17.3l-.019-2.415a989 989 0 0 1-.007-7.963q-.01-2.865-.026-5.728c-.022-5.175-.025-10.35-.023-15.526q-.002-6.487-.017-12.973-.027-15.303-.015-30.607c.007-10.518-.016-21.036-.053-31.555Q-.6 357.486-.592 343.93c.002-5.394-.004-10.79-.028-16.184a1813 1813 0 0 1 0-15.22q.005-2.79-.016-5.577c-.077-10.652.048-17.696 7.445-25.971l1.628-1.352 1.622-1.398c6.065-3.832 12.332-3.49 19.246-3.422l3.27.008c3.433.011 6.867.037 10.3.062q3.5.016 7 .027 8.563.034 17.125.098l.013 1.809q.155 21.756.326 43.513.085 10.521.158 21.042.072 10.144.156 20.288.031 3.88.056 7.76.037 5.412.086 10.826l.017 3.276.03 2.962.02 2.59c-.074 1.94-.074 1.94 1.138 2.934 1.666.04 3.334.043 5 0 1.201-2.403 1.138-3.922 1.158-6.606l.03-2.94.017-3.238.03-3.4q.047-5.583.081-11.168l.063-7.726q.074-9.142.138-18.285.076-10.408.16-20.815.17-21.411.323-42.822c6.671-.102 13.342-.172 20.013-.22q3.4-.03 6.8-.082c3.27-.049 6.538-.071 9.808-.089l3.041-.062c7.588-.003 13.665 1.535 19.678 6.312l1.597 1.891 1.653 1.86c1.974 3.346 2.589 6.596 3.41 10.39 20.23-9.19 34.06-21.578 42.434-42.57 6.173-16.692 8.423-34.264 8.761-51.95l.049-2.325c.08-3.887.136-7.77.152-11.657.198-18.341.198-18.341 6.086-25.233 8.235-7.244 18.501-4.676 27.518-.265M80.688 445.5c-4.008 4.797-4.094 9.338-4.028 15.418.592 5.37 2.818 9.027 6.985 12.422 4.733 3.003 9.275 4.126 14.808 3.289 5.507-1.327 9.036-3.156 12.426-7.746 3.446-5.788 3.724-11.484 2.121-17.883-2.856-5.5-7.025-10.008-13-12-8.169-.731-13.68.202-19.312 6.5"/><path fill="#ff6a1f" d="M460 49c14.42 13.35 25.914 27.544 35 45l1.019 1.927c4.319 8.27 7.699 16.606 10.293 25.573l.698 2.403c3.907 14.331 5.522 28.228 5.365 43.034l-.014 2.388c-.08 11.466-.478 22.524-3.361 33.675l-.602 2.465c-10.023 40.475-33.419 75.038-69.04 97.141C411.695 318.961 411.695 318.961 399 316c-3.56-1.968-5.69-4.068-7-8-.264-3.564-.244-6.3.938-9.687 2.503-2.807 4.7-3.702 8.148-5.094 15.193-6.355 29.472-14.41 41.914-25.219 1.25-1.03 1.25-1.03 2.523-2.082 25.315-21.522 39.714-54.817 43.102-87.355 2.79-36.011-8.508-70.894-31.625-98.563l-1.292-1.555c-21.53-25.54-53.623-41.056-86.52-45.132-35.967-2.78-71.856 6.542-99.767 30.015-21.046 18.044-35.263 39.894-43.35 66.375-3.566 10.982-3.566 10.982-8.071 13.297-4.666.842-8.753.623-13-1.5-2.917-3.647-4.286-7.839-3.785-12.502.495-2.066 1.103-4.049 1.785-6.06l.71-2.227A286 286 0 0 1 206 114l.706-2c14.205-39.374 44.136-70.804 81.732-88.812C345.203-2.157 413.625 7.12 460 49"/><path fill="#ff711c" d="M359 65c5.5 3 5.5 3 7 6 .071 2.374.084 4.75.063 7.125l-.028 3.883L366 85l3.75.188c12.401 1.46 21.4 7.861 29.285 17.23 5.854 7.817 9.81 16.429 9.352 26.352-.612 3.528-1.98 5.627-4.387 8.23-3.567 2.28-6.917 2.363-11.082 1.637-3.589-1.192-5.25-3.426-6.918-6.637a186 186 0 0 1-3.691-10.66c-1.66-4.234-3.521-7.202-7.395-9.668-9.511-3.83-20.15-5.27-29.914-1.672-6.276 2.756-10.317 6.474-13.312 12.75-1.537 7.261-1.443 13.065 2.34 19.559C335 144 335 144 336 147c1.855 1.12 1.855 1.12 4 2l1.745.987c5.631 3.093 11.23 4.225 17.505 5.388 15.174 3.09 26.753 8.487 36.625 21 6.997 10.62 8.687 23.928 6.477 36.234-3.07 12.014-9.219 21.164-19.352 28.391-5.55 3.103-10.689 5.122-17 6l.105 3.105q.043 2.042.082 4.083l.077 2.04c.065 4.482-.543 7.198-3.264 10.772-3.032 2.359-6.26 2.36-10.035 2.254-2.921-.378-4.708-1.395-6.965-3.254-1.807-2.979-2.367-5.55-2.687-9l-.262-2.562c-.05-2.367.256-4.187.949-6.438l-3.875-.25c-11.656-1.334-22.144-7.546-29.559-16.543-6.191-8.724-9.75-18.451-8.566-29.207 1.639-3.934 3.13-5.396 7-7 2.184-.336 2.184-.336 4.438-.375l2.246-.086c3.385.674 4.915 1.993 7.316 4.461 1.02 2.511 1.81 4.782 2.5 7.375 1.731 6.438 3.931 11.2 9.598 15.05l1.964.887 1.973.926c8.304 3.22 18.335 2.77 26.676-.136 5.454-2.625 9.872-6.346 12.289-11.977 1.91-6.426 1.82-13.018-.844-19.21C372.625 184.412 365.18 181.122 357 179a404 404 0 0 0-8.062-1.5c-13.626-2.393-24.787-7.61-33.375-18.875-7.65-11.302-10.138-23.176-8.102-36.684 2.595-11.739 7.975-21.626 17.89-28.593C330.809 89.893 337.343 86 344 86l-.176-3.105q-.07-2.042-.137-4.082l-.126-2.042c-.098-3.99.274-5.57 2.834-8.697 4.084-3.251 7.456-3.79 12.605-3.074"/></svg>