<?xml version="1.0" encoding="UTF-8"?>
<svg version="1.1" xmlns="http://www.w3.org/2000/svg" width="512" height="512">
<path d="M0 0 C1.18625977 0.0146228 1.18625977 0.0146228 2.39648438 0.02954102 C12.8748616 0.34703498 19.07089535 3.82650935 26.80078125 10.828125 C33.4983643 18.34742833 36.60653405 27.30364384 40.0546875 36.58984375 C40.62055423 38.09419885 41.1872125 39.59825642 41.75460815 41.10203552 C42.94701694 44.26680703 44.13423575 47.43345457 45.31726074 50.60174561 C47.08837604 55.34398493 48.87328291 60.08094338 50.66113281 64.81689453 C53.60931787 72.63089248 56.54539018 80.4493817 59.4765625 88.26977539 C60.97949696 92.27957584 62.48499314 96.28840957 63.99107552 100.29702854 C65.17442889 103.44772099 66.35625966 106.59898293 67.53765488 109.75041008 C68.09287074 111.23081656 68.64859293 112.71103326 69.20486832 114.19104195 C81.02181169 145.63929878 81.02181169 145.63929878 75.125 160.4375 C70.18931226 169.77382322 64.21843093 178.52367911 58.38085938 187.30932617 C48.75952552 200.34185594 48.75952552 200.34185594 45.53125 215.57421875 C46.71028437 221.25995687 49.865039 225.73217136 53.125 230.4375 C53.5698877 231.09057129 54.01477539 231.74364258 54.47314453 232.41650391 C66.95027992 250.67645025 80.69161203 267.73651839 95.73681641 283.93164062 C97.16403561 285.47984465 98.57402316 287.04228868 99.98046875 288.609375 C104.38696987 293.50716958 108.79368546 298.24341594 113.85546875 302.48046875 C116.29436978 304.58354864 118.62249288 306.77955336 120.95922852 308.99462891 C127.77351486 315.43638235 134.82124481 321.38560793 142.29345703 327.04736328 C144.19220102 328.48850541 146.07861615 329.94486892 147.96484375 331.40234375 C166.64369608 347.18534955 166.64369608 347.18534955 188.9453125 354 C195.41207358 352.85600295 200.73275938 349.0036602 206.125 345.4375 C206.72860352 345.04175781 207.33220703 344.64601563 207.95410156 344.23828125 C211.06569457 342.19148563 214.15938212 340.11923673 217.24609375 338.03515625 C221.31474316 335.29810266 225.4230123 332.62856984 229.5625 330 C230.2004248 329.5870166 230.83834961 329.1740332 231.49560547 328.74853516 C237.54984526 324.93251992 243.68381465 322.23286474 250.875 321.5625 C251.77734375 321.46195312 252.6796875 321.36140625 253.609375 321.2578125 C264.23002938 321.80064595 274.3808224 326.18497393 284.23828125 329.890625 C285.68548112 330.42931595 287.13287885 330.96747561 288.58045959 331.50514221 C292.4141652 332.93110255 296.24474831 334.3652642 300.0745163 335.80176163 C303.23819803 336.98763282 306.40336766 338.16950568 309.56848145 339.35154819 C318.05718597 342.52218929 326.54111626 345.70541947 335.02264404 348.89520264 C338.70962851 350.28177499 342.39789246 351.6649159 346.08642578 353.04736328 C350.75887819 354.79995341 355.42765175 356.5618735 360.09213257 358.33557129 C361.67726258 358.93755144 363.26336221 359.53698558 364.85049438 360.13366699 C379.12092262 365.50821629 390.46520251 370.88481925 397.1796875 385.203125 C400.53410193 393.13174091 400.75293849 405.2781914 397.8125 413.5 C394.4749949 420.34944427 389.94894473 426.65736534 385.73730469 432.98925781 C382.89184818 437.31000855 380.14086246 441.69056519 377.375 446.0625 C375.58276606 448.87847782 373.78805994 451.6928657 371.99267578 454.50683594 C370.72034767 456.50331001 369.45059257 458.50142562 368.18310547 460.50097656 C366.23543204 463.56912993 364.27524885 466.62897423 362.3125 469.6875 C361.72694336 470.6151416 361.14138672 471.5427832 360.53808594 472.49853516 C348.17977462 491.65149721 331.06181332 506.59032517 308.4140625 511.5390625 C260.32504823 520.54786997 200.6522717 490.29171182 159.125 469.4375 C157.83843506 468.79216309 157.83843506 468.79216309 156.52587891 468.13378906 C123.38298252 451.38253624 92.57020157 430.25571448 64.125 406.4375 C63.51817383 405.92977051 62.91134766 405.42204102 62.28613281 404.89892578 C60.4980601 403.396964 58.71615544 401.8880984 56.9375 400.375 C56.19149536 399.74247314 56.19149536 399.74247314 55.43041992 399.09716797 C44.69754197 389.87416078 34.55025173 380.02823139 24.56591797 370.00878906 C22.73389005 368.1713424 20.89649395 366.3393835 19.05859375 364.5078125 C13.2007607 358.65358351 7.46343896 352.77609778 2.125 346.4375 C1.17639262 345.35379085 0.22591506 344.27171546 -0.7265625 343.19140625 C-7.91107339 334.95472208 -14.64254384 326.43269825 -21.19091797 317.68359375 C-22.8901321 315.41731802 -24.60298467 313.16179565 -26.31640625 310.90625 C-44.8108161 286.38257448 -60.04598872 259.81610076 -73.875 232.4375 C-74.31199219 231.57431152 -74.74898437 230.71112305 -75.19921875 229.82177734 C-94.67323632 191.03103234 -124.65725397 128.34553068 -110.19921875 83.75390625 C-105.21363962 71.26789835 -98.81281224 60.64815525 -88.875 51.4375 C-88.33488281 50.89222656 -87.79476562 50.34695312 -87.23828125 49.78515625 C-80.2165711 43.03934826 -71.93739933 38.27362597 -63.6953125 33.19140625 C-58.55409633 29.99416794 -53.46881077 26.70951337 -48.375 23.4375 C-46.2515015 22.07911529 -44.12780551 20.72103926 -42.00390625 19.36328125 C-38.10868584 16.87163392 -34.22111461 14.36877948 -30.33984375 11.85546875 C-28.66419176 10.7784447 -26.98841816 9.70160983 -25.3125 8.625 C-24.57 8.13966797 -23.8275 7.65433594 -23.0625 7.15429688 C-15.50451025 2.3213438 -9.02707038 -0.12473137 0 0 Z M-19.875 25.4375 C-21.61786966 26.56476114 -23.36140588 27.6909921 -25.10546875 28.81640625 C-29.02559574 31.35555643 -32.93196887 33.9145295 -36.83203125 36.484375 C-41.76011309 39.72357955 -46.73118915 42.88742584 -51.72387695 46.02587891 C-71.26499718 58.32500317 -87.08582907 69.85905728 -94.8125 92.5 C-103.415293 130.7162535 -79.42143801 179.28302152 -63.875 213.4375 C-63.45009277 214.38222168 -63.02518555 215.32694336 -62.58740234 216.30029297 C-56.17892572 230.48631831 -48.75497354 244.0198525 -40.875 257.4375 C-40.16126221 258.65397217 -40.16126221 258.65397217 -39.43310547 259.89501953 C-23.71631378 286.51027565 -5.15366547 311.10604466 15 334.5 C15.76654907 335.39247437 15.76654907 335.39247437 16.54858398 336.30297852 C19.72682095 339.9582859 23.04435453 343.41802401 26.51000977 346.80224609 C28.15778802 348.47069942 29.67726197 350.20686584 31.1875 352 C38.46205758 360.42663683 46.52477697 368.43242831 55.02734375 375.6171875 C57.27229005 377.56531594 59.43237988 379.59416774 61.59521484 381.63256836 C68.22793344 387.86505356 75.1504277 393.55026563 82.37207031 399.08300781 C84.10361086 400.42097257 85.81598081 401.77991047 87.5234375 403.1484375 C107.48012798 419.1200926 128.85840877 432.92639372 151.125 445.4375 C152.02041504 445.94539063 152.91583008 446.45328125 153.83837891 446.9765625 C187.52411884 466.01454463 223.04752521 479.55094588 260.125 490.4375 C261.0752002 490.72560547 262.02540039 491.01371094 263.00439453 491.31054688 C281.52714622 496.88201622 300.39951466 498.44617736 318.29296875 489.9296875 C335.82691741 480.3737966 344.94089855 464.92186584 355.25390625 448.5625 C357.92885758 444.31999554 360.62552724 440.09242918 363.33984375 435.875 C364.04367187 434.78074707 364.7475 433.68649414 365.47265625 432.55908203 C366.82383746 430.46001571 368.17659486 428.36196279 369.53125 426.26513672 C371.41475542 423.33400393 373.27684163 420.3910396 375.125 417.4375 C375.7854834 416.38498047 376.4459668 415.33246094 377.12646484 414.24804688 C377.76148926 413.20455078 378.39651367 412.16105469 379.05078125 411.0859375 C379.62352783 410.15185059 380.19627441 409.21776367 380.78637695 408.25537109 C383.11223832 403.35931202 383.18650348 398.69305571 382.125 393.4375 C379.59625929 387.17195621 375.33975027 382.92939687 369.193573 380.0770874 C368.10859528 379.67234192 367.02361755 379.26759644 365.90576172 378.85058594 C365.30030423 378.62181794 364.69484674 378.39304995 364.07104206 378.15734959 C362.0687856 377.40333993 360.06188238 376.66262723 358.0546875 375.921875 C356.63050094 375.38851759 355.20662309 374.8543352 353.78303528 374.31938171 C349.97832745 372.89232087 346.169456 371.4767151 342.35952377 370.06367111 C338.42606419 368.60304431 334.49604831 367.13321015 330.56567383 365.66430664 C325.08186598 363.61583257 319.59670025 361.57106757 314.10988331 359.5306673 C305.8193452 356.4472523 297.54066481 353.33437602 289.26953125 350.19921875 C286.34842286 349.09606216 283.42693527 347.99391931 280.50518799 346.89245605 C278.7253257 346.21991929 276.94645477 345.5447524 275.16864014 344.86682129 C272.74433096 343.94337994 270.31617439 343.03089189 267.88671875 342.12109375 C266.86636284 341.72769051 266.86636284 341.72769051 265.82539368 341.32633972 C258.92274234 338.76737502 252.94134704 337.50808697 246.05908203 340.47460938 C242.93731733 342.02879266 239.98453049 343.79328239 237.0625 345.6875 C236.06633667 346.31809326 236.06633667 346.31809326 235.05004883 346.96142578 C230.78044115 349.67910709 226.56508262 352.47370581 222.359375 355.2890625 C221.35914307 355.95389648 220.35891113 356.61873047 219.32836914 357.30371094 C217.36480408 358.61158864 215.40785669 359.92947463 213.45874023 361.25878906 C201.52583713 369.2050106 190.57557624 372.64671444 176.25 369.8828125 C167.65081202 367.19556626 160.38831714 361.60410242 153.125 356.4375 C152.3820166 355.91381836 151.6390332 355.39013672 150.87353516 354.85058594 C141.68500757 348.36433922 132.69037965 341.73669309 124.125 334.4375 C123.01833837 333.50507871 121.9115607 332.57279513 120.8046875 331.640625 C109.7000503 322.24711844 99.05974911 312.44716705 88.75 302.1875 C88.09596191 301.53813477 87.44192383 300.88876953 86.76806641 300.21972656 C82.35174931 295.78878217 78.20312089 291.17955739 74.125 286.4375 C73.16368692 285.3429356 72.20149609 284.24914123 71.23828125 283.15625 C28.32164581 234.03407038 28.32164581 234.03407038 28.83203125 209.1953125 C29.729245 197.6870508 36.34550369 188.9978419 42.61083984 179.69433594 C47.97337754 171.70154354 53.31603627 163.64080706 58.25 155.375 C58.77980469 154.49134766 58.77980469 154.49134766 59.3203125 153.58984375 C61.65686784 147.34012533 61.26107418 142.18716809 58.98046875 136.05078125 C58.71719284 135.30306961 58.45391693 134.55535797 58.18266296 133.7849884 C57.18725471 130.99329227 56.15833159 128.21538597 55.125 125.4375 C54.68963928 124.25976013 54.25427856 123.08202026 53.8057251 121.86859131 C50.34937962 112.53071751 46.83052637 103.21675455 43.30157471 93.90612793 C41.59651224 89.40482082 39.89687196 84.9014633 38.19659233 80.39834785 C36.80294846 76.70867039 35.40656939 73.0200732 34.00418091 69.33370972 C31.56989397 62.931114 29.14590094 56.5265922 26.8047266 50.0892477 C25.8302382 47.4120547 24.8452769 44.73877016 23.85954857 42.06569862 C23.19102013 40.238775 22.53825085 38.40610838 21.88606262 36.57328796 C19.07504915 28.97015556 16.08025416 23.35685426 9.5 18.5 C-2.29091607 14.78804494 -10.17480081 19.03680689 -19.875 25.4375 Z " fill="#F69B15" transform="translate(112.875,-0.4375)"/>
<path d="M0 0 C1.94821655 0.00737183 1.94821655 0.00737183 3.93579102 0.01489258 C58.6169373 0.67054181 111.89437125 23.32404196 152.05859375 60.03125 C153.72326737 61.54789492 155.40304101 63.04813528 157.09765625 64.53125 C195.74876159 98.46297772 218.93097173 148.32236289 227.5625 198.3125 C227.69237305 199.01246094 227.82224609 199.71242187 227.95605469 200.43359375 C229.69179616 209.9437067 229.84320654 219.54500255 230 229.1875 C230.03456299 230.42459717 230.06912598 231.66169434 230.10473633 232.9362793 C230.14486118 241.8122568 228.7458106 248.78815865 222.5859375 255.45019531 C216.2621664 261.44541657 209.24971249 264.28406395 200.5625 264.3125 C192.15421452 263.70339586 185.45219734 260.56867846 179.73828125 254.31640625 C173.59258921 246.44456342 172.60847473 238.75840144 172.32348633 229.02368164 C170.99148634 187.81133639 155.21821889 146.93371729 126.87109375 116.7734375 C124.82031689 114.58733019 122.87129725 112.3514845 120.9375 110.0625 C110.65699137 98.306548 97.00502937 89.05213812 83.5625 81.3125 C82.43585938 80.65507813 81.30921875 79.99765625 80.1484375 79.3203125 C54.43547111 64.72099848 25.72975148 58.50392676 -3.59570312 57.36523438 C-13.20903584 56.81009052 -20.64510104 54.56063942 -27.375 47.4375 C-32.97282288 40.3776575 -34.9474691 32.90883942 -34.2578125 23.98828125 C-32.73895635 15.10762234 -27.65645629 8.66598396 -20.46484375 3.50390625 C-13.80796541 -0.40813208 -7.5389256 -0.03337734 0 0 Z M-15.4375 21.5 C-17.01786274 25.94477022 -17.1141862 30.0363737 -15.75 34.625 C-13.08715849 38.04865336 -9.57566915 39.4595245 -5.4375 40.3125 C-3.35741569 40.40573087 -1.27695634 40.49478606 0.80444336 40.55151367 C50.08522084 41.99544573 95.74333483 62.0836294 131.16552734 95.97851562 C132.35681246 97.11608673 133.56179764 98.23928224 134.76953125 99.359375 C141.09671073 105.39016929 146.31660317 112.34762042 151.5625 119.3125 C152.1915625 120.14652344 152.820625 120.98054688 153.46875 121.83984375 C175.80568013 152.65848556 188.19417558 189.98744796 188.9921875 227.97851562 C189.21973276 234.18386457 190.21959039 238.91528107 193.8125 244.125 C196.68423311 246.07367604 199.14253974 246.74250662 202.5625 247.3125 C206.30867792 246.25108292 208.68407726 245.33630273 211.23828125 242.359375 C213.21673364 237.80718366 213.04978476 233.53946694 213 228.625 C212.99242676 227.57135254 212.98485352 226.51770508 212.97705078 225.43212891 C212.13640194 183.82307925 196.98313815 141.84649422 172.5625 108.3125 C172.16353516 107.75949219 171.76457031 107.20648438 171.35351562 106.63671875 C165.03649769 97.94954755 157.99077715 90.05776284 150.5625 82.3125 C149.66660156 81.36375 148.77070313 80.415 147.84765625 79.4375 C140.94742536 72.30422166 133.47384684 66.25945685 125.5625 60.3125 C124.63566406 59.60222656 123.70882812 58.89195313 122.75390625 58.16015625 C95.95841487 38.05358396 63.55273207 24.75580963 30.5625 19.3125 C29.32242188 19.10109375 28.08234375 18.8896875 26.8046875 18.671875 C19.44377286 17.55899374 12.05183644 16.9674911 4.625 16.5 C3.74859863 16.43466064 2.87219727 16.36932129 1.96923828 16.30200195 C-4.52724521 15.96174538 -10.78230734 16.40838303 -15.4375 21.5 Z " fill="#EB4125" transform="translate(282.4375,-0.3125)"/>
<path d="M0 0 C1.04969971 0.00829834 2.09939941 0.01659668 3.1809082 0.02514648 C27.30967669 0.53405468 50.92291263 7.55810683 71.875 19.4375 C72.53838379 19.81245605 73.20176758 20.18741211 73.88525391 20.57373047 C84.16998741 26.48271471 93.19442072 33.37145146 101.875 41.4375 C102.37370605 41.89769531 102.87241211 42.35789063 103.38623047 42.83203125 C130.94804541 68.53293762 148.4478234 106.20475701 150.25390625 143.84375 C150.30814096 145.97885942 150.34882514 148.11436227 150.375 150.25 C150.40291626 151.72593628 150.40291626 151.72593628 150.43139648 153.23168945 C150.3541542 161.98706524 147.74186758 169.41767032 141.671875 175.86328125 C134.55726444 182.09629876 126.94376169 183.4206926 117.72265625 182.9140625 C109.22302898 181.86131679 103.81787674 178.1197975 98.34765625 171.6953125 C93.59229043 164.4045925 93.19615559 157.53512813 92.5 149 C89.93409693 122.25136279 79.58416876 98.25395947 58.875 80.4375 C40.55876127 66.18079703 21.28777535 59.47131902 -1.63354492 57.51269531 C-12.11003459 56.5736177 -19.92011377 54.51803338 -27.125 46.4375 C-33.08280003 38.61878906 -33.28789897 29.8264794 -32.125 20.4375 C-30.05490716 13.13520002 -25.55561274 7.45796601 -19.125 3.4375 C-12.6496491 0.41614241 -7.09718959 -0.07317878 0 0 Z M-14.125 22.4375 C-15.74460213 25.67670427 -15.69118209 28.93628202 -15.125 32.4375 C-12.41084176 36.87884985 -10.19624413 38.73549697 -5.18823242 40.03515625 C-1.26517547 40.80017789 2.7059465 40.97704427 6.6875 41.25 C29.91837063 43.22886588 50.65487173 51.92756647 68.875 66.4375 C69.71417969 67.10523438 70.55335938 67.77296875 71.41796875 68.4609375 C94.54787759 87.96808954 106.56446335 116.72807756 109.375 146.1875 C109.45717773 147.30680908 109.53935547 148.42611816 109.62402344 149.5793457 C110.20320244 156.1822869 110.88813027 159.91237747 115.875 164.4375 C119.10359847 166.05179923 122.38493653 166.03320657 125.875 165.4375 C128.90008145 163.70147895 131.29290069 161.60169863 132.875 158.4375 C134.73386239 124.08429309 122.56868008 90.25452629 99.875 64.4375 C99.15570313 63.58542969 98.43640625 62.73335937 97.6953125 61.85546875 C75.89070716 36.59782093 43.72519915 21.28320165 10.875 17.4375 C7.68642647 17.21366081 4.50803693 17.1177253 1.3125 17.0625 C0.0759668 17.00642578 0.0759668 17.00642578 -1.18554688 16.94921875 C-7.26895005 16.86168777 -9.91721126 18.01034787 -14.125 22.4375 Z " fill="#EE5B20" transform="translate(281.125,80.5625)"/>
<path d="M0 0 C18.16781256 10.00050173 30.65111362 25.74304412 36.75 45.5 C39.2004309 55.93905541 40.76314389 69.08899189 36.25 79.125 C31.97786387 85.95559054 25.94480367 90.882562 18.25 93.3125 C9.81893679 95.19133244 1.90466873 94.24708628 -5.5 89.6875 C-12.53318849 84.59621842 -16.93557347 78.11463693 -18.390625 69.53515625 C-18.70305729 67.45293345 -19.00018774 65.37345329 -19.25390625 63.28320312 C-19.98651328 58.62717652 -21.34470062 55.65827211 -24.89501953 52.48999023 C-28.34788878 50.29820445 -32.07387817 49.88387066 -36.0625 49.3125 C-45.09427114 47.71400212 -51.3219246 45.2460851 -57.625 38.375 C-62.85434647 30.83858892 -64.73562563 22.80179576 -63.1875 13.75 C-60.89622005 5.1614937 -55.32792136 -1.23419361 -47.75 -5.6875 C-33.89833447 -12.97653195 -12.79268731 -6.64055299 0 0 Z M-44.75 14.3125 C-46.49144037 17.79538073 -46.32855206 21.51246485 -45.75 25.3125 C-42.68048147 29.55565796 -39.77496565 31.12478085 -34.75 32.3125 C-33.85925781 32.42722656 -32.96851563 32.54195312 -32.05078125 32.66015625 C-22.25317443 33.95228621 -14.17758765 37.34898265 -7.9921875 45.3515625 C-4.22401523 51.30006086 -2.66797647 57.17915893 -1.8125 64.125 C-1.25412912 68.25208911 -0.94370574 70.03808353 1.5 73.5 C4.54298987 75.50560696 6.63413173 76.73396108 10.25 77.3125 C15.50209966 75.77309148 18.26447313 73.85791671 21.25 69.3125 C23.5328934 57.12657245 19.16970941 44.7238982 12.9375 34.375 C3.95593826 21.37385282 -9.07223003 12.26123945 -24.75 9.3125 C-32.82976469 8.42134948 -39.26709092 7.73300911 -44.75 14.3125 Z " fill="#F1741C" transform="translate(311.75,169.6875)"/>
</svg>
