<?xml version="1.0" encoding="UTF-8"?>
<svg version="1.1" xmlns="http://www.w3.org/2000/svg" width="512" height="512">
<path d="M0 0 C5.47178218 5.47178218 9.00478386 11.89068042 11.25 19.25 C11.25 20.57 11.25 21.89 11.25 23.25 C30.39 23.25 49.53 23.25 69.25 23.25 C69.58 20.94 69.91 18.63 70.25 16.25 C73.09521255 7.53754123 80.15293254 -0.28279844 88.05859375 -4.75390625 C99.35540607 -9.88882094 109.55807795 -9.91683064 121.203125 -6.0078125 C130.42492217 -2.20086546 137.84000546 5.32001303 141.6875 14.5 C142.94497151 17.80415109 143.25 19.6032652 143.25 23.25 C162.39 23.25 181.53 23.25 201.25 23.25 C201.58 20.94 201.91 18.63 202.25 16.25 C205.47937875 7.06082354 211.40896679 0.1432256 219.875 -4.625 C229.83796205 -9.13278191 240.79260465 -9.82059254 251.25 -6.75 C261.7763773 -2.63487233 268.08271162 3.25242031 273.25 13.25 C274.80266389 17.0610841 275.25 19.10350496 275.25 23.25 C275.85884033 23.22905273 276.46768066 23.20810547 277.0949707 23.18652344 C291.60782413 22.7526892 303.52305738 22.44358028 315.1796875 32.19921875 C323.83754371 40.77539707 327.93858063 50.54832383 328.37304783 62.68820095 C328.37212604 63.89851514 328.37120424 65.10882933 328.37025452 66.3558197 C328.37153615 67.37547037 328.37153615 67.37547037 328.37284368 68.41572005 C328.37447969 70.67422827 328.36900816 72.93266082 328.36352539 75.19116211 C328.36324309 76.8177897 328.3634021 78.44441741 328.3639679 80.07104492 C328.36425418 84.4733938 328.35838469 88.87571529 328.35139394 93.27805781 C328.34513235 97.88382118 328.34455438 102.48958521 328.34336853 107.09535217 C328.34026348 115.81099464 328.33206124 124.52662453 328.32201904 133.24226147 C328.31083223 143.16726347 328.30534098 153.09226609 328.30032361 163.01727283 C328.28987794 183.4281889 328.27229451 203.83909366 328.25 224.25 C329.48967529 224.23179199 330.72935059 224.21358398 332.0065918 224.19482422 C336.26644334 224.1322567 340.03534215 225.04602797 344.0625 226.375 C344.75682129 226.60018311 345.45114258 226.82536621 346.16650391 227.05737305 C356.56964888 230.56720116 365.01505963 236.03409907 373.25 243.25 C373.93835938 243.84296875 374.62671875 244.4359375 375.3359375 245.046875 C387.58106646 256.3724093 396.16356095 273.41137775 397.47143555 290.07055664 C398.40728826 314.58830129 393.69882525 334.23980941 376.97265625 352.7734375 C364.05497525 366.36455211 347.70349231 373.79559462 329.25 376.25 C329.16363281 377.48234375 329.07726562 378.7146875 328.98828125 379.984375 C327.78412027 394.98855488 325.11349439 406.92912717 313.25 417.25 C302.10525356 424.9902994 291.22397507 425.5473779 278.04324341 425.51069641 C276.50063832 425.51372008 274.95803472 425.51761064 273.41543376 425.52228898 C269.19279004 425.53254994 264.97023141 425.53039202 260.74758077 425.52610838 C256.18714948 425.52363771 251.62673851 425.53265955 247.0663147 425.54014587 C238.13830821 425.55288531 229.21033182 425.55468751 220.28231777 425.55234561 C213.02432778 425.55056148 205.76634691 425.55231413 198.508358 425.55657005 C196.95797339 425.55746284 196.95797339 425.55746284 195.37626787 425.55837366 C193.27642672 425.55958543 191.17658557 425.56079956 189.07674442 425.56201603 C169.39117654 425.57288862 149.70562579 425.57073038 130.02005695 425.56463119 C112.01876255 425.55946204 94.01752227 425.57071792 76.01623859 425.58972941 C57.52324248 425.60911017 39.03027198 425.6173634 20.53726566 425.61360615 C10.15856513 425.61169451 -0.22008935 425.61417819 -10.59878159 425.62832069 C-19.4340807 425.64023847 -28.2693054 425.64163489 -37.10460554 425.62953053 C-41.61027207 425.62364472 -46.11580252 425.62253421 -50.62145996 425.63453293 C-54.75067386 425.64540117 -58.87963819 425.64227724 -63.00884046 425.62827124 C-64.49799002 425.62562691 -65.9871592 425.62798253 -67.4762895 425.63600711 C-81.41778055 425.70588568 -93.26857503 423.74936523 -103.9765625 414.28125 C-113.32394673 404.6187854 -115.49826653 393.96702161 -115.37818909 380.89732361 C-115.38324504 379.48411571 -115.39048191 378.07091426 -115.39968723 376.6577273 C-115.4184877 372.80651861 -115.40644575 368.9559513 -115.3889643 365.10475957 C-115.37552757 360.93904406 -115.39104981 356.77341854 -115.40278625 352.60771179 C-115.42111992 344.46009872 -115.41267941 336.31272623 -115.39469803 328.16512077 C-115.3806464 321.5412468 -115.37678473 314.91743794 -115.3801403 308.29355049 C-115.38061775 307.34917878 -115.38109519 306.40480706 -115.3815871 305.43181803 C-115.38261347 303.51308546 -115.38366884 301.59435292 -115.38475286 299.67562038 C-115.39331116 282.72730244 -115.37667271 265.77910031 -115.34692383 248.83081055 C-115.31808399 232.40009701 -115.31100619 215.96955027 -115.32641602 199.53881836 C-115.34319114 181.62791993 -115.34719936 163.7171006 -115.32970566 145.80620009 C-115.32786135 143.89501132 -115.32602662 141.98382253 -115.32420158 140.07263374 C-115.32328949 139.13239572 -115.3223774 138.19215769 -115.32143768 137.2234276 C-115.31584079 130.61002249 -115.31913151 123.9966561 -115.32574654 117.3832531 C-115.33349173 109.32019915 -115.32668432 101.25730917 -115.3015715 93.19428819 C-115.28910447 89.08349436 -115.28289582 84.97295543 -115.29411316 80.8621521 C-115.30420165 77.09378805 -115.29559893 73.32593082 -115.27253198 69.5576281 C-115.26498286 67.56014303 -115.27688029 65.56261311 -115.28963572 63.56515449 C-115.18046691 51.64970303 -112.2618602 41.85932425 -103.75 33.25 C-94.21333446 25.13436078 -85.54175072 22.74362788 -73.1875 23.0625 C-71.67446289 23.08280273 -71.67446289 23.08280273 -70.13085938 23.10351562 C-67.66999379 23.13850424 -65.21029665 23.18758842 -62.75 23.25 C-62.56630859 21.67025391 -62.56630859 21.67025391 -62.37890625 20.05859375 C-60.87920494 10.97655168 -55.90821734 3.89857572 -48.75 -1.75 C-33.038475 -12.16252838 -15.26688258 -9.71528891 0 0 Z M-45.37890625 13.44140625 C-47.64400576 16.42927256 -49.75 19.41393203 -49.75 23.25 C-33.91 23.25 -18.07 23.25 -1.75 23.25 C-4.52825656 14.91523032 -7.34155913 10.69994368 -14.9765625 6.45703125 C-25.89937447 1.70330041 -37.49709404 4.65233508 -45.37890625 13.44140625 Z M86.6875 13.078125 C84.61647096 16.03101646 84.61647096 16.03101646 82.25 23.25 C98.09 23.25 113.93 23.25 130.25 23.25 C127.47174344 14.91523032 124.65844087 10.69994368 117.0234375 6.45703125 C106.0827705 1.6955297 94.91761293 4.76571094 86.6875 13.078125 Z M218.6875 13.078125 C216.61647096 16.03101646 216.61647096 16.03101646 214.25 23.25 C230.09 23.25 245.93 23.25 262.25 23.25 C259.85809153 16.0742746 257.64054831 11.41953536 251.125 7.375 C239.65220329 1.65759634 227.62765397 4.04856949 218.6875 13.078125 Z M-94.75 43.25 C-109.52220227 61.4359465 -101.75 75.64771234 -101.75 104.25 C35.86 104.25 173.47 104.25 315.25 104.25 C318.29914283 74.09328806 318.29914283 74.09328806 308.25 44.25 C297.95369354 35.25154729 288.45505611 35.07128495 275.25 35.25 C275.03085937 36.0234375 274.81171875 36.796875 274.5859375 37.59375 C271.56678572 47.51031357 267.05995201 55.42852191 258.25 61.25 C251.07302004 64.77099487 244.29457076 66.6969206 236.25 66.25 C235.26 65.59 234.27 64.93 233.25 64.25 C232.95703125 62.0859375 232.95703125 62.0859375 233.0625 59.625 C233.08957031 58.80773437 233.11664063 57.99046875 233.14453125 57.1484375 C233.19673828 56.20871094 233.19673828 56.20871094 233.25 55.25 C234.095625 55.16363281 234.94125 55.07726562 235.8125 54.98828125 C246.15497444 53.70722476 252.22934517 51.06723954 259.0234375 43.19140625 C260.69198135 40.72195648 260.69198135 40.72195648 262.25 35.25 C222.98 35.25 183.71 35.25 143.25 35.25 C141.93 39.21 140.61 43.17 139.25 47.25 C133.47264821 56.14712176 125.84782466 62.83941368 115.48828125 65.8203125 C110.19497749 66.83647902 105.81432678 67.29288452 101.25 64.25 C100.95703125 62.0859375 100.95703125 62.0859375 101.0625 59.625 C101.10310547 58.39910156 101.10310547 58.39910156 101.14453125 57.1484375 C101.17933594 56.52195312 101.21414062 55.89546875 101.25 55.25 C102.095625 55.16363281 102.94125 55.07726562 103.8125 54.98828125 C114.15497444 53.70722476 120.22934517 51.06723954 127.0234375 43.19140625 C128.69198135 40.72195648 128.69198135 40.72195648 130.25 35.25 C90.98 35.25 51.71 35.25 11.25 35.25 C9.93 39.21 8.61 43.17 7.25 47.25 C1.47264821 56.14712176 -6.15217534 62.83941368 -16.51171875 65.8203125 C-21.80502251 66.83647902 -26.18567322 67.29288452 -30.75 64.25 C-31.04296875 62.0859375 -31.04296875 62.0859375 -30.9375 59.625 C-30.89689453 58.39910156 -30.89689453 58.39910156 -30.85546875 57.1484375 C-30.82066406 56.52195312 -30.78585938 55.89546875 -30.75 55.25 C-29.4815625 55.12044922 -29.4815625 55.12044922 -28.1875 54.98828125 C-17.84502556 53.70722476 -11.77065483 51.06723954 -4.9765625 43.19140625 C-3.39181002 40.68305599 -2.65321332 38.0659144 -1.75 35.25 C-11.22567806 35.20349218 -20.70131633 35.16803757 -30.17708397 35.14637566 C-34.57789541 35.13597476 -38.97862829 35.12188368 -43.37939453 35.09912109 C-47.63285714 35.07726015 -51.88624457 35.06540364 -56.13975906 35.06024551 C-57.75591845 35.0565734 -59.3720741 35.04940322 -60.98820114 35.03853989 C-79.20543743 34.74292345 -79.20543743 34.74292345 -94.75 43.25 Z M-101.75 117.25 C-101.853125 162.41875 -101.95625 207.5875 -102.0625 254.125 C-102.10802002 268.39089355 -102.15354004 282.65678711 -102.20043945 297.35498047 C-102.21716089 310.13489994 -102.21716089 310.13489994 -102.22721863 322.91482544 C-102.23187978 328.61032434 -102.25021377 334.30557778 -102.27787781 340.00100708 C-102.30975037 346.57262062 -102.32416912 353.14399889 -102.31722475 359.71569026 C-102.31421804 363.07616172 -102.32172216 366.43568719 -102.34607565 369.7961328 C-102.37098125 373.40031219 -102.3649386 377.00318127 -102.35127258 380.60739136 C-102.36583591 381.64797258 -102.38039923 382.68855381 -102.39540386 383.7606678 C-102.30307057 392.83361832 -99.5119298 399.79387363 -93 406.1875 C-85.04015582 413.2302317 -74.60792991 412.68010889 -64.60571289 412.63095093 C-63.06993051 412.63441117 -61.53415062 412.63917819 -59.99837589 412.64513266 C-55.79463198 412.657622 -51.59109317 412.65148172 -47.38734865 412.64217401 C-42.84740105 412.63537537 -38.30748826 412.64586878 -33.76754761 412.65411377 C-24.88030119 412.6674446 -15.99313084 412.66457625 -7.10588145 412.65587585 C0.11780372 412.64909716 7.34146759 412.64818339 14.56515503 412.6514473 C15.5937715 412.651907 16.62238796 412.65236669 17.68217462 412.65284032 C19.77187324 412.65379951 21.86157185 412.65477215 23.95127046 412.6557581 C43.54045631 412.66431009 63.12960003 412.65448085 82.71877897 412.638357 C99.52250135 412.624954 116.32616155 412.62728214 133.12988281 412.64111328 C152.64959137 412.65717245 172.169263 412.66348613 191.68897724 412.65427649 C193.77093315 412.65332086 195.85288906 412.65237774 197.93484497 412.6514473 C198.95917269 412.65098447 199.98350041 412.65052164 201.03886837 412.65004479 C208.25279912 412.64745592 215.46670643 412.65182369 222.68063354 412.65888596 C231.47354177 412.66730489 240.26636967 412.66501251 249.05926871 412.64904372 C253.54443136 412.64116634 258.02946012 412.63806036 262.51462173 412.64799118 C266.62276607 412.65694957 270.73065279 412.65198644 274.83877385 412.63605852 C276.32250182 412.63271557 277.80625169 412.63439387 279.28996551 412.64168589 C291.16822811 412.6955725 299.51681963 411.78832164 308.30078125 403.43359375 C315.46758261 395.40505275 315.41457486 386.52678577 315.25 376.25 C314.47398437 376.09144531 313.69796875 375.93289063 312.8984375 375.76953125 C301.75144321 373.3618869 291.01684155 370.24328914 281.25 364.25 C280.59 364.25 279.93 364.25 279.25 364.25 C279.22421875 365.21421875 279.1984375 366.1784375 279.171875 367.171875 C279.11515625 368.43515625 279.0584375 369.6984375 279 371 C278.95359375 372.25296875 278.9071875 373.5059375 278.859375 374.796875 C278.15024421 378.81528282 277.41972609 379.78449615 274.25 382.25 C271.51133728 382.73774719 271.51133728 382.73774719 268.33569336 382.7199707 C266.54880348 382.72435905 266.54880348 382.72435905 264.72581482 382.72883606 C263.44344437 382.71132797 262.16107391 382.69381989 260.83984375 382.67578125 C259.52085587 382.67249313 258.20186798 382.66920502 256.84291077 382.66581726 C254.05447179 382.65818601 251.26654775 382.63765269 248.47827148 382.60668945 C244.9048781 382.56707673 241.33181911 382.54907316 237.75823116 382.53938007 C234.34788079 382.52940465 230.93764626 382.50916626 227.52734375 382.48828125 C226.24294907 382.48089432 224.95855438 382.47350739 223.63523865 382.46589661 C222.44713089 382.45306137 221.25902313 382.44022614 220.03491211 382.42700195 C218.98774521 382.41715775 217.94057831 382.40731354 216.86167908 382.39717102 C214.25 382.25 214.25 382.25 211.25 381.25 C209.88153983 378.51307966 210.12280377 376.33496471 210.12060547 373.27148438 C210.11745331 372.01678345 210.11430115 370.76208252 210.11105347 369.46936035 C210.11284331 368.09415655 210.11489427 366.71895306 210.1171875 365.34375 C210.11651414 363.93892398 210.11554384 362.53409808 210.11428833 361.12927246 C210.11281289 358.18366386 210.11496099 355.23808555 210.11962891 352.29248047 C210.12532611 348.51268858 210.12204629 344.73296769 210.11605644 340.95317841 C210.1124467 338.05189476 210.11359132 335.15062802 210.11618423 332.24934387 C210.11685236 330.85545341 210.11602907 329.46156142 210.11370468 328.06767273 C210.11117145 326.12128732 210.11571561 324.17489654 210.12060547 322.22851562 C210.12179886 320.56544373 210.12179886 320.56544373 210.12301636 318.86877441 C210.25 316.25 210.25 316.25 211.25 314.25 C214.72517129 313.09160957 217.9227002 313.02198782 221.54296875 312.93359375 C222.24899734 312.91281265 222.95502594 312.89203156 223.68244934 312.87062073 C225.93403551 312.80532509 228.18573662 312.74633353 230.4375 312.6875 C231.9655066 312.64429575 233.49350164 312.60068084 235.02148438 312.55664062 C238.76420562 312.44966426 242.5070423 312.34834078 246.25 312.25 C245.92 308.29 245.59 304.33 245.25 300.25 C243.86494263 300.21241577 243.86494263 300.21241577 242.4519043 300.17407227 C239.02453584 300.07890955 235.59733539 299.97967786 232.17016602 299.87768555 C230.68713985 299.8343867 229.20406546 299.79270801 227.72094727 299.75268555 C225.58855661 299.69486042 223.45640758 299.63120168 221.32421875 299.56640625 C219.39968872 299.51141968 219.39968872 299.51141968 217.4362793 299.45532227 C214.25 299.25 214.25 299.25 211.25 298.25 C209.88153983 295.51307966 210.12280377 293.33496471 210.12060547 290.27148438 C210.11745331 289.01678345 210.11430115 287.76208252 210.11105347 286.46936035 C210.11284331 285.09415655 210.11489427 283.71895306 210.1171875 282.34375 C210.11651414 280.93892398 210.11554384 279.53409808 210.11428833 278.12927246 C210.11281289 275.18366386 210.11496099 272.23808555 210.11962891 269.29248047 C210.12532611 265.51268858 210.12204629 261.73296769 210.11605644 257.95317841 C210.1124467 255.05189476 210.11359132 252.15062802 210.11618423 249.24934387 C210.11685236 247.85545341 210.11602907 246.46156142 210.11370468 245.06767273 C210.11117145 243.12128732 210.11571561 241.17489654 210.12060547 239.22851562 C210.12179886 237.56544373 210.12179886 237.56544373 210.12301636 235.86877441 C210.25 233.25 210.25 233.25 211.25 231.25 C214.40740632 230.19753123 216.70185164 230.09798551 220.01904297 230.05712891 C221.79636307 230.03303452 221.79636307 230.03303452 223.60958862 230.00845337 C229.01853909 229.96402536 234.42734521 229.92251733 239.83642578 229.89990234 C242.69221986 229.88655599 245.54730056 229.85868772 248.40283203 229.81787109 C252.51607317 229.75908416 256.62854826 229.7412461 260.7421875 229.7265625 C262.01939667 229.70389313 263.29660583 229.68122375 264.61251831 229.65786743 C274.45985598 229.68142824 274.45985598 229.68142824 277.59423828 232.78271484 C278.14063965 233.59691895 278.68704102 234.41112305 279.25 235.25 C282.68839315 233.91523915 285.99393925 232.41922398 289.3125 230.8125 C297.31961705 227.14932499 305.56845378 225.4075395 314.25 224.25 C314.58 223.92 314.91 223.59 315.25 223.25 C315.25 188.27 315.25 153.29 315.25 117.25 C177.64 117.25 40.03 117.25 -101.75 117.25 Z M270.91015625 260.9765625 C259.09087897 276.25138267 256.31158521 293.8836573 258.6796875 312.65625 C262.28852063 329.2301503 272.24988034 342.82642516 285.8203125 352.7265625 C300.54140165 361.9568274 317.22151518 365.78815844 334.32055664 362.1184082 C350.8534982 358.14775165 364.7387824 349.55629203 374.25 335.25 C383.91702875 318.53652259 387.63495088 300.63765877 382.625 281.625 C376.70496079 264.2540891 364.55212353 250.17502497 348.0625 242 C319.6452404 229.6129894 290.57290971 238.06403843 270.91015625 260.9765625 Z M222.25 242.25 C222.25 257.1 222.25 271.95 222.25 287.25 C230.17 287.25 238.09 287.25 246.25 287.25 C246.745 285.27 247.24 283.29 247.75 281.25 C251.00228902 269.40035567 256.4126269 258.4239251 264.78125 249.36328125 C266.72559055 246.99463195 266.72559055 246.99463195 266.25 242.25 C251.73 242.25 237.21 242.25 222.25 242.25 Z M222.25 325.25 C222.25 340.1 222.25 354.95 222.25 370.25 C236.77 370.25 251.29 370.25 266.25 370.25 C267.997156 353.83020049 267.997156 353.83020049 263.25 348.0625 C262.61707031 347.50691406 261.98414063 346.95132812 261.33203125 346.37890625 C258.46354887 343.44584265 256.80119682 340.12878306 254.9375 336.5 C254.60041016 335.84878174 254.26332031 335.19756348 253.91601562 334.52661133 C252.33699146 331.44631798 250.79799184 328.34598367 249.25 325.25 C240.34 325.25 231.43 325.25 222.25 325.25 Z " fill="#FF8414" transform="translate(114.75,47.75)"/>
<path d="M0 0 C1.75213051 -0.00956978 1.75213051 -0.00956978 3.53965759 -0.01933289 C5.43343895 -0.02100212 5.43343895 -0.02100212 7.36547852 -0.02270508 C8.66131363 -0.02603348 9.95714874 -0.02936188 11.29225159 -0.03279114 C14.03517489 -0.03877695 16.77806672 -0.04063158 19.52099609 -0.04003906 C23.03270123 -0.03993743 26.54420424 -0.05359334 30.05586147 -0.07081127 C33.40907029 -0.08461433 36.76224164 -0.08402021 40.11547852 -0.08520508 C41.37597519 -0.09239059 42.63647186 -0.09957611 43.93516541 -0.10697937 C45.10640457 -0.10390274 46.27764374 -0.10082611 47.484375 -0.09765625 C48.5145726 -0.09908127 49.5447702 -0.10050629 50.60618591 -0.10197449 C53.36857854 0.15091149 54.99681175 0.63592079 57.30688477 2.14526367 C58.67234736 4.87618887 58.44160975 7.05092409 58.45214844 10.10791016 C58.45852829 11.35938339 58.46490814 12.61085663 58.47148132 13.9002533 C58.47300993 15.27228761 58.47412393 16.64432245 58.47485352 18.01635742 C58.47806576 19.41878799 58.48142981 20.82121822 58.48493958 22.22364807 C58.49093177 25.16505714 58.49277938 28.10643682 58.4921875 31.04785156 C58.49208586 34.81862995 58.5057398 38.58922012 58.52295971 42.35995388 C58.53407306 45.25699226 58.53610692 48.15398504 58.53557777 51.05104256 C58.53675883 52.44132193 58.54118764 53.83160245 58.54891014 55.22186089 C58.55869632 57.16562353 58.55457129 59.10944122 58.54980469 61.05322266 C58.55122971 62.15971664 58.55265472 63.26621063 58.55412292 64.40623474 C58.30688477 67.14526367 58.30688477 67.14526367 56.30688477 70.14526367 C53.14460788 71.19935597 50.86005165 71.29094397 47.5378418 71.32226562 C46.35296173 71.33510086 45.16808167 71.3479361 43.94729614 71.36116028 C42.66603851 71.36854721 41.38478088 71.37593414 40.06469727 71.38354492 C38.74903778 71.39161667 37.4333783 71.39968842 36.07785034 71.40800476 C33.29205454 71.42301646 30.5062841 71.43286228 27.72045898 71.44042969 C24.15708815 71.45149795 20.59434113 71.4859086 17.03119087 71.52560139 C13.62571801 71.5580706 10.22031297 71.56254592 6.81469727 71.57104492 C4.89888351 71.59730705 4.89888351 71.59730705 2.94436646 71.62409973 C1.15758987 71.61971138 1.15758987 71.61971138 -0.6652832 71.61523438 C-1.71102509 71.62110062 -2.75676697 71.62696686 -3.834198 71.63301086 C-7.53923065 71.00091167 -9.15883839 69.90905116 -11.69311523 67.14526367 C-12.3145752 64.29270935 -12.3145752 64.29270935 -12.30834961 60.95556641 C-12.31765503 59.70424423 -12.32696045 58.45292206 -12.33654785 57.16368103 C-12.32096266 55.80206164 -12.30437777 54.44045338 -12.28686523 53.07885742 C-12.2851537 51.67928673 -12.28522025 50.27971283 -12.2869873 48.88014221 C-12.28533527 45.95038078 -12.26665876 43.02138569 -12.23510742 40.09179688 C-12.19539221 36.33657048 -12.19106677 32.58234572 -12.19857025 28.82694912 C-12.20163934 25.93840863 -12.18952246 23.05009338 -12.17243958 20.16160774 C-12.16540943 18.77693151 -12.16228506 17.39222975 -12.16313171 16.00753593 C-12.16133441 14.07347484 -12.13769083 12.1394712 -12.11303711 10.20556641 C-12.10461792 9.10510483 -12.09619873 8.00464325 -12.08752441 6.87083435 C-11.69311523 4.14526367 -11.69311523 4.14526367 -10.35437012 2.32899475 C-7.0238417 -0.04418112 -3.94746124 0.01461715 0 0 Z M1.30688477 13.14526367 C1.30688477 27.99526367 1.30688477 42.84526367 1.30688477 58.14526367 C15.82688477 58.14526367 30.34688477 58.14526367 45.30688477 58.14526367 C45.30688477 43.29526367 45.30688477 28.44526367 45.30688477 13.14526367 C30.78688477 13.14526367 16.26688477 13.14526367 1.30688477 13.14526367 Z " fill="#FF980C" transform="translate(151.693115234375,359.854736328125)"/>
<path d="M0 0 C1.71725784 -0.00956978 1.71725784 -0.00956978 3.46920776 -0.01933289 C4.70671783 -0.02044571 5.94422791 -0.02155853 7.21923828 -0.02270508 C8.49050568 -0.02603348 9.76177307 -0.02936188 11.07156372 -0.03279114 C13.76323949 -0.0378584 16.45481432 -0.04063159 19.14648438 -0.04003906 C22.58859064 -0.03993753 26.03049021 -0.05358246 29.47254753 -0.07081127 C32.76310333 -0.0846327 36.05365739 -0.08402079 39.34423828 -0.08520508 C41.19443069 -0.09598335 41.19443069 -0.09598335 43.08200073 -0.10697937 C44.23314362 -0.10390274 45.3842865 -0.10082611 46.5703125 -0.09765625 C47.5805246 -0.09908127 48.59073669 -0.10050629 49.63156128 -0.10197449 C52.6046835 0.16215488 54.75546807 0.80216819 57.41455078 2.14526367 C58.77890555 4.8739732 58.55682064 7.05332204 58.57568359 10.10791016 C58.58529114 11.35938339 58.59489868 12.61085663 58.60479736 13.9002533 C58.60964461 15.27228616 58.61392362 16.64432113 58.61767578 18.01635742 C58.62342684 19.41878767 58.62918458 20.82121788 58.63494873 22.22364807 C58.6454575 25.16505297 58.65130117 28.10643053 58.65478516 31.04785156 C58.66027403 34.81871016 58.6843105 38.58920841 58.71275711 42.35995388 C58.73137003 45.25699422 58.73658832 48.15394746 58.73812103 51.05104256 C58.74115045 52.44133541 58.74918876 53.83162662 58.76230621 55.22186089 C58.77933889 57.16557567 58.77564568 59.1094388 58.77099609 61.05322266 C58.77646454 62.71296364 58.77646454 62.71296364 58.78204346 64.40623474 C58.41455078 67.14526367 58.41455078 67.14526367 57.01727295 68.96351624 C53.83905028 71.30693955 51.6517286 71.27632986 47.74316406 71.29052734 C45.96088913 71.30009712 45.96088913 71.30009712 44.14260864 71.30986023 C42.85305267 71.31097305 41.5634967 71.31208588 40.23486328 71.31323242 C38.91541718 71.31656082 37.59597107 71.31988922 36.23654175 71.32331848 C33.44056379 71.32931086 30.64461674 71.33115831 27.84863281 71.33056641 C24.26851918 71.33046487 20.68860424 71.34410802 17.10853767 71.36133862 C14.35471693 71.37246683 11.60094405 71.37448535 8.84710312 71.37395668 C6.88618248 71.3757089 4.92527678 71.38654605 2.96438599 71.39750671 C1.76989838 71.39443008 0.57541077 71.39135345 -0.65527344 71.38818359 C-2.23174149 71.39032112 -2.23174149 71.39032112 -3.84005737 71.39250183 C-6.62672634 71.14154643 -8.25894603 70.67138748 -10.58544922 69.14526367 C-11.94980398 66.41655414 -11.72771908 64.2372053 -11.74658203 61.18261719 C-11.76099335 59.30540733 -11.76099335 59.30540733 -11.7756958 57.39027405 C-11.78054305 56.01824119 -11.78482206 54.64620622 -11.78857422 53.27416992 C-11.79432528 51.87173968 -11.80008302 50.46930946 -11.80584717 49.06687927 C-11.81635594 46.12547438 -11.82219961 43.18409681 -11.82568359 40.24267578 C-11.83117247 36.47181719 -11.85520894 32.70131893 -11.88365555 28.93057346 C-11.90226847 26.03353312 -11.90748676 23.13657988 -11.90901947 20.23948479 C-11.91204889 18.84919194 -11.9200872 17.45890072 -11.93320465 16.06866646 C-11.95023733 14.12495167 -11.94654412 12.18108854 -11.94189453 10.23730469 C-11.94554016 9.1308107 -11.94918579 8.02431671 -11.95294189 6.8842926 C-11.58544922 4.14526367 -11.58544922 4.14526367 -10.25067139 2.32701111 C-6.94570177 -0.01840529 -3.9130315 0.0147882 0 0 Z M1.41455078 13.14526367 C1.41455078 27.99526367 1.41455078 42.84526367 1.41455078 58.14526367 C15.93455078 58.14526367 30.45455078 58.14526367 45.41455078 58.14526367 C45.41455078 43.29526367 45.41455078 28.44526367 45.41455078 13.14526367 C30.89455078 13.14526367 16.37455078 13.14526367 1.41455078 13.14526367 Z " fill="#FF8215" transform="translate(243.58544921875,359.854736328125)"/>
<path d="M0 0 C1.18818329 -0.00637985 2.37636658 -0.0127597 3.60055542 -0.01933289 C4.89011139 -0.02044571 6.17966736 -0.02155853 7.50830078 -0.02270508 C8.82774689 -0.02603348 10.14719299 -0.02936188 11.50662231 -0.03279114 C14.30260027 -0.03878352 17.09854732 -0.04063097 19.89453125 -0.04003906 C23.47464488 -0.03993752 27.05455982 -0.05358068 30.63462639 -0.07081127 C33.38844714 -0.08193949 36.14222001 -0.08395801 38.89606094 -0.08342934 C40.85698158 -0.08518156 42.81788729 -0.09601871 44.77877808 -0.10697937 C45.97326569 -0.10390274 47.1677533 -0.10082611 48.3984375 -0.09765625 C49.97490555 -0.09979378 49.97490555 -0.09979378 51.58322144 -0.10197449 C54.3698904 0.14898091 56.0021101 0.61913986 58.32861328 2.14526367 C59.69296805 4.8739732 59.47088314 7.05332204 59.48974609 10.10791016 C59.49935364 11.35938339 59.50896118 12.61085663 59.51885986 13.9002533 C59.52370711 15.27228616 59.52798612 16.64432113 59.53173828 18.01635742 C59.53748934 19.41878767 59.54324708 20.82121788 59.54901123 22.22364807 C59.55952 25.16505297 59.56536367 28.10643053 59.56884766 31.04785156 C59.57433653 34.81871016 59.598373 38.58920841 59.62681961 42.35995388 C59.64543253 45.25699422 59.65065082 48.15394746 59.65218353 51.05104256 C59.65521295 52.44133541 59.66325126 53.83162662 59.67636871 55.22186089 C59.69340139 57.16557567 59.68970818 59.1094388 59.68505859 61.05322266 C59.69052704 62.71296364 59.69052704 62.71296364 59.69610596 64.40623474 C59.32861328 67.14526367 59.32861328 67.14526367 57.99383545 68.96351624 C54.68886583 71.30893263 51.65619556 71.27573915 47.74316406 71.29052734 C46.02590622 71.30009712 46.02590622 71.30009712 44.2739563 71.30986023 C43.03644623 71.31097305 41.79893616 71.31208588 40.52392578 71.31323242 C39.25265839 71.31656082 37.98139099 71.31988922 36.67160034 71.32331848 C33.97992457 71.32838574 31.28834975 71.33115893 28.59667969 71.33056641 C25.15457342 71.33046488 21.71267385 71.34410981 18.27061653 71.36133862 C14.98006073 71.37516004 11.68950667 71.37454813 8.39892578 71.37573242 C7.16546417 71.38291794 5.93200256 71.39010345 4.66116333 71.39750671 C3.51002045 71.39443008 2.35887756 71.39135345 1.17285156 71.38818359 C-0.34246658 71.39032112 -0.34246658 71.39032112 -1.88839722 71.39250183 C-4.86151943 71.12837246 -7.01230401 70.48835915 -9.67138672 69.14526367 C-11.03574148 66.41655414 -10.81365658 64.2372053 -10.83251953 61.18261719 C-10.84693085 59.30540733 -10.84693085 59.30540733 -10.8616333 57.39027405 C-10.86648055 56.01824119 -10.87075956 54.64620622 -10.87451172 53.27416992 C-10.88026278 51.87173968 -10.88602052 50.46930946 -10.89178467 49.06687927 C-10.90229344 46.12547438 -10.90813711 43.18409681 -10.91162109 40.24267578 C-10.91710997 36.47181719 -10.94114644 32.70131893 -10.96959305 28.93057346 C-10.98820597 26.03353312 -10.99342426 23.13657988 -10.99495697 20.23948479 C-10.99798639 18.84919194 -11.0060247 17.45890072 -11.01914215 16.06866646 C-11.03617483 14.12495167 -11.03248162 12.18108854 -11.02783203 10.23730469 C-11.03147766 9.1308107 -11.03512329 8.02431671 -11.03887939 6.8842926 C-10.67138672 4.14526367 -10.67138672 4.14526367 -9.27410889 2.32701111 C-6.09588621 -0.01641221 -3.90856454 0.01419748 0 0 Z M2.32861328 13.14526367 C2.32861328 27.99526367 2.32861328 42.84526367 2.32861328 58.14526367 C16.84861328 58.14526367 31.36861328 58.14526367 46.32861328 58.14526367 C46.32861328 43.29526367 46.32861328 28.44526367 46.32861328 13.14526367 C31.80861328 13.14526367 17.28861328 13.14526367 2.32861328 13.14526367 Z " fill="#FF8215" transform="translate(242.67138671875,276.854736328125)"/>
<path d="M0 0 C1.78193504 -0.00922989 1.78193504 -0.00922989 3.59986877 -0.01864624 C5.51097694 0.00291031 5.51097694 0.00291031 7.46069336 0.02490234 C9.43349525 0.02627701 9.43349525 0.02627701 11.44615173 0.02767944 C14.22440862 0.03080066 17.00214697 0.04731379 19.78027344 0.07421875 C23.33681934 0.10823124 26.89279722 0.11584598 30.44948673 0.11432838 C33.84913136 0.11500364 37.24859061 0.13268297 40.64819336 0.14990234 C41.9242897 0.15212799 43.20038605 0.15435364 44.51515198 0.15664673 C46.29235878 0.17578629 46.29235878 0.17578629 48.10546875 0.1953125 C49.14739883 0.2029361 50.18932892 0.21055969 51.26283264 0.21841431 C54.02726667 0.48968946 55.67455723 0.97498479 57.98803711 2.48583984 C59.35349971 5.21676504 59.12276209 7.39150026 59.13330078 10.44848633 C59.13968063 11.69995956 59.14606049 12.9514328 59.15263367 14.24082947 C59.15416228 15.61286379 59.15527627 16.98489862 59.15600586 18.35693359 C59.15921811 19.75936416 59.16258215 21.16179439 59.16609192 22.56422424 C59.17208411 25.50563331 59.17393172 28.44701299 59.17333984 31.38842773 C59.1732382 35.15920612 59.18689215 38.92979629 59.20411205 42.70053005 C59.21522541 45.59756843 59.21725926 48.49456121 59.21673012 51.39161873 C59.21791117 52.78189811 59.22233998 54.17217863 59.23006248 55.56243706 C59.23984866 57.5061997 59.23572363 59.45001739 59.23095703 61.39379883 C59.23238205 62.50029282 59.23380707 63.6067868 59.23527527 64.74681091 C58.98803711 67.48583984 58.98803711 67.48583984 56.98803711 70.48583984 C53.82059301 71.69892331 50.65151767 71.62415981 47.2890625 71.64697266 C45.57191795 71.66138397 45.57191795 71.66138397 43.82008362 71.67608643 C41.97156044 71.68246124 41.97156044 71.68246124 40.08569336 71.68896484 C38.81584091 71.69466492 37.54598846 71.70036499 36.23765564 71.70623779 C33.55195533 71.71568319 30.86636665 71.72258279 28.18066406 71.72607422 C24.74634547 71.73156246 21.31242262 71.7556067 17.87822819 71.78404617 C14.5932467 71.8071894 11.30824496 71.80912269 8.02319336 71.81396484 C6.17770653 71.83248505 6.17770653 71.83248505 4.29493713 71.85137939 C3.14702194 71.8483783 1.99910675 71.8453772 0.81640625 71.84228516 C-0.19078964 71.84593079 -1.19798553 71.84957642 -2.23570251 71.85333252 C-5.77855287 71.38436658 -8.46813788 70.02966485 -11.01196289 67.48583984 C-11.13221629 65.54408006 -11.18219129 63.597936 -11.20483398 61.65258789 C-11.22089691 60.40426682 -11.23695984 59.15594574 -11.25350952 57.86979675 C-11.26499614 56.49572426 -11.27560482 55.12164418 -11.28540039 53.74755859 C-11.29072407 53.05841684 -11.29604774 52.36927509 -11.30153275 51.65925026 C-11.32828249 48.01071916 -11.34765024 44.36222247 -11.36206055 40.71362305 C-11.37870117 36.94371096 -11.42346679 33.17467439 -11.47443199 29.40509319 C-11.50808651 26.50801081 -11.51963593 23.61113647 -11.52528763 20.71387672 C-11.53200675 19.32436251 -11.54724641 17.9348623 -11.57117844 16.54553795 C-11.60278048 14.5996902 -11.59986871 12.65337474 -11.59545898 10.70727539 C-11.60354584 9.59998581 -11.61163269 8.49269623 -11.6199646 7.35185242 C-11.01196289 4.48583984 -11.01196289 4.48583984 -8.85124207 2.12736511 C-5.58944182 0.24155988 -3.74443792 -0.01023451 0 0 Z M1.98803711 13.48583984 C1.98803711 28.33583984 1.98803711 43.18583984 1.98803711 58.48583984 C16.50803711 58.48583984 31.02803711 58.48583984 45.98803711 58.48583984 C45.98803711 43.63583984 45.98803711 28.78583984 45.98803711 13.48583984 C31.46803711 13.48583984 16.94803711 13.48583984 1.98803711 13.48583984 Z " fill="#FF980C" transform="translate(151.011962890625,276.51416015625)"/>
<path d="M0 0 C1.31282959 -0.00004028 2.62565918 -0.00008057 3.97827148 -0.00012207 C6.75244709 0.0015283 9.52581179 0.02017131 12.29980469 0.05175781 C15.84743625 0.09143594 19.39400688 0.09580162 22.94181824 0.08829498 C26.33634034 0.08447925 29.73053029 0.10531437 33.125 0.125 C35.03140259 0.12530212 35.03140259 0.12530212 36.97631836 0.12561035 C38.16104736 0.14152222 39.34577637 0.15743408 40.56640625 0.17382812 C42.12597046 0.18645691 42.12597046 0.18645691 43.71704102 0.19934082 C47.11575709 0.67043699 48.95297358 1.35036921 51.5625 3.59375 C52.17723083 6.36401367 52.17723083 6.36401367 52.16186523 9.76171875 C52.16794296 11.03313721 52.17402069 12.30455566 52.18028259 13.61450195 C52.16137782 15.00342944 52.14162778 16.39234564 52.12109375 17.78125 C52.11684324 19.20466683 52.11451503 20.62809058 52.11402893 22.05151367 C52.10786243 25.03433662 52.08515998 28.0164089 52.04956055 30.99902344 C52.00428729 34.82252821 51.9895348 38.6453529 51.98582363 42.46910095 C51.98139467 45.4082307 51.96609029 48.34721765 51.9469471 51.2862854 C51.93806698 52.69608383 51.93133596 54.10589749 51.92678642 55.51571655 C51.91774334 57.48581187 51.89366767 59.45582092 51.86889648 61.42578125 C51.85293678 63.10764526 51.85293678 63.10764526 51.83665466 64.82348633 C51.5625 67.59375 51.5625 67.59375 49.5625 70.59375 C46.42078 71.64099 44.18369651 71.73294002 40.88525391 71.75488281 C39.72039459 71.76449036 38.55553528 71.7740979 37.3553772 71.78399658 C35.46630142 71.7903714 35.46630142 71.7903714 33.5390625 71.796875 C32.24559906 71.80257507 30.95213562 71.80827515 29.61947632 71.81414795 C26.88075366 71.82464673 24.14206026 71.83049675 21.40332031 71.83398438 C17.90059477 71.83946738 14.39825828 71.86349542 10.89565468 71.89195633 C7.54763144 71.91510257 4.1996616 71.91703351 0.8515625 71.921875 C-1.03144058 71.9403952 -1.03144058 71.9403952 -2.95248413 71.95928955 C-4.12364777 71.95628845 -5.2948114 71.95328735 -6.50146484 71.95019531 C-7.52944183 71.95384094 -8.55741882 71.95748657 -9.61654663 71.96124268 C-12.89899051 71.53363047 -14.7803328 70.53703316 -17.4375 68.59375 C-18.77352754 65.92169491 -18.59420995 63.83859347 -18.63037109 60.84643555 C-18.64643402 59.6414592 -18.66249695 58.43648285 -18.67904663 57.19499207 C-18.7233948 51.68183539 -18.76500088 46.16881018 -18.78759766 40.65551758 C-18.80093429 37.74439043 -18.82878034 34.83396473 -18.86962891 31.9230957 C-18.91897812 28.40641617 -18.94372113 24.89037259 -18.95082474 21.37336159 C-18.96078846 19.38520832 -18.99502711 17.39722458 -19.02963257 15.40934753 C-19.00923103 6.71602157 -19.00923103 6.71602157 -16.74462891 2.27075195 C-11.33665185 -0.47156271 -5.97370862 -0.07706179 0 0 Z M-5.4375 13.59375 C-5.4375 28.44375 -5.4375 43.29375 -5.4375 58.59375 C9.0825 58.59375 23.6025 58.59375 38.5625 58.59375 C38.5625 43.74375 38.5625 28.89375 38.5625 13.59375 C24.0425 13.59375 9.5225 13.59375 -5.4375 13.59375 Z " fill="#FFAD04" transform="translate(66.4375,276.40625)"/>
<path d="M0 0 C1.18810776 -0.00637985 2.37621552 -0.0127597 3.60032654 -0.01933289 C5.52691856 -0.02100212 5.52691856 -0.02100212 7.49243164 -0.02270508 C8.8104628 -0.02603348 10.12849396 -0.02936188 11.48646545 -0.03279114 C14.27646707 -0.03877722 17.06643773 -0.04063155 19.85644531 -0.04003906 C23.4286832 -0.03993743 27.00072238 -0.0535934 30.57291317 -0.07081127 C33.98358908 -0.08461334 37.39422815 -0.08402019 40.80493164 -0.08520508 C42.08730209 -0.09239059 43.36967255 -0.09957611 44.69090271 -0.10697937 C46.47779259 -0.10236443 46.47779259 -0.10236443 48.30078125 -0.09765625 C49.87272499 -0.09979378 49.87272499 -0.09979378 51.47642517 -0.10197449 C54.25943987 0.14926763 55.89105758 0.62165519 58.21508789 2.14526367 C59.57944265 4.8739732 59.35735775 7.05332204 59.3762207 10.10791016 C59.38582825 11.35938339 59.39543579 12.61085663 59.40533447 13.9002533 C59.41018172 15.27228616 59.41446073 16.64432113 59.41821289 18.01635742 C59.42396395 19.41878767 59.42972169 20.82121788 59.43548584 22.22364807 C59.44599461 25.16505297 59.45183828 28.10643053 59.45532227 31.04785156 C59.46081114 34.81871016 59.48484761 38.58920841 59.51329422 42.35995388 C59.53190714 45.25699422 59.53712543 48.15394746 59.53865814 51.05104256 C59.54168756 52.44133541 59.54972587 53.83162662 59.56284332 55.22186089 C59.579876 57.16557567 59.57618279 59.1094388 59.5715332 61.05322266 C59.57700165 62.71296364 59.57700165 62.71296364 59.58258057 64.40623474 C59.21508789 67.14526367 59.21508789 67.14526367 57.88031006 68.96351624 C54.57534044 71.30893263 51.54267017 71.27573915 47.62963867 71.29052734 C45.91238083 71.30009712 45.91238083 71.30009712 44.16043091 71.30986023 C42.92292084 71.31097305 41.68541077 71.31208588 40.41040039 71.31323242 C39.139133 71.31656082 37.8678656 71.31988922 36.55807495 71.32331848 C33.86639918 71.32838574 31.17482435 71.33115893 28.4831543 71.33056641 C25.04104803 71.33046488 21.59914846 71.34410981 18.15709114 71.36133862 C14.86653534 71.37516004 11.57598128 71.37454813 8.28540039 71.37573242 C7.05193878 71.38291794 5.81847717 71.39010345 4.54763794 71.39750671 C3.39649506 71.39443008 2.24535217 71.39135345 1.05932617 71.38818359 C-0.45599197 71.39032112 -0.45599197 71.39032112 -2.00192261 71.39250183 C-4.97504482 71.12837246 -7.1258294 70.48835915 -9.78491211 69.14526367 C-11.15037471 66.41433848 -10.91963709 64.23960326 -10.93017578 61.18261719 C-10.93655563 59.93114395 -10.94293549 58.67967072 -10.94950867 57.39027405 C-10.95103728 56.01823973 -10.95215127 54.6462049 -10.95288086 53.27416992 C-10.95609311 51.87173935 -10.95945715 50.46930913 -10.96296692 49.06687927 C-10.96895911 46.1254702 -10.97080672 43.18409052 -10.97021484 40.24267578 C-10.9701132 36.4718974 -10.98376715 32.70130722 -11.00098705 28.93057346 C-11.01210041 26.03353508 -11.01413426 23.1365423 -11.01360512 20.23948479 C-11.01478617 18.84920541 -11.01921498 17.45892489 -11.02693748 16.06866646 C-11.03672366 14.12490381 -11.03259863 12.18108612 -11.02783203 10.23730469 C-11.02925705 9.1308107 -11.03068207 8.02431671 -11.03215027 6.8842926 C-10.78491211 4.14526367 -10.78491211 4.14526367 -8.78491211 1.14526367 C-5.60848455 0.08645449 -3.33713092 0.01214751 0 0 Z M2.21508789 13.14526367 C2.21508789 27.99526367 2.21508789 42.84526367 2.21508789 58.14526367 C16.73508789 58.14526367 31.25508789 58.14526367 46.21508789 58.14526367 C46.21508789 43.29526367 46.21508789 28.44526367 46.21508789 13.14526367 C31.69508789 13.14526367 17.17508789 13.14526367 2.21508789 13.14526367 Z " fill="#FF8315" transform="translate(242.784912109375,193.854736328125)"/>
<path d="M0 0 C1.18488007 -0.01283524 2.36976013 -0.02567047 3.59054565 -0.03889465 C5.5124321 -0.04997505 5.5124321 -0.04997505 7.47314453 -0.0612793 C8.78880402 -0.06935104 10.1044635 -0.07742279 11.45999146 -0.08573914 C14.24578726 -0.10075084 17.03155769 -0.11059666 19.81738281 -0.11816406 C23.38075364 -0.12923232 26.94350067 -0.16364297 30.50665092 -0.20333576 C33.91212379 -0.23580497 37.31752883 -0.24028029 40.72314453 -0.2487793 C42.0003537 -0.26628738 43.27756287 -0.28379547 44.59347534 -0.30183411 C46.38025192 -0.29744576 46.38025192 -0.29744576 48.203125 -0.29296875 C49.24886688 -0.29883499 50.29460876 -0.30470123 51.37203979 -0.31074524 C55.07707245 0.32135395 56.69668018 1.41321447 59.23095703 4.17700195 C59.85241699 7.02955627 59.85241699 7.02955627 59.84619141 10.36669922 C59.86014954 12.24368248 59.86014954 12.24368248 59.87438965 14.15858459 C59.85880446 15.52020398 59.84221957 16.88181224 59.82470703 18.2434082 C59.8229955 19.64297889 59.82306205 21.04255279 59.8248291 22.44212341 C59.82317707 25.37188484 59.80450056 28.30087993 59.77294922 31.23046875 C59.733234 34.98569514 59.72890857 38.7399199 59.73641205 42.49531651 C59.73948114 45.38385699 59.72736426 48.27217224 59.71028137 51.16065788 C59.70325123 52.54533411 59.70012686 53.93003587 59.70097351 55.31472969 C59.6991762 57.24879078 59.67553262 59.18279443 59.65087891 61.11669922 C59.64245972 62.2171608 59.63404053 63.31762238 59.62536621 64.45143127 C59.23095703 67.17700195 59.23095703 67.17700195 57.89221191 68.99327087 C54.59239992 71.34455968 51.55658435 71.30748481 47.64550781 71.32226562 C45.92824997 71.3318354 45.92824997 71.3318354 44.17630005 71.34159851 C42.93878998 71.34271133 41.70127991 71.34382416 40.42626953 71.3449707 C39.15500214 71.3482991 37.88373474 71.3516275 36.57394409 71.35505676 C33.88226832 71.36012402 31.1906935 71.36289722 28.49902344 71.36230469 C25.05691717 71.36220316 21.6150176 71.37584809 18.17296028 71.3930769 C14.88240448 71.40689832 11.59185042 71.40628641 8.30126953 71.4074707 C7.06780792 71.41465622 5.83434631 71.42184174 4.56350708 71.429245 C3.4123642 71.42616837 2.26122131 71.42309174 1.07519531 71.41992188 C-0.44012283 71.4220594 -0.44012283 71.4220594 -1.98605347 71.42424011 C-4.95917568 71.16011074 -7.10996026 70.52009743 -9.76904297 69.17700195 C-11.13450557 66.44607676 -10.90376795 64.27134154 -10.91430664 61.21435547 C-10.92068649 59.96288223 -10.92706635 58.711409 -10.93363953 57.42201233 C-10.93516814 56.04997801 -10.93628213 54.67794318 -10.93701172 53.3059082 C-10.94022397 51.90347764 -10.94358801 50.50104741 -10.94709778 49.09861755 C-10.95308997 46.15720849 -10.95493758 43.21582881 -10.9543457 40.27441406 C-10.95424406 36.50363568 -10.96789801 32.73304551 -10.98511791 28.96231174 C-10.99623127 26.06527336 -10.99826512 23.16828059 -10.99773598 20.27122307 C-10.99891703 18.88094369 -11.00334584 17.49066317 -11.01106834 16.10040474 C-11.02085452 14.15664209 -11.01672949 12.2128244 -11.01196289 10.26904297 C-11.01338791 9.16254898 -11.01481293 8.05605499 -11.01628113 6.91603088 C-10.76904297 4.17700195 -10.76904297 4.17700195 -8.76904297 1.17700195 C-5.60676608 0.12290966 -3.32220986 0.03132165 0 0 Z M2.23095703 13.17700195 C2.23095703 28.02700195 2.23095703 42.87700195 2.23095703 58.17700195 C16.75095703 58.17700195 31.27095703 58.17700195 46.23095703 58.17700195 C46.23095703 43.32700195 46.23095703 28.47700195 46.23095703 13.17700195 C31.71095703 13.17700195 17.19095703 13.17700195 2.23095703 13.17700195 Z " fill="#FF6D1E" transform="translate(334.76904296875,193.822998046875)"/>
<path d="M0 0 C1.78193504 -0.00922989 1.78193504 -0.00922989 3.59986877 -0.01864624 C5.51097694 0.00291031 5.51097694 0.00291031 7.46069336 0.02490234 C9.43349525 0.02627701 9.43349525 0.02627701 11.44615173 0.02767944 C14.22440862 0.03080066 17.00214697 0.04731379 19.78027344 0.07421875 C23.33681934 0.10823124 26.89279722 0.11584598 30.44948673 0.11432838 C33.84913136 0.11500364 37.24859061 0.13268297 40.64819336 0.14990234 C41.9242897 0.15212799 43.20038605 0.15435364 44.51515198 0.15664673 C46.29235878 0.17578629 46.29235878 0.17578629 48.10546875 0.1953125 C49.14739883 0.2029361 50.18932892 0.21055969 51.26283264 0.21841431 C54.02726667 0.48968946 55.67455723 0.97498479 57.98803711 2.48583984 C59.35239187 5.21454937 59.13030697 7.39389821 59.14916992 10.44848633 C59.15877747 11.69995956 59.16838501 12.9514328 59.17828369 14.24082947 C59.18313094 15.61286233 59.18740995 16.9848973 59.19116211 18.35693359 C59.19691317 19.75936384 59.20267091 21.16179405 59.20843506 22.56422424 C59.21894383 25.50562914 59.2247875 28.4470067 59.22827148 31.38842773 C59.23376036 35.15928633 59.25779683 38.92978458 59.28624344 42.70053005 C59.30485636 45.5975704 59.31007465 48.49452364 59.31160736 51.39161873 C59.31463678 52.78191158 59.32267509 54.17220279 59.33579254 55.56243706 C59.35282522 57.50615185 59.34913201 59.45001497 59.34448242 61.39379883 C59.34995087 63.05353981 59.34995087 63.05353981 59.35552979 64.74681091 C58.98803711 67.48583984 58.98803711 67.48583984 57.65325928 69.30409241 C54.3526455 71.64641762 51.31138848 71.62051147 47.40258789 71.64697266 C46.25774933 71.6565802 45.11291077 71.66618774 43.93338013 71.67608643 C42.69587006 71.6803363 41.45835999 71.68458618 40.18334961 71.68896484 C38.91208221 71.69466492 37.64081482 71.70036499 36.33102417 71.70623779 C33.63934753 71.71569118 30.94778248 71.7225864 28.25610352 71.72607422 C24.81390912 71.73155704 21.37211066 71.75558484 17.93004036 71.78404617 C14.63950688 71.80719447 11.34895312 71.80912354 8.05834961 71.81396484 C6.2081572 71.83248505 6.2081572 71.83248505 4.32058716 71.85137939 C3.16944427 71.8483783 2.01830139 71.8453772 0.83227539 71.84228516 C-0.17793671 71.84593079 -1.1881488 71.84957642 -2.22897339 71.85333252 C-5.77590715 71.3849613 -8.4652548 70.03254793 -11.01196289 67.48583984 C-11.13221629 65.54408006 -11.18219129 63.597936 -11.20483398 61.65258789 C-11.22089691 60.40426682 -11.23695984 59.15594574 -11.25350952 57.86979675 C-11.26499614 56.49572426 -11.27560482 55.12164418 -11.28540039 53.74755859 C-11.29072407 53.05841684 -11.29604774 52.36927509 -11.30153275 51.65925026 C-11.32828249 48.01071916 -11.34765024 44.36222247 -11.36206055 40.71362305 C-11.37870117 36.94371096 -11.42346679 33.17467439 -11.47443199 29.40509319 C-11.50808651 26.50801081 -11.51963593 23.61113647 -11.52528763 20.71387672 C-11.53200675 19.32436251 -11.54724641 17.9348623 -11.57117844 16.54553795 C-11.60278048 14.5996902 -11.59986871 12.65337474 -11.59545898 10.70727539 C-11.60354584 9.59998581 -11.61163269 8.49269623 -11.6199646 7.35185242 C-11.01196289 4.48583984 -11.01196289 4.48583984 -8.85124207 2.12736511 C-5.58944182 0.24155988 -3.74443792 -0.01023451 0 0 Z M1.98803711 13.48583984 C1.98803711 28.33583984 1.98803711 43.18583984 1.98803711 58.48583984 C16.50803711 58.48583984 31.02803711 58.48583984 45.98803711 58.48583984 C45.98803711 43.63583984 45.98803711 28.78583984 45.98803711 13.48583984 C31.46803711 13.48583984 16.94803711 13.48583984 1.98803711 13.48583984 Z " fill="#FF980C" transform="translate(151.011962890625,193.51416015625)"/>
<path d="M0 0 C1.31282959 -0.00004028 2.62565918 -0.00008057 3.97827148 -0.00012207 C6.75244709 0.0015283 9.52581179 0.02017131 12.29980469 0.05175781 C15.84743625 0.09143594 19.39400688 0.09580162 22.94181824 0.08829498 C26.33634034 0.08447925 29.73053029 0.10531437 33.125 0.125 C35.03140259 0.12530212 35.03140259 0.12530212 36.97631836 0.12561035 C38.16104736 0.14152222 39.34577637 0.15743408 40.56640625 0.17382812 C42.12597046 0.18645691 42.12597046 0.18645691 43.71704102 0.19934082 C47.11575709 0.67043699 48.95297358 1.35036921 51.5625 3.59375 C52.17723083 6.36401367 52.17723083 6.36401367 52.16186523 9.76171875 C52.16794296 11.03313721 52.17402069 12.30455566 52.18028259 13.61450195 C52.16137782 15.00342944 52.14162778 16.39234564 52.12109375 17.78125 C52.11684324 19.20466683 52.11451503 20.62809058 52.11402893 22.05151367 C52.10786243 25.03433662 52.08515998 28.0164089 52.04956055 30.99902344 C52.00428729 34.82252821 51.9895348 38.6453529 51.98582363 42.46910095 C51.98139467 45.4082307 51.96609029 48.34721765 51.9469471 51.2862854 C51.93806698 52.69608383 51.93133596 54.10589749 51.92678642 55.51571655 C51.91774334 57.48581187 51.89366767 59.45582092 51.86889648 61.42578125 C51.85293678 63.10764526 51.85293678 63.10764526 51.83665466 64.82348633 C51.5625 67.59375 51.5625 67.59375 49.5625 70.59375 C46.3950559 71.80683346 43.22598056 71.73206997 39.86352539 71.75488281 C38.14638084 71.76929413 38.14638084 71.76929413 36.39454651 71.78399658 C34.54602333 71.7903714 34.54602333 71.7903714 32.66015625 71.796875 C31.3903038 71.80257507 30.12045135 71.80827515 28.81211853 71.81414795 C26.12641822 71.82359335 23.44082954 71.83049295 20.75512695 71.83398438 C17.32080836 71.83947262 13.88688551 71.86351686 10.45269108 71.89195633 C7.16770959 71.91509956 3.88270785 71.91703284 0.59765625 71.921875 C-1.24783058 71.9403952 -1.24783058 71.9403952 -3.13059998 71.95928955 C-4.27851517 71.95628845 -5.42643036 71.95328735 -6.60913086 71.95019531 C-7.61632675 71.95384094 -8.62352264 71.95748657 -9.66123962 71.96124268 C-12.91651968 71.53034232 -14.79872701 70.51767328 -17.4375 68.59375 C-18.77352754 65.92169491 -18.59420995 63.83859347 -18.63037109 60.84643555 C-18.64643402 59.6414592 -18.66249695 58.43648285 -18.67904663 57.19499207 C-18.7233948 51.68183539 -18.76500088 46.16881018 -18.78759766 40.65551758 C-18.80093429 37.74439043 -18.82878034 34.83396473 -18.86962891 31.9230957 C-18.91897812 28.40641617 -18.94372113 24.89037259 -18.95082474 21.37336159 C-18.96078846 19.38520832 -18.99502711 17.39722458 -19.02963257 15.40934753 C-19.00923103 6.71602157 -19.00923103 6.71602157 -16.74462891 2.27075195 C-11.33665185 -0.47156271 -5.97370862 -0.07706179 0 0 Z M-5.4375 13.59375 C-5.4375 28.44375 -5.4375 43.29375 -5.4375 58.59375 C9.0825 58.59375 23.6025 58.59375 38.5625 58.59375 C38.5625 43.74375 38.5625 28.89375 38.5625 13.59375 C24.0425 13.59375 9.5225 13.59375 -5.4375 13.59375 Z " fill="#FFAD04" transform="translate(66.4375,193.40625)"/>
<path d="M0 0 C1.75213051 -0.00956978 1.75213051 -0.00956978 3.53965759 -0.01933289 C5.43343895 -0.02100212 5.43343895 -0.02100212 7.36547852 -0.02270508 C8.66131363 -0.02603348 9.95714874 -0.02936188 11.29225159 -0.03279114 C14.03517489 -0.03877695 16.77806672 -0.04063158 19.52099609 -0.04003906 C23.03270123 -0.03993743 26.54420424 -0.05359334 30.05586147 -0.07081127 C33.40907029 -0.08461433 36.76224164 -0.08402021 40.11547852 -0.08520508 C41.37597519 -0.09239059 42.63647186 -0.09957611 43.93516541 -0.10697937 C45.10640457 -0.10390274 46.27764374 -0.10082611 47.484375 -0.09765625 C48.5145726 -0.09908127 49.5447702 -0.10050629 50.60618591 -0.10197449 C53.36857854 0.15091149 54.99681175 0.63592079 57.30688477 2.14526367 C58.67234736 4.87618887 58.44160975 7.05092409 58.45214844 10.10791016 C58.45852829 11.35938339 58.46490814 12.61085663 58.47148132 13.9002533 C58.47300993 15.27228761 58.47412393 16.64432245 58.47485352 18.01635742 C58.47806576 19.41878799 58.48142981 20.82121822 58.48493958 22.22364807 C58.49093177 25.16505714 58.49277938 28.10643682 58.4921875 31.04785156 C58.49208586 34.81862995 58.5057398 38.58922012 58.52295971 42.35995388 C58.53407306 45.25699226 58.53610692 48.15398504 58.53557777 51.05104256 C58.53675883 52.44132193 58.54118764 53.83160245 58.54891014 55.22186089 C58.55869632 57.16562353 58.55457129 59.10944122 58.54980469 61.05322266 C58.55122971 62.15971664 58.55265472 63.26621063 58.55412292 64.40623474 C58.30688477 67.14526367 58.30688477 67.14526367 56.30688477 70.14526367 C53.16516476 71.19250367 50.92808128 71.28445369 47.62963867 71.30639648 C46.46477936 71.31600403 45.29992004 71.32561157 44.09976196 71.33551025 C42.21068619 71.34188507 42.21068619 71.34188507 40.28344727 71.34838867 C38.98998383 71.35408875 37.69652039 71.35978882 36.36386108 71.36566162 C33.62513842 71.3761604 30.88644502 71.38201042 28.14770508 71.38549805 C24.64497953 71.39098105 21.14264304 71.41500909 17.64003944 71.44347 C14.29201621 71.46661624 10.94404636 71.46854718 7.59594727 71.47338867 C5.71294418 71.49190887 5.71294418 71.49190887 3.79190063 71.51080322 C2.620737 71.50780212 1.44957336 71.50480103 0.24291992 71.50170898 C-0.78505707 71.50535461 -1.81303406 71.50900024 -2.87216187 71.51275635 C-6.15460574 71.08514415 -8.03594803 70.08854683 -10.69311523 68.14526367 C-12.03343959 65.46461496 -11.83504243 63.38373593 -11.85424805 60.38208008 C-11.86385559 59.17387604 -11.87346313 57.965672 -11.88336182 56.72085571 C-11.88761169 55.40942596 -11.89186157 54.09799622 -11.89624023 52.74682617 C-11.90199208 51.39163206 -11.90774981 50.03643796 -11.91351318 48.6812439 C-11.92402256 45.83819194 -11.92986557 42.99516826 -11.93334961 40.15209961 C-11.93883309 36.51136988 -11.96285774 32.87101438 -11.99132156 29.23040199 C-12.00995802 26.43025628 -12.01515407 23.63020051 -12.01668549 20.82999802 C-12.02118054 18.83580957 -12.03982262 16.84166929 -12.05865479 14.8475647 C-12.05565369 13.63305634 -12.05265259 12.41854797 -12.04956055 11.16723633 C-12.05320618 10.09849274 -12.05685181 9.02974915 -12.06060791 7.92861938 C-11.6416913 4.75578355 -10.92674818 3.40693676 -8.69311523 1.14526367 C-5.54200819 0.09489466 -3.30847757 0.01225104 0 0 Z M1.30688477 13.14526367 C1.30688477 27.99526367 1.30688477 42.84526367 1.30688477 58.14526367 C15.82688477 58.14526367 30.34688477 58.14526367 45.30688477 58.14526367 C45.30688477 43.29526367 45.30688477 28.44526367 45.30688477 13.14526367 C30.78688477 13.14526367 16.26688477 13.14526367 1.30688477 13.14526367 Z " fill="#FFAD04" transform="translate(59.693115234375,359.854736328125)"/>
<path d="M0 0 C3 2 3 2 4 5 C4.09626523 6.49760926 4.13809949 7.99907296 4.14526367 9.49975586 C4.15164352 10.40757309 4.15802338 11.31539032 4.16459656 12.25071716 C4.16570938 13.22887894 4.1668222 14.20704071 4.16796875 15.21484375 C4.17296135 16.72577354 4.17296135 16.72577354 4.17805481 18.26722717 C4.18311866 20.3981175 4.1854633 22.52901577 4.18530273 24.65991211 C4.18748907 27.92119393 4.20565021 31.18213743 4.22460938 34.44335938 C4.22754342 36.51301968 4.22952814 38.58268158 4.23046875 40.65234375 C4.23765427 41.62848129 4.24483978 42.60461884 4.25224304 43.6103363 C4.24916641 44.52130569 4.24608978 45.43227509 4.24291992 46.37084961 C4.24434494 47.17010361 4.24576996 47.9693576 4.24723816 48.79283142 C3.96823615 51.28356536 3.32588693 52.88160337 2 55 C-0.98021812 56.49010906 -4.03924191 56.18333533 -7.30859375 56.203125 C-8.03111832 56.20882507 -8.75364288 56.21452515 -9.49806213 56.22039795 C-11.02709488 56.22984718 -12.55614799 56.23638163 -14.08520508 56.24023438 C-16.42500241 56.24994812 -18.76392423 56.28097377 -21.10351562 56.3125 C-22.58853645 56.31902937 -24.07356355 56.3242801 -25.55859375 56.328125 C-26.2586705 56.3404718 -26.95874725 56.3528186 -27.68003845 56.36553955 C-30.54206805 56.35240622 -32.52671541 56.31730837 -34.94165039 54.69824219 C-36.73816927 51.81552354 -36.35200409 49.28537154 -36 46 C-34.82299805 44.29956055 -34.82299805 44.29956055 -33 43 C-30.45629883 42.65942383 -30.45629883 42.65942383 -27.45703125 42.70703125 C-25.84731445 42.7215332 -25.84731445 42.7215332 -24.20507812 42.73632812 C-23.08552734 42.76146484 -21.96597656 42.78660156 -20.8125 42.8125 C-19.68134766 42.82603516 -18.55019531 42.83957031 -17.38476562 42.85351562 C-14.58936683 42.88890042 -11.79492108 42.93827052 -9 43 C-9.01571045 41.8039917 -9.0314209 40.6079834 -9.04760742 39.37573242 C-9.10187061 34.94220707 -9.1363369 30.50871112 -9.16479492 26.07495117 C-9.1798898 24.15530462 -9.20036773 22.2356926 -9.22631836 20.31616211 C-9.26267109 17.55834436 -9.27971912 14.8009822 -9.29296875 12.04296875 C-9.30845261 11.18350143 -9.32393646 10.32403412 -9.33988953 9.43852234 C-9.34011612 8.63791885 -9.34034271 7.83731537 -9.34057617 7.01245117 C-9.34723801 6.3085173 -9.35389984 5.60458344 -9.36076355 4.87931824 C-8.36815107 -0.29147781 -4.57192713 -0.47624241 0 0 Z " fill="#FF5D24" transform="translate(439,298)"/>
</svg>
