<svg xmlns="http://www.w3.org/2000/svg" width="512" height="512"><path fill="#ff8414" d="M114.75 47.75c5.472 5.472 9.005 11.89 11.25 19.25v4h58l1-7c2.845-8.712 9.903-16.533 17.809-21.004 11.296-5.135 21.5-5.163 33.144-1.254 9.222 3.807 16.637 11.328 20.484 20.508C257.695 65.554 258 67.353 258 71h58l1-7c3.23-9.19 9.159-16.107 17.625-20.875C344.588 38.617 355.543 37.929 366 41c10.526 4.115 16.833 10.002 22 20 1.553 3.811 2 5.854 2 10l1.845-.063c14.513-.434 26.428-.743 38.085 9.012 8.658 8.576 12.759 18.35 13.193 30.49l-.003 3.667.003 2.06q0 3.387-.01 6.775l.001 4.88q-.001 6.603-.013 13.207c-.006 4.606-.006 9.212-.008 13.817q-.004 13.074-.021 26.147-.016 14.887-.022 29.775-.016 30.617-.05 61.233l3.757-.055c4.26-.063 8.028.851 12.055 2.18l2.105.682c10.403 3.51 18.848 8.977 27.083 16.193l2.086 1.797c12.245 11.325 20.828 28.364 22.135 45.024.936 24.517-3.772 44.169-20.498 62.702C478.805 414.115 462.453 421.546 444 424l-.262 3.734C442.534 442.74 439.863 454.68 428 465c-11.145 7.74-22.026 8.297-35.207 8.26l-4.628.012c-4.222.01-8.445.008-12.667.004-4.56-.002-9.121.007-13.682.014q-13.392.018-26.784.012-10.887-.002-21.774.005l-3.132.001-6.3.004q-29.527.014-59.056.003c-18.001-.006-36.002.006-54.004.025q-27.74.03-55.479.024c-10.378-.002-20.757 0-31.136.014q-13.252.019-26.506.002a3405 3405 0 0 0-13.516.005q-6.195.014-12.388-.007-2.234-.004-4.467.008c-13.942.07-25.793-1.887-36.5-11.355C1.425 452.37-.749 441.717-.629 428.647q-.007-2.12-.022-4.24c-.018-3.85-.006-7.701.011-11.552.013-4.166-.002-8.332-.014-12.497-.018-8.148-.01-16.295.008-24.443q.02-9.936.015-19.871l-.002-2.862q0-2.879-.003-5.756c-.008-16.949.008-33.897.038-50.845q.044-24.645.02-49.292a28084 28084 0 0 1 .006-62.316q.007-9.92-.005-19.84-.011-12.094.024-24.189c.013-4.11.02-8.221.008-12.332q-.014-5.652.021-11.304c.008-1.998-.004-3.995-.017-5.993C-.43 99.4 2.488 89.61 11 81c9.537-8.116 18.208-10.506 30.563-10.187l3.056.04q3.69.054 7.381.147l.371-3.191C53.871 58.727 58.841 51.649 66 46c15.712-10.413 33.483-7.965 48.75 1.75M69.371 61.191C67.106 64.18 65 67.164 65 71h48c-2.778-8.335-5.592-12.55-13.227-16.793-10.922-4.754-22.52-1.805-30.402 6.984m132.067-.363C199.366 63.781 199.366 63.781 197 71h48c-2.778-8.335-5.592-12.55-13.227-16.793-10.94-4.761-22.105-1.691-30.335 6.621m132 0C331.366 63.781 331.366 63.781 329 71h48c-2.392-7.176-4.61-11.83-11.125-15.875-11.473-5.717-23.497-3.326-32.437 5.703M20 91c-14.772 18.186-7 32.398-7 61h417c3.05-30.157 3.05-30.157-7-60-10.296-8.998-19.795-9.179-33-9l-.664 2.344C386.316 95.26 381.81 103.179 373 109c-7.177 3.521-13.955 5.447-22 5l-3-2c-.293-2.164-.293-2.164-.187-4.625l.082-2.477L348 103l2.563-.262c10.342-1.28 16.416-3.92 23.21-11.797 1.669-2.469 1.669-2.469 3.227-7.941H258l-4 12c-5.777 8.897-13.402 15.59-23.762 18.57-5.293 1.016-9.674 1.473-14.238-1.57-.293-2.164-.293-2.164-.187-4.625l.082-2.477L216 103l2.563-.262c10.342-1.28 16.416-3.92 23.21-11.797 1.669-2.469 1.669-2.469 3.227-7.941H126l-4 12c-5.777 8.897-13.402 15.59-23.762 18.57-5.293 1.016-9.674 1.473-14.238-1.57-.293-2.164-.293-2.164-.187-4.625l.082-2.477L84 103l2.563-.262c10.342-1.28 16.416-3.92 23.21-11.797 1.585-2.508 2.324-5.125 3.227-7.941q-14.213-.07-28.427-.104-6.601-.014-13.202-.047-6.38-.032-12.76-.039-2.425-.004-4.85-.021C35.546 82.493 35.546 82.493 20 91m-7 74-.312 136.875-.138 43.23c-.017 12.78-.017 12.78-.027 25.56a4231 4231 0 0 1-.05 17.086q-.05 9.858-.04 19.715.006 5.04-.03 10.08c-.024 3.604-.018 7.207-.004 10.811l-.044 3.154c.092 9.073 2.883 16.033 9.395 22.426 7.96 7.043 18.392 6.493 28.394 6.444q2.304.005 4.608.014c4.203.013 8.407.006 12.61-.003 4.54-.007 9.08.004 13.62.012 8.888.013 17.775.01 26.662.002q10.835-.01 21.671-.005l3.117.002 6.27.003c19.588.008 39.178-.002 58.767-.018q25.206-.018 50.41.003a45236 45236 0 0 0 64.806.01l3.104-.001q10.821-.003 21.642.009 13.189.013 26.378-.01 6.727-.013 13.456-.001 6.162.013 12.324-.012 2.225-.005 4.451.006c11.878.054 20.227-.854 29.01-9.208 7.168-8.029 7.115-16.907 6.95-27.184l-2.352-.48c-11.147-2.408-21.881-5.527-31.648-11.52h-2l-.078 2.922-.172 3.828-.14 3.797c-.71 4.018-1.44 4.987-4.61 7.453-2.739.488-2.739.488-5.914.47l-3.61.009-3.886-.053-3.997-.01a1000 1000 0 0 1-8.365-.06c-3.573-.039-7.146-.057-10.72-.067-3.41-.01-6.82-.03-10.23-.05l-3.893-.023-3.6-.039-3.173-.03C329 430 329 430 326 429c-1.368-2.737-1.127-4.915-1.13-7.979l-.009-3.802.006-4.125-.003-4.215q-.001-4.417.006-8.837.006-5.67-.004-11.339-.005-4.351 0-8.704 0-2.09-.002-4.181-.002-2.92.007-5.84l.002-3.36C325 364 325 364 326 362c3.475-1.158 6.673-1.228 10.293-1.316l2.14-.063q3.377-.097 6.755-.183l4.583-.131q5.615-.16 11.229-.307l-1-12-2.798-.076a5162 5162 0 0 1-10.282-.296q-2.224-.065-4.45-.125-3.197-.088-6.396-.187l-3.888-.11C329 347 329 347 326 346c-1.368-2.737-1.127-4.915-1.13-7.979l-.009-3.802.006-4.125-.003-4.215q-.001-4.417.006-8.837.006-5.67-.004-11.339-.005-4.351 0-8.704 0-2.09-.002-4.181-.002-2.92.007-5.84l.002-3.36C325 281 325 281 326 279c3.157-1.052 5.452-1.152 8.769-1.193l3.59-.049c5.41-.044 10.818-.085 16.227-.108q4.283-.02 8.567-.082c4.113-.059 8.226-.077 12.34-.091l3.87-.07c9.847.024 9.847.024 12.981 3.126L394 283c3.438-1.335 6.744-2.83 10.063-4.437 8.007-3.664 16.255-5.405 24.937-6.563l1-1V165zm372.66 143.727c-11.82 15.274-14.598 32.907-12.23 51.68 3.609 16.573 13.57 30.17 27.14 40.07 14.721 9.23 31.402 13.061 48.5 9.391 16.533-3.97 30.419-12.562 39.93-26.868 9.667-16.713 13.385-34.612 8.375-53.625-5.92-17.37-18.073-31.45-34.562-39.625-28.418-12.387-57.49-3.936-77.153 18.977M337 290v45h24l1.5-6c3.252-11.85 8.663-22.826 17.031-31.887 1.945-2.368 1.945-2.368 1.469-7.113zm0 83v45h44c1.747-16.42 1.747-16.42-3-22.187l-1.918-1.684c-2.868-2.933-4.53-6.25-6.394-9.879l-1.022-1.973c-1.579-3.08-3.118-6.181-4.666-9.277z"/><path fill="#ff980c" d="m151.693 359.855 3.54-.02 3.826-.003 3.926-.01q4.114-.009 8.23-.007c3.51 0 7.022-.014 10.534-.031 3.353-.014 6.706-.013 10.06-.014l3.82-.022 3.548.01 3.122-.005c2.763.253 4.39.738 6.701 2.247 1.365 2.73 1.135 4.906 1.145 7.963l.02 3.792.003 4.116.01 4.207q.009 4.412.007 8.825c0 3.77.014 7.541.031 11.312q.015 4.346.013 8.69 0 2.086.013 4.172c.01 1.943.006 3.887 0 5.831l.005 3.353C210 427 210 427 208 430c-3.162 1.054-5.447 1.146-8.769 1.177l-3.59.039-3.883.022-3.987.025q-4.18.022-8.357.032c-3.564.011-7.127.046-10.69.085-3.405.033-6.81.037-10.216.046l-3.87.053-3.61-.009-3.17.018c-3.704-.632-5.324-1.724-7.858-4.488-.621-2.853-.621-2.853-.615-6.19l-.028-3.792q.023-2.042.05-4.084v-4.2c0-2.929.02-5.858.051-8.787.04-3.756.044-7.51.037-11.265-.004-2.889.009-5.777.026-8.666q.01-2.076.009-4.154c.002-1.934.025-3.868.05-5.802l.026-3.334C140 364 140 364 141.339 362.184c3.33-2.373 6.407-2.315 10.354-2.33M153 373v45h44v-45z"/><path fill="#ff8215" d="m243.585 359.855 3.47-.02 3.75-.003 3.852-.01q4.037-.008 8.075-.007c3.442 0 6.884-.014 10.326-.031 3.29-.014 6.581-.013 9.872-.014l3.737-.022 3.489.01 3.061-.005c2.973.264 5.124.904 7.783 2.247 1.364 2.729 1.142 4.908 1.161 7.963l.03 3.792.012 4.116.017 4.207q.015 4.412.02 8.825c.006 3.77.03 7.54.058 11.312.019 2.897.024 5.794.026 8.69q.004 2.086.024 4.172c.017 1.943.013 3.887.008 5.831l.011 3.353C302 427 302 427 300.603 428.818c-3.179 2.344-5.366 2.313-9.274 2.327l-3.6.02-3.909.003-3.998.01q-4.194.009-8.388.007c-3.58 0-7.16.014-10.74.031q-4.131.015-8.261.013c-1.961.001-3.922.012-5.883.023l-3.62-.01-3.185.005c-2.786-.25-4.418-.72-6.745-2.247-1.364-2.729-1.142-4.908-1.161-7.963l-.03-3.792-.012-4.116-.017-4.207q-.015-4.413-.02-8.825c-.006-3.77-.03-7.54-.058-11.312-.019-2.897-.024-5.794-.026-8.69a575 575 0 0 0-.024-4.172 523 523 0 0 1-.008-5.831l-.011-3.353C232 364 232 364 233.335 362.182c3.305-2.346 6.337-2.312 10.25-2.327M245 373v45h44v-45zM242.671 276.855l3.6-.02 3.909-.003 3.998-.01q4.194-.009 8.388-.007c3.58 0 7.16-.014 10.74-.031q4.131-.015 8.261-.013c1.961-.001 3.922-.012 5.883-.023l3.62.01 3.185-.005c2.786.25 4.418.72 6.745 2.247 1.364 2.729 1.142 4.908 1.161 7.963l.03 3.792.012 4.116.017 4.207q.015 4.412.02 8.825c.006 3.77.03 7.54.058 11.312.019 2.897.024 5.794.026 8.69q.004 2.086.024 4.172c.017 1.943.013 3.887.008 5.831l.011 3.353C302 344 302 344 300.665 345.818c-3.305 2.346-6.337 2.312-10.25 2.327l-3.47.02-3.75.003-3.852.01q-4.037.008-8.075.007c-3.442 0-6.884.014-10.326.031-3.29.014-6.581.013-9.872.014l-3.737.022-3.489-.01-3.061.005c-2.973-.264-5.124-.904-7.783-2.247-1.364-2.729-1.142-4.908-1.161-7.963l-.03-3.792-.012-4.116-.017-4.207q-.015-4.413-.02-8.825c-.006-3.77-.03-7.54-.058-11.312-.019-2.897-.024-5.794-.026-8.69a575 575 0 0 0-.024-4.172 523 523 0 0 1-.008-5.831l-.011-3.353C232 281 232 281 233.397 279.182c3.179-2.344 5.366-2.313 9.274-2.327M245 290v45h44v-45z"/><path fill="#ff980c" d="M151.012 276.514c1.782-.01 1.782-.01 3.6-.018l3.86.043 3.986.003q4.167.006 8.334.046c3.557.034 7.113.042 10.67.04 3.4.001 6.799.019 10.198.036l3.867.007 3.59.038 3.158.024c2.764.27 4.412.756 6.725 2.267 1.365 2.73 1.135 4.906 1.145 7.963l.02 3.792.003 4.116.01 4.207q.009 4.413.007 8.825c0 3.77.014 7.541.031 11.312q.015 4.346.013 8.69 0 2.086.013 4.172c.01 1.943.006 3.887 0 5.831l.005 3.353C210 344 210 344 208 347c-3.167 1.213-6.337 1.138-9.699 1.161l-3.469.03-3.734.012-3.848.017q-4.03.015-8.057.02c-3.435.006-6.869.03-10.303.058-3.285.023-6.57.025-9.855.03l-3.728.038-3.479-.01-3.052.011c-3.543-.468-6.232-1.823-8.776-4.367-.12-1.942-.17-3.888-.193-5.833l-.049-3.783q-.017-2.061-.031-4.122l-.017-2.089q-.039-5.473-.06-10.945c-.017-3.77-.062-7.54-.112-11.309a899 899 0 0 1-.051-8.691q-.01-2.085-.046-4.168a316 316 0 0 1-.024-5.839l-.025-3.355C140 281 140 281 142.161 278.642c3.262-1.886 5.107-2.138 8.851-2.128M153 290v45h44v-45z"/><path fill="#ffad04" d="M66.438 276.406h3.978q4.16.003 8.321.052c3.548.04 7.095.044 10.642.037 3.395-.004 6.789.017 10.183.036h3.852l3.59.05 3.15.025c3.4.47 5.236 1.15 7.846 3.394.615 2.77.615 2.77.6 6.168l.018 3.853-.06 4.166a1615 1615 0 0 0-.006 4.27 907 907 0 0 1-.065 8.948c-.045 3.824-.06 7.647-.064 11.47-.004 2.94-.02 5.878-.039 8.818q-.012 2.115-.02 4.229c-.009 1.97-.033 3.94-.058 5.91l-.032 3.398C118 344 118 344 116 347c-3.142 1.047-5.379 1.14-8.677 1.161l-3.53.03-3.816.012-3.92.017q-4.108.015-8.216.02c-3.503.006-7.005.03-10.508.058-3.348.023-6.696.025-10.044.03l-3.804.038-3.549-.01-3.115.011c-3.282-.427-5.164-1.424-7.821-3.367-1.336-2.672-1.157-4.755-1.193-7.747l-.049-3.652c-.044-5.513-.086-11.026-.108-16.54a924 924 0 0 0-.082-8.732c-.05-3.516-.074-7.032-.081-10.55-.01-1.988-.045-3.976-.08-5.963.021-8.694.021-8.694 2.286-13.139 5.408-2.742 10.77-2.348 16.745-2.27M61 290v45h44v-45z"/><path fill="#ff8315" d="m242.785 193.855 3.6-.02 3.892-.003 3.994-.01q4.185-.009 8.37-.007c3.573 0 7.145-.014 10.717-.031 3.41-.014 6.821-.013 10.232-.014l3.886-.022 3.61.01 3.175-.005c2.783.251 4.415.723 6.739 2.247 1.364 2.729 1.142 4.908 1.161 7.963l.03 3.792.012 4.116.017 4.207q.015 4.413.02 8.825c.006 3.77.03 7.54.058 11.312.019 2.897.024 5.794.026 8.69q.004 2.086.024 4.172c.017 1.943.013 3.887.008 5.831l.011 3.353C302 261 302 261 300.665 262.818c-3.305 2.346-6.337 2.312-10.25 2.327l-3.47.02-3.75.003-3.852.01q-4.037.008-8.075.007c-3.442 0-6.884.014-10.326.031-3.29.014-6.581.013-9.872.014l-3.737.022-3.489-.01-3.061.005c-2.973-.264-5.124-.904-7.783-2.247-1.365-2.73-1.135-4.906-1.145-7.963l-.02-3.792-.003-4.116-.01-4.207q-.009-4.413-.007-8.825c0-3.77-.014-7.541-.031-11.312q-.015-4.346-.013-8.69 0-2.086-.013-4.172c-.01-1.943-.006-3.887 0-5.831l-.005-3.353C232 198 232 198 234 195c3.176-1.059 5.448-1.133 8.785-1.145M245 207v45h44v-45z"/><path fill="#ff6d1e" d="m334.769 193.823 3.59-.039 3.883-.022 3.987-.025q4.18-.022 8.357-.032c3.564-.011 7.127-.046 10.69-.085 3.405-.033 6.81-.037 10.216-.046l3.87-.053 3.61.009 3.17-.018c3.704.632 5.324 1.724 7.858 4.488.621 2.853.621 2.853.615 6.19l.028 3.792q-.023 2.042-.05 4.084v4.2c0 2.929-.02 5.858-.051 8.787-.04 3.756-.044 7.51-.037 11.265.004 2.889-.009 5.777-.026 8.666q-.01 2.076-.009 4.154a491 491 0 0 1-.05 5.802l-.026 3.334C394 261 394 261 392.661 262.816c-3.3 2.352-6.335 2.314-10.246 2.33l-3.47.019-3.75.003-3.852.01q-4.037.008-8.075.007c-3.442 0-6.884.014-10.326.031-3.29.014-6.581.013-9.872.014l-3.737.022-3.489-.01-3.061.005c-2.973-.264-5.124-.904-7.783-2.247-1.365-2.73-1.135-4.906-1.145-7.963l-.02-3.792-.003-4.116-.01-4.207q-.009-4.412-.007-8.825c0-3.77-.014-7.541-.031-11.312q-.015-4.346-.013-8.69 0-2.086-.013-4.172c-.01-1.943-.006-3.887 0-5.831l-.005-3.353C324 198 324 198 326 195c3.162-1.054 5.447-1.146 8.769-1.177M337 207v45h44v-45z"/><path fill="#ff980c" d="M151.012 193.514c1.782-.01 1.782-.01 3.6-.018l3.86.043 3.986.003q4.167.006 8.334.046c3.557.034 7.113.042 10.67.04 3.4.001 6.799.019 10.198.036l3.867.007 3.59.038 3.158.024c2.764.27 4.412.756 6.725 2.267 1.364 2.729 1.142 4.908 1.161 7.963l.03 3.792.012 4.116.017 4.207q.015 4.413.02 8.825c.006 3.77.03 7.54.058 11.312.019 2.897.024 5.794.026 8.69q.004 2.086.024 4.172c.017 1.943.013 3.887.008 5.831l.011 3.353C210 261 210 261 208.665 262.818c-3.3 2.343-6.342 2.317-10.25 2.343l-3.47.03-3.75.012-3.852.017q-4.038.015-8.075.02c-3.442.006-6.884.03-10.326.058-3.29.023-6.581.025-9.872.03l-3.737.038-3.489-.01-3.061.011c-3.547-.468-6.236-1.82-8.783-4.367-.12-1.942-.17-3.888-.193-5.833l-.049-3.783q-.017-2.061-.031-4.122l-.017-2.089q-.039-5.472-.06-10.945c-.017-3.77-.062-7.54-.112-11.309a899 899 0 0 1-.051-8.691q-.01-2.085-.046-4.168a316 316 0 0 1-.024-5.839l-.025-3.355C140 198 140 198 142.161 195.642c3.262-1.886 5.107-2.138 8.851-2.128M153 207v45h44v-45z"/><path fill="#ffad04" d="M66.438 193.406h3.978q4.16.004 8.321.052c3.548.04 7.095.044 10.642.037 3.395-.004 6.789.017 10.183.036h3.852l3.59.05 3.15.025c3.4.47 5.236 1.15 7.846 3.394.615 2.77.615 2.77.6 6.168l.018 3.853-.06 4.167a1615 1615 0 0 0-.006 4.27 907 907 0 0 1-.065 8.947c-.045 3.824-.06 7.647-.064 11.47-.004 2.94-.02 5.878-.039 8.818q-.012 2.115-.02 4.229c-.009 1.97-.033 3.94-.058 5.91l-.032 3.398C118 261 118 261 116 264c-3.167 1.213-6.337 1.138-9.699 1.161l-3.469.03-3.734.012-3.848.017q-4.03.015-8.057.02c-3.435.006-6.869.03-10.303.058-3.285.023-6.57.025-9.855.03l-3.728.038-3.479-.01-3.052.011c-3.255-.43-5.137-1.443-7.776-3.367-1.336-2.672-1.157-4.755-1.193-7.747l-.049-3.652c-.044-5.513-.086-11.026-.108-16.54a924 924 0 0 0-.082-8.732c-.05-3.516-.074-7.032-.081-10.55-.01-1.988-.045-3.976-.08-5.963.021-8.694.021-8.694 2.286-13.139 5.408-2.742 10.77-2.348 16.745-2.27M61 207v45h44v-45zM59.693 359.855l3.54-.02 3.826-.003 3.926-.01q4.114-.009 8.23-.007c3.51 0 7.022-.014 10.534-.031 3.353-.014 6.706-.013 10.06-.014l3.82-.022 3.548.01 3.122-.005c2.763.253 4.39.738 6.701 2.247 1.365 2.73 1.135 4.906 1.145 7.963l.02 3.792.003 4.116.01 4.207q.009 4.412.007 8.825c0 3.77.014 7.541.031 11.312q.015 4.346.013 8.69 0 2.086.013 4.172c.01 1.943.006 3.887 0 5.831l.005 3.353C118 427 118 427 116 430c-3.142 1.047-5.379 1.14-8.677 1.161l-3.53.03-3.816.012-3.92.017q-4.108.015-8.216.02c-3.503.006-7.005.03-10.508.058-3.348.023-6.696.025-10.044.03l-3.804.038-3.549-.01-3.115.011c-3.282-.427-5.164-1.424-7.821-3.367-1.34-2.68-1.142-4.762-1.161-7.763l-.03-3.661-.012-3.974-.017-4.066q-.015-4.264-.02-8.53c-.006-3.64-.03-7.28-.058-10.92-.019-2.801-.024-5.601-.026-8.401a832 832 0 0 0-.042-5.983l.01-3.68-.011-3.239c.418-3.172 1.133-4.521 3.367-6.783 3.151-1.05 5.385-1.133 8.693-1.145M61 373v45h44v-45z"/><path fill="#ff5d24" d="M439 298c3 2 3 2 4 5a76 76 0 0 1 .145 4.5l.02 2.75.003 2.965.01 3.052q.007 3.196.007 6.393c.002 3.261.02 6.522.04 9.783q.005 3.105.005 6.21l.022 2.957-.01 2.76.005 2.423c-.279 2.49-.921 4.089-2.247 6.207-2.98 1.49-6.04 1.183-9.309 1.203l-2.19.017q-2.292.014-4.586.02c-2.34.01-4.679.041-7.019.072q-2.228.01-4.455.016l-2.121.038c-2.862-.014-4.847-.049-7.262-1.668-1.796-2.882-1.41-5.413-1.058-8.698 1.177-1.7 1.177-1.7 3-3 2.544-.34 2.544-.34 5.543-.293l3.252.03 3.392.075 3.428.042q4.193.053 8.385.146l-.048-3.624c-.054-4.434-.088-8.867-.117-13.301q-.022-2.88-.061-5.759a988 988 0 0 1-.067-8.273c-.015-.86-.03-1.719-.047-2.604v-2.427l-.02-2.133c.992-5.17 4.788-5.355 9.36-4.879"/></svg>