<svg xmlns="http://www.w3.org/2000/svg" width="512" height="512"><path fill="#fd9800" d="m83.29 31.866 3.79-.014h4.138q2.208-.003 4.416-.01 6.061-.014 12.124-.017 6.54-.007 13.08-.022c10.528-.02 21.056-.03 31.584-.039l14.883-.015a83624 83624 0 0 1 62.333-.044l3.223-.002c17.223-.008 34.447-.033 51.67-.066q26.541-.049 53.082-.054c9.93-.002 19.86-.01 29.79-.036q12.687-.034 25.374-.02c4.311.004 8.623.002 12.934-.017q5.933-.026 11.867-.001 2.134.003 4.268-.014c17.174-.135 30.583 4.388 43.341 15.943 3.975 4.151 6.726 8.479 9.313 13.562l.989 1.94c4.657 9.828 4.803 19.91 4.772 30.614l.011 4.379c.01 3.988.008 7.977.004 11.965-.002 4.31.007 8.62.014 12.931q.018 12.654.012 25.308a23374 23374 0 0 0 .01 29.497q.014 27.915.003 55.832c-.006 17.01.006 34.021.025 51.031q.03 26.225.024 52.449-.005 14.713.014 29.426.019 12.525.002 25.052c-.006 4.257-.007 8.513.005 12.77q.015 5.856-.007 11.712-.004 2.108.008 4.215c.092 17.296-3.477 32.041-15.699 44.817-13.043 12.192-27.268 15.694-44.88 15.563q-2.221.006-4.442.017c-4.027.015-8.053.005-12.08-.01-4.359-.01-8.718.001-13.076.01-8.522.014-17.044.006-25.566-.009-9.934-.017-19.869-.013-29.803-.01-17.73.006-35.46-.008-53.191-.032q-25.779-.036-51.559-.021a40761 40761 0 0 1-62.215-.006l-2.981-.002q-10.377-.006-20.753.001-12.65.009-25.301-.02-6.449-.017-12.898-.008-5.911.01-11.824-.017-2.13-.006-4.26.003c-17.278.074-30.87-3.945-43.569-15.979-8.996-9.503-14.402-20.478-14.423-33.65l-.014-3.827v-4.198q-.003-2.232-.01-4.464-.014-6.137-.017-12.273-.007-6.618-.022-13.236c-.02-10.656-.03-21.312-.039-31.968l-.015-15.06a85573 85573 0 0 1-.046-66.33c-.008-17.431-.033-34.862-.066-52.293a32162 32162 0 0 1-.054-53.71c-.002-10.048-.01-20.097-.036-30.146q-.034-12.84-.02-25.679c.004-4.364.002-8.728-.017-13.092a1449 1449 0 0 1-.001-12.007 436 436 0 0 0-.014-4.322c-.126-16.23 4.101-29.511 15.317-41.475 10.006-9.428 22.766-14.8 36.478-14.822m-27.075 30.27C52.689 67.102 50.55 72.134 49 78l-.688 2.438c-.318 2.608-.342 5.095-.332 7.722l.009 2.743L48 93a91938 91938 0 0 0 79.993.064c76.816.033 153.63-.213 230.444-.564l3.965-.018Q412.7 92.252 463 92c.043-2.047.073-4.094.098-6.14l.055-3.455C462.74 73.207 458.376 65.462 452 59c-10.568-9.13-20.955-10.451-34.568-10.388q-2.19-.007-4.383-.016c-3.992-.014-7.984-.01-11.977-.003-4.314.005-8.628-.008-12.943-.018-8.443-.017-16.886-.018-25.33-.013q-10.296.006-20.592-.002l-2.963-.003-5.96-.004c-18.621-.014-37.241-.009-55.861.003-17.025.01-34.05-.003-51.075-.027q-26.241-.037-52.482-.027-14.724.007-29.45-.017-12.532-.022-25.067.002c-4.26.009-8.52.011-12.781-.004q-5.858-.02-11.716.01-2.111.005-4.223-.01c-13.674-.094-25.34 2.793-34.414 13.654M48 110a196295 196295 0 0 0-.111 137.697q-.016 22.943-.043 45.887-.028 23.548-.034 47.098-.004 14.526-.028 29.052-.015 9.967-.011 19.933c.001 3.831 0 7.663-.011 11.494-.012 4.16-.008 8.321-.003 12.482l-.017 3.64c.045 12.802 1.699 25.37 10.617 35.276 9.834 8.639 18.782 10.748 31.454 10.682l3.595.005q4.918.002 9.837-.014c3.542-.009 7.083-.006 10.624-.004q9.196.001 18.393-.017c8.864-.016 17.728-.021 26.593-.024q21.574-.007 43.147-.036 20.955-.028 41.908-.041l2.61-.002 12.965-.007Q313.243 463.068 367 463c-1.474-3.774-3.16-7.266-5.125-10.812l-1.633-2.958L359 447l-1.746-.003a97689 97689 0 0 1-114.672-.26l-2.471-.006c-13.212-.036-26.424-.06-39.635-.081q-20.327-.033-40.654-.099-12.548-.04-25.095-.05-8.6-.01-17.197-.047-4.965-.022-9.93-.019c-3.585.002-7.17-.015-10.755-.036l-3.183.014-2.906-.028-2.509-.006c-2.816-.475-4.18-1.432-6.247-3.379-1.025-3.075-1.133-5.196-1.145-8.418l-.02-3.357-.003-3.627-.01-3.725q-.007-3.903-.007-7.805c0-3.986-.02-7.971-.04-11.957q-.005-3.787-.005-7.576l-.022-3.62.01-3.368-.005-2.96c.266-2.786.598-4.326 2.247-6.587 4.163-2.17 8.07-2.278 12.663-2.24l2.314-.006c2.555-.003 5.11.008 7.665.019h5.5c4.974-.002 9.949.01 14.924.024 5.2.013 10.4.014 15.599.016 9.845.006 19.69.023 29.536.043 11.21.022 22.418.033 33.628.043q34.586.032 69.171.101c.886-2.657 1.145-4.282 1.205-7.012l.06-2.427.051-2.604.063-2.678q.097-4.233.183-8.466l.131-5.74q.16-7.037.307-14.073l-2.94-.004q-35.39-.055-70.78-.18c-11.41-.04-22.82-.072-34.229-.087q-14.913-.019-29.827-.084c-5.267-.022-10.533-.038-15.8-.037q-7.43 0-14.862-.05-2.73-.012-5.461-.004a603 603 0 0 1-7.445-.035l-2.193.023c-3.392-.058-5.177-.324-7.91-2.403-2.047-2.82-2.054-4.586-2.055-8.053l-.028-3.61.034-3.886-.005-3.997q0-4.183.034-8.365c.029-3.573.026-7.146.013-10.72-.008-3.41.007-6.82.02-10.23l-.008-3.893.038-3.6.016-3.173C83 270 83 270 84.048 268.362c2.986-2.084 6.051-1.784 9.564-1.76l2.371-.02c2.63-.02 5.26-.017 7.89-.014l5.647-.031a3627 3627 0 0 1 15.353-.043c5.345-.01 10.69-.036 16.035-.06 10.125-.044 20.25-.072 30.376-.095 11.526-.027 23.052-.071 34.578-.117 23.712-.093 47.425-.164 71.138-.222 1.521-3.042 1.335-6.225 1.523-9.59.477-2.41.477-2.41 1.516-4.226 3.257-1.966 6.346-1.967 9.961-1.184 2.233 1.39 2.233 1.39 4.613 3.237 22.694 17.204 50.245 13.595 77.376 13.082 9.326-.17 18.655-.197 27.983-.25 4.95-.028 9.898-.09 14.847-.177l6.712-.086 3.098-.076 2.826-.028 2.455-.045c2.634.432 3.501 1.233 5.09 3.343.367 2.618.367 2.618.356 5.8l.01 3.61-.038 3.903-.006 4q-.007 4.193-.04 8.383c-.029 3.582-.04 7.163-.044 10.744q-.008 4.13-.026 8.261l-.022 5.888-.029 3.61-.02 3.183C435 330 435 330 434 333l2.082 1.172 2.73 1.578 2.708 1.547c2.509 1.723 3.958 3.08 5.48 5.703-.063 3.563-.063 3.563-1 7-3.026 2.905-5.981 3.702-10.022 4.594l-3.68.83-1.957.425c-2.027.441-4.052.894-6.076 1.35a2761 2761 0 0 1-10.7 2.38 4363 4363 0 0 0-17.148 3.818c-1.996.446-3.994.882-5.993 1.319-1.208.27-2.416.54-3.66.82l-3.235.712c-2.67.575-2.67.575-4.529 2.752 1.322 3.018 2.749 5.577 5 8 3.234 1.15 6.314 1.027 9.719.93l2.835.018c2.983.013 5.963-.028 8.946-.073q4.473-.02 8.946-.009 2.78.001 5.56-.04c8.176-.057 8.176-.057 11.994 2.174 2.267 3.4 2.256 4.61 2.275 8.601l.029 3.48-.003 3.759.013 3.86q.01 4.042.002 8.087c-.006 3.451.01 6.902.034 10.353.018 3.296.015 6.592.013 9.887l.028 3.754-.019 3.488.002 3.068c-.432 3.077-1.205 4.464-3.374 6.663-2.578.292-2.578.292-5.68.047-17.232-.755-26.729 1.862-39.71 13.39A86 86 0 0 0 382 462v1c7.062.102 14.123.172 21.185.22q3.598.03 7.196.082c3.463.049 6.925.071 10.389.089l3.208.062c10.72.003 20.145-3.01 28.022-10.453 8.786-8.894 11.431-19.853 11.516-32.106l-.035-3.682q.003-2.009.01-4.018c.01-3.642-.007-7.284-.027-10.926-.017-3.942-.011-7.883-.008-11.825q.002-10.226-.033-20.45c-.033-9.856-.043-19.712-.048-29.568a26317 26317 0 0 0-.073-47.979q-.056-23.293-.082-46.587l-.003-2.904-.016-14.425c-.041-39.843-.112-79.687-.201-119.53a210567 210567 0 0 0-102.57-.055h-2.233q-15.165-.006-30.328-.019-26.43-.022-52.857-.024h-2.142C197.91 108.9 122.956 109.43 48 110m246 163q-.596 19.237-1.173 38.475-.269 8.94-.545 17.878c-.845 27.223-1.557 54.41-1.282 81.647 5.448-4.57 5.448-4.57 10.473-9.594l1.765-1.914 1.824-1.992q1.97-2.113 3.942-4.223 2.973-3.179 5.937-6.366a572 572 0 0 1 5.559-5.848l1.668-1.81c3.729-3.828 6.292-5.06 11.832-5.253 2.312.125 2.312.125 4 1 .69 1.657 1.353 3.326 2 5 .893 1.708 1.818 3.4 2.766 5.078l1.677 2.981 1.807 3.191 3.805 6.754 1.975 3.5c2.53 4.487 5.042 8.983 7.554 13.48 5.422 9.7 10.869 19.386 16.416 29.016 4.905-1.557 8.38-4.433 12.312-7.625l1.956-1.562q2.37-1.9 4.732-3.813c-1.424-3.81-3.18-7.244-5.203-10.77l-1.952-3.408-2.095-3.634-2.152-3.75a3417 3417 0 0 0-15.992-27.533A1810 1810 0 0 1 363 374l-1.483-2.554-1.376-2.415-1.214-2.119c-1.375-2.836-1.57-4.84-.927-7.912 2.947-3.65 5.44-4.715 9.96-5.746l3.59-.841 3.825-.85q1.953-.452 3.906-.907c6.142-1.426 12.3-2.787 18.457-4.148l3.063-.682q2.833-.627 5.671-1.228l2.54-.555 2.202-.468c2.014-.498 2.014-.498 3.786-2.575q-6.217-3.565-12.438-7.125l-1.91-1.094a2665 2665 0 0 0-26.402-14.906c-9.14-5.094-18.194-10.319-27.216-15.617-8.31-4.867-16.703-9.579-25.12-14.258-7.061-3.935-14.054-7.967-20.966-12.157-3.245-2.13-3.245-2.13-6.948-2.843M99 283v35h177c.685-11.651 1-23.329 1-35zm249 0a86.5 86.5 0 0 0 9.531 6.23l3.356 1.913 5.466 3.092 5.737 3.245 1.967 1.114a525 525 0 0 1 11.737 6.876c2.485 1.497 4.98 2.978 7.476 4.457a283 283 0 0 1 3.53 2.148 288 288 0 0 0 4.985 2.988l2.84 1.722c4.502 1.836 4.502 1.836 14.375 1.215v-35zM97 394v36h176c.666-11.986 1-23.995 1-36zm297 0c4.194 7.733 8.47 15.412 12.812 23.063l3.458 6.097 1.518 2.676A101 101 0 0 1 414 430h4v-36zm-65 2a304 304 0 0 0-5.313 5.75 349 349 0 0 1-13 13.563c-4.425 4.373-8.86 8.768-12.687 13.687v1h51c-6.819-12.808-6.819-12.808-13.938-25.437l-1.455-2.542-1.384-2.392-1.227-2.123L330 396z"/><path fill="#fe9c00" d="m88.662 146.869 3.596-.012 3.97.003 4.202-.01q5.788-.011 11.575-.01 6.236-.005 12.473-.016 13.643-.02 27.284-.024 8.516-.005 17.03-.012 23.568-.019 47.135-.026h6.104l6.13-.002h3.07q24.642-.009 49.282-.046 25.287-.035 50.573-.037 14.202.001 28.405-.025 12.092-.023 24.184-.012 6.17.008 12.343-.011 5.648-.019 11.297 0c2.009.003 4.017-.008 6.026-.02l3.62.02c1.028-.002 2.057-.002 3.117-.003 3.503.448 5.904 1.564 8.922 3.374 1.996 3.452 2.255 6.49 2.275 10.43l.029 3.216-.003 3.444.013 3.567q.009 3.732.002 7.462c-.003 3.801.02 7.601.045 11.402q.004 3.63.002 7.256l.028 3.438c-.06 10.231-.06 10.231-3.391 14.785-3.278 2.127-5.963 2.25-9.822 2.252l-3.627.015-3.989-.013q-2.116.003-4.234.01c-3.882.008-7.765.004-11.647-.003-4.186-.004-8.371.003-12.557.008-8.2.01-16.402.007-24.603.002q-9.996-.007-19.991-.003h-2.871l-5.774.003q-27.087.006-54.175-.012-23.254-.012-46.51.002a57665 57665 0 0 1-62.59.006q-9.986-.003-19.972.006-12.166.009-24.332-.007-6.21-.009-12.42 0-5.682.007-11.362-.009c-2.025-.003-4.05.004-6.075.01l-3.627-.015-3.137-.001c-2.782-.26-4.37-.71-6.685-2.251-2.291-3.436-2.261-4.738-2.29-8.785l-.04-3.6-.006-3.892-.02-3.994q-.017-4.185-.015-8.37c0-3.573-.027-7.145-.061-10.717-.028-3.41-.027-6.821-.029-10.232l-.043-3.886.018-3.61-.008-3.175c.622-3.45 1.77-4.6 4.494-6.739 3.15-1.05 5.355-1.127 8.662-1.131M93 164v36h321v-36z"/><path fill="#feb000" d="M189 58c3.94 2.398 5.83 4.53 7 9 .505 3.958.19 5.654-1.75 9.188-4.359 5.448-4.359 5.448-8.258 6.199-4.402.335-7.409-.165-10.992-2.825-3.196-3.143-4.05-5.953-4.207-10.382.41-4.314 2.04-7.122 5.207-9.993 4.354-2.585 8.219-2.392 13-1.187"/><path fill="#febe00" d="M144 58c3.48 2.517 4.76 4.436 6.438 8.375.66 4.261.21 6.656-1.438 10.625-2.31 2.833-3.515 3.838-7 5-4.796.393-7.07.483-11.375-1.75-3.993-3.423-4.519-4.911-4.937-10.187.12-3.803.823-6.076 3.312-9.063 4.848-4.387 8.916-4.92 15-3"/><path fill="#fc0" d="M96 57c3.761 2.065 7.097 4.087 9 8 .74 4.774.457 8.103-1.75 12.438-3.417 3.892-4.94 4.435-10.125 4.937C88.821 82.271 86.321 80.767 83 78c-2.842-4.262-2.504-8-2-13 1.395-3.642 2.536-4.701 5.813-6.812C90.285 56.894 92.335 56.466 96 57"/></svg>