<svg xmlns="http://www.w3.org/2000/svg" width="512" height="512" style="shape-rendering:geometricPrecision;text-rendering:geometricPrecision;image-rendering:optimizeQuality;fill-rule:evenodd;clip-rule:evenodd"><path fill="#e73024" d="M290.5 54.5a248 248 0 0 1-26-27 410 410 0 0 1 15-19.5q7.538-2.24 12.5 3.5a521 521 0 0 1-1.5 43" style="opacity:1"/><path fill="#e73924" d="M264.5 27.5a248 248 0 0 0 26 27 1459 1459 0 0 0-2 37 157 157 0 0 0-16-14 963 963 0 0 1 1.5-35 446 446 0 0 1-15.5 19q-6.596-5.093-11-12a135.6 135.6 0 0 1 17-22" style="opacity:1"/><path fill="#e7421f" d="M247.5 49.5q4.404 6.907 11 12a135.6 135.6 0 0 1-17 22 102 102 0 0 0-12-12 287 287 0 0 1 18-22" style="opacity:1"/><path fill="#e73f1f" d="M272.5 77.5a157 157 0 0 1 16 14v2q9.757 7.214 19 18a201.5 201.5 0 0 1-34-1.5q-3.625-3.719-3-9a518 518 0 0 1 2-23.5" style="opacity:1"/><path fill="#ea4e1e" d="M229.5 71.5a102 102 0 0 1 12 12 808 808 0 0 1-24 31 100.6 100.6 0 0 1-11-13z" style="opacity:1"/><path fill="#e73824" d="M288.5 93.5q31.744 1.248 64 1.5 10.444 3.42 5.5 13.5a1035 1035 0 0 1-23.5 29 100.6 100.6 0 0 0-13-11 242 242 0 0 1 12-14.5q-12.99-.75-26-.5-9.243-10.786-19-18" style="opacity:1"/><path fill="#ed561e" d="M206.5 101.5a100.6 100.6 0 0 0 11 13 85.6 85.6 0 0 1-11 14 102 102 0 0 1-12-12 194 194 0 0 1 12-15" style="opacity:1"/><path fill="#ec5e1d" d="M194.5 116.5a102 102 0 0 0 12 12q-1.74 2.554 2 2a327 327 0 0 0 15 15.5q-1.856.348-3 1.5-17.507.25-35-.5-8.137-3.025-5.5-11.5a151.6 151.6 0 0 1 14.5-19" style="opacity:1"/><path fill="#ec531e" d="M208.5 130.5a555 555 0 0 1 57 1.5q3.363 2.979 3 7.5l-5 42q-1.152 1.144-1.5 3-8.197-7.432-14.5-16a336 336 0 0 0 3-21h-30q1.144-1.152 3-1.5a327 327 0 0 1-15-15.5" style="opacity:1"/><path fill="#e7421f" d="M321.5 126.5a100.6 100.6 0 0 1 13 11 260 260 0 0 1-17 21 102 102 0 0 1-12-12 234 234 0 0 1 16-20" style="opacity:1"/><path fill="#e94c1e" d="M305.5 146.5a102 102 0 0 0 12 12 564 564 0 0 1-25 31 102 102 0 0 0-12-12 564 564 0 0 1 25-31" style="opacity:1"/><path fill="#ed6f18" d="M166.5 152.5q13.66-2.581 12.5 11a638 638 0 0 1-26.5 33.5q-15.303 2.205-11.5-12.5a1136 1136 0 0 0 25.5-32" style="opacity:1"/><path fill="#ed5b1e" d="M247.5 168.5q6.303 8.568 14.5 16 .348-1.856 1.5-3a163 163 0 0 0-1.5 18 609 609 0 0 1 18.5-22 102 102 0 0 1 12 12 742 742 0 0 1-24 29 253 253 0 0 0-22.5-24q-.575.834-1.5 1a298 298 0 0 0 3-27" style="opacity:1"/><path fill="#ed621a" d="M220.5 197.5a102 102 0 0 1-12-12 363 363 0 0 1 14-18.5q16.235-5.824 13.5 10.5a153 153 0 0 1-15.5 20" style="opacity:1"/><path fill="#ed6a19" d="M208.5 185.5a102 102 0 0 0 12 12 174 174 0 0 1-10 12.5q-13.665 3.324-12.5-10.5a156 156 0 0 1 10.5-14" style="opacity:1"/><path fill="#ed6419" d="M268.5 218.5a130.2 130.2 0 0 1-15 18.5q-11.094 3.211-13-8a469 469 0 0 0 4-33.5q.925-.166 1.5-1a253 253 0 0 1 22.5 24" style="opacity:1"/><path fill="#f28218" d="m124.5 233.5-13-10a101 101 0 0 1 13-16.5q15.795-2.712 11.5 12.5a218 218 0 0 0-11.5 14" style="opacity:1"/><path fill="#f38a13" d="m111.5 223.5 13 10a116 116 0 0 1-14 17.5q-13.717 3.269-12.5-10.5a124.6 124.6 0 0 1 13.5-17" style="opacity:1"/><path fill="#ee7a18" d="M172.5 258.5a100.6 100.6 0 0 0-11-13 985 985 0 0 0 19-24.5q7.843-3.932 13.5 2.5 1.225 5.197-1 10a5731 5731 0 0 1-20.5 25" style="opacity:1"/><path fill="#f38418" d="M161.5 245.5a100.6 100.6 0 0 1 11 13q-3.687 8.561-13 5.5-5.665-4.432-3.5-11.5a59.4 59.4 0 0 1 5.5-7" style="opacity:1"/><path fill="#ed7318" d="M224.5 279.5a100.6 100.6 0 0 1-11-13 163.4 163.4 0 0 1 16-21.5q18.25-5.75 12.5 12.5a519 519 0 0 0-17.5 22" style="opacity:1"/><path fill="#ed7c18" d="M213.5 266.5a100.6 100.6 0 0 0 11 13q-2.8 5.329-8 8.5-12.924 2.575-11.5-10.5 3.472-6.207 8.5-11" style="opacity:1"/><path fill="#f39a11" d="m77.5 293.5-12-11a248 248 0 0 1 15-20.5q15.132-5.36 13.5 10.5a170 170 0 0 1-16.5 21" style="opacity:1"/><path fill="#f38e12" d="M140.5 300.5c-5-3-9-7-12-12q4.059-7.329 10-13.5 14.161-5.316 13.5 9.5a92 92 0 0 1-11.5 16" style="opacity:1"/><path fill="#f3a211" d="m65.5 282.5 12 11a145 145 0 0 1-9 11.5q-13.665 3.324-12.5-10.5a56 56 0 0 1 9.5-12" style="opacity:1"/><path fill="#f39711" d="M128.5 288.5c3 5 7 9 12 12a318 318 0 0 0-13 16.5q-8.109 5.622-13.5-2.5a16.24 16.24 0 0 1 0-8 270 270 0 0 1 14.5-18" style="opacity:1"/><path fill="#f38814" d="M189.5 324.5a100.6 100.6 0 0 0-13-11 125 125 0 0 1 11-14.5q15.054-5.448 13.5 10.5a258 258 0 0 1-11.5 15" style="opacity:1"/><path fill="#ed6918" d="m325.5 302.5 17 18a83 83 0 0 0-14-1v8q-1.152 1.144-1.5 3a1007 1007 0 0 1-26.5-27q12.292-2.046 25-1" style="opacity:1"/><path fill="#ec6419" d="M325.5 302.5a131.8 131.8 0 0 1 34 4 404 404 0 0 0 23 25 178 178 0 0 0-40-11z" style="opacity:1"/><path fill="#ed6f18" d="M300.5 303.5a1007 1007 0 0 0 26.5 27q.348-1.856 1.5-3v30a327 327 0 0 1-15.5-15q-.348 1.856-1.5 3v-26q-10.113.017-20 2-6.5-7.5-14-14 11.01-3.753 23-4" style="opacity:1"/><path fill="#ed7518" d="M277.5 307.5q7.5 6.5 14 14a135 135 0 0 0-20 5 118 118 0 0 1-12-14 69.3 69.3 0 0 1 18-5" style="opacity:1"/><path fill="#ed5c1e" d="M359.5 306.5a167.2 167.2 0 0 1 40 14 2234 2234 0 0 0 79 80q10.728 19.172 15 41a696 696 0 0 1-22.5-22 4.93 4.93 0 0 0-.5 3 136 136 0 0 1-6.5-14q-2.121-1.37-4.5 0a102 102 0 0 0-12-12 786 786 0 0 1 7-4.5q-18.25-28.25-46.5-46.5a19.6 19.6 0 0 0-4.5 7 55.6 55.6 0 0 0-13-12 18.5 18.5 0 0 1 2-3.5 74.5 74.5 0 0 0-10-5.5 404 404 0 0 1-23-25" style="opacity:1"/><path fill="#ee7d18" d="M259.5 312.5a118 118 0 0 0 12 14 111.7 111.7 0 0 0-22 9q-4.595-6.858-11-12.5.834-.574 1-1.5 9.381-5.637 20-9" style="opacity:1"/><path fill="#f39111" d="M176.5 313.5a100.6 100.6 0 0 1 13 11 452 452 0 0 0-13 16.5q-15.804 5.995-13.5-10.5a352 352 0 0 1 13.5-17" style="opacity:1"/><path fill="#f7ae0c" d="M42.5 338.5a100.6 100.6 0 0 1-13-11 256 256 0 0 1 9-11.5q15.111-5.33 13.5 10.5a119 119 0 0 1-9.5 12" style="opacity:1"/><path fill="#ed571e" d="M399.5 320.5q52.614 27.114 79 80a2234 2234 0 0 1-79-80" style="opacity:1"/><path fill="#f28318" d="M239.5 321.5q-.166.926-1 1.5 6.405 5.642 11 12.5-1.467.467-2 2a131012 131012 0 0 0 24 42 2.43 2.43 0 0 1-.5 2 3490 3490 0 0 1-49.5-50 118.5 118.5 0 0 1 18-10" style="opacity:1"/><path fill="#f9b60b" d="M29.5 327.5a100.6 100.6 0 0 0 13 11 459 459 0 0 1-16 20.5q-15.115 4.052-12.5-11.5a433 433 0 0 0 15.5-20" style="opacity:1"/><path fill="#f3a610" d="M93.5 360.5a100.6 100.6 0 0 0-13-11 459 459 0 0 1 16-20.5q9.174-4.565 13.5 4.5 1 2.5 0 5a547 547 0 0 1-16.5 22" style="opacity:1"/><path fill="#ed6318" d="M390.5 340.5a55.6 55.6 0 0 1 13 12q-5.522 9.054-11 18-6.042-6.539-12-13a216 216 0 0 1 10-17" style="opacity:1"/><path fill="#ed7618" d="M328.5 357.5v16a104 104 0 0 1 20 3 1960 1960 0 0 0 74 75q3.512 9.515 4 20h12q2.178 1.203 5 1.5a327 327 0 0 1 15 15.5 349 349 0 0 1-45-1.5q-2.98-1.978-3.5-5.5-4.088-71.824-73.5-90-12-13-25-25v-21q1.152-1.144 1.5-3a327 327 0 0 0 15.5 15" style="opacity:1"/><path fill="#f38f11" d="M206.5 342.5a102 102 0 0 1 12 12q-6.461 5.958-13 12a100.6 100.6 0 0 0-13-11q6.961-6.458 14-13" style="opacity:1"/><path fill="#f5af0c" d="M80.5 349.5a100.6 100.6 0 0 1 13 11 118 118 0 0 1-8 10.5q-13.794 6.586-14.5-8.5a69.2 69.2 0 0 1 9.5-13" style="opacity:1"/><path fill="#f38913" d="M221.5 331.5a3490 3490 0 0 0 49.5 50 2.43 2.43 0 0 0 .5-2q1.76 1.52 2 4 5.715 7.731 14 12a119 119 0 0 0-18 10 100.6 100.6 0 0 1-11-13 1064 1064 0 0 0-26-46.5q-1-1-2 0a123 123 0 0 1-12 8.5 102 102 0 0 0-12-12 121 121 0 0 1 15-11" style="opacity:1"/><path fill="#f39611" d="M192.5 355.5a100.6 100.6 0 0 1 13 11 3935 3935 0 0 1-14 16 73.5 73.5 0 0 1-7.5-7q-2.731-2.469-3.5-6a121 121 0 0 1 12-14" style="opacity:1"/><path fill="#ed6918" d="M380.5 357.5q5.958 6.461 12 13a72.1 72.1 0 0 1-10 17q-4.344-6.607-10.5-12-1.006 1.129-2.5 1a268 268 0 0 0 11-19" style="opacity:1"/><path fill="#f3a011" d="M141.5 385.5a100.6 100.6 0 0 0-11-13 410 410 0 0 1 15-19.5q18.65-4.346 11.5 13.5a446 446 0 0 1-15.5 19" style="opacity:1"/><path fill="#f39c11" d="M180.5 369.5q.769 3.531 3.5 6a73.5 73.5 0 0 0 7.5 7 1674 1674 0 0 1-6 9 601 601 0 0 0 40 24 2.43 2.43 0 0 0 .5 2 413 413 0 0 1 16.5 16 197 197 0 0 0-8 17 119.6 119.6 0 0 1-13-13q1.842-2.265 0-4.5a143 143 0 0 1-14-8.5l-38-39a66.4 66.4 0 0 1 11-16" style="opacity:1"/><path fill="#f3a810" d="M130.5 372.5a100.6 100.6 0 0 1 11 13q-4.538 8.664-13.5 12-10.863-2.61-7-13a56 56 0 0 1 9.5-12" style="opacity:1"/><path fill="#ed6f18" d="M382.5 387.5q-1.077 2.455-.5 5 15.564 11.064 26 27 1.224-1.984 3.5-2a4.93 4.93 0 0 1 3 .5q5.908 5.144 10 11.5a64 64 0 0 1-8 4.5 49.6 49.6 0 0 1 6 17.5 1960 1960 0 0 1-74-75 494 494 0 0 1 16.5 6 13.37 13.37 0 0 0 4.5-6q1.494.129 2.5-1 6.156 5.393 10.5 12" style="opacity:1"/><path fill="#f18018" d="M311.5 366.5q13 12 25 25-24.992-4.39-49 4-8.285-4.269-14-12 17.907-8.966 38-10z" style="opacity:1"/><path fill="#f3a211" d="m169.5 385.5 38 39a705 705 0 0 1-31-17q-2.441 3.398-4 7-7.095-5.59-12-13 2.987-8.984 9-16" style="opacity:1"/><path fill="#f38e12" d="M258.5 392.5a100.6 100.6 0 0 0 11 13l-14 11-12-11q6.134-8.137 15-13" style="opacity:1"/><path fill="#ed6319" d="M447.5 396.5a102 102 0 0 1 12 12 72.1 72.1 0 0 1-17 10c-5-3-9-7-12-12a212 212 0 0 1 17-10" style="opacity:1"/><path fill="#f3a710" d="M160.5 401.5q4.905 7.41 12 13a7796 7796 0 0 1-7 18l-13-12q2.27-10.33 8-19" style="opacity:1"/><path fill="#f9b40c" d="M106.5 430.5a100.7 100.7 0 0 1-11-13q3.425-7.086 10-11.5 14.037-.972 10.5 12.5a154 154 0 0 0-9.5 12" style="opacity:1"/><path fill="#f39511" d="m243.5 405.5 12 11a157 157 0 0 0-13 17 413 413 0 0 0-16.5-16 2.43 2.43 0 0 1-.5-2q3.186 2.51 7 2.5 4.182-7.43 11-12.5" style="opacity:1"/><path fill="#ed6918" d="M430.5 406.5c3 5 7 9 12 12q-8.946 5.478-18 11-4.092-6.356-10-11.5a4.93 4.93 0 0 0-3-.5 171 171 0 0 1 19-11" style="opacity:1"/><path fill="#f9ba0b" d="M95.5 417.5a100.7 100.7 0 0 0 11 13 194 194 0 0 1-12 15 4.93 4.93 0 0 0-.5-3q-5.66-4.895-9.5-11a85.6 85.6 0 0 1 11-14" style="opacity:1"/><path fill="#ed6318" d="M493.5 441.5a148.2 148.2 0 0 1 4 34 108.6 108.6 0 0 0-18-17 237 237 0 0 0-9-36 4.93 4.93 0 0 1 .5-3 696 696 0 0 0 22.5 22" style="opacity:1"/><path fill="#f7af0c" d="m152.5 420.5 13 12a276 276 0 0 0-5 25q-8.721-6.706-14-16 1.221-11.146 6-21" style="opacity:1"/><path fill="#fac20b" d="M84.5 431.5q3.84 6.105 9.5 11 .725 1.422.5 3-6.482 10.445-15.5 2-3.4-10.048 5.5-16" style="opacity:1"/><path fill="#f28118" d="m350.5 460.5-12-11a285 285 0 0 1 14-14.5q15.212-4.295 12.5 11.5a285 285 0 0 1-14.5 14" style="opacity:1"/><path fill="#f3a211" d="M221.5 437.5a119.6 119.6 0 0 0 13 13 97.4 97.4 0 0 0-4 21q-7.86-5.6-14.5-13-.575.834-1.5 1a105.8 105.8 0 0 1 7-22" style="opacity:1"/><path fill="#f9b60c" d="M146.5 441.5q5.279 9.294 14 16a68.2 68.2 0 0 0-1 14h19q-1.144 1.152-3 1.5a327 327 0 0 1 15 15.5q-21.506.25-43-.5-7.136-3.519-6-11.5.447-18.008 5-35" style="opacity:1"/><path fill="#f28813" d="m338.5 449.5 12 11a120 120 0 0 1-9 9.5q2.237 3.932 2 8.5a179 179 0 0 1-22-23 23.7 23.7 0 0 0 9 1.5 84 84 0 0 1 8-7.5" style="opacity:1"/><path fill="#f38e12" d="M321.5 455.5a179 179 0 0 0 22 23q1.226 11.853-8 19l-11-12q5.796-9.774-5-13-3.616 1.291-6 4a100.6 100.6 0 0 0-11-13q7.6-8.047 19-8" style="opacity:1"/><path fill="#f3a810" d="M230.5 471.5a101 101 0 0 1-2.5 14q-2.601 2.927-6.5 3a204 204 0 0 1-17-17h9a73.3 73.3 0 0 1 1-12q.925-.166 1.5-1 6.64 7.4 14.5 13" style="opacity:1"/><path fill="#ed6918" d="M479.5 458.5a108.6 108.6 0 0 1 18 17q2.439 11.686-9 13-2.178-1.203-5-1.5a327 327 0 0 1-15-15.5h12a300 300 0 0 0-1-13" style="opacity:1"/><path fill="#f39611" d="M302.5 463.5a100.6 100.6 0 0 1 11 13q-1.388 12.6 11 9l11 12q-6.396 6.805-16 6-22.034-1.282-24-23.5.071-9.873 7-16.5" style="opacity:1"/><path fill="#f5af0b" d="M178.5 471.5h26a204 204 0 0 0 17 17h-31a327 327 0 0 0-15-15.5q1.856-.348 3-1.5" style="opacity:1"/><path fill="#ec7018" d="M438.5 471.5h30a327 327 0 0 0 15 15.5q2.822.297 5 1.5h-30a327 327 0 0 0-15-15.5q-2.822-.297-5-1.5" style="opacity:1"/></svg>