<svg xmlns="http://www.w3.org/2000/svg" width="512" height="512"><path d="m369.094 159.71 2.107-.02c2.29-.02 4.58-.024 6.87-.026l4.809-.02q5.04-.017 10.082-.015c4.28 0 8.56-.027 12.84-.061 3.313-.023 6.626-.026 9.94-.025a563 563 0 0 0 4.728-.027c15.006-.134 25.379 2.784 36.432 13.293 10.316 10.857 15.28 27.54 20.867 41.209 3.381 8.216 6.773 16.336 10.997 24.161 17.954 33.266 17.72 65.196 16.772 101.91-.2 7.928-.263 15.856-.326 23.786-.06 6.815-.152 13.63-.251 20.445l-.031 2.193c-.07 4.763-.171 9.523-.288 14.284l-.058 3.635-.095 3.309-.067 2.876c-.497 2.805-1.128 3.732-3.422 5.383-3.003.34-3.003.34-6.637.293l-3.935-.03q-2.058-.036-4.115-.076-2.076-.022-4.15-.04-5.083-.054-10.163-.147l-.378 2.01c-1.899 9.832-4.564 17.293-11.036 25.08-1.74 2.028-1.74 2.028-3.586 4.91l3.991-.048c4.881-.054 9.762-.088 14.643-.117q3.17-.022 6.34-.061c3.037-.037 6.072-.054 9.108-.067.947-.015 1.894-.03 2.87-.047h2.668l2.349-.02c2.576.457 3.453 1.308 5.031 3.36.398 2.375.398 2.375.375 5l.023 2.625c-.49 2.924-1.028 3.624-3.398 5.375-2.766.378-2.766.378-6.187.381l-3.926.026-4.317-.019q-2.268.006-4.538.016c-4.112.014-8.223.008-12.334-.001-4.3-.008-8.598 0-12.897.004-7.22.006-14.439-.002-21.658-.016-8.352-.016-16.704-.01-25.056.006q-10.747.02-21.496.007a3773 3773 0 0 0-12.845.005q-6.038.013-12.076-.015a621 621 0 0 0-4.437.004c-2.015.008-4.03-.004-6.046-.017l-3.421-.003C347 464 347 464 345.138 462.625c-1.58-2.257-1.537-3.892-1.513-6.625l-.023-2.625c.491-2.93 1.01-3.632 3.398-5.375 2.91-.34 2.91-.34 6.418-.293l3.799.03 3.97.075q2.004.024 4.006.042 4.904.053 9.807.146l-1.828-2.527c-6.69-9.368-10.604-16.92-13.172-28.473l-208-1-2 10c-1.927 6.659-4.995 11.774-9.414 17.09-1.74 2.028-1.74 2.028-3.586 4.91l2.523-.048q4.637-.074 9.275-.117c1.995-.022 3.99-.06 5.985-.099l3.799-.029 3.507-.048c2.911.341 2.911.341 4.787 1.71 1.56 2.263 1.523 3.905 1.499 6.631l.023 2.625c-.49 2.924-1.028 3.624-3.398 5.375-2.766.378-2.766.378-6.187.381l-3.926.026-4.317-.019q-2.268.006-4.538.016c-4.112.014-8.223.008-12.334-.001-4.3-.008-8.598 0-12.897.004-7.22.006-14.439-.002-21.658-.016-8.352-.016-16.704-.01-25.056.006q-10.747.02-21.496.007a3773 3773 0 0 0-12.845.005q-6.038.013-12.076-.015a621 621 0 0 0-4.437.004c-2.015.008-4.03-.004-6.046-.017l-3.421-.003C11 464 11 464 9.138 462.625c-1.58-2.257-1.537-3.892-1.513-6.625l-.023-2.625c.482-2.877 1.13-3.595 3.398-5.375 2.031-.36 2.031-.36 4.38-.34h2.668l2.87.047 2.947.013c3.107.017 6.215.054 9.323.092q3.159.024 6.318.042 7.748.051 15.494.146l-1.883-2.677-2.465-3.526-1.239-1.758c-4.193-6.016-6.984-11.643-8.51-18.805l-.52-2.415L40 417l-2.615-.044q-4.805-.092-9.61-.218a548 548 0 0 0-4.159-.084 572 572 0 0 1-5.98-.142l-3.633-.08c-3.332-.48-4.006-.844-6.003-3.432-.381-1.935-.381-1.935-.388-4.148l-.029-2.519.019-2.708-.01-2.79q-.002-2.92.017-5.84c.016-2.984 0-5.965-.02-8.948q.004-2.835.013-5.672l-.019-2.708.029-2.519.007-2.213C8 371 8 371 9.106 369.252c2.842-1.88 5.221-1.54 8.582-1.44l3.574.083L24 368l-.027-2.983q-.121-13.947-.18-27.895-.03-7.17-.095-14.339-.063-6.924-.078-13.85a648 648 0 0 0-.043-5.271c-.03-2.47-.033-4.94-.031-7.41l-.044-2.18c.05-6.248 2.155-11.356 6.244-16.095l1.692-1.352 1.683-1.398c5.688-3.714 10.98-3.506 17.573-3.47l3.263-.006c3.557-.003 7.115.007 10.672.019h7.416q7.769.003 15.537.024 9.965.024 19.93.02 7.656.001 15.311.013l7.35.006q5.131.004 10.263.022l3.078-.002 2.825.013 2.45.005c2.211.129 2.211.129 4.342.71 3.074.688 4.777-.975 7.365-2.604l3.338-2.07 1.776-1.125c3.136-1.985 6.296-3.93 9.453-5.884l1.98-1.23c6.287-3.898 12.662-7.637 19.059-11.352 9.64-5.6 19.203-11.302 28.653-17.221 8.734-5.449 17.602-10.667 26.469-15.895 9.078-5.354 18.097-10.767 26.857-16.636 8.478-5.545 16.786-7.739 26.919-6.564 8.8 2.209 14.447 5.276 19.25 13.062 4.67 8.003 5.308 17.775 3.031 26.782C324.61 238.135 320.472 244.29 314 247c-3.932.637-7.019.654-10.437-1.625-1.935-2.94-2.491-4.852-2.563-8.375 1.823-4.152 4.783-6.867 8-10 1.733-3.465 1.472-7.211 1-11-1.793-3.12-3.243-4.55-6.312-6.375-6.1-1.419-10.698.63-15.786 3.762l-2.34 1.488a3831 3831 0 0 1-5.34 3.293l-2.98 1.845c-5.524 3.385-11.11 6.666-16.688 9.96a2808 2808 0 0 0-34.45 20.695c-9.67 5.899-19.42 11.65-29.209 17.35-7.93 4.618-15.806 9.3-23.507 14.292C169.2 285 169.2 285 167 285l.938 3.437c1.675 7.39 1.733 15.02 2.062 22.563 20.615-12.04 20.615-12.04 41.12-24.265a2738 2738 0 0 1 15.34-9.169l2.016-1.196q5.174-3.07 10.353-6.129c6.543-3.867 13.057-7.769 19.503-11.796l3.425-2.12a513 513 0 0 0 6.277-3.957c5.613-3.467 9.33-5.37 15.966-4.368 3.25 2.681 3.896 4.351 4.563 8.5-.72 4.481-2.194 5.527-5.563 8.5a126 126 0 0 1-6.504 4.047l-1.899 1.116q-2.02 1.185-4.046 2.36c-2.891 1.678-5.772 3.372-8.653 5.066l-4.444 2.609c-6.863 4.028-13.663 8.154-20.454 12.302-10.777 6.573-21.615 13.037-32.482 19.458-9.585 5.666-19.102 11.42-28.504 17.387l-2.35 1.48-2.017 1.283C170 333 170 333 168 333v35c9.364-.158 9.364-.158 18.728-.36l3.538-.03 3.618-.064c3.72.542 4.858 1.512 7.116 4.454.531 2 .531 2 .5 4l.031 2c-.836 3.15-1.85 4.073-4.531 6-3.694.636-7.369.605-11.11.61l-3.278.05c-3.454.048-6.908.07-10.362.09q-3.514.042-7.027.09-8.611.11-17.223.16l.621 1.793.817 2.394.808 2.356c.75 2.441 1.253 4.953 1.754 7.457h208l3-12 1-2-2.222-.002q-26.752-.022-53.505-.13c-8.625-.035-17.25-.06-25.875-.064q-11.275-.003-22.55-.065c-3.98-.02-7.961-.033-11.942-.025q-5.619.01-11.238-.042-2.064-.012-4.126.001c-1.878.012-3.755-.01-5.632-.034l-3.185-.008c-3.703-.857-4.74-2.47-6.725-5.631-.598-3.586-.297-5.392 1.297-8.652 4.34-3.77 8.887-3.004 14.448-2.916l3.637-.002c3.288.003 6.574.028 9.86.063 3.437.031 6.874.034 10.31.04 6.507.016 13.012.057 19.518.107 7.408.056 14.815.083 22.222.108 15.237.053 30.472.14 45.708.252l-.014-2.94q-.167-35.43-.245-70.86c-.026-11.423-.06-22.846-.118-34.269q-.076-14.937-.093-29.874c-.007-5.27-.022-10.542-.059-15.812q-.05-7.449-.037-14.898a555 555 0 0 0-.03-5.454c-.186-18.485-.186-18.485 5.596-25.893 6.124-5.738 11.632-8.239 20.094-8.29M363 179c-2.891 5.36-3.424 9.67-3.34 15.69l-.002 2.544c.002 2.754.025 5.508.049 8.262q.009 2.877.013 5.755c.011 5.032.04 10.064.074 15.096.03 5.141.044 10.283.06 15.424q.05 15.115.146 30.229l2.751.018q12.825.087 25.648.218c4.395.044 8.79.084 13.186.11q6.36.04 12.721.117 2.429.025 4.858.035a675 675 0 0 1 6.794.07l3.91.033c3.132.399 3.132.399 5.047 1.805 1.354 1.989 1.487 3.2 1.46 5.594l.023 2.062c-.54 2.63-1.226 3.344-3.398 4.938-3.132.399-3.132.399-7.042.432-.724.01-1.448.02-2.194.032-2.342.03-4.683.039-7.026.048q-2.17.023-4.34.05c-5.361.058-10.723.09-16.085.125L360 288v80c15.07.521 15.07.521 25.89-6.668 11.855-8.89 25.891-9.394 40.11-8.332 8.145 1.506 17.529 4.594 23.579 10.556 4.936 4.737 9.792 5.058 16.333 5.016 2.197-.045 4.392-.12 6.588-.197q2.257-.045 4.516-.082c3.664-.06 7.32-.178 10.984-.293v-16l-9.96-.586C475 351 475 351 473 349c-.266-2.313-.266-2.313-.25-5l-.016-2.688C473 339 473 339 475 337c3.04-.414 3.04-.414 6.625-.625L488 336v-16l-9.96-.586C475 319 475 319 473 317c-.266-2.313-.266-2.313-.25-5l-.016-2.688C473 307 473 307 475 305c3.04-.414 3.04-.414 6.625-.625L488 304v-16l-6.273-.148-6.007-.17a834 834 0 0 0-4.179-.104c-2-.045-4.001-.105-6.002-.164l-3.65-.095C459 287 459 287 457 285c-.266-2.313-.266-2.313-.25-5l-.016-2.688C457 275 457 275 459 273c2.43-.319 2.43-.319 5.445-.414l3.262-.117 3.418-.094 3.441-.117q4.216-.142 8.434-.258c-2.274-7.186-5.04-14.063-8.008-20.988l-1.47-3.45q-1.538-3.608-3.08-7.214a6317 6317 0 0 1-4.622-10.834 3472 3472 0 0 0-7.434-17.304q-1.35-3.126-2.686-6.256c-1.177-2.754-2.37-5.501-3.567-8.247l-1.01-2.39c-3.056-6.918-7.09-12.923-14.123-16.192l-2.437-1.18c-4.668-1.721-9.33-2.071-14.274-2.106l-3.327-.03-3.552-.012-3.69-.017q-3.858-.015-7.714-.02c-3.926-.01-7.852-.041-11.777-.073l-7.506-.015-3.546-.038c-8.549-.015-8.549-.015-16.177 3.366M42 291c-2.57 3.445-2.241 6.973-2.227 11.155v2.16c0 2.348.016 4.696.032 7.044l.008 4.893c.008 4.288.028 8.575.05 12.863.02 4.377.03 8.754.04 13.131Q39.934 355.124 40 368c2.592.07 5.181.12 7.773.16l2.22.065c3.096.036 5.473.06 8.241-1.413a71 71 0 0 0 2.871-3.019c2.617-2.476 5.634-3.96 8.833-5.543l3.464-1.734c12.593-5.305 29.215-5.937 41.957-.786 12.215 5.873 12.215 5.873 16.278 9.854 3.737 3.145 7.029 3.005 11.738 2.728l2.23-.068c1.8-.058 3.598-.148 5.395-.244q.07-14.37.104-28.738.014-6.672.047-13.344.032-6.438.039-12.877.004-2.457.021-4.914c.015-2.293.017-4.586.016-6.88l.014-3.957c-.28-3.98-.28-3.98-2.241-7.29-4.45-2.692-9.356-2.289-14.393-2.275l-2.844-.015c-3.098-.014-6.196-.013-9.294-.01l-6.467-.014a4808 4808 0 0 0-13.547-.002c-5.788.006-11.575-.01-17.362-.034-4.45-.015-8.901-.016-13.352-.013q-3.2 0-6.401-.015c-2.983-.013-5.965-.006-8.947.006l-2.67-.023c-4.694.04-7.987.23-11.723 3.395m23 92c-7.783 10.722-9.354 21.055-8 34 2.299 9.977 8.366 17.91 16.594 23.883 10.81 6.74 22.49 8.171 34.898 5.312C119.691 441.978 127.938 433.757 133 423c3.755-9.185 3.542-21.262.063-30.5-5.316-10.78-13.79-18.119-24.825-22.629C91.786 365.445 76.252 370.347 65 383m320 0c-7.783 10.722-9.354 21.055-8 34 2.299 9.977 8.366 17.91 16.594 23.883 10.81 6.74 22.49 8.171 34.898 5.312C439.691 441.978 447.938 433.757 453 423c3.755-9.185 3.542-21.262.063-30.5-5.316-10.78-13.79-18.119-24.825-22.629-16.452-4.426-31.986.476-43.238 13.129m-361 1v16h16c1.767-5.3 3.394-10.648 5-16zm443 0 1.938 7.437.605 2.346c.678 3.387.678 3.387 2.457 6.217 2.699.073 5.365.092 8.063.062L488 400v-16z"/><path d="m34.809 47.566 2.312-.015q2.42-.01 4.84.003c2.464.008 4.927-.02 7.393-.052q2.352-.003 4.705.002l2.228-.034c3.5.047 5.371.266 8.176 2.436 1.666 2.27 2.08 3.312 2.037 6.094l.031 2c-.85 3.202-1.73 4.149-4.531 6-3.76.495-7.465.375-11.25.25l-3.125-.055A659 659 0 0 1 40 64v16h112V64l-6.286.048c-6.85.05-13.699.082-20.548.107-4.153.016-8.306.037-12.46.071-4.007.033-8.014.05-12.02.059q-2.295.008-4.59.032c-2.14.022-4.28.025-6.421.024l-3.695.02C83 64 83 64 81.108 62.627c-1.54-2.261-1.507-3.912-1.483-6.627l-.023-2.625C80 51 80 51 81.036 49.375c3.038-2.128 6.207-1.792 9.784-1.763l2.41-.016c2.632-.013 5.263-.005 7.895.006q2.74-.003 5.481-.01 5.745-.005 11.49.017c4.913.017 9.825.007 14.739-.01 3.773-.012 7.545-.008 11.318 0q2.718.004 5.435-.008c2.531-.007 5.061.004 7.592.02l2.276-.018c2.785.035 5.025.131 7.511 1.451 1.635 3.097 1.424 6.225 1.374 9.64v2.366a933 933 0 0 1-.048 7.743q-.009 2.685-.013 5.368c-.011 4.71-.04 9.42-.074 14.13-.03 4.806-.044 9.612-.06 14.418q-.05 14.145-.146 28.291l2.785.897c3.663 1.257 7.016 2.92 10.438 4.708l2.089 1.079q3.377 1.747 6.75 3.504l4.737 2.45a7468 7468 0 0 1 9.617 4.983 7505 7505 0 0 0 14.143 7.32 4907 4907 0 0 1 8.808 4.559 1792 1792 0 0 0 16.71 8.58 3210 3210 0 0 1 8.096 4.117q1.932.98 3.869 1.95c1.785.894 3.563 1.801 5.34 2.708l3.076 1.552c2.627 1.646 3.991 2.927 5.542 5.593.49 3.926.637 6.069-1.625 9.375-3.035 2.077-4.674 2.472-8.375 2.625-3.212-1.035-6.134-2.562-9.126-4.11l-2.722-1.358c-2.962-1.484-5.912-2.99-8.863-4.497a4228.996 4228.996 0 0 1-22.349-11.29c-5.504-2.793-11.017-5.568-16.53-8.345-10.812-5.449-21.613-10.92-32.41-16.4v20l6 2a92 92 0 0 1 4.207 2.028l2.34 1.195 2.48 1.285 2.625 1.346q2.748 1.412 5.494 2.83 4.125 2.128 8.254 4.246c4.392 2.256 8.776 4.527 13.157 6.804 2.328 1.206 4.662 2.399 6.998 3.59q2.037 1.05 4.074 2.106l3.537 1.812c2.779 1.724 4.236 2.934 5.834 5.758.485 3.88.569 6.076-1.5 9.438-3.562 2.226-6.47 2.278-10.5 1.562-3.95-1.54-7.684-3.428-11.434-5.401a485 485 0 0 0-5.69-2.936 1942 1942 0 0 1-12.064-6.226c-4.666-2.42-9.339-4.83-14.023-7.219a654 654 0 0 1-5.585-2.91l-3.44-1.76-3.015-1.567c-3.139-1.12-4.617-1.012-7.749.019l-2.562 1.563c-4.993 2.087-10.093 2.224-15.438 1.437-2.752-1.997-2.99-2.964-3.875-6.375-.125-3.625-.125-3.625.688-6.312 2.897-3.063 5.925-3.908 9.91-5.125 2.432-.995 2.432-.995 3.4-3.314 1.055-3.458 1.158-6.434 1.196-10.051l.03-2.164c.031-2.3.048-4.598.065-6.897q.026-2.138.054-4.274c.063-5.267.109-10.534.157-15.8L152 96H40l.313 36.188.075 11.41c.037 3.387.037 3.387.077 6.773a651 651 0 0 1 .032 4.512c.01 2.283.038 4.565.07 6.848l.034 3.896c.428 3.614 1.158 5.528 3.399 8.373 3.432 1.144 6.099 1.139 9.719 1.158l2.055.015q2.208.016 4.415.026 3.493.019 6.985.053c6.619.062 13.238.116 19.857.15q6.075.032 12.148.1 2.316.021 4.632.026c2.157.005 4.313.028 6.47.055l3.721.025c2.998.392 2.998.392 4.893 1.77 1.538 2.258 1.504 3.91 1.48 6.622l.023 2.625c-.496 2.958-.962 3.637-3.398 5.375a56 56 0 0 1-7.282.404l-2.238.02c-2.445.02-4.89.015-7.335.01l-5.11.015q-5.36.013-10.72-.003c-4.565-.011-9.13.009-13.695.038-3.52.018-7.04.018-10.56.012q-2.523 0-5.046.019c-17.652.112-17.652.112-25.037-6.261l-1.352-1.691-1.398-1.684c-2.589-3.965-3.477-7.502-3.488-12.206l-.021-3.194.007-3.474-.015-3.682q-.016-4.986-.012-9.972 0-4.164-.008-8.329-.016-9.82-.006-19.64c.006-6.756-.006-13.512-.027-20.267q-.026-8.704-.02-17.407c.001-3.465-.001-6.93-.015-10.394-.015-3.86-.006-7.719.006-11.578l-.023-3.486.02-3.177v-2.766C24 51 24 51 25.305 49.208c2.852-2.033 6.127-1.655 9.504-1.642M192.58 447.619l3.518-.026 3.863.019q2.032-.007 4.065-.016c3.682-.014 7.364-.008 11.046.001 3.85.008 7.7 0 11.55-.004q9.7-.007 19.4.016c7.479.016 14.958.01 22.438-.006q9.626-.02 19.253-.007 5.753.008 11.504-.005 5.408-.013 10.815.015c1.957.006 3.914-.003 5.87-.013l3.518.026 3.064.003c2.516.378 2.516.378 4.34 1.753 1.63 2.253 1.576 3.868 1.551 6.625l.023 2.625c-.487 2.907-1.064 3.615-3.398 5.375-2.516.378-2.516.378-5.58.381l-3.518.026-3.863-.019q-2.033.007-4.065.016c-3.682.014-7.364.008-11.046-.001-3.85-.008-7.7 0-11.55.004q-9.7.007-19.4-.016c-7.479-.016-14.958-.01-22.438.006q-9.626.02-19.253.007c-3.835-.004-7.67-.005-11.504.005q-5.407.013-10.815-.015c-1.957-.006-3.914.003-5.87.013l-3.518-.026-3.064-.003C187 464 187 464 185.176 462.625c-1.63-2.253-1.576-3.868-1.551-6.625l-.023-2.625c.887-5.29 4.12-5.75 8.978-5.756M423 384c7.145 2.063 11.143 5.608 14.941 11.914 3.358 6.617 3.184 14.964 1.258 22.02-2.842 6.417-7 9.92-13.199 13.066-7.105 2.368-15.647 2.098-22.5-.937-5.9-3.392-9.375-8.69-11.5-15.063a105 105 0 0 1-.25-6l-.078-3.187C392 403 392 403 393.203 401.148c2.373-1.516 3.995-1.548 6.797-1.523l2.625-.023c2.375.398 2.375.398 4.121 1.636 1.509 2.12 1.883 3.769 2.317 6.325.583 3.633.583 3.633 2.937 6.437 1.91.318 1.91.318 4 .25l2.125.016c2.119-.109 2.119-.109 3.875-2.266.318-1.91.318-1.91.25-4l.016-2.125c-.109-2.119-.109-2.119-2.266-3.875-2.256-.578-4.513-.95-6.809-1.34-2.592-.78-3.626-1.453-5.191-3.66-.398-2.375-.398-2.375-.375-5l-.023-2.625C408 387 408 387 409.176 385.219c4.028-2.691 9.221-1.796 13.824-1.219M108.5 385.938c5.9 3.391 9.375 8.688 11.5 15.062.144 1.997.22 3.998.25 6l.078 3.188C120 413 120 413 118.797 414.852c-2.373 1.516-3.995 1.548-6.797 1.523l-2.625.023C107 416 107 416 105.254 414.762c-1.509-2.12-1.883-3.769-2.317-6.324-.583-3.634-.583-3.634-2.937-6.438-1.91-.318-1.91-.318-4-.25l-2.125-.016c-2.119.109-2.119.109-3.875 2.266-.318 1.91-.318 1.91-.25 4l-.016 2.125c.109 2.119.109 2.119 2.266 3.875 2.256.578 4.513.95 6.809 1.34 2.592.78 3.626 1.453 5.191 3.66.398 2.375.398 2.375.375 5l.023 2.625C104 429 104 429 102.824 430.781 98.796 433.472 93.603 432.577 89 432c-7.145-2.063-11.143-5.608-14.941-11.914-3.358-6.617-3.184-14.964-1.258-22.02 2.842-6.417 7-9.92 13.199-13.066 7.105-2.368 15.647-2.098 22.5.938M64.875 303.602l3.484-.012 3.641.035 3.64-.035 6.68.022C85 304 85 304 86.842 305.376c1.608 2.254 1.558 3.88 1.533 6.624l.023 2.625C88 317 88 317 86.895 318.801c-2.851 1.804-5.252 1.485-8.582 1.387l-3.575-.083L72 320l.105 2.738.082 3.575.106 3.55C72 333 72 333 70.801 334.895c-2.376 1.458-4.025 1.505-6.801 1.48l-2.625.023C58.46 335.91 57.757 335.351 56 333c-.388-2.68-.388-2.68-.398-5.875l-.012-3.484.035-3.641-.035-3.64.012-3.485.01-3.195C56 307 56 307 57.158 305.158c2.621-1.648 4.635-1.547 7.717-1.556M404 208c2.5 1.5 2.5 1.5 4 4 .741 4.042 1 6.391-1.187 9.91-1.839 2.152-3.787 4.113-5.813 6.09q-1.425 1.454-2.844 2.914c-8.79 8.976-8.79 8.976-14.031 9.399-2.955-.06-4.016-.247-6.625-1.813-1.692-2.82-2.257-5.07-2.062-8.371 1.15-4.355 4.422-7.064 7.562-10.129q1.425-1.454 2.844-2.914c9.99-10.2 9.99-10.2 18.156-9.086M436 208c2.5 1.5 2.5 1.5 4 4 .747 4.076 1 6.408-1.223 9.945-1.83 2.137-3.763 4.09-5.777 6.055l-2.586 2.656c-9.06 9.245-9.06 9.245-13.851 9.594-3.234-.227-4.942-.435-7.563-2.25-1.656-3.312-1.738-6.446-1-10 1.898-3.096 4.41-5.473 7-8q1.425-1.454 2.844-2.914c9.99-10.2 9.99-10.2 18.156-9.086M384.875 303.602l3.484-.012 3.641.035 3.64-.035 3.485.012 3.195.01c2.68.388 2.68.388 4.522 1.764 1.608 2.254 1.558 3.88 1.533 6.624l.023 2.625c-.489 2.915-1.047 3.618-3.398 5.375-2.68.388-2.68.388-5.875.398l-3.484.012-3.641-.035-3.64.035-3.485-.012-3.195-.01C379 320 379 320 377.158 318.624c-1.608-2.254-1.558-3.88-1.533-6.624l-.023-2.625c.91-5.431 4.317-5.758 9.273-5.773M112.875 303.602l3.484-.012 3.641.035 3.64-.035 3.485.012 3.195.01c2.68.388 2.68.388 4.522 1.764 1.608 2.254 1.558 3.88 1.533 6.624l.023 2.625c-.489 2.915-1.047 3.618-3.398 5.375-2.68.388-2.68.388-5.875.398l-3.484.012-3.641-.035-3.64.035-3.485-.012-3.195-.01C107 320 107 320 105.158 318.624c-1.608-2.254-1.558-3.88-1.533-6.624l-.023-2.625c.91-5.431 4.317-5.758 9.273-5.773"/></svg>