<?xml version="1.0" encoding="UTF-8"?>
<svg version="1.1" xmlns="http://www.w3.org/2000/svg" width="512" height="512">
<path d="M0 0 C1.18825893 0.65440347 2.37856318 1.30509974 3.5703125 1.953125 C9.65104576 5.28651653 15.65128259 8.75783428 21.59832191 12.32401371 C22.83648583 13.06532317 24.07668585 13.80325234 25.31972313 14.53636074 C28.39931946 16.36773797 31.3790015 18.23952968 34.25967407 20.37208557 C44.93832091 27.9926388 54.47228137 28.23872522 67.2734375 28.02734375 C69.29310653 28.02792029 71.31277836 28.03276692 73.33242798 28.04164124 C78.60664271 28.05483185 83.87914551 28.01652155 89.15307617 27.96496582 C96.59582065 27.90151892 104.03887799 27.90786639 111.48184204 27.90834045 C115.43434357 27.90856061 119.38590393 27.88848606 123.33822632 27.85179138 C125.1491489 27.84238732 126.96007213 27.83310847 128.77099609 27.82397461 C129.57534088 27.81199539 130.37968567 27.80001617 131.20840454 27.78767395 C140.22350126 27.76594997 147.98732213 29.05944699 154.62890625 35.60546875 C161.01708157 42.57858542 161.19939987 48.87312015 160.8515625 57.98828125 C160.81340154 60.16073591 160.77968592 62.33327238 160.75 64.50585938 C160.69892331 67.91301827 160.62505656 71.3112117 160.47558594 74.71557617 C159.42454361 86.90797276 159.42454361 86.90797276 163.50817871 97.87020874 C167.29599276 100.94240225 171.5304912 102.71246025 176.10369873 104.31143188 C178.43953327 105.15959943 180.46448888 106.31265795 182.5625 107.63671875 C183.14757324 107.98323486 183.73264648 108.32975098 184.33544922 108.68676758 C200.48260637 118.39448203 200.48260637 118.39448203 201.5743053 121.78211987 C202.03801155 124.19804112 202.12782231 126.41252746 202.13142776 128.87280083 C202.13526891 129.85793218 202.13911005 130.84306354 202.1430676 131.85804737 C202.14220112 132.93798469 202.14133463 134.01792202 202.14044189 135.13058472 C202.14489858 136.85436236 202.14489858 136.85436236 202.1494453 138.6129638 C202.15662445 141.80355182 202.15930454 144.99410704 202.16004276 148.18470192 C202.1618945 151.62597379 202.1694427 155.06723401 202.17617798 158.50849915 C202.18976001 166.03582013 202.19578652 173.56313578 202.20018864 181.09046698 C202.20295267 185.79427166 202.20719045 190.4980743 202.21169281 195.20187759 C202.22388794 208.23425352 202.23418506 221.26662781 202.2375679 234.29900932 C202.23778747 235.13318095 202.23800703 235.96735258 202.23823325 236.82680214 C202.23845153 237.66294359 202.23866981 238.49908504 202.2388947 239.36056411 C202.23933816 241.0548292 202.23978473 242.74909429 202.24023438 244.44335938 C202.2404558 245.283769 202.24067723 246.12417863 202.24090537 246.99005522 C202.24484822 260.58917276 202.26228542 274.18823655 202.2855939 287.78733335 C202.30935058 301.76126307 202.3217718 315.73516588 202.32293582 329.7091161 C202.32385044 337.54997186 202.32954836 345.39075767 202.34775543 353.23159409 C202.36321515 359.91278321 202.36824266 366.5938808 202.36001733 373.27508442 C202.35613071 376.67940496 202.3585993 380.08339285 202.37107468 383.48771477 C202.49552539 419.57808189 202.49552539 419.57808189 190.4375 432.8125 C182.51810935 439.91964546 175.43451813 444.1172518 164.66361046 444.13422108 C162.69627955 444.14090784 162.69627955 444.14090784 160.68920457 444.14772969 C159.23008942 444.1476404 157.77097426 444.14745055 156.31185913 444.14717102 C154.76460796 444.1504704 153.21735765 444.15419613 151.67010844 444.1583125 C147.41145891 444.16833214 143.15282349 444.17204924 138.89416385 444.17470181 C134.30367353 444.17860496 129.71319437 444.18818328 125.12271118 444.19691467 C114.03339457 444.21667859 102.94407705 444.22674512 91.85474724 444.23564246 C86.63297811 444.24002541 81.41121 444.24539219 76.18944168 444.25063133 C58.83184965 444.2676434 41.47425825 444.28213775 24.11665916 444.28938007 C19.61211522 444.29128998 15.10757127 444.29321031 10.60302734 444.29516602 C9.4834413 444.29564976 8.36385526 444.2961335 7.21034236 444.2966319 C-10.9277525 444.30493287 -29.06578142 444.33027105 -47.20384748 444.36274669 C-65.82436807 444.39581445 -84.44485514 444.41382857 -103.06540525 444.41702431 C-113.52074292 444.41918965 -123.97598443 444.42794182 -134.43129349 444.45348549 C-143.33518785 444.47518857 -152.2389627 444.48324481 -161.14288051 444.47351871 C-165.68488826 444.46897291 -170.2266494 444.47087651 -174.76862335 444.49028015 C-178.93011208 444.50790461 -183.09117414 444.50692003 -187.25266735 444.49138286 C-188.7547398 444.4890057 -190.25684174 444.49333603 -191.75886913 444.50521151 C-204.33285685 444.59843362 -213.93405711 442.3593486 -223.5 433.75 C-234.24735612 421.92790827 -236.15617906 411.07753459 -236.13371277 395.4480896 C-236.13597833 394.28999114 -236.13824388 393.13189267 -236.14057809 391.93870032 C-236.14580088 388.73751262 -236.14656512 385.53636038 -236.14538372 382.33516979 C-236.14517916 378.87776477 -236.15070351 375.42036805 -236.15544128 371.96296692 C-236.16373518 365.1957337 -236.16649551 358.4285092 -236.16705366 351.66127132 C-236.16752921 346.16186095 -236.16958587 340.66245344 -236.17275429 335.16304398 C-236.18155567 319.56920734 -236.18617421 303.97537758 -236.18542381 288.38153844 C-236.18538386 287.54149013 -236.1853439 286.70144182 -236.18530273 285.8359375 C-236.18526185 284.99486358 -236.18522097 284.15378966 -236.18517885 283.28722866 C-236.18477203 269.64343558 -236.19435214 255.99967006 -236.2084411 242.35588495 C-236.22279543 228.34461348 -236.22971188 214.33335546 -236.22884732 200.32207644 C-236.22851514 192.45641899 -236.23127201 184.59079045 -236.24202538 176.72513962 C-236.25111773 170.03170142 -236.25331589 163.33830528 -236.24651595 156.64486359 C-236.24324498 153.22956668 -236.24321492 149.8143505 -236.2518692 146.3990612 C-236.25954482 142.69861559 -236.25497372 138.99838386 -236.24723816 135.29794312 C-236.25238172 134.21614379 -236.25752529 133.13434447 -236.26282471 132.01976335 C-236.25822592 131.02832405 -236.25362712 130.03688475 -236.24888897 129.01540184 C-236.24910634 128.16140812 -236.24932371 127.30741441 -236.24954766 126.42754209 C-235.87397542 122.77406199 -235.01074739 119.89383362 -232.22705078 117.43212891 C-231.15946533 116.77349854 -231.15946533 116.77349854 -230.0703125 116.1015625 C-229.2649707 115.59786133 -228.45962891 115.09416016 -227.62988281 114.57519531 C-226.76202148 114.05538086 -225.89416016 113.53556641 -225 113 C-224.1140918 112.46213867 -223.22818359 111.92427734 -222.31542969 111.37011719 C-219.51289005 109.68581763 -216.6966443 108.02707081 -213.875 106.375 C-212.92496094 105.81554687 -211.97492188 105.25609375 -210.99609375 104.6796875 C-203.10651313 100.04004508 -203.10651313 100.04004508 -201.14770508 99.30360413 C-199.02950284 98.40676239 -197.61815752 97.6448591 -196 96 C-194.9766379 92.39056676 -195.11737986 88.86562901 -195.203125 85.13671875 C-195.19794861 84.07137405 -195.19277222 83.00602936 -195.18743896 81.90840149 C-195.17553046 78.50049625 -195.21008808 75.09516065 -195.25 71.6875 C-195.26877943 68.29107217 -195.27747471 64.89520609 -195.26971436 61.49873352 C-195.26704558 59.38620875 -195.28066182 57.27358256 -195.31280518 55.16130066 C-195.33904434 46.09298033 -193.07762857 40.46028205 -186.89453125 33.73046875 C-180.36543669 27.76678032 -171.68788941 27.84376127 -163.33374023 28.06445312 C-161.56824856 28.10054024 -159.80273939 28.13577832 -158.03721619 28.17028809 C-156.63971791 28.1991938 -156.63971791 28.1991938 -155.21398735 28.22868347 C-149.15121055 28.33837571 -143.08740249 28.36762336 -137.02383327 28.40752411 C-131.7356181 28.44669262 -126.45139539 28.51567768 -121.16479492 28.65478516 C-94.85506488 29.31977258 -75.29611197 28.39821798 -53.88014221 12.13096619 C-49.31916005 8.75637631 -44.4474789 5.93653497 -39.5625 3.0625 C-38.02103845 2.11767276 -36.48046724 1.17138882 -34.94140625 0.22265625 C-24.28757626 -5.99742054 -10.64996972 -6.328736 0 0 Z M-30.125 17.1875 C-30.81078125 17.59806641 -31.4965625 18.00863281 -32.203125 18.43164062 C-34.14800934 19.60189898 -36.07435925 20.79844645 -38 22 C-38.92554688 22.55300781 -39.85109375 23.10601562 -40.8046875 23.67578125 C-42.56514209 24.73769247 -44.28936129 25.85957419 -46 27 C-46 27.33 -46 27.66 -46 28 C-26.86 28 -7.72 28 12 28 C7.39455207 24.31564165 2.84792151 21.26887584 -2.1875 18.25 C-2.98736328 17.74339844 -3.78722656 17.23679687 -4.61132812 16.71484375 C-13.80283359 11.23685415 -21.17443085 11.52653246 -30.125 17.1875 Z M-177 48 C-178.16700916 50.33401832 -178.17702194 51.82352765 -178.26156616 54.42707825 C-178.29328918 55.35869278 -178.32501221 56.29030731 -178.35769653 57.25015259 C-178.3870932 58.27595428 -178.41648987 59.30175598 -178.44677734 60.35864258 C-178.48065552 61.43710953 -178.51453369 62.51557648 -178.54943848 63.62672424 C-178.84757861 73.63851681 -179.02748091 83.65236578 -179.170187 93.66746998 C-179.26689722 100.38805972 -179.40534756 107.10219351 -179.63916016 113.81958008 C-182.57622291 145.34466716 -182.57622291 145.34466716 -172.12565804 173.63040829 C-168.39099871 177.53667208 -164.10176966 180.53122723 -159.50543213 183.32772827 C-155.59454335 185.93808385 -152.93069467 189.37517431 -150 193 C-148.41636537 194.64501582 -146.81454182 196.27290431 -145.1875 197.875 C-144.33929688 198.71546875 -143.49109375 199.5559375 -142.6171875 200.421875 C-141.75351563 201.27265625 -140.88984375 202.1234375 -140 203 C-134.74992084 208.17171976 -129.62928228 213.3503921 -124.83203125 218.9453125 C-121.08310793 223.1498619 -117.0115541 227.04831984 -113 231 C-107.74992084 236.17171976 -102.62928228 241.3503921 -97.83203125 246.9453125 C-94.08310793 251.1498619 -90.0115541 255.04831984 -86 259 C-76.37122423 268.4850627 -76.37122423 268.4850627 -72.5078125 272.9921875 C-68.23688602 277.97368405 -63.54643781 282.52256422 -58.875 287.125 C-49.09284429 296.76393235 -49.09284429 296.76393235 -46.1796875 300.38671875 C-40.88919195 306.72962471 -33.20652003 311.65624233 -25 313 C-12.4905336 314.04681727 -2.51952502 312.80260254 7.625 304.875 C11.8240828 301.22873762 15.51584358 297.34122451 19.1484375 293.140625 C23.85848516 287.82875794 29.03007805 282.93027731 34.0859375 277.95166016 C37.66712828 274.40777345 41.18030712 270.86486493 44.4609375 267.0390625 C49.50154496 261.16882159 55.10905254 255.84779899 60.6171875 250.421875 C64.36541938 246.70782153 68.06413637 243.00716648 71.5 239 C76.52425481 233.14033045 82.12241912 227.83463192 87.6171875 222.421875 C91.36541938 218.70782153 95.06413637 215.00716648 98.5 211 C103.52425481 205.14033045 109.12241912 199.83463192 114.6171875 194.421875 C118.84695286 190.23067893 122.96728315 186.05944476 126.71208191 181.42622375 C128.62049051 179.40245101 130.39916486 177.88794543 132.59712219 176.22087097 C138.85023518 171.21670251 143.98537592 166.45028126 145.35336304 158.27822876 C145.98740479 151.43135947 145.79681898 144.60256706 145.60546875 137.73828125 C145.58760987 135.21342949 145.57585697 132.68852789 145.56990051 130.16362 C145.54252087 124.90167404 145.46892032 119.64268904 145.35131836 114.38208008 C145.20071008 107.63533861 145.13889026 100.89083149 145.10570812 94.14260578 C145.07374414 87.6950042 144.99653575 81.24795624 144.91796875 74.80078125 C144.90590078 73.57185968 144.89383282 72.34293812 144.88139915 71.0767765 C144.8398673 67.61068457 144.77071434 64.1463341 144.69213867 60.6809082 C144.6829541 59.65287079 144.67376953 58.62483337 144.66430664 57.56564331 C144.58208264 52.10071195 144.58208264 52.10071195 142.08174133 47.39494324 C138.75743922 45.1673789 136.90875975 44.8738629 132.92648602 44.86857224 C131.84573478 44.86473109 130.76498355 44.86088995 129.65148228 44.8569324 C128.45452459 44.85779888 127.2575669 44.85866537 126.02433777 44.85955811 C124.12821439 44.85510142 124.12821439 44.85510142 122.19378549 44.8505547 C118.67346533 44.84246644 115.15316553 44.84069412 111.63283718 44.83995724 C107.84064298 44.83810984 104.04845943 44.8305641 100.25627136 44.82382202 C91.9587995 44.81022514 83.66133246 44.80421185 75.36385131 44.79981136 C70.18540516 44.79705119 65.00696089 44.79281424 59.82851601 44.78830719 C45.49829697 44.77611267 31.16807945 44.76581377 16.83785534 44.7624321 C15.9202239 44.76221253 15.00259247 44.76199297 14.05715402 44.76176675 C13.13729364 44.76154847 12.21743326 44.76133019 11.26969832 44.7611053 C9.40562896 44.76066183 7.5415596 44.76021527 5.67749023 44.75976562 C4.75284221 44.7595442 3.82819419 44.75932277 2.87552653 44.75909463 C-12.11039928 44.75514579 -27.09627649 44.73768999 -42.08218352 44.7144061 C-57.45835166 44.69070819 -72.83449539 44.67823096 -88.21068209 44.67706418 C-96.84772969 44.67614653 -105.48471397 44.67037169 -114.12174416 44.65224457 C-121.47590432 44.6368646 -128.8299816 44.63171063 -136.18415479 44.63998267 C-139.93766947 44.6438967 -143.69101715 44.64292315 -147.44451141 44.62892532 C-151.51092465 44.61389897 -155.5769595 44.62203058 -159.64338684 44.63250732 C-161.42878513 44.62042272 -161.42878513 44.62042272 -163.25025207 44.60809398 C-164.88311378 44.61797874 -164.88311378 44.61797874 -166.54896259 44.6280632 C-167.48768627 44.62746611 -168.42640994 44.62686903 -169.39357978 44.62625384 C-172.54196824 45.07771523 -174.43400502 46.15011531 -177 48 Z M161 116 C161 125.57 161 135.14 161 145 C165.46899977 141.16942877 169.78758255 137.39417759 173.9375 133.25 C174.43056641 132.76917969 174.92363281 132.28835937 175.43164062 131.79296875 C176.66165593 130.5680714 177.83619567 129.28797152 179 128 C179 127.34 179 126.68 179 126 C177.40180771 124.77022117 177.40180771 124.77022117 175.31640625 123.6171875 C174.55392578 123.17246094 173.79144531 122.72773438 173.00585938 122.26953125 C172.19955078 121.80933594 171.39324219 121.34914063 170.5625 120.875 C169.76005859 120.40707031 168.95761719 119.93914062 168.13085938 119.45703125 C164.75950158 117.13396527 164.75950158 117.13396527 161 116 Z M-199.81640625 118.1875 C-200.96206055 118.86425781 -200.96206055 118.86425781 -202.13085938 119.5546875 C-202.93330078 120.03164062 -203.73574219 120.50859375 -204.5625 121 C-205.36880859 121.47695312 -206.17511719 121.95390625 -207.00585938 122.4453125 C-209.00506317 123.62827333 -211.00304308 124.81325146 -213 126 C-211.60982588 129.13578312 -209.98666305 131.26011864 -207.55859375 133.671875 C-206.55989258 134.66767578 -206.55989258 134.66767578 -205.54101562 135.68359375 C-204.84685547 136.36550781 -204.15269531 137.04742187 -203.4375 137.75 C-202.73947266 138.44738281 -202.04144531 139.14476562 -201.32226562 139.86328125 C-198.55238133 143.21093614 -198.55238133 143.21093614 -195 145 C-195 135.43 -195 125.86 -195 116 C-196.81531311 116 -198.29160377 117.28391335 -199.81640625 118.1875 Z M-219 146 C-219.06870607 178.95223343 -219.12154906 211.90444824 -219.15319599 244.85673698 C-219.15694799 248.74938076 -219.16083097 252.6420244 -219.16479492 256.53466797 C-219.16558185 257.30960471 -219.16636878 258.08454144 -219.16717956 258.88296111 C-219.18022411 271.42128875 -219.20387271 283.95957501 -219.23145839 296.49787812 C-219.25953907 309.36876507 -219.27618189 322.23963039 -219.28226548 335.11054671 C-219.28637641 343.04896545 -219.29934811 350.98726723 -219.3237494 358.92564996 C-219.34152123 365.01863965 -219.34335891 371.1115293 -219.33932304 377.20454788 C-219.34014743 379.69981861 -219.34610217 382.19509383 -219.35761642 384.69033813 C-219.37258836 388.10267004 -219.36893606 391.51450546 -219.36076355 394.92684937 C-219.36950207 395.90936751 -219.3782406 396.89188565 -219.38724393 397.90417707 C-219.34541519 404.38592082 -218.18306123 409.9002433 -216 416 C-202.31358923 405.80228217 -188.84241002 395.31363224 -175.54272461 384.61694336 C-169.61122011 379.84691783 -163.62574658 375.16410803 -157.5625 370.5625 C-151.2117051 365.73987865 -144.9844471 360.78887441 -138.81323242 355.73901367 C-132.84498534 350.85764766 -126.79431372 346.08822903 -120.71777344 341.34277344 C-117.80728392 339.06766082 -114.90401293 336.78336957 -112 334.5 C-108.51348899 331.75945374 -105.02621842 329.01990368 -101.53515625 326.28515625 C-95.33486654 321.42570535 -89.15390704 316.54310328 -83 311.625 C-82.38906494 311.13717041 -81.77812988 310.64934082 -81.14868164 310.14672852 C-77.3949966 307.14119708 -73.68491701 304.08948834 -70 301 C-75.18847849 293.51851975 -81.4622466 287.34118816 -87.9375 281 C-90.05425034 278.92016039 -92.16766914 276.83701666 -94.27734375 274.75 C-95.04103775 273.99468994 -95.04103775 273.99468994 -95.82015991 273.22412109 C-99.12365458 269.93397401 -102.21791924 266.53030728 -105.24047852 262.984375 C-108.9549176 258.79525874 -113.01313575 254.92735882 -117 251 C-122.25007916 245.82828024 -127.37071772 240.6496079 -132.16796875 235.0546875 C-135.91689207 230.8501381 -139.9884459 226.95168016 -144 223 C-149.25007916 217.82828024 -154.37071772 212.6496079 -159.16796875 207.0546875 C-162.91689207 202.8501381 -166.9884459 198.95168016 -171 195 C-176.25007916 189.82828024 -181.37071772 184.6496079 -186.16796875 179.0546875 C-189.91689207 174.8501381 -193.9884459 170.95168016 -198 167 C-203.3550328 161.72489307 -208.62244069 156.47701233 -213.4296875 150.69140625 C-215.13536228 148.85419934 -216.98204473 147.47940212 -219 146 Z M182.1796875 147.6875 C181.41914063 148.450625 180.65859375 149.21375 179.875 150 C179.12992188 150.7425 178.38484375 151.485 177.6171875 152.25 C175.61231764 154.35660952 173.71130721 156.48263344 171.8203125 158.6875 C166.66054347 164.62896777 160.98530609 170.05925072 155.3828125 175.578125 C151.63458062 179.29217847 147.93586363 182.99283352 144.5 187 C139.47574519 192.85966955 133.87758088 198.16536808 128.3828125 203.578125 C124.63458062 207.29217847 120.93586363 210.99283352 117.5 215 C112.47574519 220.85966955 106.87758088 226.16536808 101.3828125 231.578125 C97.63458062 235.29217847 93.93586363 238.99283352 90.5 243 C85.47574519 248.85966955 79.87758088 254.16536808 74.3828125 259.578125 C70.63757987 263.28920657 66.94223126 266.98597747 63.51171875 270.9921875 C58.41948814 276.93337188 52.71436786 282.29257495 47.11914062 287.75390625 C42.8843948 291.93456441 39.00169195 295.84216313 36 301 C42.44862044 306.86784407 49.27857472 312.20912103 56.15332031 317.56054688 C59.10930303 319.86468147 62.05424416 322.18281562 65 324.5 C66.16661014 325.4167386 67.3332769 326.33340516 68.5 327.25 C70.83333333 329.08333333 73.16666667 330.91666667 75.5 332.75 C76.36612915 333.43050415 76.36612915 333.43050415 77.24975586 334.12475586 C78.4173041 335.04215009 79.58478449 335.95963067 80.75219727 336.87719727 C83.6548279 339.15844245 86.55859274 341.43821214 89.46484375 343.71484375 C96.13768061 348.94490507 102.77754236 354.213503 109.39208984 359.51708984 C115.3189464 364.26502233 121.28793592 368.95806715 127.26611328 373.64111328 C130.76446446 376.3828512 134.2579795 379.13074956 137.75244141 381.87744141 C140.65502423 384.15856239 143.55868273 386.43828263 146.46484375 388.71484375 C153.24549629 394.02948659 159.99215467 399.38393938 166.71289062 404.77416992 C171.43998872 408.56198911 176.19957733 412.30536575 181 416 C185.52979073 411.47020927 185.23200199 404.2169206 185.25816262 398.16233969 C185.25233693 397.17399586 185.24651125 396.18565204 185.24050903 395.1673584 C185.24221788 394.09879939 185.24392673 393.03024037 185.24568737 391.92930079 C185.24897263 388.36100135 185.23799429 384.79289139 185.22705078 381.22460938 C185.22648646 378.66188562 185.22680364 376.09916155 185.22793579 373.53643799 C185.22839073 368.02534082 185.22273047 362.5143043 185.21146011 357.0032196 C185.19517593 349.03522154 185.18999413 341.06724635 185.18748413 333.09923345 C185.1831116 320.17030929 185.16981451 307.24141043 185.15087891 294.3125 C185.13250866 281.7565117 185.11835776 269.20053028 185.10986328 256.64453125 C185.10907511 255.48275566 185.10907511 255.48275566 185.10827102 254.29750985 C185.10566086 250.41181644 185.10313346 246.52612299 185.10064721 242.6404295 C185.07992848 210.42693461 185.044715 178.21347083 185 146 C183.70852975 145.88669213 183.70852975 145.88669213 182.1796875 147.6875 Z M-58 313 C-59.00417969 313.82242187 -60.00835937 314.64484375 -61.04296875 315.4921875 C-68.52195761 321.60215982 -76.04839406 327.61840435 -83.7265625 333.4765625 C-87.33837073 336.24524954 -90.88929321 339.08801701 -94.4375 341.9375 C-101.01203835 347.21736003 -107.62819252 352.44125265 -114.26611328 357.64111328 C-117.17966817 359.92453295 -120.08968416 362.21245445 -123 364.5 C-126.48656157 367.24048208 -129.97378146 369.98009622 -133.46484375 372.71484375 C-139.5013093 377.44612756 -145.51623932 382.20218208 -151.5 387 C-158.05563 392.25634643 -164.65138496 397.4594206 -171.26611328 402.64111328 C-174.75374572 405.37445067 -178.23743591 408.11282227 -181.71948242 410.85327148 C-184.80300344 413.27899795 -187.89305887 415.69579824 -190.9921875 418.1015625 C-191.641875 418.60751953 -192.2915625 419.11347656 -192.9609375 419.63476562 C-194.21679589 420.61254109 -195.47454985 421.58788775 -196.734375 422.56054688 C-198.17461802 423.68387006 -199.59018199 424.83872134 -201 426 C-201 426.33 -201 426.66 -201 427 C-197.2067372 427.88348945 -193.69881653 428.12525778 -189.80770874 428.12584114 C-187.92681769 428.12975276 -187.92681769 428.12975276 -186.00792885 428.13374341 C-184.61905529 428.13158142 -183.23018187 428.12932477 -181.84130859 428.12698364 C-180.36387786 428.12813582 -178.88644741 428.129724 -177.40901756 428.13171089 C-173.34819619 428.13589084 -169.28739827 428.13381951 -165.22657681 428.13072467 C-160.84752174 428.12846539 -156.46847076 428.13195283 -152.0894165 428.13470459 C-143.5104633 428.13915559 -134.93151884 428.13818878 -126.35256529 428.13529195 C-119.38142544 428.1330353 -112.41028805 428.13272654 -105.43914795 428.13381577 C-104.44768969 428.133969 -103.45623143 428.13412223 -102.43472898 428.13428011 C-100.4207193 428.13459983 -98.40670963 428.13492404 -96.39269996 428.1352527 C-77.49897745 428.13810553 -58.60525979 428.13482355 -39.71153808 428.12945233 C-23.4932365 428.12498447 -7.27494208 428.12576046 8.94335938 428.13037109 C27.7686112 428.13572032 46.59385877 428.13783086 65.41911125 428.13475883 C67.42579015 428.13444027 69.43246905 428.1341259 71.43914795 428.13381577 C72.92020741 428.13358435 72.92020741 428.13358435 74.43118727 428.13334826 C81.3954711 428.13248416 88.35975223 428.1339437 95.32403564 428.13629532 C103.80897532 428.13909738 112.29390574 428.13834644 120.77884436 428.13301457 C125.10952355 428.13038307 129.44018731 428.12936322 133.77086639 428.13266373 C137.7333116 428.13563796 141.69572702 428.13401496 145.65816951 428.12868617 C147.09349626 428.12756683 148.52882552 428.12814254 149.96415067 428.13056196 C151.91200163 428.13359408 153.85985963 428.12989201 155.80770874 428.12584114 C156.8906188 428.12567879 157.97352886 428.12551644 159.08925438 428.12534916 C161.83541811 428.0070876 164.32745001 427.62246405 167 427 C163.08354475 422.92538021 158.90200371 419.35175962 154.5 415.8125 C153.79367432 415.24152588 153.08734863 414.67055176 152.35961914 414.08227539 C147.05897689 409.81299333 141.68448104 405.65186331 136.2734375 401.5234375 C132.01558497 398.25951529 127.84101283 394.89232107 123.65820312 391.53320312 C117.71744477 386.76472185 111.73071287 382.0565415 105.73388672 377.35888672 C102.23553554 374.6171488 98.7420205 371.86925044 95.24755859 369.12255859 C92.34497577 366.84143761 89.44131727 364.56171737 86.53515625 362.28515625 C79.86231939 357.05509493 73.22245764 351.786497 66.60791016 346.48291016 C60.68836965 341.74083846 54.7267245 337.05364252 48.75585938 332.37646484 C46.33342168 330.47745154 43.91425724 328.57428764 41.49487305 326.67138672 C35.67723391 322.09617464 29.84965835 317.53425899 24 313 C23.53851563 313.36351562 23.07703125 313.72703125 22.6015625 314.1015625 C7.13399888 326.02320245 -7.46148399 330.88218841 -27 329 C-38.90512585 326.9042018 -48.94110184 320.77811138 -58 313 Z " fill="#FE9B00" transform="translate(273,36)"/>
<path d="M0 0 C15.28563967 13.91324478 25.23475497 33.38556694 26.72875977 54.15063477 C26.82614054 57.16097085 26.85270054 60.16003569 26.8359375 63.171875 C26.83029785 64.22963135 26.8246582 65.2873877 26.81884766 66.37719727 C26.64172776 77.74706682 25.26593861 87.50626239 17.5234375 96.296875 C8.7331928 104.78400781 -1.74024927 108.5974756 -13.84765625 108.453125 C-19.06825545 108.14283679 -23.78204078 107.375207 -28.2265625 104.546875 C-28.9690625 104.134375 -29.7115625 103.721875 -30.4765625 103.296875 C-32.8357703 104.05899973 -32.8357703 104.05899973 -35.4765625 105.296875 C-49.65267928 111.05704397 -62.7677497 113.76530938 -77.49609375 108.14453125 C-90.25477832 102.23197011 -99.61483118 92.9955202 -104.8515625 79.921875 C-108.51452415 67.88642958 -108.02281347 53.63051828 -102.4765625 42.296875 C-96.10551979 30.49725152 -86.44320489 21.89698924 -73.65234375 17.875 C-59.02428935 13.98819201 -45.85523139 16.46269407 -32.88671875 23.796875 C-30.64701491 25.19079117 -28.55598859 26.67579108 -26.4765625 28.296875 C-25.4865625 27.306875 -25.4865625 27.306875 -24.4765625 26.296875 C-17.35401009 25.60759573 -17.35401009 25.60759573 -14.37554932 27.94732666 C-11.9494472 30.94905587 -11.99083491 32.52383632 -12.02246094 36.35058594 C-12.02276306 37.57154968 -12.02306519 38.79251343 -12.02337646 40.05047607 C-12.04402161 41.36413147 -12.06466675 42.67778687 -12.0859375 44.03125 C-12.09340163 45.39315968 -12.09909376 46.75508012 -12.10308838 48.11700439 C-12.11833158 51.69457868 -12.15760069 55.27149922 -12.2019043 58.84881592 C-12.24288618 62.50198524 -12.26110553 66.15526062 -12.28125 69.80859375 C-12.3240974 76.9716516 -12.39233135 84.13417156 -12.4765625 91.296875 C-10.72417897 90.86236697 -8.97472309 90.41604194 -7.2265625 89.96484375 C-6.25203125 89.71758545 -5.2775 89.47032715 -4.2734375 89.21557617 C-0.16720044 87.86678339 2.98522423 85.8076102 5.5234375 82.296875 C8.37324461 76.15470251 9.04012924 70.9619612 8.9609375 64.234375 C8.95191406 63.31188965 8.94289063 62.3894043 8.93359375 61.43896484 C8.48331219 43.44333729 1.36848104 26.72865772 -11.4296875 14.01953125 C-25.83726457 0.65522893 -44.19289706 -5.26870679 -63.640625 -4.953125 C-81.90901059 -3.76251739 -97.98352976 3.69227801 -110.57421875 17.00390625 C-123.64228694 32.75535599 -128.56705268 52.11289312 -127.4765625 72.296875 C-125.10926529 89.78132209 -117.45402132 106.09654675 -103.4765625 117.296875 C-91.18694 125.43931958 -78.26510415 130.89953248 -63.4765625 132.296875 C-62.72117187 132.3690625 -61.96578125 132.44125 -61.1875 132.515625 C-49.39773151 133.04550224 -38.03214204 129.12820521 -27.4765625 124.296875 C-22.98744477 122.30096487 -20.33248499 122.03793213 -15.4765625 123.296875 C-12.48863902 125.70649071 -12.46236114 127.39628454 -11.9140625 131.234375 C-12.09072338 134.53001414 -12.41613229 135.22222591 -14.6015625 137.921875 C-25.96710973 145.83764436 -40.81520396 149.49895494 -54.4765625 150.296875 C-55.25644531 150.34972656 -56.03632813 150.40257812 -56.83984375 150.45703125 C-78.32513056 151.2068971 -99.41540968 144.08519525 -115.6015625 129.984375 C-117.24423792 128.44046804 -118.86951531 126.87783376 -120.4765625 125.296875 C-121.25 124.53632813 -122.0234375 123.77578125 -122.8203125 122.9921875 C-139.18057305 105.90355918 -145.99162295 83.22270182 -145.90258789 59.99023438 C-145.61392759 47.83653703 -143.19664222 36.11045327 -137.4765625 25.296875 C-136.88294922 24.03037109 -136.88294922 24.03037109 -136.27734375 22.73828125 C-132.26320249 14.62948586 -126.72721557 8.70020207 -120.4765625 2.296875 C-119.80625 1.55308594 -119.1359375 0.80929688 -118.4453125 0.04296875 C-87.26089347 -33.71812898 -32.35981895 -27.63102019 0 0 Z M-83.3046875 44.4765625 C-89.038379 52.7430983 -90.42419524 60.31674281 -89.4765625 70.296875 C-87.40695531 78.42658949 -81.9238656 84.62345627 -75.4140625 89.671875 C-67.53707871 94.0293554 -58.59292636 94.8146057 -49.84765625 92.64453125 C-42.04256985 89.4817745 -35.54247963 83.64680211 -31.4765625 76.296875 C-28.41120096 68.35581159 -28.16710427 59.87957495 -31.1640625 51.859375 C-35.5459617 42.47392307 -42.58667954 37.53096853 -52.1015625 33.921875 C-63.74014357 31.76658221 -75.51234928 35.1856977 -83.3046875 44.4765625 Z " fill="#FE9B00" transform="translate(315.4765625,135.703125)"/>
</svg>
