<svg xmlns="http://www.w3.org/2000/svg" width="512" height="512"><path fill="#f89426" d="M336.648 59.09C355.992 75.6 370.027 94.897 378.312 119l.699 2.007c4.147 12.82 5.55 25.71 5.426 39.118l-.009 2.16c-.078 12.577-1.363 24.503-4.428 36.715l-.601 2.523C368.347 247.183 342.402 289.103 314 326l-2.387 3.16c-5.122 6.764-10.46 13.297-15.98 19.738-2.338 2.735-4.582 5.535-6.82 8.352-4.14 5.077-8.536 9.894-13 14.688l-2.054 2.225c-8.756 9.305-8.756 9.305-14.759 10.368-9.153-.095-12.944-2.472-19.437-8.781-4.02-4.12-7.819-8.38-11.563-12.75q-1.45-1.656-2.902-3.309c-47.21-53.85-97.695-124.32-97.473-198.753l.003-2.191c.145-36.407 14.394-67.405 40.066-92.929C183.582 50.55 202.944 40.963 224 35l3.57-1.035c37.166-8.781 79.64.978 109.078 25.125M192 89l-2.574 2.332c-15.255 14.461-27.304 36.202-28.603 57.58-.302 15.83-.198 30.8 4.177 46.088l.797 2.789C178.29 240.157 202.585 278.703 230 313l1.495 1.873c7.64 9.544 15.495 18.89 23.505 28.127 4.235-1.574 6.639-4.75 9.438-8.125l1.58-1.88c1.668-1.992 3.325-3.993 4.982-5.995l1.617-1.935c18.885-22.604 35.923-47.111 50.179-72.892 1.159-2.092 2.34-4.17 3.524-6.247 17.932-32.039 32.323-73.637 22.45-110.447A115 115 0 0 0 342 118l-1.336-2.793c-11.453-22.431-31.81-37.97-55.094-46.457C253.127 58.56 217.031 65.782 192 89"/><path fill="#f89426" d="M111.184 311.886h3.276l3.548.016 3.623.005c3.832.005 7.663.018 11.494.03q3.889.008 7.777.014c6.366.01 12.732.03 19.098.049v32h-34l-2 14-16 90h296l-18-101v-3h-34v-32c7.581-.092 15.16-.172 22.742-.22q3.867-.03 7.734-.082c3.709-.048 7.417-.071 11.126-.089l3.485-.062c7.756-.002 11.575 1.135 17.176 6.703 2.187 3.462 2.876 6.785 3.534 10.758l.457 2.526c.513 2.86 1.005 5.726 1.496 8.591q.548 3.11 1.1 6.217 1.115 6.313 2.214 12.628c1.631 9.36 3.317 18.708 5.01 28.057q1.95 10.786 3.878 21.578 1.39 7.77 2.798 15.537 1.35 7.44 2.664 14.888.495 2.778 1.003 5.552c4.106 22.443 4.106 22.443.217 28.57-2.502 3.197-4.86 5.298-8.634 6.848-2.721.253-2.721.253-5.91.257l-3.687.02-4.055-.01-4.304.014c-3.947.012-7.894.012-11.841.01-4.255 0-8.51.01-12.765.02q-12.508.023-25.015.023-10.164.001-20.328.012-28.806.026-57.61.025h-6.281c-16.809-.001-33.617.018-50.426.046q-25.876.043-51.753.04c-9.688 0-19.376.006-29.065.027a6421 6421 0 0 1-24.744.009c-4.21-.007-8.419-.007-12.628.01q-5.779.024-11.558-.004-2.091-.005-4.183.012c-12.942.096-12.942.096-17.847-4.511-4-4.649-4.913-9.004-5-15 .44-4.51 1.232-8.938 2.042-13.395q.348-1.995.694-3.99c.625-3.588 1.266-7.174 1.91-10.76.674-3.764 1.335-7.53 1.998-11.296q1.672-9.481 3.37-18.959a7006 7006 0 0 0 3.876-21.883q1.856-10.555 3.734-21.107.796-4.478 1.584-8.958.929-5.28 1.88-10.554c.341-1.898.673-3.797 1.005-5.696C94.775 325.152 96.176 318.66 104 313c2.55-1.275 4.33-1.12 7.184-1.114M299.693 101.28C314.05 112.99 325.761 129.17 328 148c1.46 21.72-1.328 41.955-15.98 58.909-13.206 14.466-29.654 24.477-49.575 25.403-20.69.592-39.255-3.42-54.883-17.687-14.742-14.14-23.373-30.638-23.963-51.26-.236-20.397 4.869-38.344 19.201-53.288 25.551-25.582 67.117-31.301 96.893-8.797M225 135c-7.454 10.13-9.244 20.623-8 33 2.36 10.999 8.997 19.472 18 26 8.834 5.391 19.096 6.854 29.187 5 9.41-2.384 17.91-7.14 23.813-15 6.563-11.433 8.95-22.223 6.352-35.25-3.703-11.138-11.56-19.502-21.774-25.07-17.165-7.439-35.373-2.384-47.578 11.32"/></svg>