<?xml version="1.0" encoding="UTF-8"?>
<svg version="1.1" xmlns="http://www.w3.org/2000/svg" width="512" height="512">
<path d="M0 0 C4.99733669 3.73435924 9.07221882 7.42895557 12 13 C12 13.66 12 14.32 12 15 C13.03925125 15.23948868 14.0785025 15.47897736 15.14924622 15.72572327 C25.21508939 18.0604314 35.21693287 20.57870141 45.19921875 23.24609375 C46.73394661 23.65438683 48.26872293 24.06249777 49.80354309 24.47044373 C53.06896836 25.33890619 56.33395581 26.20899027 59.59863281 27.08026123 C63.88779334 28.22477233 68.17796109 29.36545627 72.46843529 30.50503159 C90.84627046 35.38715146 109.21059075 40.31513676 127.55066872 45.33735085 C130.2762896 46.08314228 133.00238295 46.82717749 135.72868347 47.57048035 C136.61420678 47.811913 137.49973009 48.05334566 138.41208744 48.30209446 C140.17804986 48.78349322 141.94403766 49.26479892 143.71005154 49.74600887 C148.86659201 51.15231348 154.0195125 52.5710537 159.17016125 53.99877644 C162.37043272 54.88295639 165.57365075 55.75605935 168.7777462 56.62626839 C170.25965113 57.03129702 171.74027665 57.44104138 173.21946144 57.85589409 C175.24273366 58.42278527 177.26990444 58.97278313 179.29882812 59.51904297 C180.43066528 59.83098602 181.56250244 60.14292908 182.7286377 60.46432495 C188.10026297 61.3439113 192.80664505 60.20374491 197.875 58.4375 C207.23340771 55.56777679 215.73389525 56.7557748 224.421875 61.25390625 C231.81257601 65.8048916 236.62932558 72.01682374 240 80 C242.25943487 89.59464243 241.30788313 98.13161096 237 107 C235.98969727 108.24970581 235.98969727 108.24970581 234.95898438 109.5246582 C232.32992846 114.18874231 232.39757127 117.94469571 232.390625 123.2109375 C232.37408875 124.17907379 232.35755249 125.14721008 232.34051514 126.14468384 C232.29212655 129.22152102 232.2706842 132.29786426 232.25 135.375 C232.22183272 137.46747264 232.19190424 139.55992237 232.16015625 141.65234375 C232.08636978 146.76818849 232.03673912 151.8837605 232 157 C235.63 157 239.26 157 243 157 C242.99555878 155.93368851 242.99111755 154.86737701 242.98654175 153.76875305 C242.94599627 143.71919693 242.91601586 133.6696574 242.89637566 123.62003803 C242.88593901 118.45344445 242.87178187 113.28691691 242.84912109 108.12036133 C242.82738863 103.13424722 242.81543048 98.14819662 242.81024551 93.1620388 C242.8065505 91.25984891 242.79933509 89.35766249 242.78853989 87.45549965 C242.77401968 84.7909761 242.77202229 82.12671496 242.77294922 79.4621582 C242.76575867 78.67597107 242.75856812 77.88978394 242.75115967 77.07977295 C242.76664297 72.965893 242.96967891 69.62716517 245 66 C248.17051228 63.88632514 248.95058609 63.74650773 252.57907104 63.72584534 C253.51835449 63.71587021 254.45763794 63.70589508 255.42538452 63.69561768 C256.45402618 63.694953 257.48266785 63.69428833 258.54248047 63.69360352 C259.62728699 63.68528 260.71209351 63.67695648 261.82977295 63.66838074 C265.42561401 63.64423139 269.02127387 63.63550268 272.6171875 63.62890625 C275.11198991 63.61994398 277.60679175 63.61082222 280.10159302 63.60154724 C285.33547716 63.58504148 290.5693169 63.57732103 295.80322266 63.57446289 C301.18100545 63.57122958 306.55838148 63.55009095 311.93603516 63.51293945 C318.42345057 63.46878903 324.91048252 63.44900005 331.39804459 63.44773674 C333.87242512 63.44352501 336.34680573 63.43105283 338.82110214 63.41021919 C342.28076311 63.38340726 345.73901916 63.38810097 349.19873047 63.40063477 C350.22332367 63.38580048 351.24791687 63.37096619 352.30355835 63.35568237 C356.97454503 63.40394645 359.244401 63.4277298 363.05418396 66.31315613 C364.56869232 68.40443681 365.89692377 70.24048566 366.93432617 72.58886719 C367.23687317 73.25846466 367.53942017 73.92806213 367.85113525 74.61795044 C368.16194031 75.33699554 368.47274536 76.05604065 368.79296875 76.796875 C369.1368866 77.56707977 369.48080444 78.33728455 369.83514404 79.13082886 C370.96369338 81.66579269 372.07561337 84.20768897 373.1875 86.75 C373.97306552 88.52305564 374.75962123 90.29567287 375.54711914 92.06787109 C377.62101364 96.74395693 379.67996272 101.42645569 381.73364258 106.1114502 C383.00365067 109.00832715 384.2759021 111.90420884 385.54882812 114.79980469 C392.2675158 130.08602827 392.2675158 130.08602827 395.2487793 136.92089844 C395.79480804 138.17086105 395.79480804 138.17086105 396.35186768 139.44607544 C397.02772787 140.99372892 397.70234894 142.54192444 398.37542725 144.09078979 C398.67813538 144.78350983 398.98084351 145.47622986 399.29272461 146.18994141 C399.55153915 146.78433014 399.8103537 147.37871887 400.07701111 147.99111938 C401.00816442 150.13570719 401.00816442 150.13570719 402.57946777 152.49305725 C404.65673442 157.62131487 404.44242588 162.43690897 404.43579102 167.92114258 C404.45090477 169.71493599 404.45090477 169.71493599 404.46632385 171.54496765 C404.48989016 174.8137971 404.49985354 178.08228286 404.50177121 181.35118699 C404.50390912 183.39727787 404.51032413 185.44330949 404.51826286 187.4893856 C404.5459883 194.6385514 404.55827209 201.7875498 404.5559082 208.93676758 C404.55410721 215.58305483 404.58574325 222.22861054 404.63313919 228.87471277 C404.67247132 234.59555622 404.68845549 240.31616162 404.68654197 246.03713912 C404.68578 249.44753033 404.69416494 252.85727107 404.72607613 256.26752663 C404.75554807 260.07585561 404.74681689 263.8823132 404.72875977 267.69067383 C404.74561829 268.80838165 404.76247681 269.92608948 404.77984619 271.07766724 C404.69006567 278.54820389 403.04229812 283.4011673 398 289 C391.01822122 294.97242907 381.13560805 293.43858147 372.5 293.25 C370.89845979 293.22990783 369.29689529 293.21166185 367.6953125 293.1953125 C363.79626919 293.15152271 359.89840534 293.08264721 356 293 C356.01812744 294.00450195 356.03625488 295.00900391 356.05493164 296.04394531 C356.0695992 297.3886673 356.08381669 298.73339424 356.09765625 300.078125 C356.11578369 301.39200195 356.13391113 302.70587891 356.15258789 304.05957031 C355.64015706 317.29258414 348.81137505 329.19989932 339.2890625 338.15234375 C326.2585591 348.67013916 312.33705556 351.56823898 296 350 C282.98427701 347.66633782 271.00583409 340.58805262 263.3828125 329.6875 C255.61461742 317.32022425 254 307.97023069 254 293 C217.04 293.33 180.08 293.66 142 294 C142 297.3 142 300.6 142 304 C140.0229891 318.01880457 134.42671252 329.69224439 123.6171875 339.06640625 C110.87580628 348.55074629 97.52339142 351.22333791 82 350 C68.44474666 347.51084015 56.30587332 340.24529994 48.375 328.9375 C41.43558867 318.74125726 38.91772428 308.35781382 39 296 C39.33 295.01 39.66 294.02 40 293 C37.69 293 35.38 293 33 293 C33.04640625 293.93199219 33.0928125 294.86398437 33.140625 295.82421875 C33.58929094 311.67174059 29.22703755 324.4278086 18.3125 336.25 C7.24235052 346.65765018 -5.3798567 350.53079569 -20.22924805 350.41992188 C-33.57749808 349.98342109 -44.9672496 344.8153487 -54.75 335.75 C-61.07161665 328.97249754 -65.78905184 321.01386556 -68 312 C-68.18691406 311.24074219 -68.37382813 310.48148437 -68.56640625 309.69921875 C-69.10752692 306.33062068 -69.09437071 303.0976662 -69.0625 299.6875 C-69.05347656 298.43324219 -69.04445312 297.17898438 -69.03515625 295.88671875 C-69.02355469 294.93410156 -69.01195312 293.98148437 -69 293 C-69.71542969 293.02094727 -70.43085937 293.04189453 -71.16796875 293.06347656 C-74.44516652 293.14720833 -77.72213841 293.19884051 -81 293.25 C-82.12535156 293.28351563 -83.25070313 293.31703125 -84.41015625 293.3515625 C-91.17209268 293.43064948 -96.5677282 293.2852455 -102 289 C-108.22213611 282.27886509 -108.85821372 276.07246216 -108.69140625 267.1953125 C-108.69003159 265.99437958 -108.68865692 264.79344666 -108.6872406 263.55612183 C-108.67822003 261.0330916 -108.65470205 258.51007575 -108.61743164 255.98730469 C-108.56237113 252.11593918 -108.55590512 248.24671777 -108.55664062 244.375 C-108.54190362 241.91925214 -108.52442237 239.46351888 -108.50390625 237.0078125 C-108.50056778 235.84847198 -108.49722931 234.68913147 -108.49378967 233.49465942 C-108.47465012 232.42279388 -108.45551056 231.35092834 -108.43579102 230.24658203 C-108.42435562 229.30332062 -108.41292023 228.3600592 -108.40113831 227.38821411 C-107.92603674 224.55965288 -107.27734711 223.69345864 -105 222 C-102.19463405 221.06487802 -100.51593915 220.87554021 -97.61719227 220.87695217 C-96.71598646 220.87496112 -95.81478065 220.87297007 -94.88626558 220.87091869 C-93.89503039 220.87383153 -92.9037952 220.87674437 -91.88252258 220.87974548 C-90.83048635 220.87889106 -89.77845012 220.87803663 -88.694534 220.87715632 C-85.1522146 220.87550283 -81.60994203 220.88102079 -78.06762695 220.88647461 C-75.53519695 220.88675654 -73.00276687 220.88659864 -70.47033691 220.8860321 C-65.00937105 220.88580403 -59.5484204 220.88864937 -54.08745766 220.89426994 C-46.19178887 220.9023911 -38.29612586 220.9050008 -30.40045335 220.90625793 C-17.59077748 220.90844748 -4.78110797 220.91510494 8.02856445 220.92456055 C20.47322559 220.93373717 32.91788499 220.94081678 45.36254883 220.94506836 C46.51285337 220.94546244 46.51285337 220.94546244 47.68639638 220.94586449 C51.53349078 220.94716951 55.38058519 220.94843322 59.22767961 220.94967639 C91.15179103 220.96004598 123.07589463 220.97766167 155 221 C154.97905273 219.8761792 154.95810547 218.7523584 154.93652344 217.59448242 C154.86346489 213.37700423 154.81796382 209.15958054 154.78027344 204.94165039 C154.76030657 203.12514807 154.73312313 201.30870879 154.69824219 199.49243164 C154.24415105 175.21858946 154.24415105 175.21858946 162.75 166.0625 C169.11781975 159.47062734 173.84354903 158.14455637 183 157 C182.67 142.15 182.34 127.3 182 112 C172.86110486 109.54652501 163.72219018 107.09312412 154.5830946 104.64039612 C153.68518357 104.39941696 152.78727255 104.15843781 151.8621521 103.91015625 C150.95971645 103.66796356 150.05728081 103.42577087 149.12749863 103.17623901 C146.38182686 102.43933225 143.63617784 101.7023408 140.89053345 100.96533203 C120.29520718 95.43715689 99.69815053 89.91558751 79.095047 84.41646004 C76.15922521 83.63282837 73.22346308 82.84897363 70.28771973 82.06504822 C68.35864376 81.54995285 66.42956662 81.03486188 64.50048828 80.51977539 C63.55600704 80.26758586 62.6115258 80.01539633 61.63842392 79.75556469 C56.98137882 78.51224259 52.32412774 77.26970148 47.66644287 76.02877808 C10.24421815 66.05819927 10.24421815 66.05819927 -7 61 C-7.0779255 68.34588623 -7.10727322 75.69028985 -7.07515812 83.03657055 C-7.06175819 86.44827041 -7.06488671 89.85826457 -7.10620117 93.26977539 C-7.15300181 97.19479804 -7.1271758 101.11774835 -7.09765625 105.04296875 C-7.12223404 106.26396774 -7.14681183 107.48496674 -7.1721344 108.7429657 C-7.11576216 112.06801768 -6.99867354 114.82637489 -6 118 C-3.26501661 120.51304308 -0.41085134 121.64496595 3 123 C5.33984375 125.24609375 5.33984375 125.24609375 6.9375 127.4375 C7.75541016 128.51837891 7.75541016 128.51837891 8.58984375 129.62109375 C12.75056051 136.64014224 12.8564274 144.05619889 12 152 C9.23056387 160.66307088 3.81583286 166.46681694 -4 171 C-11.72276628 173.97029472 -20.0065283 174.09826591 -27.765625 171.16796875 C-34.98243364 167.39554605 -40.29050919 161.67689063 -43 154 C-44.14849402 150.02324181 -44.5794685 146.11341022 -44 142 C-42.05083741 138.47651379 -40.87663766 137.29842984 -37.0625 136 C-33.4164602 136 -31.88618338 136.83536246 -29 139 C-26.71194223 141.28805777 -26.54417401 142.33275656 -25.9375 145.4375 C-25.41445483 148.06137121 -24.84906993 150.45279021 -24 153 C-20.30507984 155.0058138 -17.1598263 155.50936649 -13 155 C-8.77518254 152.7241177 -8.77518254 152.7241177 -6 149 C-5.64555177 144.67573165 -5.46683401 142.0905668 -7.375 138.1875 C-10.60927582 135.49227015 -13.49583405 134.76997571 -17.5625 133.87109375 C-20.66408732 132.76267392 -21.9500877 131.58318161 -24 129 C-24.48101807 125.93743896 -24.48101807 125.93743896 -24.45410156 122.30371094 C-24.45468567 121.63988403 -24.45526978 120.97605713 -24.45587158 120.29211426 C-24.45309265 118.10566262 -24.42201328 115.92058738 -24.390625 113.734375 C-24.38316184 112.21552271 -24.37746926 110.69666078 -24.37347412 109.17779541 C-24.35822341 105.18596675 -24.31894723 101.19472303 -24.2746582 97.203125 C-24.23369289 93.12768466 -24.21546046 89.05214952 -24.1953125 84.9765625 C-24.15245175 76.98410698 -24.08420804 68.99212632 -24 61 C-25.10537109 60.85828369 -26.21074219 60.71656738 -27.34960938 60.57055664 C-34.88081301 59.3934283 -40.76966085 54.04174705 -45.4921875 48.25390625 C-50.64855569 40.54607089 -52.17072393 32.12686821 -51 23 C-48.76675672 13.6153597 -44.13193186 5.32535646 -35.88671875 0.03125 C-25.05316051 -5.89019798 -10.70992926 -6.57241813 0 0 Z M-31.3125 19.5625 C-34.22383696 23.76776449 -34.77462744 28.0049886 -34 33 C-32.21710556 37.42125842 -29.70136734 40.88546256 -25.6875 43.5 C-20.27622687 45.70119585 -16.44542814 45.86309228 -10.8125 43.875 C-6.92803322 41.28535548 -4.11342979 38.22685959 -2 34 C-1.45639554 29.04517906 -1.43562926 25.12874148 -3.6875 20.625 C-6.85254874 17.03224197 -10.21201662 13.30587587 -15.171875 12.76171875 C-22.52795545 12.5499528 -26.26676467 13.97127977 -31.3125 19.5625 Z M15 34 C14.16235732 35.95649397 13.33000941 37.91525556 12.5 39.875 C12.0359375 40.96554688 11.571875 42.05609375 11.09375 43.1796875 C9.87947544 45.80661929 9.87947544 45.80661929 10 48 C74.8026978 65.43349751 74.8026978 65.43349751 139.61764526 82.82138062 C142.70643712 83.6488105 145.79507258 84.47682043 148.88357544 85.30532837 C152.47669396 86.26915591 156.07013175 87.23178304 159.66384315 88.19339752 C161.58838322 88.70866916 163.5126029 89.22513702 165.43681335 89.74163818 C166.56142471 90.04225159 167.68603607 90.34286499 168.84472656 90.65258789 C169.82330627 90.91471573 170.80188599 91.17684357 171.81011963 91.44691467 C173.78515154 92.04081246 173.78515154 92.04081246 175 92 C175.66 87.05 176.32 82.1 177 77 C171.14915933 75.00421056 165.30252596 73.1921328 159.32983398 71.60253906 C158.51037324 71.38208703 157.69091249 71.161635 156.84661961 70.9345026 C154.14712699 70.20897268 151.44662156 69.48729131 148.74609375 68.765625 C146.82439907 68.24992751 144.90276962 67.73398689 142.98120117 67.21781921 C137.85730449 65.84219328 132.73251834 64.46991097 127.60749435 63.09849167 C122.32199899 61.68375767 117.0371288 60.26669203 111.75219727 58.84985352 C105.43178137 57.15555801 99.11127959 55.46158583 92.79039001 53.76905823 C81.39443547 50.71721245 70.00126799 47.65544135 58.61309624 44.57468033 C54.06928467 43.34596743 49.52457054 42.12059621 44.98001099 40.89465332 C42.62871047 40.25935392 40.27785487 39.62240545 37.92745972 38.98376465 C34.74319116 38.11882139 31.55737452 37.25983906 28.37109375 36.40234375 C27.46206299 36.15361008 26.55303223 35.9048764 25.61645508 35.64860535 C24.79226074 35.4280397 23.96806641 35.20747406 23.11889648 34.98022461 C22.413452 34.78915634 21.70800751 34.59808807 20.98118591 34.40122986 C18.68349915 33.86767302 18.68349915 33.86767302 15 34 Z M194.5625 80.625 C191.29563592 85.59063341 191.28182861 90.14972743 192 96 C194.02550342 100.68135022 197.30046256 103.98591252 202 106 C206.9200976 107.29964842 210.45712 107.09486786 215.0703125 105.15625 C219.40862796 102.55677353 222.4137966 98.7586102 224 94 C224.39764225 88.7312402 223.92427667 85.43358076 221 81 C217.72472495 77.20103599 214.58010741 74.73293287 209.5625 73.875 C203.27451731 73.57455032 198.76180891 76.10266732 194.5625 80.625 Z M260 81 C260 127.2 260 173.4 260 221 C284.89026502 221.20985267 284.89026502 221.20985267 309.78076172 221.38793945 C314.62329102 221.43786621 314.62329102 221.43786621 316.8989563 221.4650116 C318.46930491 221.48103342 320.03971797 221.49140751 321.61013794 221.49711609 C333.67753666 221.54674187 344.36768127 221.86725332 354.0234375 229.90234375 C358.58008574 234.73815423 360.57043356 240.92608389 363 247 C371.25 247 379.5 247 388 247 C388 245.68 388 244.36 388 243 C387.42032471 242.98541748 386.84064941 242.97083496 386.2434082 242.95581055 C383.59912447 242.88101472 380.95605998 242.78446102 378.3125 242.6875 C376.94448242 242.65366211 376.94448242 242.65366211 375.54882812 242.61914062 C366.51294833 242.25770543 366.51294833 242.25770543 363 239 C359.00773786 232.87213911 359.54206592 226.10568618 359.60888672 218.98413086 C359.62499122 216.93861478 359.60897621 214.89506586 359.58984375 212.84960938 C359.59371094 211.54701172 359.59757812 210.24441406 359.6015625 208.90234375 C359.60494629 207.72148193 359.60833008 206.54062012 359.61181641 205.32397461 C360.04178508 201.64219882 361.23249308 199.22755774 363 196 C363 195.34 363 194.68 363 194 C367.91380889 191.45516424 372.90706847 191.55903325 378.3125 191.375 C381.509375 191.25125 384.70625 191.1275 388 191 C388 183.74 388 176.48 388 169 C385.86080078 168.99589111 383.72160156 168.99178223 381.51757812 168.98754883 C374.42872388 168.97030753 367.34022805 168.92573306 360.25159454 168.86790943 C355.95607093 168.83370138 351.66090062 168.80853915 347.36523438 168.80444336 C343.21518204 168.80014702 339.06592587 168.77157496 334.91612244 168.72656822 C333.33744453 168.71363563 331.75867114 168.70927047 330.1799469 168.71384621 C314.1147944 168.74954554 314.1147944 168.74954554 308 163 C305.9765625 160.7890625 305.9765625 160.7890625 304.625 158.625 C304.16351563 157.91601562 303.70203125 157.20703125 303.2265625 156.4765625 C299.69051311 149.3368959 299.71897231 142.66486653 299.76953125 134.828125 C299.76998947 133.66875427 299.77044769 132.50938354 299.7709198 131.31488037 C299.77393131 128.87413504 299.7817845 126.43339145 299.79418945 123.99267578 C299.81250511 120.24895459 299.81469855 116.50548018 299.81445312 112.76171875 C299.81936656 110.38801869 299.82519412 108.0143203 299.83203125 105.640625 C299.83314407 104.51875793 299.8342569 103.39689087 299.83540344 102.24102783 C299.84178329 101.20274841 299.84816315 100.16446899 299.85473633 99.09472656 C299.86045403 97.72408051 299.86045403 97.72408051 299.86628723 96.32574463 C300 94 300 94 301 91 C304.3686189 90.25035098 307.52556103 89.85836695 310.97387695 89.79467773 C311.93449539 89.77473251 312.89511383 89.75478729 313.88484192 89.73423767 C314.9089769 89.71752518 315.93311188 89.70081268 316.98828125 89.68359375 C318.57578438 89.6524221 318.57578438 89.6524221 320.19535828 89.62062073 C323.56767441 89.55536897 326.94006674 89.49635363 330.3125 89.4375 C332.60222134 89.3942916 334.89193505 89.35067657 337.18164062 89.30664062 C342.78768045 89.19971259 348.39379566 89.09790137 354 89 C353.1395861 84.66770285 353.1395861 84.66770285 351 81 C348.16955779 80.90478975 345.3636833 80.87447676 342.53295898 80.88647461 C341.63082955 80.88635407 340.72870012 80.88623354 339.79923344 80.88610935 C336.86482888 80.88685866 333.93048701 80.8944877 330.99609375 80.90234375 C329.19014517 80.90381311 327.38419616 80.90483386 325.57824707 80.90539551 C318.86465824 80.91064904 312.15107851 80.92461011 305.4375 80.9375 C282.9459375 80.9684375 282.9459375 80.9684375 260 81 Z M316 106 C315.9175 112.31125 315.835 118.6225 315.75 125.125 C315.71358398 127.1064502 315.67716797 129.08790039 315.63964844 131.12939453 C315.62795733 132.71385619 315.6177665 134.29832993 315.609375 135.8828125 C315.58891113 136.69419678 315.56844727 137.50558105 315.54736328 138.34155273 C315.54398814 143.86497241 316.48934636 146.70630406 320 151 C321.05202528 152.2758197 321.05202528 152.2758197 323.43605042 152.12025452 C324.51748825 152.11803391 325.59892609 152.11581329 326.71313477 152.11352539 C328.54492027 152.11341209 328.54492027 152.11341209 330.41371155 152.11329651 C331.75627686 152.10818911 333.09884175 152.10297311 334.44140625 152.09765625 C335.80761158 152.09579199 337.17381757 152.09436813 338.5400238 152.09336853 C342.14201695 152.08954394 345.74397 152.07971417 349.34594727 152.06866455 C353.01903745 152.05844916 356.69213409 152.05387064 360.36523438 152.04882812 C367.57684123 152.03809184 374.788415 152.02101614 382 152 C381.22136971 147.7173342 379.82652674 144.02197907 378.015625 140.08203125 C377.56941803 139.09610237 377.56941803 139.09610237 377.11419678 138.09025574 C376.48451071 136.70155141 375.85231614 135.31398214 375.21777344 133.92749023 C374.26207154 131.83888136 373.31393999 129.74697527 372.3671875 127.65429688 C371.75044708 126.29667181 371.13327268 124.9392438 370.515625 123.58203125 C370.23833557 122.97124222 369.96104614 122.36045319 369.675354 121.7311554 C367.23921 116.41529126 364.62031598 111.24063196 362 106 C346.82 106 331.64 106 316 106 Z M200 123 C200 134.22 200 145.44 200 157 C204.95 157 209.9 157 215 157 C215 145.78 215 134.56 215 123 C210.05 123 205.1 123 200 123 Z M176 177 C171.99548512 182.45245043 171.43143783 186.59333998 171.54589844 193.23999023 C171.54531433 194.13834091 171.54473022 195.03669159 171.54412842 195.96226501 C171.54689997 198.91144371 171.57794786 201.85959311 171.609375 204.80859375 C171.6168407 206.86124622 171.62253208 208.91390584 171.62652588 210.96656799 C171.64175626 216.35403317 171.6810159 221.74106305 171.7253418 227.12835693 C171.77356779 233.60030879 171.79184085 240.07240667 171.81515503 246.544487 C171.85386825 256.36329354 171.93054063 266.18114606 172 276 C195.43 276 218.86 276 243 276 C243 242.34 243 208.68 243 174 C232.873125 173.938125 222.74625 173.87625 212.3125 173.8125 C209.12118408 173.78518799 205.92986816 173.75787598 202.6418457 173.72973633 C200.11149474 173.72097423 197.58113955 173.71332964 195.05078125 173.70703125 C193.73766968 173.69168335 192.42455811 173.67633545 191.07165527 173.66052246 C189.81348999 173.66015991 188.55532471 173.65979736 187.2590332 173.65942383 C186.16871292 173.65276199 185.07839264 173.64610016 183.95503235 173.63923645 C180.43074184 174.06949758 178.7592063 174.75851859 176 177 Z M376 208 C376 213.94 376 219.88 376 226 C379.96 226 383.92 226 388 226 C388 220.06 388 214.12 388 208 C384.04 208 380.08 208 376 208 Z M-92 238 C-94.51796367 258.06515369 -94.51796367 258.06515369 -90 276 C-85.6308768 276.83565815 -81.18934867 276.7411944 -76.75 276.8125 C-75.52152344 276.88275391 -74.29304688 276.95300781 -73.02734375 277.02539062 C-69.42179074 277.08203257 -66.46908165 276.9983562 -63 276 C-60.74603817 273.65854464 -59.53215589 271.53041486 -58.21972656 268.56787109 C-53.58002984 258.79999076 -41.26883853 253.69438002 -31.62890625 250.12109375 C-18.26884618 246.50958413 -4.37079255 249.06378235 7.75 255.25 C14.77871333 259.48525034 20.12443792 264.25126352 24 271.5 C25.67798971 274.04864474 26.89578625 275.64165579 29.84765625 276.59960938 C34.90434571 277.51689098 40.0762421 277.60196963 45 276 C48.38474305 273.16842693 49.98763963 269.87166799 52 266 C59.68096748 256.37543004 71.0183178 250.97078616 83 249 C97.87196111 248.10699541 112.0119388 250.52663992 123.8046875 260.33203125 C128.96591105 265.31712996 132.08489349 269.73582958 136 276 C142.27 276 148.54 276 155 276 C155 263.46 155 250.92 155 238 C73.49 238 -8.02 238 -92 238 Z M260 238 C260 249.88 260 261.76 260 274 C262.78884576 270.52060536 262.78884576 270.52060536 265.53515625 267.0078125 C273.61247384 257.0506077 285.39085498 251.01369928 298 249 C314.07163929 247.84390331 327.82234393 251.66969533 340.1875 262.25 C342.66654826 264.43715369 344.65754379 266.22910147 346.01123047 269.27636719 C347.40311143 272.19373125 348.49716546 273.92391605 351 276 C356.14528325 277.06689011 361.06224434 277.04607642 366.29638672 276.84375 C368.75756136 276.74971109 371.21298334 276.72079002 373.67578125 276.703125 C375.23704984 276.67563182 376.79825968 276.64450972 378.359375 276.609375 C379.09581238 276.59662537 379.83224976 276.58387573 380.59100342 276.57073975 C382.87720439 276.50884425 382.87720439 276.50884425 386 276 C388.13586678 272.79619983 388.23132175 271.98060033 388.125 268.3125 C388.10695313 267.50425781 388.08890625 266.69601562 388.0703125 265.86328125 C388.04710937 265.24839844 388.02390625 264.63351562 388 264 C386.89487061 263.97494385 385.78974121 263.9498877 384.65112305 263.92407227 C380.55285956 263.82993491 376.45476306 263.72972959 372.35668945 263.62768555 C370.58264063 263.58436066 368.80855077 263.54268381 367.03442383 263.50268555 C364.48506295 263.4449238 361.9359082 263.38124638 359.38671875 263.31640625 C358.59287277 263.29969376 357.79902679 263.28298126 356.98112488 263.26576233 C353.75316923 263.17882282 351.08248901 263.02749634 348 262 C347.90203125 261.05898438 347.8040625 260.11796875 347.703125 259.1484375 C346.46835398 248.367009 346.46835398 248.367009 339.9375 240.1875 C335.97033576 237.75601224 332.26495227 237.86309534 327.7746582 237.88647461 C326.6767244 237.88625557 326.6767244 237.88625557 325.55661011 237.8860321 C323.13797031 237.8867286 320.71940759 237.89450872 318.30078125 237.90234375 C316.62355084 237.90420886 314.94631989 237.90563233 313.26908875 237.90663147 C308.85499568 237.9104493 304.44093553 237.92027334 300.02685547 237.93133545 C294.7304833 237.943364 289.43410012 237.94795531 284.1377182 237.95378876 C276.09178924 237.96348547 268.0459325 237.98264716 260 238 Z M-45 278 C-51.39159363 286.13202758 -53.00825292 294.80260654 -52 305 C-50.03456758 313.7444089 -45.81556309 321.44365705 -38.53515625 326.8203125 C-29.48815328 332.45258202 -21.62347365 333.93805507 -11 333 C-2.22821264 330.88515812 5.14353352 326.0037949 10.3125 318.625 C11.23950925 317.1018758 12.13772781 315.56068579 13 314 C13.51240234 313.07767578 13.51240234 313.07767578 14.03515625 312.13671875 C17.81262151 303.93171282 17.12389993 293.98188112 14.0625 285.6875 C9.44988549 275.96991325 1.93308715 269.84285237 -8 266 C-22.45755193 261.50015954 -35.27541114 267.36263385 -45 278 Z M64.05859375 277.1875 C58.3754895 284.5909594 55.48830574 292.73177087 56.0625 302.125 C57.66240441 312.45015627 62.12200268 320.10063588 70 327 C79.60785935 333.05350676 89.70668649 334.67679016 100.859375 332.421875 C110.19257614 329.15228225 117.0794882 322.43784148 121.5625 313.75 C125.68165408 304.92824225 126.06539079 296.7257916 123.0390625 287.51953125 C119.03726778 277.81593128 112.29024813 271.33358674 102.9921875 266.76171875 C89.04345761 261.42838085 73.72351447 266.29744848 64.05859375 277.1875 Z M278 278 C271.61265072 286.12662749 269.98073572 294.80735721 271 305 C273.18113952 314.31941431 277.50612973 321.78668405 285.375 327.3125 C286.8981242 328.23950925 288.43931421 329.13772781 290 330 C290.92232422 330.51240234 290.92232422 330.51240234 291.86328125 331.03515625 C299.60618037 334.59987426 309.49071646 334.28293791 317.375 331.375 C325.91082932 327.35896227 331.43294282 322.26623121 336 314 C336.51240234 313.07767578 336.51240234 313.07767578 337.03515625 312.13671875 C340.3642167 304.90568977 340.17912259 296.17302645 338.05078125 288.640625 C333.86575636 278.0262401 327.89238483 272.44152954 318 267 C302.94676194 260.70500954 288.42071779 266.60116429 278 278 Z " fill="#000000" transform="translate(108,83)"/>
<path d="M0 0 C5.8813709 4.15155593 9.64673505 9.48734462 11.19140625 16.546875 C12.15403769 23.78443733 11.02470887 30.28717338 7.19140625 36.546875 C2.17731121 42.14095864 -2.65933289 46.14728213 -10.296875 46.8828125 C-18.89854756 46.97067432 -25.13098794 46.7500786 -31.734375 40.81640625 C-37.06939435 35.2825663 -39.35678283 29.68847507 -40.18359375 22.109375 C-39.31509523 13.8586391 -37.18058892 7.11866613 -30.80859375 1.546875 C-21.477886 -5.07752358 -9.95556479 -5.68889416 0 0 Z M-21.80859375 17.546875 C-22.80526264 20.73621544 -23.11875703 22.61638517 -22.05859375 25.796875 C-20.75754503 27.83704665 -20.75754503 27.83704665 -17.80859375 29.546875 C-13.92383184 29.97066721 -11.70682594 30.16145492 -8.43359375 27.921875 C-6.37671319 24.91566496 -5.73534655 23.2092352 -5.80859375 19.546875 C-7.72191669 16.05088506 -7.72191669 16.05088506 -10.80859375 13.546875 C-15.77111191 12.51301705 -18.42756133 13.8760398 -21.80859375 17.546875 Z " fill="#000000" transform="translate(212.80859375,360.453125)"/>
<path d="M0 0 C4.70230045 3.70317618 8.79253079 7.97333951 10 14 C10.9691714 22.92944437 10.59547366 30.68284214 5 38 C-2.12223601 44.89248646 -8.78172411 46.46962514 -18.546875 46.31640625 C-25.74116872 45.6572006 -30.33649371 42.44075734 -35 37 C-40.26500974 29.83373674 -40.75217927 23.77173771 -40 15 C-38.2194114 7.28812642 -33.27341441 2.52526718 -27 -2 C-18.76771032 -6.3905545 -7.6448509 -4.9889622 0 0 Z M-23 18 C-23.83333333 21 -23.83333333 21 -23 24 C-20.36788535 27.66900829 -18.91145674 28.84009531 -14.4375 29.625 C-10.90866677 29.28624468 -10.90866677 29.28624468 -8.5625 26.875 C-6.70944161 23.46537255 -6.28411612 21.81804737 -7 18 C-9.45594125 14.67725596 -10.9256644 13.22381992 -15 12.375 C-19.0743356 13.22381992 -20.54405875 14.67725596 -23 18 Z " fill="#000000" transform="translate(105,361)"/>
<path d="M0 0 C4.91399927 3.20683254 9.56884286 7.47054234 11.59375 13.125 C13.27847547 21.53371827 13.00351473 29.70096036 8.66015625 37.203125 C4.87002966 42.15944439 -0.05363384 45.41237522 -5.96484375 47.328125 C-15.41882509 48.29950182 -22.45329505 47.73513257 -29.89453125 41.78515625 C-36.08008295 36.17709382 -38.05295153 30.70153075 -38.46484375 22.453125 C-38.25861218 15.35158562 -36.05257867 9.79724285 -31.3203125 4.48046875 C-22.53996395 -3.58635261 -10.72393445 -5.52739997 0 0 Z M-20.96484375 19.328125 C-21.79817708 22.328125 -21.79817708 22.328125 -20.96484375 25.328125 C-19.02792006 28.34846237 -19.02792006 28.34846237 -15.96484375 30.328125 C-11.97435654 30.95820193 -9.94798518 30.95834387 -6.52734375 28.765625 C-4.33462488 25.34498357 -4.33476682 23.31861221 -4.96484375 19.328125 C-7.41083262 15.94690509 -8.85780934 14.55875717 -12.96484375 13.703125 C-17.03917935 14.55194492 -18.5089025 16.00538096 -20.96484375 19.328125 Z " fill="#000000" transform="translate(425.96484375,359.671875)"/>
<path d="M0 0 C0.79019531 -0.020625 1.58039063 -0.04125 2.39453125 -0.0625 C7.36661248 -0.09559205 10.86408815 0.39841603 15.125 3.25 C16.6875 6.5625 16.6875 6.5625 17.125 10.25 C15.07954545 15.77272727 15.07954545 15.77272727 12.125 17.25 C8.00659744 17.57309216 3.87950628 17.57441585 -0.25 17.625 C-1.39984375 17.66238281 -2.5496875 17.69976562 -3.734375 17.73828125 C-12.19377352 17.8270162 -12.19377352 17.8270162 -15.6328125 14.9140625 C-17.15441526 11.65075093 -17.46840297 9.81041784 -16.875 6.25 C-13.99474801 1.62102358 -13.99474801 1.62102358 -10.99169922 0.62597656 C-7.33734111 -0.02312511 -3.70288646 0.02392818 0 0 Z " fill="#000000" transform="translate(396.875,261.75)"/>
</svg>
