<?xml version="1.0" encoding="UTF-8"?>
<!DOCTYPE svg PUBLIC "-//W3C//DTD SVG 1.1//EN" "http://www.w3.org/Graphics/SVG/1.1/DTD/svg11.dtd">
<svg xmlns="http://www.w3.org/2000/svg" version="1.1" width="512px" height="512px" style="shape-rendering:geometricPrecision; text-rendering:geometricPrecision; image-rendering:optimizeQuality; fill-rule:evenodd; clip-rule:evenodd" xmlns:xlink="http://www.w3.org/1999/xlink">
<g><path style="opacity:1" fill="#e73024" d="M 290.5,54.5 C 281.111,46.1131 272.445,37.1131 264.5,27.5C 269.285,20.8761 274.285,14.3761 279.5,8C 284.526,6.50628 288.692,7.67295 292,11.5C 292.092,25.8461 291.592,40.1794 290.5,54.5 Z"/></g>
<g><path style="opacity:1" fill="#e73924" d="M 264.5,27.5 C 272.445,37.1131 281.111,46.1131 290.5,54.5C 289.677,66.8234 289.01,79.1567 288.5,91.5C 283.443,86.4382 278.11,81.7715 272.5,77.5C 272.791,65.7474 273.291,54.0807 274,42.5C 268.969,49.0222 263.803,55.3555 258.5,61.5C 254.102,58.1053 250.436,54.1053 247.5,49.5C 252.408,41.5902 258.075,34.2569 264.5,27.5 Z"/></g>
<g><path style="opacity:1" fill="#e7421f" d="M 247.5,49.5 C 250.436,54.1053 254.102,58.1053 258.5,61.5C 253.592,69.4098 247.925,76.7431 241.5,83.5C 237.833,79.1667 233.833,75.1667 229.5,71.5C 235.152,63.8515 241.152,56.5181 247.5,49.5 Z"/></g>
<g><path style="opacity:1" fill="#e73f1f" d="M 272.5,77.5 C 278.11,81.7715 283.443,86.4382 288.5,91.5C 288.5,92.1667 288.5,92.8333 288.5,93.5C 295.004,98.309 301.338,104.309 307.5,111.5C 296.064,111.956 284.731,111.456 273.5,110C 271.083,107.521 270.083,104.521 270.5,101C 270.993,93.0951 271.66,85.2618 272.5,77.5 Z"/></g>
<g><path style="opacity:1" fill="#ea4e1e" d="M 229.5,71.5 C 233.833,75.1667 237.833,79.1667 241.5,83.5C 233.731,94.0528 225.731,104.386 217.5,114.5C 213.435,110.441 209.768,106.107 206.5,101.5C 214.167,91.5 221.833,81.5 229.5,71.5 Z"/></g>
<g><path style="opacity:1" fill="#e73824" d="M 288.5,93.5 C 309.663,94.3319 330.996,94.8319 352.5,95C 359.463,97.2801 361.296,101.78 358,108.5C 350.303,118.355 342.469,128.022 334.5,137.5C 330.441,133.435 326.107,129.768 321.5,126.5C 325.288,121.54 329.288,116.707 333.5,112C 324.84,111.5 316.173,111.334 307.5,111.5C 301.338,104.309 295.004,98.309 288.5,93.5 Z"/></g>
<g><path style="opacity:1" fill="#ed561e" d="M 206.5,101.5 C 209.768,106.107 213.435,110.441 217.5,114.5C 214.305,119.569 210.638,124.235 206.5,128.5C 202.167,124.833 198.167,120.833 194.5,116.5C 198.271,111.278 202.271,106.278 206.5,101.5 Z"/></g>
<g><path style="opacity:1" fill="#ec5e1d" d="M 194.5,116.5 C 198.167,120.833 202.167,124.833 206.5,128.5C 205.34,130.203 206.007,130.869 208.5,130.5C 213.297,135.798 218.297,140.965 223.5,146C 222.263,146.232 221.263,146.732 220.5,147.5C 208.829,147.667 197.162,147.5 185.5,147C 180.076,144.983 178.242,141.15 180,135.5C 184.369,128.738 189.202,122.405 194.5,116.5 Z"/></g>
<g><path style="opacity:1" fill="#ec531e" d="M 208.5,130.5 C 227.593,130.025 246.593,130.525 265.5,132C 267.742,133.986 268.742,136.486 268.5,139.5C 266.832,153.51 265.166,167.51 263.5,181.5C 262.732,182.263 262.232,183.263 262,184.5C 256.536,179.546 251.702,174.212 247.5,168.5C 248.716,161.566 249.716,154.566 250.5,147.5C 240.5,147.5 230.5,147.5 220.5,147.5C 221.263,146.732 222.263,146.232 223.5,146C 218.297,140.965 213.297,135.798 208.5,130.5 Z"/></g>
<g><path style="opacity:1" fill="#e7421f" d="M 321.5,126.5 C 326.107,129.768 330.441,133.435 334.5,137.5C 329.182,144.814 323.516,151.814 317.5,158.5C 313.167,154.833 309.167,150.833 305.5,146.5C 310.484,139.52 315.817,132.854 321.5,126.5 Z"/></g>
<g><path style="opacity:1" fill="#e94c1e" d="M 305.5,146.5 C 309.167,150.833 313.167,154.833 317.5,158.5C 309.516,169.147 301.182,179.48 292.5,189.5C 288.833,185.167 284.833,181.167 280.5,177.5C 288.484,166.853 296.818,156.52 305.5,146.5 Z"/></g>
<g><path style="opacity:1" fill="#ed6f18" d="M 166.5,152.5 C 175.606,150.779 179.773,154.446 179,163.5C 170.547,174.954 161.714,186.121 152.5,197C 142.298,198.47 138.465,194.303 141,184.5C 149.714,173.959 158.214,163.292 166.5,152.5 Z"/></g>
<g><path style="opacity:1" fill="#ed5b1e" d="M 247.5,168.5 C 251.702,174.212 256.536,179.546 262,184.5C 262.232,183.263 262.732,182.263 263.5,181.5C 262.665,187.503 262.165,193.503 262,199.5C 268.031,191.976 274.198,184.643 280.5,177.5C 284.833,181.167 288.833,185.167 292.5,189.5C 284.728,199.391 276.728,209.057 268.5,218.5C 261.593,210.088 254.093,202.088 246,194.5C 245.617,195.056 245.117,195.389 244.5,195.5C 245.909,186.562 246.909,177.562 247.5,168.5 Z"/></g>
<g><path style="opacity:1" fill="#ed621a" d="M 220.5,197.5 C 216.167,193.833 212.167,189.833 208.5,185.5C 212.95,179.21 217.617,173.043 222.5,167C 233.323,163.117 237.823,166.617 236,177.5C 231.352,184.638 226.185,191.305 220.5,197.5 Z"/></g>
<g><path style="opacity:1" fill="#ed6a19" d="M 208.5,185.5 C 212.167,189.833 216.167,193.833 220.5,197.5C 217.38,201.792 214.047,205.959 210.5,210C 201.39,212.216 197.223,208.716 198,199.5C 201.277,194.586 204.777,189.92 208.5,185.5 Z"/></g>
<g><path style="opacity:1" fill="#ed6419" d="M 268.5,218.5 C 264.115,225.063 259.115,231.23 253.5,237C 246.104,239.141 241.77,236.474 240.5,229C 242.235,217.884 243.568,206.717 244.5,195.5C 245.117,195.389 245.617,195.056 246,194.5C 254.093,202.088 261.593,210.088 268.5,218.5 Z"/></g>
<g><path style="opacity:1" fill="#f28218" d="M 124.5,233.5 C 120.167,230.167 115.833,226.833 111.5,223.5C 115.214,217.607 119.547,212.107 124.5,207C 135.03,205.192 138.863,209.359 136,219.5C 131.925,224.065 128.091,228.732 124.5,233.5 Z"/></g>
<g><path style="opacity:1" fill="#f38a13" d="M 111.5,223.5 C 115.833,226.833 120.167,230.167 124.5,233.5C 120.427,239.747 115.76,245.581 110.5,251C 101.355,253.179 97.1886,249.679 98,240.5C 102.038,234.4 106.538,228.733 111.5,223.5 Z"/></g>
<g><path style="opacity:1" fill="#ee7a18" d="M 172.5,258.5 C 169.232,253.893 165.565,249.559 161.5,245.5C 167.946,237.454 174.279,229.287 180.5,221C 185.729,218.379 190.229,219.212 194,223.5C 194.817,226.964 194.483,230.298 193,233.5C 186.148,241.904 179.315,250.237 172.5,258.5 Z"/></g>
<g><path style="opacity:1" fill="#f38418" d="M 161.5,245.5 C 165.565,249.559 169.232,253.893 172.5,258.5C 170.042,264.207 165.709,266.041 159.5,264C 155.723,261.045 154.557,257.212 156,252.5C 157.697,249.98 159.53,247.647 161.5,245.5 Z"/></g>
<g><path style="opacity:1" fill="#ed7318" d="M 224.5,279.5 C 220.435,275.441 216.768,271.107 213.5,266.5C 218.206,258.947 223.54,251.78 229.5,245C 241.667,241.167 245.833,245.333 242,257.5C 235.922,264.733 230.089,272.066 224.5,279.5 Z"/></g>
<g><path style="opacity:1" fill="#ed7c18" d="M 213.5,266.5 C 216.768,271.107 220.435,275.441 224.5,279.5C 222.633,283.052 219.966,285.886 216.5,288C 207.884,289.717 204.051,286.217 205,277.5C 207.315,273.362 210.148,269.695 213.5,266.5 Z"/></g>
<g><path style="opacity:1" fill="#f39a11" d="M 77.5,293.5 C 73.5,289.833 69.5,286.167 65.5,282.5C 70.1148,275.459 75.1148,268.626 80.5,262C 90.5884,258.427 95.0884,261.927 94,272.5C 89.0175,279.974 83.5175,286.974 77.5,293.5 Z"/></g>
<g><path style="opacity:1" fill="#f38e12" d="M 140.5,300.5 C 135.5,297.5 131.5,293.5 128.5,288.5C 131.206,283.614 134.539,279.114 138.5,275C 147.941,271.456 152.441,274.623 152,284.5C 148.723,290.27 144.89,295.603 140.5,300.5 Z"/></g>
<g><path style="opacity:1" fill="#f3a211" d="M 65.5,282.5 C 69.5,286.167 73.5,289.833 77.5,293.5C 74.7146,297.458 71.7146,301.291 68.5,305C 59.3895,307.216 55.2228,303.716 56,294.5C 58.6499,290.025 61.8166,286.025 65.5,282.5 Z"/></g>
<g><path style="opacity:1" fill="#f39711" d="M 128.5,288.5 C 131.5,293.5 135.5,297.5 140.5,300.5C 136,305.838 131.667,311.338 127.5,317C 122.094,320.748 117.594,319.915 114,314.5C 113.333,311.833 113.333,309.167 114,306.5C 118.613,300.247 123.446,294.247 128.5,288.5 Z"/></g>
<g><path style="opacity:1" fill="#f38814" d="M 189.5,324.5 C 185.441,320.435 181.107,316.768 176.5,313.5C 179.794,308.427 183.46,303.594 187.5,299C 197.536,295.368 202.036,298.868 201,309.5C 197.334,314.661 193.501,319.661 189.5,324.5 Z"/></g>
<g><path style="opacity:1" fill="#ed6918" d="M 325.5,302.5 C 331.167,308.5 336.833,314.5 342.5,320.5C 337.87,319.771 333.203,319.437 328.5,319.5C 328.5,322.167 328.5,324.833 328.5,327.5C 327.732,328.263 327.232,329.263 327,330.5C 317.964,321.632 309.131,312.632 300.5,303.5C 308.695,302.136 317.028,301.802 325.5,302.5 Z"/></g>
<g><path style="opacity:1" fill="#ec6419" d="M 325.5,302.5 C 337.024,302.357 348.357,303.691 359.5,306.5C 366.777,315.113 374.443,323.447 382.5,331.5C 369.608,326.277 356.275,322.61 342.5,320.5C 336.833,314.5 331.167,308.5 325.5,302.5 Z"/></g>
<g><path style="opacity:1" fill="#ed6f18" d="M 300.5,303.5 C 309.131,312.632 317.964,321.632 327,330.5C 327.232,329.263 327.732,328.263 328.5,327.5C 328.5,337.5 328.5,347.5 328.5,357.5C 323.202,352.703 318.035,347.703 313,342.5C 312.768,343.737 312.268,344.737 311.5,345.5C 311.5,336.833 311.5,328.167 311.5,319.5C 304.758,319.511 298.092,320.178 291.5,321.5C 287.167,316.5 282.5,311.833 277.5,307.5C 284.84,304.998 292.507,303.665 300.5,303.5 Z"/></g>
<g><path style="opacity:1" fill="#ed7518" d="M 277.5,307.5 C 282.5,311.833 287.167,316.5 291.5,321.5C 284.682,322.662 278.015,324.329 271.5,326.5C 267.103,322.108 263.103,317.442 259.5,312.5C 265.26,310.025 271.26,308.358 277.5,307.5 Z"/></g>
<g><path style="opacity:1" fill="#ed5c1e" d="M 359.5,306.5 C 373.446,309.476 386.78,314.143 399.5,320.5C 425.116,347.783 451.45,374.45 478.5,400.5C 485.652,413.281 490.652,426.948 493.5,441.5C 485.868,434.369 478.368,427.036 471,419.5C 470.517,420.448 470.351,421.448 470.5,422.5C 468.108,418.044 465.942,413.377 464,408.5C 462.586,407.587 461.086,407.587 459.5,408.5C 455.833,404.167 451.833,400.167 447.5,396.5C 449.769,395.024 452.102,393.524 454.5,392C 442.333,373.167 426.833,357.667 408,345.5C 405.991,347.522 404.491,349.855 403.5,352.5C 399.799,347.799 395.466,343.799 390.5,340.5C 391.028,339.279 391.695,338.113 392.5,337C 389.233,334.87 385.9,333.037 382.5,331.5C 374.443,323.447 366.777,315.113 359.5,306.5 Z"/></g>
<g><path style="opacity:1" fill="#ee7d18" d="M 259.5,312.5 C 263.103,317.442 267.103,322.108 271.5,326.5C 263.84,328.72 256.507,331.72 249.5,335.5C 246.437,330.928 242.77,326.761 238.5,323C 239.056,322.617 239.389,322.117 239.5,321.5C 245.754,317.742 252.421,314.742 259.5,312.5 Z"/></g>
<g><path style="opacity:1" fill="#f39111" d="M 176.5,313.5 C 181.107,316.768 185.441,320.435 189.5,324.5C 185.055,329.879 180.721,335.379 176.5,341C 165.964,344.997 161.464,341.497 163,330.5C 167.364,324.646 171.864,318.979 176.5,313.5 Z"/></g>
<g><path style="opacity:1" fill="#f7ae0c" d="M 42.5,338.5 C 37.8927,335.232 33.5594,331.565 29.5,327.5C 32.3707,323.606 35.3707,319.773 38.5,316C 48.5739,312.447 53.0739,315.947 52,326.5C 49.0546,330.751 45.888,334.751 42.5,338.5 Z"/></g>
<g><path style="opacity:1" fill="#ed571e" d="M 399.5,320.5 C 434.576,338.576 460.909,365.242 478.5,400.5C 451.45,374.45 425.116,347.783 399.5,320.5 Z"/></g>
<g><path style="opacity:1" fill="#f28318" d="M 239.5,321.5 C 239.389,322.117 239.056,322.617 238.5,323C 242.77,326.761 246.437,330.928 249.5,335.5C 248.522,335.811 247.855,336.478 247.5,337.5C 255.512,351.527 263.512,365.527 271.5,379.5C 271.631,380.239 271.464,380.906 271,381.5C 254.298,364.965 237.798,348.299 221.5,331.5C 227.205,327.647 233.205,324.314 239.5,321.5 Z"/></g>
<g><path style="opacity:1" fill="#f9b60b" d="M 29.5,327.5 C 33.5594,331.565 37.8927,335.232 42.5,338.5C 37.3814,345.458 32.0481,352.291 26.5,359C 16.4234,361.701 12.2568,357.868 14,347.5C 19.3818,340.958 24.5485,334.291 29.5,327.5 Z"/></g>
<g><path style="opacity:1" fill="#f3a610" d="M 93.5,360.5 C 89.4406,356.435 85.1073,352.768 80.5,349.5C 85.6186,342.542 90.9519,335.709 96.5,329C 102.616,325.957 107.116,327.457 110,333.5C 110.667,335.167 110.667,336.833 110,338.5C 104.668,345.993 99.168,353.327 93.5,360.5 Z"/></g>
<g><path style="opacity:1" fill="#ed6318" d="M 390.5,340.5 C 395.466,343.799 399.799,347.799 403.5,352.5C 399.819,358.536 396.152,364.536 392.5,370.5C 388.472,366.141 384.472,361.807 380.5,357.5C 383.581,351.669 386.915,346.002 390.5,340.5 Z"/></g>
<g><path style="opacity:1" fill="#ed7618" d="M 328.5,357.5 C 328.5,362.833 328.5,368.167 328.5,373.5C 335.271,373.851 341.938,374.851 348.5,376.5C 372.449,402.117 397.116,427.117 422.5,451.5C 424.841,457.843 426.175,464.51 426.5,471.5C 430.5,471.5 434.5,471.5 438.5,471.5C 439.952,472.302 441.618,472.802 443.5,473C 448.703,478.035 453.703,483.202 458.5,488.5C 443.403,488.967 428.403,488.467 413.5,487C 411.513,485.681 410.346,483.848 410,481.5C 407.275,433.617 382.775,403.617 336.5,391.5C 328.5,382.833 320.167,374.5 311.5,366.5C 311.5,359.5 311.5,352.5 311.5,345.5C 312.268,344.737 312.768,343.737 313,342.5C 318.035,347.703 323.202,352.703 328.5,357.5 Z"/></g>
<g><path style="opacity:1" fill="#f38f11" d="M 206.5,342.5 C 210.806,346.14 214.806,350.14 218.5,354.5C 214.193,358.472 209.859,362.472 205.5,366.5C 201.441,362.435 197.107,358.768 192.5,355.5C 197.141,351.195 201.807,346.861 206.5,342.5 Z"/></g>
<g><path style="opacity:1" fill="#f5af0c" d="M 80.5,349.5 C 85.1073,352.768 89.4406,356.435 93.5,360.5C 91.0493,364.124 88.3826,367.624 85.5,371C 76.3037,375.391 71.4703,372.557 71,362.5C 73.6991,357.744 76.8658,353.411 80.5,349.5 Z"/></g>
<g><path style="opacity:1" fill="#f38913" d="M 221.5,331.5 C 237.798,348.299 254.298,364.965 271,381.5C 271.464,380.906 271.631,380.239 271.5,379.5C 272.674,380.514 273.34,381.847 273.5,383.5C 277.31,388.654 281.976,392.654 287.5,395.5C 281.245,398.296 275.245,401.629 269.5,405.5C 265.435,401.441 261.768,397.107 258.5,392.5C 250.238,376.812 241.571,361.312 232.5,346C 231.833,345.333 231.167,345.333 230.5,346C 226.646,349.089 222.646,351.922 218.5,354.5C 214.806,350.14 210.806,346.14 206.5,342.5C 211.219,338.447 216.219,334.78 221.5,331.5 Z"/></g>
<g><path style="opacity:1" fill="#f39611" d="M 192.5,355.5 C 197.107,358.768 201.441,362.435 205.5,366.5C 200.823,371.874 196.157,377.207 191.5,382.5C 188.87,380.372 186.37,378.039 184,375.5C 182.179,373.854 181.013,371.854 180.5,369.5C 184.155,364.514 188.155,359.847 192.5,355.5 Z"/></g>
<g><path style="opacity:1" fill="#ed6918" d="M 380.5,357.5 C 384.472,361.807 388.472,366.141 392.5,370.5C 389.92,376.668 386.586,382.335 382.5,387.5C 379.604,383.095 376.104,379.095 372,375.5C 371.329,376.252 370.496,376.586 369.5,376.5C 373.419,370.33 377.086,363.997 380.5,357.5 Z"/></g>
<g><path style="opacity:1" fill="#f3a011" d="M 141.5,385.5 C 138.232,380.893 134.565,376.559 130.5,372.5C 135.285,365.876 140.285,359.376 145.5,353C 157.934,350.103 161.767,354.603 157,366.5C 151.969,373.022 146.803,379.356 141.5,385.5 Z"/></g>
<g><path style="opacity:1" fill="#f39c11" d="M 180.5,369.5 C 181.013,371.854 182.179,373.854 184,375.5C 186.37,378.039 188.87,380.372 191.5,382.5C 189.526,385.482 187.526,388.482 185.5,391.5C 198.494,400 211.827,408 225.5,415.5C 225.369,416.239 225.536,416.906 226,417.5C 231.713,422.743 237.213,428.076 242.5,433.5C 239.56,439.046 236.894,444.713 234.5,450.5C 229.806,446.473 225.473,442.14 221.5,437.5C 222.728,435.99 222.728,434.49 221.5,433C 216.603,430.392 211.937,427.559 207.5,424.5C 194.833,411.5 182.167,398.5 169.5,385.5C 172.393,379.612 176.06,374.278 180.5,369.5 Z"/></g>
<g><path style="opacity:1" fill="#f3a810" d="M 130.5,372.5 C 134.565,376.559 138.232,380.893 141.5,385.5C 138.475,391.276 133.975,395.276 128,397.5C 120.758,395.76 118.425,391.426 121,384.5C 123.65,380.025 126.817,376.025 130.5,372.5 Z"/></g>
<g><path style="opacity:1" fill="#ed6f18" d="M 382.5,387.5 C 381.782,389.137 381.616,390.803 382,392.5C 392.376,399.876 401.043,408.876 408,419.5C 408.816,418.177 409.983,417.511 411.5,417.5C 412.552,417.351 413.552,417.517 414.5,418C 418.439,421.429 421.772,425.263 424.5,429.5C 421.978,431.172 419.312,432.672 416.5,434C 419.597,439.459 421.597,445.292 422.5,451.5C 397.116,427.117 372.449,402.117 348.5,376.5C 354.01,378.393 359.51,380.393 365,382.5C 367.076,380.925 368.576,378.925 369.5,376.5C 370.496,376.586 371.329,376.252 372,375.5C 376.104,379.095 379.604,383.095 382.5,387.5 Z"/></g>
<g><path style="opacity:1" fill="#f18018" d="M 311.5,366.5 C 320.167,374.5 328.5,382.833 336.5,391.5C 319.839,388.573 303.505,389.906 287.5,395.5C 281.976,392.654 277.31,388.654 273.5,383.5C 285.438,377.523 298.105,374.189 311.5,373.5C 311.5,371.167 311.5,368.833 311.5,366.5 Z"/></g>
<g><path style="opacity:1" fill="#f3a211" d="M 169.5,385.5 C 182.167,398.5 194.833,411.5 207.5,424.5C 197.06,419.112 186.727,413.445 176.5,407.5C 174.873,409.765 173.539,412.099 172.5,414.5C 167.77,410.773 163.77,406.44 160.5,401.5C 162.491,395.511 165.491,390.177 169.5,385.5 Z"/></g>
<g><path style="opacity:1" fill="#f38e12" d="M 258.5,392.5 C 261.768,397.107 265.435,401.441 269.5,405.5C 264.833,409.167 260.167,412.833 255.5,416.5C 251.5,412.833 247.5,409.167 243.5,405.5C 247.589,400.075 252.589,395.742 258.5,392.5 Z"/></g>
<g><path style="opacity:1" fill="#ed6319" d="M 447.5,396.5 C 451.833,400.167 455.833,404.167 459.5,408.5C 454.335,412.586 448.668,415.92 442.5,418.5C 437.5,415.5 433.5,411.5 430.5,406.5C 435.967,402.929 441.633,399.596 447.5,396.5 Z"/></g>
<g><path style="opacity:1" fill="#f3a710" d="M 160.5,401.5 C 163.77,406.44 167.77,410.773 172.5,414.5C 170.146,420.576 167.812,426.576 165.5,432.5C 161.167,428.5 156.833,424.5 152.5,420.5C 154.013,413.613 156.68,407.28 160.5,401.5 Z"/></g>
<g><path style="opacity:1" fill="#f9b40c" d="M 106.5,430.5 C 102.435,426.441 98.7683,422.107 95.5,417.5C 97.7832,412.776 101.117,408.943 105.5,406C 114.858,405.352 118.358,409.519 116,418.5C 112.589,422.399 109.422,426.399 106.5,430.5 Z"/></g>
<g><path style="opacity:1" fill="#f39511" d="M 243.5,405.5 C 247.5,409.167 251.5,412.833 255.5,416.5C 250.752,421.906 246.419,427.573 242.5,433.5C 237.213,428.076 231.713,422.743 226,417.5C 225.536,416.906 225.369,416.239 225.5,415.5C 227.624,417.174 229.958,418.007 232.5,418C 235.288,413.047 238.954,408.88 243.5,405.5 Z"/></g>
<g><path style="opacity:1" fill="#ed6918" d="M 430.5,406.5 C 433.5,411.5 437.5,415.5 442.5,418.5C 436.536,422.152 430.536,425.819 424.5,429.5C 421.772,425.263 418.439,421.429 414.5,418C 413.552,417.517 412.552,417.351 411.5,417.5C 417.57,413.442 423.903,409.775 430.5,406.5 Z"/></g>
<g><path style="opacity:1" fill="#f9ba0b" d="M 95.5,417.5 C 98.7683,422.107 102.435,426.441 106.5,430.5C 102.729,435.722 98.7294,440.722 94.5,445.5C 94.6495,444.448 94.4828,443.448 94,442.5C 90.2271,439.236 87.0604,435.57 84.5,431.5C 87.6954,426.431 91.3621,421.765 95.5,417.5 Z"/></g>
<g><path style="opacity:1" fill="#ed6318" d="M 493.5,441.5 C 496.142,452.639 497.475,463.972 497.5,475.5C 492.136,469.136 486.136,463.469 479.5,458.5C 477.438,446.252 474.438,434.252 470.5,422.5C 470.351,421.448 470.517,420.448 471,419.5C 478.368,427.036 485.868,434.369 493.5,441.5 Z"/></g>
<g><path style="opacity:1" fill="#f7af0c" d="M 152.5,420.5 C 156.833,424.5 161.167,428.5 165.5,432.5C 163.449,440.753 161.783,449.087 160.5,457.5C 154.686,453.029 150.019,447.696 146.5,441.5C 147.314,434.069 149.314,427.069 152.5,420.5 Z"/></g>
<g><path style="opacity:1" fill="#fac20b" d="M 84.5,431.5 C 87.0604,435.57 90.2271,439.236 94,442.5C 94.4828,443.448 94.6495,444.448 94.5,445.5C 90.1785,452.463 85.0118,453.13 79,447.5C 76.7333,440.801 78.5667,435.468 84.5,431.5 Z"/></g>
<g><path style="opacity:1" fill="#f28118" d="M 350.5,460.5 C 346.5,456.833 342.5,453.167 338.5,449.5C 342.963,444.535 347.63,439.702 352.5,435C 362.641,432.137 366.808,435.97 365,446.5C 360.298,451.37 355.465,456.037 350.5,460.5 Z"/></g>
<g><path style="opacity:1" fill="#f3a211" d="M 221.5,437.5 C 225.473,442.14 229.806,446.473 234.5,450.5C 232.397,457.347 231.064,464.347 230.5,471.5C 225.26,467.767 220.426,463.434 216,458.5C 215.617,459.056 215.117,459.389 214.5,459.5C 216.036,451.894 218.369,444.561 221.5,437.5 Z"/></g>
<g><path style="opacity:1" fill="#f9b60c" d="M 146.5,441.5 C 150.019,447.696 154.686,453.029 160.5,457.5C 159.686,462.119 159.353,466.786 159.5,471.5C 165.833,471.5 172.167,471.5 178.5,471.5C 177.737,472.268 176.737,472.768 175.5,473C 180.703,478.035 185.703,483.202 190.5,488.5C 176.163,488.667 161.829,488.5 147.5,488C 142.743,485.654 140.743,481.821 141.5,476.5C 141.798,464.495 143.464,452.828 146.5,441.5 Z"/></g>
<g><path style="opacity:1" fill="#f28813" d="M 338.5,449.5 C 342.5,453.167 346.5,456.833 350.5,460.5C 347.704,463.797 344.704,466.964 341.5,470C 342.991,472.621 343.658,475.455 343.5,478.5C 335.444,471.445 328.11,463.779 321.5,455.5C 324.424,456.586 327.424,457.086 330.5,457C 333.036,454.295 335.703,451.795 338.5,449.5 Z"/></g>
<g><path style="opacity:1" fill="#f38e12" d="M 321.5,455.5 C 328.11,463.779 335.444,471.445 343.5,478.5C 344.317,486.402 341.651,492.735 335.5,497.5C 331.833,493.5 328.167,489.5 324.5,485.5C 328.364,478.984 326.698,474.651 319.5,472.5C 317.089,473.361 315.089,474.694 313.5,476.5C 310.232,471.893 306.565,467.559 302.5,463.5C 307.567,458.135 313.9,455.469 321.5,455.5 Z"/></g>
<g><path style="opacity:1" fill="#f3a810" d="M 230.5,471.5 C 229.994,476.235 229.161,480.902 228,485.5C 226.266,487.451 224.099,488.451 221.5,488.5C 215.527,483.194 209.86,477.527 204.5,471.5C 207.5,471.5 210.5,471.5 213.5,471.5C 213.505,467.466 213.838,463.466 214.5,459.5C 215.117,459.389 215.617,459.056 216,458.5C 220.426,463.434 225.26,467.767 230.5,471.5 Z"/></g>
<g><path style="opacity:1" fill="#ed6918" d="M 479.5,458.5 C 486.136,463.469 492.136,469.136 497.5,475.5C 499.126,483.291 496.126,487.624 488.5,488.5C 487.048,487.698 485.382,487.198 483.5,487C 478.297,481.965 473.297,476.798 468.5,471.5C 472.5,471.5 476.5,471.5 480.5,471.5C 480.261,467.158 479.927,462.824 479.5,458.5 Z"/></g>
<g><path style="opacity:1" fill="#f39611" d="M 302.5,463.5 C 306.565,467.559 310.232,471.893 313.5,476.5C 312.575,484.9 316.241,487.9 324.5,485.5C 328.167,489.5 331.833,493.5 335.5,497.5C 331.236,502.037 325.903,504.037 319.5,503.5C 304.811,502.645 296.811,494.812 295.5,480C 295.547,473.418 297.881,467.918 302.5,463.5 Z"/></g>
<g><path style="opacity:1" fill="#f5af0b" d="M 178.5,471.5 C 187.167,471.5 195.833,471.5 204.5,471.5C 209.86,477.527 215.527,483.194 221.5,488.5C 211.167,488.5 200.833,488.5 190.5,488.5C 185.703,483.202 180.703,478.035 175.5,473C 176.737,472.768 177.737,472.268 178.5,471.5 Z"/></g>
<g><path style="opacity:1" fill="#ec7018" d="M 438.5,471.5 C 448.5,471.5 458.5,471.5 468.5,471.5C 473.297,476.798 478.297,481.965 483.5,487C 485.382,487.198 487.048,487.698 488.5,488.5C 478.5,488.5 468.5,488.5 458.5,488.5C 453.703,483.202 448.703,478.035 443.5,473C 441.618,472.802 439.952,472.302 438.5,471.5 Z"/></g>
</svg>
