<?xml version="1.0" encoding="UTF-8"?>
<svg version="1.1" xmlns="http://www.w3.org/2000/svg" width="512" height="512">
<path d="M0 0 C1.25036812 -0.00445784 2.50073625 -0.00891569 3.78899431 -0.01350862 C5.16872439 -0.01341933 6.54845446 -0.01322951 7.92818451 -0.01294994 C9.40006466 -0.01625146 10.8719439 -0.01997763 12.343822 -0.02409142 C16.38500212 -0.03408683 20.42616739 -0.03782425 24.46735811 -0.04048073 C28.82748575 -0.04439109 33.1876017 -0.05396889 37.54772186 -0.0626936 C48.0755964 -0.08243714 58.60347187 -0.09252144 69.13136029 -0.10142139 C74.09260193 -0.10580766 79.05384251 -0.11117358 84.01508331 -0.11641026 C100.5131966 -0.13342026 117.01130923 -0.14791372 133.50942993 -0.155159 C137.78878531 -0.1570688 142.06814068 -0.15898915 146.34749603 -0.16094494 C147.94285813 -0.16167055 147.94285813 -0.16167055 149.57044977 -0.16241082 C166.79393669 -0.17070851 184.01735411 -0.19604205 201.24081069 -0.22852562 C218.93480381 -0.26162381 236.62876163 -0.27961024 254.32278585 -0.28280324 C264.25284481 -0.28496575 274.18280239 -0.29367655 284.11283112 -0.31926441 C292.57080311 -0.34100911 301.0286491 -0.3490033 309.48664588 -0.33929763 C313.79828785 -0.33476387 318.10967003 -0.33658504 322.42127609 -0.35605907 C326.37688738 -0.37377009 330.33205089 -0.37262943 334.28766745 -0.35716178 C335.71034431 -0.35479768 337.13305284 -0.35904637 338.55568153 -0.37099043 C355.72944538 -0.50611919 369.13929642 4.01766847 381.89730072 15.57172108 C385.87156133 19.72346063 388.6230881 24.05098139 391.20980072 29.13422108 C391.53617523 29.77416004 391.86254974 30.41409901 392.19881439 31.07343006 C396.85607797 40.90240076 397.00211496 50.98441827 396.97049713 61.68849659 C396.97352213 63.14804345 396.97741335 64.60758872 396.9820897 66.06713122 C396.99233361 70.05562449 396.99019712 74.0440275 396.9859091 78.03252804 C396.98343529 82.34280775 396.99246419 86.65306609 396.99994659 90.9633379 C397.01267762 99.39924624 397.01448926 107.83512272 397.01214633 116.27103905 C397.01036116 123.13043734 397.01211709 129.98982599 397.01637077 136.84922314 C397.01696596 137.82659272 397.01756115 138.8039623 397.01817438 139.81094914 C397.01938617 141.7966773 397.0206003 143.78240545 397.02181675 145.7681336 C397.03268623 164.37884999 397.03053266 182.98954824 397.02443191 201.60026564 C397.01926379 218.61076805 397.03051649 235.62121317 397.04953013 252.63170425 C397.06892129 270.11451088 397.07716225 287.59729042 397.07340688 305.08010787 C397.07149671 314.88876651 397.07396437 324.69737641 397.08812141 334.50602627 C397.10005251 342.85669047 397.10142076 351.20727592 397.08933125 359.55794124 C397.08345458 363.81475756 397.08230942 368.07142996 397.09433365 372.32823658 C397.10523313 376.23238522 397.10204121 380.13627049 397.08807196 384.04040702 C397.08543616 385.44544441 397.08775611 386.8505027 397.09580783 388.25551949 C397.18796804 405.55120726 393.61916893 420.29667072 381.39730072 433.07172108 C368.35389926 445.26446592 354.12856093 448.76590673 336.51592255 448.63542652 C335.03570814 448.63932936 333.55549751 448.64497761 332.07529557 448.65219742 C328.04819405 448.66682884 324.02148847 448.65684513 319.99440026 448.6424607 C315.63580252 448.63128418 311.27725732 448.64331538 306.91866302 448.65230274 C298.39669865 448.66619129 289.87488309 448.65871188 281.35292588 448.64362716 C271.41840724 448.6267153 261.48392513 448.62998378 251.54939653 448.63372124 C233.81914322 448.63959163 216.08896106 448.62545969 198.3587265 448.60077381 C181.17250147 448.57684822 163.98637145 448.56977344 146.80013275 448.580266 C128.06116567 448.59168611 109.32224247 448.59359231 90.58327591 448.5791679 C88.58363287 448.57764214 86.58398982 448.57612179 84.58434677 448.5746069 C83.60061367 448.57384908 82.61688057 448.57309127 81.60333737 448.57231049 C74.6858143 448.56757669 67.76831088 448.56941263 60.85078812 448.57367229 C52.41710444 448.57860878 43.98351043 448.57257066 35.54984723 448.552778 C31.25060458 448.54293534 26.95149821 448.53776808 22.65224838 448.54567051 C18.71067493 448.55276707 14.76937549 448.54583066 10.82783796 448.52806688 C9.40813828 448.52404805 7.9884133 448.52497872 6.56872331 448.53158575 C-10.71020901 448.60506747 -24.30146972 444.58663623 -37.00113678 432.55218983 C-45.99747974 423.04922687 -51.40282041 412.07410979 -51.42442036 398.90180683 C-51.4288782 397.63887948 -51.43333604 396.37595212 -51.43792897 395.07475424 C-51.43783969 393.67567189 -51.43764985 392.27658954 -51.4373703 390.87750721 C-51.44067079 389.38927823 -51.44439676 387.90105015 -51.44851178 386.4128232 C-51.45851889 382.32184684 -51.4622465 378.23088516 -51.46490109 374.1398983 C-51.46880799 369.72796539 -51.47838609 365.31604405 -51.48711395 360.90411854 C-51.50686791 350.24828136 -51.51694342 339.59244325 -51.52584174 328.93659234 C-51.53022657 323.91644399 -51.53559289 318.8962967 -51.54083061 313.87614918 C-51.55784216 297.18420347 -51.57233569 280.49225841 -51.57957935 263.80030537 C-51.5814892 259.4695533 -51.58340953 255.13880124 -51.5853653 250.8080492 C-51.58584904 249.7316842 -51.58633278 248.65531919 -51.58683117 247.54633707 C-51.59512909 230.11518256 -51.62046233 212.68409672 -51.65294597 195.25297219 C-51.68603652 177.34996328 -51.70402994 159.44698925 -51.70722359 141.5439496 C-51.70938689 131.4948596 -51.71810907 121.44586974 -51.74368477 111.39680958 C-51.76541905 102.83740924 -51.77342878 94.27813338 -51.76371799 85.71870857 C-51.75918114 81.35454174 -51.76102355 76.99063157 -51.78047943 72.62650013 C-51.79816822 68.62402548 -51.79706751 64.62199365 -51.78158214 60.61951393 C-51.77921469 59.17865558 -51.78348445 57.7377661 -51.79541079 56.29695517 C-51.92132476 40.06810877 -47.69400238 26.78577772 -36.47769928 14.82172108 C-26.47174239 5.3941432 -13.7121437 0.02275794 0 0 Z M-27.07535553 30.27093983 C-30.6016613 35.23549316 -32.73957527 40.26730784 -34.29019928 46.13422108 C-34.51707428 46.93859608 -34.74394928 47.74297108 -34.97769928 48.57172108 C-35.29584491 51.18051524 -35.32033206 53.66731858 -35.30973053 56.29437733 C-35.30691071 57.19937977 -35.30409088 58.10438221 -35.30118561 59.03680897 C-35.29756012 59.72895496 -35.29393463 60.42110096 -35.29019928 61.13422108 C-9.6235396 61.16666327 16.04312316 61.18577517 41.70980072 61.19672108 C42.69762496 61.19715538 43.68544919 61.19758968 44.70320749 61.19803715 C121.51897756 61.23085429 198.33249865 60.98555248 275.14730072 60.63422108 C276.45556824 60.62824736 277.76383575 60.62227365 279.11174774 60.61611891 C312.64446825 60.46285839 346.17715225 60.30249959 379.70980072 60.13422108 C379.75236131 58.08752972 379.78246243 56.04057731 379.80745697 53.99359608 C379.82558441 52.85374256 379.84371185 51.71388905 379.86238861 50.53949451 C379.45022444 41.34130916 375.08611864 33.59588168 368.70980072 27.13422108 C358.14181546 18.00490272 347.75503058 16.6828323 334.14206696 16.74654102 C332.68109254 16.74236213 331.22012138 16.73688158 329.75915617 16.73022121 C325.7667639 16.71582079 321.77457902 16.7199943 317.78217566 16.72738802 C313.46783446 16.7321308 309.15353742 16.7196001 304.83921051 16.70937061 C296.3959396 16.69219933 287.95274316 16.69133909 279.50945932 16.69658352 C272.64527242 16.70062935 265.78110748 16.69917675 258.91692162 16.69383526 C257.93897459 16.69308684 256.96102756 16.69233841 255.95344577 16.69156731 C253.96658615 16.6900358 251.97972654 16.68849745 249.99286693 16.68695235 C231.37266465 16.6732335 212.75250442 16.67866081 194.13230311 16.69013756 C177.10749758 16.7000706 160.08280073 16.68712693 143.05801196 16.66320337 C125.56390897 16.63880608 108.06985659 16.62920597 90.57573694 16.63585609 C80.75930428 16.63934674 70.94295519 16.63712635 61.12653542 16.61960506 C52.77066781 16.60487529 44.41494264 16.60425788 36.05907781 16.62167598 C31.79842072 16.63018169 27.53801801 16.63234603 23.27737427 16.61702442 C19.3720222 16.60315463 15.46714191 16.60796952 11.56181698 16.62726366 C10.15412466 16.63101697 8.74639434 16.62812104 7.33873595 16.61765201 C-6.33566702 16.52323791 -18.00147841 19.41008472 -27.07535553 30.27093983 Z M-35.29019928 78.13422108 C-35.33599535 118.33090227 -35.37122795 158.52758006 -35.39232994 198.72428213 C-35.3948313 203.47184972 -35.39741995 208.21941724 -35.40006256 212.96698475 C-35.40058718 213.91212422 -35.4011118 214.85726368 -35.40165232 215.83104374 C-35.41035057 231.12665538 -35.42611736 246.42225195 -35.44450487 261.71785466 C-35.46322005 277.41716911 -35.47431943 293.11647569 -35.47837627 308.81580085 C-35.48111797 318.50001736 -35.48977176 328.18419129 -35.50603221 337.8683947 C-35.51661905 344.51277776 -35.51979605 351.15713886 -35.51720203 357.80152974 C-35.51592339 361.63270077 -35.51785821 365.4637975 -35.52861023 369.29495525 C-35.54020132 373.45564354 -35.53616126 377.61617466 -35.53070831 381.7768755 C-35.536534 382.97826485 -35.54235968 384.1796542 -35.5483619 385.4174493 C-35.50309366 398.2193173 -33.84915828 410.78669066 -24.93082428 420.69281483 C-15.0975331 429.3320635 -6.1487434 431.4415925 6.52313995 431.37473011 C8.30233136 431.37729338 8.30233136 431.37729338 10.11746603 431.37990844 C13.39676475 431.3826268 16.6759042 431.37640034 19.9551841 431.36635232 C23.49633463 431.35769709 27.03747804 431.36063945 30.57863617 431.36215687 C36.70961951 431.36320441 42.84056021 431.35694149 48.97153282 431.34568119 C57.83583023 431.32941141 66.70010707 431.32421667 75.56441779 431.32170521 C89.9469562 431.31733042 104.3294719 431.3040272 118.71199799 431.28509998 C132.68139787 431.26673558 146.65079159 431.25258181 160.62020111 431.24408436 C161.9123051 431.24329619 161.9123051 431.24329619 163.23051219 431.24249209 C167.55201431 431.23988198 171.87351646 431.23735457 176.19501865 431.23486829 C212.03329538 431.21414254 247.87154628 431.1789229 283.70980072 431.13422108 C282.23567534 427.35990383 280.55034321 423.86824339 278.58480072 420.32172108 C278.0459726 419.34590076 277.50714447 418.37008045 276.95198822 417.36468983 C276.54206635 416.62863514 276.13214447 415.89258045 275.70980072 415.13422108 C274.84558947 415.13275586 274.84558947 415.13275586 273.9639194 415.13126105 C239.83532979 415.07301943 205.70681189 414.99924578 171.57830225 414.9052348 C167.4826497 414.89396631 163.38699681 414.88282791 159.29134369 414.87176991 C158.0682608 414.86846438 158.0682608 414.86846438 156.82046917 414.86509208 C143.60883456 414.82969649 130.3972 414.80484513 117.18553552 414.78387406 C103.63436947 414.76213 90.08326508 414.72909291 76.53215146 414.68551952 C68.16689244 414.65897869 59.80171029 414.64130125 51.43641123 414.63487504 C45.70404235 414.62962856 39.97177027 414.61343665 34.23945323 414.58855542 C30.92961423 414.5745148 27.61998372 414.56699853 24.31011009 414.56921291 C20.72485328 414.57085475 17.14013742 414.55425909 13.55495453 414.53294849 C12.50437701 414.53779607 11.45379949 414.54264365 10.37138629 414.54763812 C9.4124551 414.53818158 8.45352392 414.52872504 7.46553421 414.51898193 C6.63774389 414.51708333 5.80995357 414.51518473 4.9570787 414.5132286 C2.14110331 414.03830922 0.77594289 413.08119562 -1.29019928 411.13422108 C-2.31528805 408.05895476 -2.42288114 405.93838799 -2.43546295 402.71649647 C-2.4418428 401.60847172 -2.44822266 400.50044697 -2.45479584 399.35884571 C-2.45590866 398.16194614 -2.45702148 396.96504658 -2.45816803 395.73187733 C-2.46316063 393.88800686 -2.46316063 393.88800686 -2.46825409 392.00688648 C-2.47332051 389.40521081 -2.4756625 386.80352863 -2.47550201 384.20184803 C-2.47538038 380.2163388 -2.49584784 376.23101301 -2.51480865 372.2455492 C-2.51774258 369.72015953 -2.51972738 367.19476853 -2.52066803 364.66937733 C-2.52785355 363.47450199 -2.53503906 362.27962666 -2.54244232 361.04854298 C-2.53936569 359.93736607 -2.53628906 358.82618916 -2.5331192 357.68134022 C-2.53454422 356.70443729 -2.53596924 355.72753437 -2.53743744 354.72102833 C-2.27119927 351.93542744 -1.93963865 350.3951991 -0.29019928 348.13422108 C3.87323834 345.96332681 7.77976243 345.85598393 12.3723526 345.89371204 C13.13616546 345.89200319 13.89997833 345.89029434 14.68693703 345.88853371 C17.24193612 345.88524396 19.7966716 345.89623396 22.35164642 345.9071703 C24.18487288 345.90773452 26.01809979 345.90741763 27.85132599 345.90628529 C32.82611744 345.90571122 37.80081255 345.91747438 42.7755816 345.9314332 C47.97526324 345.94393146 53.17494707 345.94511035 58.37464142 345.94748402 C68.22013513 345.95370144 78.06558445 345.97011583 87.9110586 345.990183 C99.12014492 346.01253381 110.32923335 346.02353337 121.5383364 346.03357387 C144.59551578 346.05448181 167.65265577 346.08966292 190.70980072 346.13422108 C191.59545658 343.4772535 191.85482692 341.85232025 191.91512299 339.12176991 C191.93506821 338.32116642 191.95501343 337.52056293 191.97556305 336.69569874 C191.99227554 335.83623142 192.00898804 334.97676411 192.02620697 334.09125233 C192.05737862 332.7658569 192.05737862 332.7658569 192.08917999 331.4136858 C192.15455826 328.59144323 192.213506 325.76910773 192.27230072 322.94672108 C192.31549709 321.03330001 192.35911174 319.11988834 192.4031601 317.2064867 C192.51022768 312.51582671 192.61152824 307.82507324 192.70980072 303.13422108 C191.73943249 303.13275452 190.76906425 303.13128796 189.76929092 303.12977695 C166.17591701 303.09320856 142.58268534 303.03379401 118.98942947 302.95031834 C107.57997395 302.91048123 96.17058786 302.87811249 84.76107025 302.86322498 C74.81842846 302.85023266 64.87593915 302.82333005 54.93338323 302.77960801 C49.66712716 302.75693869 44.40105956 302.74131367 39.13475037 302.74233723 C34.18035985 302.74308061 29.22638681 302.72525963 24.27210426 302.69305325 C22.45161402 302.68451783 20.63107715 302.68282887 18.81057549 302.68841839 C16.32855476 302.69502528 13.84787527 302.67721879 11.36598969 302.65320301 C10.64225182 302.66096343 9.91851396 302.66872385 9.17284465 302.67671943 C5.78124946 302.61845126 3.99588743 302.35181161 1.26261425 300.27295113 C-0.78415421 297.45388424 -0.79135848 295.68721911 -0.79190826 292.21991444 C-0.80128922 291.02865452 -0.81067017 289.8373946 -0.82033539 288.6100359 C-0.80910141 287.32766544 -0.79786743 286.04529499 -0.78629303 284.72406483 C-0.78774826 283.40507694 -0.78920349 282.08608906 -0.79070282 280.72713184 C-0.79208571 277.93871527 -0.77954683 275.15081377 -0.75675201 272.36249256 C-0.72833911 268.78888236 -0.73111316 265.21612591 -0.74384212 261.64245224 C-0.75246848 258.23206682 -0.73735618 254.82193582 -0.72379303 251.41156483 C-0.72672867 250.12717014 -0.72966431 248.84277546 -0.7326889 247.51945972 C-0.72000473 246.33135197 -0.70732056 245.14324421 -0.69425201 243.91913319 C-0.68884903 242.87196629 -0.68344604 241.82479939 -0.67787933 240.74590015 C-0.29019928 238.13422108 -0.29019928 238.13422108 0.75828934 236.4959116 C3.74407821 234.41254153 6.80911916 234.71230934 10.3216629 234.73549366 C11.10418468 234.72884683 11.88670645 234.72220001 12.69294101 234.71535176 C15.32328504 234.69665248 17.95317696 234.69933166 20.58358002 234.70184803 C22.46577857 234.69283509 24.34797122 234.68250903 26.23015594 234.67096424 C31.34759905 234.64331315 36.46493103 234.63409874 41.58243918 234.62811017 C46.92765722 234.61874756 52.27279155 234.59254595 57.61795807 234.56810474 C67.74326667 234.52437777 77.8685591 234.4958689 87.9939335 234.47278136 C99.51982936 234.44576287 111.04564128 234.40184933 122.57147729 234.35649264 C146.28420631 234.26355761 169.99696165 234.19191747 193.70980072 234.13422108 C195.23098705 231.09184843 195.0449149 227.90941776 195.23323822 224.54437733 C195.70980072 222.13422108 195.70980072 222.13422108 196.74886322 220.31781483 C200.0059385 218.3518909 203.0945563 218.35151661 206.70980072 219.13422108 C208.94286346 220.52495289 208.94286346 220.52495289 211.32308197 222.37152576 C234.01677444 239.57549121 261.56762022 235.96629518 288.69850922 235.45288563 C298.02504777 235.28407902 307.35398694 235.25608276 316.68172455 235.20325184 C321.63170538 235.17485207 326.5796165 235.11398027 331.52889252 235.0266161 C333.76627767 234.99763486 336.00366369 234.96872076 338.24105072 234.93988514 C339.26318161 234.91488438 340.2853125 234.88988361 341.33841705 234.86412525 C342.27114944 234.854986 343.20388184 234.84584675 344.16487885 234.83643055 C344.97509491 234.82155724 345.78531097 234.80668392 346.62007904 234.7913599 C349.25339537 235.22340879 350.12096423 236.02454729 351.70980072 238.13422108 C352.0772934 240.75262928 352.0772934 240.75262928 352.06624603 243.93500233 C352.07074768 245.7220055 352.07074768 245.7220055 352.07534027 247.54510975 C352.05682007 249.47640736 352.05682007 249.47640736 352.03792572 251.44672108 C352.03486725 252.78045915 352.0329918 254.11420041 352.03224945 255.44794178 C352.0276481 258.24225573 352.01322975 261.03628122 351.99105072 263.83051014 C351.96276848 267.41177469 351.9518389 270.99281212 351.94736862 274.57417774 C351.94321084 277.32796976 351.93339037 280.08171591 351.92149353 282.8354845 C351.91302763 284.79809523 351.9065255 286.76071411 351.9000473 288.72333241 C351.89043976 289.91466785 351.88083221 291.1060033 351.87093353 292.33343983 C351.86069153 293.90871449 351.86069153 293.90871449 351.85024261 295.51581287 C351.70980072 298.13422108 351.70980072 298.13422108 350.70980072 301.13422108 C351.74040619 301.7142992 351.74040619 301.7142992 352.79183197 302.30609608 C354.143414 303.08726795 354.143414 303.08726795 355.52230072 303.88422108 C356.41562103 304.39468983 357.30894135 304.90515858 358.22933197 305.43109608 C360.73835577 307.15382738 362.18768364 308.51110598 363.70980072 311.13422108 C363.64730072 314.69672108 363.64730072 314.69672108 362.70980072 318.13422108 C359.68421784 321.03929768 356.72884309 321.83582424 352.68782806 322.72821522 C351.4733197 323.00182377 350.25881134 323.27543232 349.00749969 323.55733204 C348.03906191 323.76804938 348.03906191 323.76804938 347.05105972 323.98302364 C345.02337198 324.42424417 342.9986964 324.87746813 340.9743576 325.33379078 C337.40952247 326.13530045 333.84242318 326.92615488 330.27443695 327.71350574 C324.55622399 328.97541772 318.83998978 330.24580684 313.12690353 331.53073406 C311.13068499 331.97686079 309.13258541 332.41371479 307.13420868 332.85005665 C305.92600464 333.12051304 304.7178006 333.39096943 303.47298431 333.66962147 C301.87225571 334.02244946 301.87225571 334.02244946 300.23918915 334.38240528 C297.56891469 334.95754997 297.56891469 334.95754997 295.70980072 337.13422108 C297.03152389 340.15229152 298.45865201 342.71146841 300.70980072 345.13422108 C303.94426948 346.28422702 307.02411301 346.16118803 310.42855072 346.06390858 C311.36404755 346.07004169 312.29954437 346.07617481 313.26338959 346.08249378 C316.24691246 346.09540367 319.22664339 346.05447149 322.20980072 346.00922108 C325.19205504 345.99574631 328.17393676 345.99347074 331.15621185 346.00021839 C333.00936804 346.00099642 334.86259195 345.98827825 336.71553802 345.96036243 C344.89177905 345.90272971 344.89177905 345.90272971 348.70980072 348.13422108 C350.97661566 351.53444349 350.96628148 352.74434815 350.98445892 356.73553944 C350.99399094 357.88360569 351.00352295 359.03167194 351.01334381 360.21452808 C351.0119767 362.07549877 351.0119767 362.07549877 351.01058197 363.97406483 C351.0148671 365.2477039 351.01915222 366.52134296 351.0235672 367.83357716 C351.02931542 370.5295535 351.0307403 373.22514759 351.02547455 375.92108631 C351.01968122 379.3723825 351.03660803 382.82314179 351.05981922 386.27434921 C351.07811202 389.57008377 351.07437097 392.86578863 351.07308197 396.16156483 C351.08229172 397.40018772 351.09150146 398.63881062 351.1009903 399.91496754 C351.09164711 401.64179516 351.09164711 401.64179516 351.08211517 403.40350819 C351.0827446 404.4159409 351.08337402 405.4283736 351.08402252 406.47148609 C350.65167604 409.54780099 349.87921701 410.93533676 347.70980072 413.13422108 C345.132164 413.42621326 345.132164 413.42621326 342.03011322 413.18109608 C324.79760996 412.42617597 315.30110897 415.04320274 302.31917572 426.57172108 C301.08678526 427.7288208 299.87217428 428.90680357 298.70980072 430.13422108 C298.70980072 430.46422108 298.70980072 430.79422108 298.70980072 431.13422108 C305.77144158 431.2362945 312.83288964 431.30596738 319.89510345 431.35394764 C322.29361328 431.37396616 324.6920749 431.40118941 327.09041595 431.43597889 C330.55350954 431.48492721 334.01595352 431.50728839 337.47933197 431.52484608 C339.06751488 431.55581379 339.06751488 431.55581379 340.68778229 431.58740711 C351.40750834 431.59058159 360.83254677 428.5775585 368.70980072 421.13422108 C377.49595837 412.2400369 380.14108648 401.28150588 380.22612596 389.0284211 C380.21447459 387.81340269 380.20282322 386.59838428 380.19081879 385.34654713 C380.19256783 384.00713838 380.19607883 382.667731 380.20117545 381.32833081 C380.21003411 377.68621571 380.1942393 374.0445795 380.17406321 370.40252531 C380.15666949 366.46065967 380.16264327 362.51881758 380.1656723 358.57692432 C380.16776219 351.76009969 380.15529127 344.94342908 380.13272095 338.12664318 C380.10011015 328.27093561 380.08978468 318.41530195 380.08476898 308.55954627 C380.07603052 292.56641071 380.0494544 276.5733571 380.01155853 260.580266 C379.97480084 245.05129879 379.94650751 229.52235391 379.92952728 213.99335194 C379.92795094 212.55575618 379.92795094 212.55575618 379.92634276 211.08911809 C379.92112233 206.28076553 379.91606756 201.47241282 379.91109514 196.66406 C379.86967826 156.820723 379.79926946 116.97747747 379.70980072 77.13422108 C349.22571439 77.11074752 318.74162989 77.09338963 288.25753651 77.08315575 C284.55176454 77.08190694 280.84599259 77.08061244 277.14022064 77.07928944 C276.03486806 77.07889597 276.03486806 77.07889597 274.90718511 77.07849456 C264.79769056 77.07480304 254.68820026 77.0687291 244.57870843 77.06048675 C226.95964599 77.04612467 209.34058805 77.03725923 191.72151947 77.03656483 C191.0146774 77.03652626 190.30783533 77.03648768 189.57957381 77.03644794 C114.62109728 77.03371499 39.6657795 77.56415046 -35.29019928 78.13422108 Z M210.70980072 241.13422108 C210.31232027 253.95908961 209.92082356 266.78412686 209.53634644 279.60939217 C209.3575183 285.56884796 209.17685738 291.52823478 208.991539 297.48749256 C208.14636371 324.70977557 207.43518629 351.89722241 207.70980072 379.13422108 C213.15819932 374.56407567 213.15819932 374.56407567 218.18245697 369.54047108 C219.05644135 368.59313099 219.05644135 368.59313099 219.94808197 367.62665272 C220.55007416 366.96915028 221.15206635 366.31164783 221.77230072 365.63422108 C223.08475299 364.2254103 224.39858791 362.8178865 225.71370697 361.41156483 C227.69491886 359.2913544 229.67574078 357.17088585 231.65071869 355.04486561 C233.48766659 353.07944 235.34532082 351.13600331 237.20980072 349.19672108 C237.76031097 348.59988514 238.31082123 348.0030492 238.87801361 347.38812733 C242.60677757 343.55947064 245.1701503 342.32800861 250.70980072 342.13422108 C253.02230072 342.25922108 253.02230072 342.25922108 254.70980072 343.13422108 C255.40046322 344.79108786 256.06287592 346.45979266 256.70980072 348.13422108 C257.60329777 349.84207881 258.52745822 351.5341111 259.47542572 353.21234608 C260.02891693 354.19614246 260.58240814 355.17993885 261.15267181 356.19354725 C261.74902435 357.24646961 262.34537689 358.29939198 262.95980072 359.38422108 C264.22813815 361.63546217 265.49636407 363.88676609 266.76448822 366.13812733 C267.42299523 367.30496896 268.08152398 368.47179833 268.74007416 369.63861561 C271.2702766 374.12491079 273.78172195 378.62166598 276.29427338 383.11786366 C281.71593716 392.81904906 287.16261542 402.50416957 292.70980072 412.13422108 C297.6152345 410.57723827 301.08930308 407.70098435 305.02230072 404.50922108 C305.99006439 403.73578358 305.99006439 403.73578358 306.97737885 402.94672108 C308.55918112 401.68127925 310.13509135 400.40847845 311.70980072 399.13422108 C310.28559472 395.32460044 308.53071189 391.89018139 306.50667572 388.36468983 C305.8625473 387.2397411 305.21841888 386.11479237 304.55477142 384.95575428 C303.85655894 383.74434585 303.15823279 382.53300292 302.45980072 381.32172108 C301.74239993 380.0720783 301.02519854 378.82232103 300.30818939 377.5724535 C295.02227468 368.36873536 289.68769715 359.1933161 284.31624603 350.03925037 C282.7739253 347.40813684 281.238803 344.77309404 279.70980072 342.13422108 C279.22052094 341.2914159 278.73124115 340.44861073 278.2271347 339.580266 C277.77282074 338.78338367 277.31850677 337.98650135 276.85042572 337.16547108 C276.44984955 336.46615467 276.04927338 335.76683826 275.63655853 335.04633045 C274.26185125 332.21000078 274.06676984 330.20647973 274.70980072 327.13422108 C277.65682888 323.48483951 280.1506267 322.41950884 284.67073822 321.38812733 C285.85498383 321.11057606 287.03922943 320.83302479 288.25936127 320.54706287 C290.1529538 320.12614368 290.1529538 320.12614368 292.08480072 319.69672108 C293.38695336 319.39574653 294.68879131 319.09340735 295.9903183 318.78973866 C302.13327007 317.36412664 308.29060878 316.00338283 314.44808197 314.64203358 C315.4588681 314.4170116 316.46965424 314.19198963 317.51107025 313.96014881 C319.39953519 313.54242458 321.28980341 313.13275089 323.18196869 312.73212147 C324.02002045 312.54899403 324.8580722 312.36586658 325.72151947 312.17718983 C326.44814789 312.02274403 327.17477631 311.86829823 327.92342377 311.70917225 C329.93737368 311.21095633 329.93737368 311.21095633 331.70980072 309.13422108 C327.56512879 306.75719144 323.41918585 304.38238716 319.27230072 302.00922108 C318.64166718 301.64830372 318.01103363 301.28738636 317.36128998 300.91553211 C308.58814276 295.89695927 299.78956211 290.92772311 290.95980072 286.00922108 C281.82039043 280.91517087 272.76617215 275.69057582 263.74373627 270.39252186 C255.43325264 265.52502107 247.04104089 260.81334157 238.62361908 256.1337328 C231.56247744 252.19970828 224.56955888 248.16758998 217.65731049 243.97699451 C214.41329817 241.8472815 214.41329817 241.8472815 210.70980072 241.13422108 Z M15.70980072 251.13422108 C15.70980072 262.68422108 15.70980072 274.23422108 15.70980072 286.13422108 C74.11980072 286.13422108 132.52980072 286.13422108 192.70980072 286.13422108 C193.39517055 274.48293401 193.70980072 262.80564868 193.70980072 251.13422108 C134.96980072 251.13422108 76.22980072 251.13422108 15.70980072 251.13422108 Z M264.70980072 251.13422108 C267.86531627 253.50085774 270.83144617 255.42944026 274.24105072 257.36468983 C275.34843597 257.99568592 276.45582123 258.62668201 277.59676361 259.2767992 C279.41810203 260.30867376 281.240325 261.33897019 283.06279755 262.36884022 C284.97561362 263.44985022 286.88783269 264.53190469 288.79964447 265.61468983 C289.44896439 265.9822237 290.0982843 266.34975758 290.76728058 266.72842884 C294.71080459 268.96983442 298.61936019 271.26107205 302.50353241 273.60377979 C304.98848768 275.10145458 307.48356787 276.58180225 309.97933197 278.06137562 C311.16138318 278.76867086 312.33848318 279.4843168 313.51009369 280.20877552 C315.15836653 281.22669553 316.8264853 282.21225839 318.49495697 283.19672108 C319.43218597 283.76519764 320.36941498 284.3336742 321.33504486 284.91937733 C325.83697935 286.75517584 325.83697935 286.75517584 335.70980072 286.13422108 C335.70980072 274.58422108 335.70980072 263.03422108 335.70980072 251.13422108 C312.27980072 251.13422108 288.84980072 251.13422108 264.70980072 251.13422108 Z M13.70980072 362.13422108 C13.70980072 374.01422108 13.70980072 385.89422108 13.70980072 398.13422108 C71.78980072 398.13422108 129.86980072 398.13422108 189.70980072 398.13422108 C190.37569771 386.14807523 190.70980072 374.13884981 190.70980072 362.13422108 C132.29980072 362.13422108 73.88980072 362.13422108 13.70980072 362.13422108 Z M310.70980072 362.13422108 C314.90384584 369.86679288 319.17983754 377.54665767 323.52230072 385.19672108 C324.67508315 387.22902439 325.82744896 389.2615641 326.97933197 391.29437733 C327.48053558 392.17746571 327.9817392 393.06055408 328.4981308 393.97040272 C329.26597872 395.34163709 330.00696729 396.72855422 330.70980072 398.13422108 C332.02980072 398.13422108 333.34980072 398.13422108 334.70980072 398.13422108 C334.70980072 386.25422108 334.70980072 374.37422108 334.70980072 362.13422108 C326.78980072 362.13422108 318.86980072 362.13422108 310.70980072 362.13422108 Z M245.70980072 364.13422108 C243.90962853 366.02913917 242.14768102 367.94405036 240.39730072 369.88422108 C236.17252064 374.52260707 231.86488364 379.04181109 227.39730072 383.44672108 C222.9719001 387.82060531 218.53721164 392.21518944 214.70980072 397.13422108 C214.70980072 397.46422108 214.70980072 397.79422108 214.70980072 398.13422108 C231.53980072 398.13422108 248.36980072 398.13422108 265.70980072 398.13422108 C258.89095134 385.326166 258.89095134 385.326166 251.77230072 372.69672108 C251.29212494 371.85818592 250.81194916 371.01965076 250.3172226 370.15570545 C249.86024994 369.36615467 249.40327728 368.57660389 248.93245697 367.76312733 C248.52777191 367.06260242 248.12308685 366.36207752 247.70613861 365.64032459 C247.37734711 365.14331043 247.0485556 364.64629627 246.70980072 364.13422108 C246.37980072 364.13422108 246.04980072 364.13422108 245.70980072 364.13422108 Z " fill="#FD9800" transform="translate(83.29019927978516,31.865778923034668)"/>
<path d="M0 0 C1.18662745 -0.00384115 2.3732549 -0.00768229 3.59584075 -0.01163983 C5.56097752 -0.01034011 5.56097752 -0.01034011 7.56581402 -0.00901413 C8.96655999 -0.01159715 10.36730521 -0.01461013 11.76804942 -0.01801753 C15.62622648 -0.0260982 19.48438495 -0.02787769 23.34256947 -0.028615 C27.50013964 -0.03046369 31.65770012 -0.03801007 35.8152647 -0.04475021 C44.91023985 -0.05834143 54.0052106 -0.06435943 63.10019422 -0.06876087 C68.77699486 -0.07152185 74.4537938 -0.07575892 80.1305933 -0.08026505 C95.84196681 -0.09245853 111.55333896 -0.10275783 127.2647171 -0.10614014 C128.27059019 -0.1063597 129.27646328 -0.10657927 130.31281738 -0.10680549 C131.32112264 -0.10702377 132.3294279 -0.10724204 133.36828786 -0.10746694 C135.41156217 -0.10791041 137.45483647 -0.10835697 139.49811077 -0.10880661 C140.51164943 -0.10902804 141.52518808 -0.10924947 142.56944003 -0.10947761 C158.99666012 -0.1134266 175.42383589 -0.13088334 191.85103885 -0.15416613 C208.70868956 -0.17786656 225.56631801 -0.19034138 242.42398566 -0.19150805 C251.89215234 -0.19242553 261.36026126 -0.19819609 270.82841206 -0.21632767 C278.88995286 -0.23171097 286.95141804 -0.23685959 295.01297072 -0.22858956 C299.12710822 -0.22467682 303.24109336 -0.22564298 307.35521221 -0.23964691 C311.12110642 -0.25234848 314.8867332 -0.2512215 318.65262683 -0.2390562 C320.66121176 -0.23616209 322.66980115 -0.24806327 324.67834979 -0.26047826 C326.47002583 -0.25059349 326.47002583 -0.25059349 328.29789734 -0.24050903 C329.3268321 -0.24110612 330.35576686 -0.24170321 331.41588145 -0.24231839 C334.91902486 0.20578669 337.31976853 1.3216791 340.33771038 3.13142776 C342.33375494 6.58327242 342.59285214 9.62104429 342.61236858 13.56087112 C342.6219006 14.62224792 342.63143261 15.68362473 342.64125347 16.77716446 C342.63988636 18.48199745 342.63988636 18.48199745 342.63849163 20.22127151 C342.64277676 21.39855316 342.64706188 22.57583481 342.65147686 23.78879166 C342.6572142 26.27596265 342.65772483 28.76315042 342.65338421 31.25032425 C342.65022488 35.05147856 342.67368991 38.85185404 342.69903851 42.65291214 C342.70131163 45.07153095 342.70201493 47.49015185 342.70099163 49.90877151 C342.71020138 51.04330261 342.71941113 52.17783371 342.72889996 53.34674454 C342.6690361 63.5777527 342.6690361 63.5777527 339.33771038 68.13142776 C336.05995015 70.25857298 333.37485144 70.38189956 329.51555157 70.38311005 C327.72032354 70.39093329 327.72032354 70.39093329 325.88882828 70.39891458 C324.57250381 70.39445313 323.25617933 70.38999169 321.89996624 70.38539505 C320.48868143 70.38769887 319.07739781 70.39087487 317.66611671 70.39484954 C313.7835058 70.40321701 309.90099291 70.39906344 306.0183816 70.3928771 C301.83291705 70.38836159 297.64746964 70.39533189 293.46200848 70.40083694 C285.26090763 70.40974223 277.05984334 70.40780389 268.85874104 70.40201166 C262.19506069 70.39749964 255.5313906 70.39688028 248.86770916 70.3990593 C247.92023247 70.39936576 246.97275577 70.39967223 245.99656767 70.39998798 C244.07194272 70.40062741 242.14731778 70.40127584 240.22269285 70.40193316 C222.16451561 70.40763978 204.10635866 70.40107336 186.04818475 70.39033243 C170.54474824 70.38139662 155.04134167 70.38294857 139.53790569 70.39216995 C121.54548334 70.40286673 103.55307878 70.40709043 85.56065369 70.40094543 C83.64300633 70.40030831 81.72535897 70.39967957 79.8077116 70.3990593 C78.86412869 70.39875074 77.92054578 70.39844219 76.94836944 70.39812429 C70.29070035 70.39639557 63.63304252 70.39931627 56.97537518 70.4040184 C48.86476723 70.40962065 40.754198 70.40812463 32.6435945 70.39745691 C28.5034047 70.39219135 24.36327953 70.39015848 20.22309017 70.39675522 C16.43579622 70.40269853 12.64862703 70.39946646 8.86134446 70.38880011 C6.83642702 70.38549458 4.81150098 70.39205151 2.78659248 70.39891458 C1.5897738 70.39369908 0.39295511 70.38848359 -0.84013081 70.38311005 C-1.87535846 70.38278534 -2.91058611 70.38246064 -3.9771843 70.38212609 C-6.75901816 70.12239658 -8.34747984 69.67160215 -10.66228962 68.13142776 C-12.95328406 64.6949361 -12.92335211 63.39376865 -12.95281696 59.34651566 C-12.96557667 58.1584079 -12.97833637 56.97030014 -12.99148273 55.74618912 C-12.99370838 54.46179443 -12.99593403 53.17739975 -12.99822712 51.85408401 C-13.00821232 49.87703728 -13.00821232 49.87703728 -13.01839924 47.8600502 C-13.03037151 45.0700236 -13.03408009 42.28012082 -13.03289509 39.49007034 C-13.0326918 35.91758671 -13.06000276 32.34589774 -13.09443951 28.77360249 C-13.12204373 25.36291731 -13.12085727 21.95237951 -13.12322712 18.54158401 C-13.13759815 17.25921356 -13.15196918 15.97684311 -13.1667757 14.65561295 C-13.16062244 13.46435303 -13.15446918 12.27309311 -13.14812946 11.04573441 C-13.1509795 9.99777191 -13.15382954 8.94980942 -13.15676594 7.87009048 C-12.53407603 4.42131534 -11.38694617 3.26965774 -8.66228962 1.13142776 C-5.51197166 0.08132178 -3.30747733 0.00400872 0 0 Z M4.33771038 17.13142776 C4.33771038 29.01142776 4.33771038 40.89142776 4.33771038 53.13142776 C110.26771038 53.13142776 216.19771038 53.13142776 325.33771038 53.13142776 C325.33771038 41.25142776 325.33771038 29.37142776 325.33771038 17.13142776 C219.40771038 17.13142776 113.47771038 17.13142776 4.33771038 17.13142776 Z " fill="#FE9C00" transform="translate(88.6622896194458,146.86857223510742)"/>
<path d="M0 0 C3.9396246 2.39803236 5.829361 4.53028746 7 9 C7.50522392 12.95758736 7.18992188 14.65407087 5.25 18.1875 C0.89144434 23.63569457 0.89144434 23.63569457 -3.0078125 24.38671875 C-7.4097666 24.72246101 -10.41697382 24.22206582 -14 21.5625 C-17.1957467 18.41877708 -18.05043464 15.60913438 -18.20703125 11.1796875 C-17.79730036 6.86591695 -16.16786115 4.05837417 -13 1.1875 C-8.64617753 -1.39758209 -4.78137113 -1.2046814 0 0 Z " fill="#FEB000" transform="translate(189,58)"/>
<path d="M0 0 C3.47919579 2.51686504 4.75960574 4.4355961 6.4375 8.375 C7.09870176 12.63607803 6.64751546 15.03098549 5 19 C2.68924967 21.83253266 1.484864 22.83837867 -2 24 C-6.79566077 24.39308695 -9.06907584 24.48270142 -13.375 22.25 C-17.3683504 18.82712823 -17.89375926 17.33863337 -18.3125 12.0625 C-18.19257162 8.26006474 -17.48924186 5.98709023 -15 3 C-10.15158211 -1.38666381 -6.08358271 -1.91935912 0 0 Z " fill="#FEBE00" transform="translate(144,58)"/>
<path d="M0 0 C3.76115969 2.06495042 7.09650288 4.08725592 9 8 C9.73940087 12.77415625 9.45664981 16.10300929 7.25 20.4375 C3.83261414 24.32952279 2.31072854 24.8731553 -2.875 25.375 C-7.17888253 25.27061479 -9.67949059 23.76709117 -13 21 C-15.8416328 16.73755081 -15.50403317 13.00032912 -15 8 C-13.60511243 4.35779356 -12.46371422 3.29883805 -9.1875 1.1875 C-5.71472323 -0.10627958 -3.66458779 -0.53441905 0 0 Z " fill="#FFCC00" transform="translate(96,57)"/>
</svg>
