<svg xmlns="http://www.w3.org/2000/svg" width="512" height="512"><path d="M28 56c2.91 1.368 5.34 3.224 7.875 5.188l2.211 1.637a627 627 0 0 1 4.605 3.443c2.955 2.217 5.956 4.366 8.96 6.515 7.898 5.655 15.71 11.423 23.522 17.195a1196 1196 0 0 0 17.253 12.475c6.45 4.587 12.851 9.24 19.264 13.878q3.393 2.45 6.79 4.896c7.79 5.61 15.55 11.256 23.27 16.96a1320 1320 0 0 0 19.676 14.266 1967 1967 0 0 1 12.324 8.86l2.297 1.66 4.639 3.354a19176 19176 0 0 0 13.565 9.8q5.603 4.048 11.214 8.088a2602 2602 0 0 1 25.693 18.752c4.754 3.508 9.529 6.982 14.342 10.408l1.687 1.202q3.226 2.296 6.456 4.588 2.339 1.663 4.67 3.335l2.675 1.906C263 226 263 226 264 228c.09 1.665.118 3.333.114 5v3.155l-.016 3.415-.005 3.49c-.005 3.688-.018 7.376-.03 11.065q-.008 3.744-.014 7.488-.017 9.194-.049 18.387l2.507-.063c3.747-.084 7.495-.136 11.243-.187l3.945-.102 3.79-.039 3.49-.063c3.025.454 3.025.454 5.408 1.962 2.277 3.51 2.116 6.715 2.008 10.758l-.018 2.404a670 670 0 0 1-.123 7.58q-.03 2.574-.055 5.148c-.044 4.202-.113 8.402-.195 12.602h7l-.02-3.597q-.091-16.796-.135-33.59c-.016-5.757-.037-11.513-.071-17.27-.033-5.556-.05-11.113-.059-16.67q-.008-3.177-.032-6.354c-.022-2.97-.025-5.941-.024-8.912l-.032-2.644c.027-5.395.79-9.192 3.373-13.963 2.818-1.41 5.173-1.112 8.32-1.098l3.809.01 3.996.025q2.01.008 4.02.014 4.928.018 9.855.049l-.063-2.507c-.084-3.747-.136-7.495-.187-11.243l-.102-3.945-.039-3.79-.063-3.49c.563-3.753 1.527-4.684 4.454-7.025 2.48-.503 2.48-.503 5.313-.508l3.263-.034 3.565.024 3.765-.02c3.405-.015 6.81-.012 10.215 0 3.564.01 7.128.001 10.692-.005q8.978-.01 17.957.022c6.918.021 13.837.014 20.756-.008q8.912-.026 17.824-.01c3.548.006 7.096.007 10.644-.006 3.955-.014 7.91.005 11.865.027l3.565-.024 3.263.034 2.833.005c4.261.864 6.03 3.882 8.48 7.267 6.488 9.936 12.524 20.093 18.25 30.486l1.421 2.574c18.688 34.255 21.942 66.32 21.079 104.926l-.078 3.827c-.186 8.454-.476 16.899-.875 25.345l-.157 3.35c-.158 3.09-.347 6.175-.551 9.262l-.147 2.75c-.295 3.87-.468 6.078-2.823 9.245-4.108 2.851-8.051 2.603-12.85 2.569l-2.273-.005c-2.395-.005-4.79-.018-7.183-.03q-2.438-.009-4.874-.014-5.97-.017-11.939-.049l.457 3.247.578 4.304.304 2.13c1.889 14.34-2.292 28.54-10.901 40.069-8.86 11.19-20.471 18.222-34.438 21.25-11.578.898-23.383 1.165-34-4l-2.914-1.39c-14.65-7.503-23.382-19.26-28.832-34.727C359.639 410.337 360 406.104 360 400l-87 1-2 14c-4.637 15.216-13.175 26.818-27 35-13.957 6.458-30.69 9.15-45.687 4.375A106 106 0 0 1 193 452l-2.738-1.18c-14.1-6.74-22.789-18.53-28.262-32.82-.743-2.322-1.383-4.64-2-7l-.629 2.457c-2.28 8.194-5.367 14.68-10.371 21.543l-1.328 1.922C140.124 446.834 127.175 454.036 115 456c-11.636 1.163-23.3 1.156-34-4l-2.773-1.215c-14.178-6.85-22.85-19.126-28.465-33.46C47.859 411.517 47.894 406.058 48 400l-3.241.063c-3.973.073-7.946.119-11.92.157q-2.579.03-5.156.082c-2.473.048-4.944.071-7.417.089l-2.324.062c-3.443.002-5.538-.171-8.396-2.165C7.712 395.573 7.08 394.294 7 391c.72-3.042 1.793-5.924 2.89-8.848l.96-2.642c1.037-2.842 2.092-5.676 3.15-8.51l2.127-5.769c1.814-4.904 3.651-9.8 5.5-14.691q1.71-4.538 3.408-9.081l2.2-5.83 1.013-2.715C32.485 321.757 32.485 321.757 36 320a66 66 0 0 1 4.303-.12l2.736-.004 3.01.01h3.164c3.463 0 6.926.009 10.389.016l7.188.005q9.474.006 18.948.024 9.662.014 19.325.02 18.968.016 37.937.049l-.048-3.042c-.054-3.736-.088-7.473-.117-11.21q-.022-2.423-.061-4.844a696 696 0 0 1-.067-6.978c-.015-.718-.03-1.436-.047-2.176-.001-4.5.81-7.066 3.34-10.75-.073-2.266-.073-2.266-.96-4.492l-.922-2.652c-2.11-5.39-4.395-10.69-6.743-15.981a4874 4874 0 0 1-3.492-7.973l-.933-2.128c-3.592-8.215-7.091-16.469-10.59-24.724a3320 3320 0 0 0-3.33-7.807c-2.986-6.992-5.964-13.973-8.69-21.071C105.989 182.97 101.7 176.285 92 169a263 263 0 0 1-4-3.5l-1.875-1.625c-3.28-2.894-6.486-5.866-9.703-8.828A387 387 0 0 0 68 147.5c-3.39-2.938-6.7-5.961-10-9-3.322-3.059-6.653-6.101-10.062-9.062C42.892 125.033 37.956 120.505 33 116l-1 108 6 1c2.448 3.672 2.714 6.731 2 11-2.207 2.969-3.486 3.829-7 5 1.053 2.68 1.916 3.937 4.25 5.688 6.37 5.357 10.31 12.605 11.086 20.898.09 8.773-.029 14.9-6.207 21.375C36.349 294.315 31.01 296.87 23 297c-8.639-.922-14.1-4.63-19.703-11.121C-.533 280.329-.785 274.54 0 268c1.5-2.687 1.5-2.687 4-4 3.92-.747 6.886-.692 10.313 1.438 2.03 3.083 2.99 6.095 3.976 9.636.534 2.123.534 2.123 2.711 2.926 4.092.35 4.092.35 7.875-1 1.827-3.248 1.711-6.428 1.125-10-2.06-4.39-4.805-6.689-8.625-9.5-3.799-2.85-5.678-4.618-6.375-9.5-.122-2.691-.093-5.302 0-8l-2.375-.312C10 239 10 239 8 236c-.673-7.071-.673-7.071 1.813-10.5C12 224 12 224 15 224l-.008-2.498q-.1-30.082-.147-60.167-.022-14.547-.071-29.096-.046-12.68-.056-25.36-.004-6.714-.035-13.428-.03-6.321-.022-12.642-.001-2.317-.019-4.636a579 579 0 0 1-.003-6.34l-.008-3.58c.418-3.682 1.452-6.1 3.369-9.253 3.259-1.63 6.48-1.565 10-1m4 25c-1.1 3.99-1.15 7.008 0 11 4.112 5.456 9.756 9.684 15 14q2.102 1.835 4.188 3.688l1.792 1.542c2.715 2.379 5.366 4.825 8.02 7.27 3.3 3.039 6.61 6.062 10 9 3.93 3.407 7.752 6.93 11.578 10.453A387 387 0 0 0 91 145.5c3.93 3.407 7.752 6.93 11.578 10.453A387 387 0 0 0 111 163.5c3.93 3.407 7.752 6.93 11.578 10.453A387 387 0 0 0 131 181.5c3.93 3.407 7.752 6.93 11.578 10.453A387 387 0 0 0 151 199.5c3.932 3.407 7.754 6.931 11.58 10.455a369 369 0 0 0 8.357 7.482c3.691 3.2 7.286 6.5 10.875 9.813l1.71 1.576c1.497 1.386 2.988 2.78 4.478 4.174l1.651 1.393c1.751 2.086 1.743 3.285 1.781 5.987l.06 2.706.02 2.832.05 2.612c.058 3.219.09 6.438.125 9.657L192 280h55l1-21.25.441-6.63c.544-9.56.544-9.56-2.92-18.178-3.733-3.68-8.018-6.33-12.587-8.855-2.42-1.36-4.598-2.96-6.801-4.646q-2.002-1.44-4.008-2.879l-4.555-3.277-2.288-1.644c-3.765-2.707-7.523-5.425-11.282-8.141l-4.5-3.25-27-19.5-2.25-1.625-4.502-3.252a8139 8139 0 0 0-11.213-8.088 2368 2368 0 0 1-23.285-16.972 1320 1320 0 0 0-19.676-14.266 1967 1967 0 0 1-12.324-8.86l-2.297-1.66-4.639-3.354a19176 19176 0 0 0-13.565-9.8 8103 8103 0 0 0-11.214-8.088l-4.472-3.222-2.21-1.591q-6.083-4.39-12.103-8.867l-2.625-1.949q-2.515-1.87-5.021-3.751l-2.288-1.702-2.017-1.51C34.902 81.822 34.902 81.822 32 81m321 120v183h9l1.504-3.219c3.701-7.763 7.165-14.801 13.496-20.781l1.758-1.816c9.823-9.516 23.022-13.467 36.412-13.503l2.664-.03c2.878-.03 5.756-.048 8.635-.065q3.01-.028 6.019-.059c5.26-.05 10.521-.09 15.782-.128 5.376-.04 10.752-.091 16.128-.141Q480.2 344.114 496 344c1.132-10.15 1.845-20.297 2.25-30.5l.093-2.333c1.028-29.365-6.483-51.779-20.28-77.48l-1.299-2.42c-7.62-16.045-7.62-16.045-17.764-30.267a59 59 0 0 0-4.144-.12l-2.702-.004-2.998.01h-3.184q-5.13.002-10.257.016l-6.312.003c-7.822.006-15.644.02-23.466.032zm-217 8c2.315 7.332 5.159 14.345 8.184 21.41l1.505 3.536q1.569 3.683 3.144 7.365 2.005 4.686 3.997 9.376 1.924 4.519 3.854 9.036l1.433 3.368c2.458 5.737 5.022 11.362 7.883 16.909h9c.3-5.067.516-10.13.66-15.204q.089-2.58.245-5.158c.891-10.738.891-10.738-3.45-20.13-2.897-2.851-6.134-5.168-9.455-7.508a242 242 0 0 1-5.125-4.625l-2.434-2.18a687 687 0 0 1-5.039-4.578c-4.618-4.221-9.212-8.12-14.402-11.617m184 24v87h16v-87zm-160 63v24h119v-24zM46 336c-6.916 17.285-6.916 17.285-13.5 34.688l-1.336 3.603c-2.119 4.734-2.119 4.734-3.164 9.709h22l3.438-7.375c7-14.348 17.577-24.066 32.562-29.625 14.407-4.318 30.422-3.536 44 3 3.556 2.1 6.798 4.398 10 7l2.488 1.832C149.912 365.24 155.02 374.766 158 384h4l1.504-3.219c3.701-7.763 7.165-14.801 13.496-20.781l1.758-1.816c11.025-10.68 25.312-13.637 40.089-13.618 14.202.298 25.383 5.37 35.903 14.934L257 362l1.453 1.512c5.537 5.998 8.54 12.972 11.547 20.488h66v-48zm411 24c2.035 4.383 2.035 4.383 5 8 2.716.356 5.021.467 7.73.39.75-.005 1.501-.01 2.274-.017 2.395-.022 4.789-.072 7.183-.123q2.438-.03 4.874-.055c3.98-.044 7.96-.113 11.939-.195v-8zM72.188 376.25C65.093 386.067 63.846 396.215 65 408c2.262 10.802 8.754 19.051 17.547 25.496 9.46 5.8 19.757 7.635 30.555 5.352 10.422-3.049 18.896-8.38 24.648-17.676 5.818-10.91 7.859-21.153 4.379-33.184-3.963-10.71-10.748-18.141-20.574-23.832-18.056-8.172-36.95-2.644-49.368 12.094m112 0c-7.095 9.817-8.342 19.965-7.188 31.75 2.262 10.802 8.754 19.051 17.547 25.496 9.46 5.8 19.757 7.635 30.555 5.352 11.82-3.457 20.36-9.746 26.273-20.536 4.533-9.833 5.956-19.907 2.625-30.312-4.807-12.347-11.372-19.217-23.266-24.871-17.044-7.037-35.107-.456-46.547 13.121m200 0c-7.095 9.817-8.342 19.965-7.188 31.75 2.262 10.802 8.754 19.051 17.547 25.496 9.46 5.8 19.757 7.635 30.555 5.352 11.82-3.457 20.36-9.746 26.273-20.536 4.533-9.833 5.956-19.907 2.625-30.312-4.807-12.347-11.372-19.217-23.266-24.871-17.044-7.037-35.107-.456-46.546 13.121"/><path d="m379 215.482 2.11-.02a509 509 0 0 1 6.89.007l4.797-.012q5.024-.008 10.047.022c4.29.022 8.58.01 12.872-.015 3.301-.014 6.602-.01 9.903 0q2.373.005 4.746-.01c2.212-.01 4.423.006 6.635.028l3.813.01c3.825.61 4.867 1.465 7.187 4.508 1.437 2.332 1.437 2.332 2.765 4.933l1.525 2.964 1.605 3.185 1.671 3.296q1.743 3.447 3.472 6.902a1444 1444 0 0 0 5.358 10.527q1.69 3.354 3.374 6.713l1.634 3.166c2.763 5.596 4.506 9.22 2.596 15.314-1.97 2.813-3.724 3.327-7 4-2.881.105-5.739.157-8.62.161l-2.633.015q-4.308.021-8.614.027l-5.993.017q-6.282.015-12.564.02c-5.363.006-10.725.03-16.087.058-4.126.019-8.253.024-12.38.026q-2.964.004-5.93.024c-2.766.017-5.533.015-8.3.008l-2.465.028c-4.861-.035-8.201-.691-12.414-3.384-1.283-2.567-1.148-4.43-1.177-7.304l-.039-3.358-.022-3.643-.025-3.729q-.02-3.911-.032-7.823-.014-4.012-.062-8.025c-.042-3.85-.059-7.698-.069-11.548l-.053-3.63.009-3.377-.018-2.97c1.229-6.532 5.55-7.096 11.488-7.11M385 233v31h65c-1.423-4.269-2.796-7.84-4.785-11.8l-1.608-3.21-1.67-3.303-1.681-3.36c-2.174-4.97-2.174-4.97-5.256-9.327a76 76 0 0 0-4.703-.114h-3.034l-3.298.016-3.359.005c-3.556.005-7.112.018-10.668.03q-3.608.008-7.213.014c-5.909.01-11.817.03-17.725.049M427.438 377.5c5.59 3.379 10.956 9.075 12.562 15.5 1.482 7.41.878 13.453-2.687 20.188-4.855 5.903-9.731 10.341-17.583 11.148-8.516.094-14.406-.218-20.695-6.207-6.382-6.904-7.515-12.33-7.34-21.684.696-7.862 4.353-11.995 10.207-17 7.065-4.867 17.692-5.421 25.536-1.945m-16.813 17.125c-2.112 3.087-2.237 4.703-1.625 8.375 1.5 2.5 1.5 2.5 4 4 3.672.612 5.288.487 8.375-1.625 2.112-3.087 2.237-4.703 1.625-8.375-1.5-2.5-1.5-2.5-4-4-3.672-.612-5.288-.487-8.375 1.625M227.438 377.5c5.59 3.379 10.956 9.075 12.562 15.5 1.482 7.41.878 13.453-2.687 20.188-4.855 5.903-9.731 10.341-17.583 11.148-8.516.094-14.406-.218-20.695-6.207-6.382-6.904-7.515-12.33-7.34-21.684.696-7.862 4.353-11.995 10.207-17 7.065-4.867 17.692-5.421 25.536-1.945m-16.813 17.125c-2.112 3.087-2.237 4.703-1.625 8.375 1.5 2.5 1.5 2.5 4 4 3.672.612 5.288.487 8.375-1.625 2.112-3.087 2.237-4.703 1.625-8.375-1.5-2.5-1.5-2.5-4-4-3.672-.612-5.288-.487-8.375 1.625M115.438 377.5c5.447 3.28 10.119 8.627 12.562 14.5 1.632 7.74 1.105 14.102-2.687 21.125-3.99 4.96-8.15 8.934-14.313 10.875-7.836.805-15.62 1.125-22-4-5.045-4.804-8.606-9.162-9.336-16.27-.094-8.516.218-14.406 6.207-20.695 8.043-7.434 19.086-10.18 29.567-5.535m-16.813 17.125c-2.112 3.087-2.237 4.703-1.625 8.375 1.437 2.52 1.437 2.52 4 4 4.666.579 4.666.579 8.875-1.187 1.48-2.383 1.99-3.997 2.125-6.813-1.751-3.713-1.751-3.713-5-6-3.582-.39-5.363-.436-8.375 1.625M380 287.5c.712-.015 1.423-.03 2.156-.047 3.447.026 5.492.293 8.313 2.328 2.063 2.99 2.103 4.786 1.926 8.317-.609 2.933-2.006 4.196-4.395 5.902-5.555 1.852-11.115 1.728-16.562-.375C369 302 369 302 368 300c-.577-7.155-.577-7.155 1.52-10.227 3.404-2.434 6.45-2.36 10.48-2.273"/></svg>