<svg xmlns="http://www.w3.org/2000/svg" width="512" height="512"><path fill="#f27b1b" d="m270.8 12.258 3.183 1.367c3.45 1.486 6.89 2.993 10.33 4.5a7648 7648 0 0 0 7.187 3.11q5.576 2.41 11.148 4.836a3012 3012 0 0 0 26.122 11.214l10.482 4.467q3.363 1.431 6.73 2.855a2091 2091 0 0 1 9.37 3.998l2.798 1.175c5.06 2.187 9.272 4.063 11.85 9.22.104 2.834.147 5.644.145 8.479l.01 2.662q.013 4.382.013 8.765l.01 6.118q.009 6.435.007 12.872c0 5.45.014 10.901.031 16.352q.015 6.334.013 12.67 0 3.007.013 6.017c.055 15.605-.15 31.498-4.43 46.628l-.649 2.358C360.086 199.65 351.915 215.863 340 230l3.25 1.438 1.828.808c5.503 2.159 11.24 3.217 16.869.98 4.794-2.2 9.426-4.696 14.053-7.226l2-1c-.52-3.225-1.406-6.087-2.562-9.125-2.24-6.664-2.772-13.644.125-20.187 5.331-8.693 13.549-11.794 22.75-15.375l3.552-1.432c22.135-8.812 22.135-8.812 32.108-5.158 10.614 5.388 13.793 16.28 17.714 26.652q.975 2.528 1.953 5.055a3023 3023 0 0 1 4.181 10.883 3015 3015 0 0 0 6.609 17.09 16928 16928 0 0 1 16.017 41.342 80131 80131 0 0 1 16.115 41.728l1.229 3.181q1.112 2.883 2.219 5.768a998 998 0 0 0 1.916 4.95c2.67 6.927 3.401 13.77 1.418 21.03-3.955 8.882-11.677 12.513-20.266 15.887q-2.262.866-4.528 1.718c-2.29.864-4.564 1.763-6.84 2.665-9.289 3.595-18.202 6.774-27.96 2.828-5.36-3.1-9.39-7.839-12.187-13.312C431 359 431 359 431 356l-1.896.826a4582 4582 0 0 1-8.479 3.674l-2.984 1.3-2.852 1.231-2.634 1.143C410 365 410 365 408 365l.176 2.492c.39 9.654-1.302 16.053-7.676 23.383L398 393l-2.375 2.188c-3.203 2.211-5.853 2.924-9.625 3.812l1 2c.863 10.522-.158 19.138-6.5 27.75-4.889 5.184-11.646 8.806-18.723 9.621-2.623.003-5.17-.094-7.777-.371l-.043 1.836c-.544 9.553-3.996 17.168-11.062 23.695-7.814 6.057-15.311 6.636-24.895 6.469l-.227 2.09c-1.332 9.523-5.185 16.636-12.808 22.625-7.51 4.911-15.074 6.47-23.965 5.285-3.516-1.015-6.724-2.38-10-4l-1.953-.934A150 150 0 0 1 265 493l-1.434 1.39c-8.04 7.462-14.65 10.233-25.683 10.08-9.65-.427-16.407-4.424-22.883-11.47-1.579-2.286-2.773-4.495-4-7l-1.555.48c-10.189 2.165-20.424 1.025-29.21-4.613-3.939-3.003-6.521-6.796-9.235-10.867l-2.523.969c-8.567 2.54-17.923 2.298-26.04-1.469-8.254-4.805-12.816-10.612-15.792-19.668-.982-4.313-.988-8.44-.645-12.832l-2.875.25c-6.437-.013-12.09-2.92-17.375-6.375-6.892-7.205-10.266-14.873-11.062-24.75.317-9.077 4.325-16.346 8.984-23.95 1.667-3.985 1.265-5.986.328-10.175l-.406-2.082a249 249 0 0 0-1.406-6.606l-.463-2.26C100.72 357.609 99.832 354.786 96 352a99 99 0 0 0-7.25-3.25l-1.969-.812A562 562 0 0 0 82 346l-1.031 2.195c-3.966 7.912-7.89 12.428-15.906 16.18-7.352 1.5-13.227.709-20-2.375l-2.167-.943a534 534 0 0 1-4.542-2.009 480 480 0 0 0-7.28-3.153l-4.824-2.082-2.273-.971C17.19 349.85 12.862 346.483 9 340c-4.475-13.426 1.698-24.775 7.313-36.687q1.302-2.842 2.597-5.688 2.689-5.899 5.409-11.783c3.771-8.186 7.392-16.437 11.015-24.69 1.953-4.443 3.918-8.881 5.88-13.32q5.564-12.59 11.116-25.186 3.069-6.964 6.154-13.918l1.174-2.648 2.266-5.106a1021 1021 0 0 0 6.209-14.314c.444-1.028.89-2.056 1.347-3.116a283 283 0 0 0 2.23-5.297c2.847-6.509 7.246-11.292 13.7-14.412 9.884-3.187 18.637.174 27.653 4.29l3.314 1.438c21.646 9.529 21.646 9.529 26.623 18.437 3.386 10.157.28 19.66-4 29 3.45 1.643 6.911 3.261 10.375 4.875l2.926 1.395c6.17 2.857 11.963 4.756 18.699 5.73l-2.125-2.937c-21.04-29.53-27.01-59.558-27.078-95.403l-.009-3.057q-.022-7.983-.028-15.968c-.006-5.49-.03-10.98-.058-16.469-.019-4.235-.024-8.47-.026-12.706q-.004-3.037-.024-6.075c-.017-2.824-.015-5.647-.008-8.47l-.028-2.524c.033-4.627.404-7.621 3.384-11.391 1.962-1.304 1.962-1.304 4.3-2.305l2.82-1.232 3.192-1.338 3.438-1.484q4.096-1.766 8.205-3.503c4.841-2.049 9.674-4.115 14.507-6.183 11.48-4.911 22.961-9.82 34.465-14.677a1193 1193 0 0 0 17.264-7.442c1.172-.51 2.344-1.022 3.552-1.55q3.348-1.46 6.68-2.957c10.691-4.636 16.803-3.756 27.378.929m-28.573 18.176-3.215 1.409c-3.467 1.522-6.927 3.058-10.387 4.595q-5.379 2.366-10.761 4.726-3.63 1.594-7.26 3.191c-12.103 5.322-24.271 10.487-36.457 15.616q-2.457 1.034-4.91 2.07-2.189.924-4.379 1.841c-3.16 1.186-3.16 1.186-5.858 3.118a179 179 0 0 0-.161 7.583l-.015 2.41q-.021 3.98-.027 7.96l-.017 5.562q-.015 5.861-.02 11.723c-.006 4.947-.03 9.894-.058 14.841-.02 3.844-.024 7.688-.026 11.532q-.004 2.729-.024 5.458c-.197 29.036 4.687 59.267 24.536 81.83C185 218 185 218 186.375 220.226c1.434 2.21 2.317 3.48 4.625 4.773 4.503-.027 8.653-.871 13-2l-2.312-2.625A832 832 0 0 1 198 216l-2.566-3.055c-19.091-23.196-24.566-48.372-24.637-77.933l-.009-2.428q-.022-6.34-.028-12.68c-.006-4.356-.03-8.71-.058-13.066-.019-3.364-.024-6.728-.026-10.092a764 764 0 0 0-.024-4.819 640 640 0 0 1-.008-6.725l-.011-3.859c.395-3.601 1.207-5.469 3.367-8.343 1.994-1.32 1.994-1.32 4.371-2.34l2.854-1.251 3.213-1.347 3.415-1.465a1695 1695 0 0 1 8.122-3.453c4.887-2.075 9.748-4.207 14.61-6.34 4.662-2.042 9.333-4.065 14.006-6.084q3.526-1.53 7.042-3.077c3.346-1.47 6.702-2.913 10.062-4.35l3.047-1.359c8.686-3.661 14.104-3.31 22.78.132q3.08 1.337 6.142 2.711l3.361 1.471c3.539 1.552 7.07 3.12 10.6 4.69l6.953 3.056q5.164 2.265 10.317 4.552c5.589 2.483 11.19 4.92 16.838 7.263l3.215 1.348a482 482 0 0 0 6.003 2.462l2.687 1.13 2.345.957C338.72 73.462 339.676 75.03 341 78c.374 3.31.374 3.31.372 7.123l.011 2.116c.008 2.303-.005 4.606-.02 6.91q0 2.423.002 4.847 0 5.087-.029 10.173a1898 1898 0 0 0-.016 12.913c.003 3.343-.004 6.685-.013 10.028a1392 1392 0 0 0-.004 4.752c.005 30.315-7.793 56.54-28.08 79.556-2.212 2.357-2.212 2.357-3.223 4.582l12 3c23.871-27.148 31.406-56.66 31.195-92.156l-.008-5.649q-.014-7.349-.05-14.696c-.02-5.022-.03-10.044-.04-15.065-.02-9.812-.055-19.623-.097-29.434-7.12-3.674-14.352-6.95-21.734-10.062l-3.348-1.422a24511.38 24511.38 0 0 1-25.278-10.708l-3.6-1.526a1415 1415 0 0 1-20.056-8.684l-2.152-.95a1076 1076 0 0 1-9.378-4.193l-3.204-1.42-2.672-1.207c-7.311-2.349-12.7.623-19.351 3.606m6.676 27.582-3.078 1.337-3.317 1.467-3.447 1.504q-4.547 1.987-9.088 3.988-4.547 1.998-9.098 3.985a6186 6186 0 0 0-10.31 4.517A2459 2459 0 0 1 187 85q-.07 12.546-.104 25.09-.014 5.828-.047 11.656-.032 5.64-.039 11.282a834 834 0 0 1-.021 4.269c-.183 24.745 5.435 46.846 22.211 65.703l1.828 2.078c10.597 11.31 27.372 21.886 42.922 24.36 3.988-.537 6.64-2.126 10.152-4.028 3.08-1.402 5.997-2.256 9.26-3.091C282.374 219.95 288.85 216.464 296 210l2.863-2.535c16.26-15.27 24.635-35.35 26.137-57.465.13-5.065.117-10.129.098-15.195l-.005-4.33q-.006-5.646-.024-11.293-.014-5.782-.02-11.565Q325.033 96.308 325 85l-29.3-12.72-3.63-1.577-3.583-1.556q-5.187-2.25-10.379-4.496c-3.607-1.562-7.21-3.135-10.802-4.732l-1.987-.876c-1.611-.71-3.22-1.429-4.828-2.148-4.475-1.608-7.43-.703-11.588 1.121M89.277 181.664a85 85 0 0 0-3.71 7.707l-1.435 3.356-.768 1.818c-1.427 3.37-2.875 6.733-4.321 10.096l-.96 2.232c-4.151 9.642-8.435 19.226-12.708 28.815l-5.16 11.59-1.304 2.929a10474 10474 0 0 0-16.356 36.95l-2.297 5.214-1.112 2.523a1632 1632 0 0 1-6.779 15.141l-1.593 3.538a733 733 0 0 1-2.83 6.201C24.818 326.177 24.818 326.177 25 333c5.321 4.921 13.137 7.517 19.688 10.375l3.087 1.402 2.987 1.309 2.686 1.189c3.1.88 4.56.954 7.552-.275 3.45-4.238 5.523-9.06 7.66-14.043l1.036-2.375q1.11-2.545 2.21-5.095a2816 2816 0 0 1 3.557-8.187q1.876-4.302 3.748-8.605a4705 4705 0 0 1 12.053-27.418q1.765-3.988 3.528-7.978 5.551-12.557 11.108-25.113l5.17-11.688q1.805-4.083 3.613-8.165 2.683-6.064 5.346-12.135c.938-2.123 1.89-4.24 2.844-6.356l1.67-3.76 1.45-3.223c1.047-2.973 1.616-4.76 1.007-7.859-4.831-4.824-11.277-7.057-17.437-9.75l-3.393-1.535-3.291-1.45-2.982-1.319c-3.945-1.289-7.41-2.383-10.62.718m327.621 9.758-2.053.79a616 616 0 0 0-4.282 1.675c-2.182.86-4.371 1.699-6.563 2.535q-2.083.81-4.164 1.625l-1.986.758c-3.432 1.374-4.738 2.026-6.85 5.195.293 5.993 2.386 11.148 4.586 16.68l1.116 2.86q1.829 4.67 3.673 9.335l2.582 6.597q2.682 6.858 5.374 13.713c3.718 9.48 7.388 18.98 11.061 28.479q3.511 9.063 7.033 18.124 3.702 9.537 7.39 19.08 2.49 6.434 4.99 12.864 1.185 3.056 2.364 6.113 1.627 4.215 3.269 8.425l.963 2.514c1.49 3.801 2.867 7.106 5.599 10.216 7.958-.397 14.657-3.437 21.938-6.5q1.882-.777 3.767-1.55c5.51-1.879 5.51-1.879 10.295-4.95.435-5.567-.746-9.852-2.832-14.93l-.918-2.32a868 868 0 0 0-2-4.994 1337 1337 0 0 1-3.233-8.096q-1.716-4.332-3.441-8.66c-3.97-9.958-7.844-19.953-11.71-29.951a9347 9347 0 0 0-3.553-9.172c-3.762-9.695-7.515-19.394-11.248-29.1q-2.593-6.737-5.191-13.473-1.234-3.204-2.464-6.412-1.711-4.462-3.433-8.92c-.33-.864-.66-1.728-.999-2.62a215 215 0 0 0-5.477-12.913l-1.156-2.504c-1.186-2.071-1.186-2.071-3.297-2.771-3.312-.265-6.124 1.058-9.15 2.258M240.922 262.07c-2.495 2.506-5.137 4.802-7.82 7.102a169 169 0 0 0-4.266 3.844C216.38 284.596 202.36 293.97 188 303c8.317 8.534 16.664 13.576 28.836 14.129 14.78-.668 29.089-7.084 42.64-12.474 11.856-4.69 23.328-8.806 36.149-8.967l2.254-.088c11.49-.128 21.091 5.743 30.808 11.275l3.565 2.004c8.605 4.846 17.138 9.815 25.647 14.83a660 660 0 0 0 16.39 9.326l1.857 1.022q4.467 2.456 8.948 4.882c8.94 4.894 8.94 4.894 12.304 8.057 2.428 2.287 2.428 2.287 5.426 2.027a160 160 0 0 0 11.988-4.398l2.35-.922 2.233-.914 2.026-.822c1.93-.95 1.93-.95 2.579-3.967a132 132 0 0 0-3.172-8.633l-1.06-2.681c-1.164-2.94-2.34-5.876-3.518-8.811a9206 9206 0 0 1-3.68-9.28l-2.575-6.489a2362 2362 0 0 1-9.354-23.989l-1.312-3.408a7043 7043 0 0 1-5.083-13.238 3889 3889 0 0 0-3.527-9.174l-1.055-2.775-.978-2.527c-.28-.727-.558-1.454-.845-2.204-.808-1.985-.808-1.985-2.841-3.791l-1.68.81q-3.784 1.818-7.57 3.627l-2.645 1.276-2.558 1.22-2.349 1.127c-16.05 6.862-34.251-2.308-49.316-7.886-30.464-11.22-55.68-2.007-77.96 20.896M131 233c-4.55 8.898-8.779 17.86-12.687 27.063q-1.67 3.898-3.348 7.792l-.912 2.117c-2.702 6.254-5.464 12.48-8.237 18.704l-1.358 3.05q-3.366 7.547-6.742 15.09l-2.505 5.614-1.154 2.569A228 228 0 0 0 88 330l1.665.67a1553 1553 0 0 1 7.522 3.08l2.62 1.055c6.696 2.77 11.683 5.25 14.88 12.07l1.2 2.492c1.199 2.836 2.177 5.701 3.113 8.633l2.168-1.277c9.236-5.078 17.88-7.34 28.27-4.536 7.52 2.718 13.073 7.216 17.562 13.813 1.614 3.593 2.883 7.225 4 11l3.875-.187c7.808.012 15.042 2.21 21.125 7.187 4.194 4.225 7.218 8.757 10 14l2.93-.14c11.316-.314 19.78 1.118 28.308 9.058 3.058 3.613 4.945 7.74 6.762 12.082l3.402-.14c11.021-.326 18.153.293 26.786 7.64 7.52 6.3 16.438 10.455 25.065 15.03 4.033 2.159 8.018 4.4 11.997 6.658 6.652 3.768 10.093 5.497 17.75 3.812 4.71-2.663 6.413-5.886 8-11-.098-4.82-1.787-8.458-5-12-2.95-2.144-6.103-3.84-9.312-5.562l-5.684-3.149-2.984-1.632c-4.99-2.738-9.94-5.543-14.895-8.344l-2.91-1.638c-6.367-3.592-12.667-7.278-18.877-11.137-2.949-1.943-2.949-1.943-6.338-2.538-1.318-7.067-1.318-7.067 0-10.937 2.162-2.23 3.697-3.174 6.832-3.368 5.2.731 9.673 3.742 14.168 6.305l2.196 1.24c4.326 2.448 8.638 4.919 12.945 7.4 7.301 4.2 14.653 8.31 22.018 12.398 4.443 2.47 8.868 4.94 13.185 7.626 8.121 5.054 8.121 5.054 17.46 6.004 3.895-1.185 6.683-3.509 9.196-6.668 1.699-5.096 1.764-9.263-.375-14.125-2.377-2.604-4.075-3.897-7.055-5.645l-2.707-1.588c-4.847-2.78-9.727-5.496-14.613-8.204-8.632-4.814-17.225-9.688-25.75-14.688l-2.858-1.662-2.61-1.541-2.296-1.349C309 365 309 365 308 363c-.353-6.47-.353-6.47 2-10 4.037-1.248 6.447-1.689 10.353.044l2.545 1.472 2.929 1.663L329 358q3.424 1.89 6.855 3.77 1.808.995 3.613 1.992a4191 4191 0 0 0 7.59 4.176c5.406 2.972 10.805 5.947 16.106 9.105l2.183 1.288q1.882 1.117 3.734 2.282c4.542 2.689 7.786 2.826 12.919 2.387 4.36-2.22 7.168-4.42 9-9 .726-3.891 1.146-7.157-1.02-10.64-4.133-5.315-9.238-8.174-15.105-11.298l-6.215-3.414-3.296-1.797c-5.137-2.827-10.222-5.743-15.306-8.662a3374 3374 0 0 0-5.244-3.002 7332 7332 0 0 1-16.728-9.585q-3.886-2.234-7.776-4.464-1.86-1.068-3.719-2.14-2.578-1.484-5.157-2.963l-2.967-1.707c-8.222-4.427-18.424-3.045-27.092-.515-9.245 2.829-18.156 6.636-27.124 10.225-19.395 7.682-39.283 12.573-59.564 4.774C185.347 324.57 172.946 315.864 169 306c-.54-4.406-.416-8.184 2-12 1.641-1.29 1.641-1.29 3.605-2.41l2.21-1.294 2.373-1.358c20.265-11.993 38.385-27.1 54.812-43.938q1.498-1.502 3-3c-16.533-6.556-31.746-3.042-48.562.625-16.666 3.634-29.476 2.69-44.938-4.75q-2.919-1.383-5.844-2.758l-2.568-1.23c-2.017-1.017-2.017-1.017-4.088-.887m-1 138c-2.69 3.782-4.82 7.79-6.922 11.916-1.14 2.204-2.337 4.37-3.547 6.537l-2.469 4.485c-.39.696-.78 1.393-1.18 2.112-2.32 4.315-3.61 7.967-3.882 12.95 1.59 5.212 3.472 7.981 8 11 2.285 1.143 3.769 1.231 6.313 1.313l2.3.113c3.353-.598 4.874-2.146 7.387-4.426 1.963-2.753 1.963-2.753 3.664-5.867l1.961-3.434 2-3.574q1.01-1.777 2.023-3.55C152.74 389.517 152.74 389.517 154 377c-2.31-5.006-5.205-7.032-10-9.336-5.292-1.757-9.883-.044-14 3.336m37 25c-2.908 4.036-5.158 8.403-7.437 12.813a1309 1309 0 0 1-1.98 3.71q-1.467 2.74-2.92 5.488c-2.904 5.499-6.073 10.807-9.343 16.094-2.137 4.686-2.92 9.094-1.257 14.082 2.892 4.199 5.229 7.307 10.34 8.262 4.69.205 8.134-.084 12.08-2.925 3.361-3.376 5.201-7.851 7.267-12.086q1.56-3.117 3.121-6.231l1.57-3.154a218 218 0 0 1 4.594-8.479l1.421-2.539a243 243 0 0 1 2.686-4.654c2.944-5.328 3.455-9.458 1.858-15.381-2.674-4.73-5.928-6.28-11-8-4.446 0-7.485.268-11 3m38 21c-2.088 2.87-2.088 2.87-3.691 6.32l-.948 1.873c-.991 1.97-1.958 3.95-2.923 5.932q-1.46 2.928-2.927 5.852a710 710 0 0 0-1.882 3.795 146 146 0 0 1-6.827 12.318c-1.306 3.11-.768 5.739.186 8.894 1.976 3.936 5.103 6.062 9.012 8.016 2.006.274 2.006.274 4.25.313l2.266.113c3.704-.635 5.603-2.002 8.484-4.426 1.924-2.797 3.394-5.763 4.875-8.812q1.29-2.56 2.582-5.118l1.284-2.577c2.177-4.31 4.506-8.54 6.835-12.772 2.903-5.197 2.903-5.197 3.041-10.94-1.619-4.977-2.94-7.974-7.617-10.781-6.041-2.014-10.648-1.352-16 2m39 21c-4.552 6.405-8.164 13.53-11.875 20.438l-1.836 3.275c-3.06 5.734-5.105 9.947-3.9 16.473 1.222 3.629 3.189 5.964 6.447 7.912 2.44 1.017 4.338 1.302 6.976 1.402l2.458.156c5.492-1.32 8.589-4.882 11.584-9.538 1.92-3.397 3.738-6.836 5.521-10.305q.95-1.8 1.902-3.6c4.921-9.087 4.921-9.087 5.723-19.213-1.36-3.609-3.283-6.365-6.187-8.937-5.754-2.174-12.052-2.295-16.813 1.937m40 15-.918 2.273c-2.474 6.044-5.089 11.906-8.164 17.668-1.122 2.14-1.122 2.14-.918 5.059 5.704 3.441 10.284 5.91 17.023 4.648 3.718-1.22 6.099-3.168 8.082-6.511 1.545-3.689 1.415-7.215.895-11.137-2.677-6.205-8.133-9.117-14-12z"/><path fill="#ef5c20" d="M309.207 98.469c4.298 3.67 7.466 8.216 8.031 13.949l.075 2.77.113 2.73c-1.088 7.873-6.046 13.323-11.434 18.812l-2.11 2.193A1584 1584 0 0 1 297 146l-4.8 4.963c-4.148 4.28-8.326 8.528-12.52 12.762q-2.58 2.613-5.142 5.244a1152 1152 0 0 1-7.593 7.707l-2.276 2.36c-5.93 5.907-11.903 9.389-20.294 10.401-13.662-1.77-22.323-13.148-31.681-22.393a398 398 0 0 0-3.04-2.957c-7.47-7.196-14.507-14.307-15.216-25.15.374-6.12 2-11.483 6.503-15.796 7.022-5.431 13.287-5.99 22.059-5.141 8.355 2.535 15.126 11.884 21 18 5.101-4.26 9.828-8.731 14.473-13.48l4.224-4.276q3.287-3.332 6.563-6.675c2.127-2.17 4.263-4.329 6.4-6.487l1.96-2.017c9.105-9.155 20.415-12.267 31.587-4.596M295 111c-6.658 5.567-12.781 11.627-18.9 17.77q-2.49 2.495-4.989 4.982c-5.08 5.078-10.085 10.161-14.724 15.653-3.182 3.66-6.128 6.129-10.762 7.845-6.252-.431-9.173-4.701-13.365-9.058a964 964 0 0 0-3.928-4.051 293 293 0 0 1-3.965-4.16l-1.879-1.946-1.67-1.77c-2.418-1.683-3.933-1.642-6.818-1.265-2.255 1.788-2.255 1.788-2.019 4.2 1.498 4.117 4.23 6.563 7.32 9.597l1.917 1.922a794 794 0 0 0 4.028 3.993 846 846 0 0 1 6.143 6.136q1.954 1.945 3.912 3.886l1.85 1.86 1.749 1.71 1.525 1.508c2.011 1.517 3.024 2.148 5.575 2.188 2.034-1.52 3.662-2.969 5.427-4.764l1.603-1.571c1.749-1.722 3.479-3.462 5.208-5.204q1.81-1.8 3.622-3.6 3.796-3.78 7.568-7.582c3.228-3.25 6.48-6.476 9.74-9.694 2.499-2.474 4.984-4.962 7.465-7.454a654 654 0 0 1 3.594-3.571 490 490 0 0 0 4.993-5.02l1.522-1.48c1.545-1.53 1.545-1.53 3.258-4.06.094-2.742.094-2.742-1-5-1.968-1.36-1.968-1.36-4-2"/><path fill="#f58f17" d="M106 195c2.938 1.438 2.938 1.438 5 4 1.293 4.303 1.504 7.752-.187 11.938-2.77 3.15-4.586 3.931-8.75 4.375-3.52-.36-5.281-1.15-8.063-3.313-2.36-3.769-2.216-6.581-1.594-10.871C93 199 93 199 95.062 196.438c3.826-1.873 6.76-2.24 10.938-1.438"/><path fill="#ec4723" d="M419 204c2.925 1.825 5.434 3.869 7 7 .599 5.269-.746 7.885-4 12-3.202 1.6-6.526 1.5-10 1-2.81-1.794-4.51-3.019-6-6-.375-4.97-.159-8.052 3-12 3.216-2.328 6.11-2.545 10-2"/></svg>