<svg xmlns="http://www.w3.org/2000/svg" width="512" height="512"><path d="M108 83c4.997 3.734 9.072 7.429 12 13v2l3.15.726a933 933 0 0 1 30.05 7.52l4.604 1.224 9.795 2.61q6.433 1.716 12.87 3.425a7476 7476 0 0 1 55.082 14.832q4.088 1.119 8.178 2.233l2.683.732 5.298 1.444q7.735 2.11 15.46 4.253 4.801 1.324 9.608 2.627 2.223.608 4.441 1.23a619 619 0 0 0 6.08 1.663l3.43.945c5.371.88 10.078-.26 15.146-2.026 9.358-2.87 17.859-1.682 26.547 2.816 7.39 4.55 12.207 10.763 15.578 18.746 2.26 9.595 1.308 18.132-3 27l-2.041 2.525c-2.63 4.664-2.561 8.42-2.568 13.686l-.05 2.934c-.049 3.077-.07 6.153-.091 9.23q-.042 3.139-.09 6.277c-.074 5.116-.123 10.232-.16 15.348h11l-.013-3.231q-.062-15.075-.09-30.149-.015-7.75-.048-15.5-.032-7.479-.039-14.958-.005-2.853-.021-5.707a1379 1379 0 0 1-.016-7.993l-.022-2.382c.016-4.114.219-7.453 2.249-11.08 3.17-2.114 3.95-2.253 7.58-2.274l2.845-.03 3.117-.002 3.288-.026c3.596-.024 7.191-.032 10.787-.04l7.485-.026q7.85-.024 15.701-.028 8.066-.005 16.133-.061 9.73-.065 19.462-.065 3.712-.006 7.423-.038a912 912 0 0 1 10.378-.01l3.105-.044c4.67.048 6.94.072 10.75 2.957 1.515 2.091 2.843 3.927 3.88 6.276l.917 2.029.942 2.179 1.042 2.334c1.129 2.535 2.24 5.077 3.353 7.619q1.178 2.66 2.36 5.318c2.073 4.676 4.132 9.358 6.186 14.043a9418 9418 0 0 0 3.815 8.689c6.719 15.286 6.719 15.286 9.7 22.12l1.103 2.526q1.014 2.322 2.023 4.645l.918 2.099.784 1.801c.931 2.145.931 2.145 2.502 4.502 2.078 5.128 1.863 9.944 1.857 15.428l.03 3.624q.034 4.903.036 9.806.004 3.069.016 6.138.042 10.725.038 21.448c-.002 6.646.03 13.292.077 19.938.04 5.72.055 11.441.054 17.162-.001 3.41.007 6.82.04 10.23.029 3.809.02 7.615.002 11.424l.05 3.387c-.089 7.47-1.737 12.323-6.779 17.922-6.982 5.972-16.864 4.439-25.5 4.25q-2.402-.03-4.805-.055c-3.899-.043-7.797-.112-11.695-.195l.055 3.044.043 4.034.055 3.982c-.513 13.233-7.342 25.14-16.864 34.092C434.26 431.67 420.337 434.568 404 433c-13.016-2.334-24.994-9.412-32.617-20.312C363.615 400.32 362 390.97 362 376l-112 1v10c-1.977 14.019-7.573 25.692-18.383 35.066C218.876 431.551 205.523 434.223 190 433c-13.555-2.49-25.694-9.755-33.625-21.062-6.94-10.197-9.457-20.58-9.375-32.938l1-3h-7l.14 2.824c.45 15.848-3.913 28.604-14.827 40.426-11.07 10.408-23.693 14.28-38.542 14.17-13.348-.437-24.738-5.605-34.521-14.67C46.928 411.972 42.21 404.014 40 395l-.566-2.3c-.542-3.37-.528-6.602-.496-10.012l.027-3.801L39 376l-2.168.063c-3.277.084-6.554.136-9.832.187l-3.41.102c-6.762.079-12.158-.067-17.59-4.352-6.222-6.721-6.858-12.928-6.691-21.805l.004-3.639q.013-3.785.07-7.569c.055-3.871.061-7.74.06-11.612q.023-3.683.053-7.367l.01-3.513.058-3.248.035-2.859C.074 307.56.723 306.693 3 305c2.805-.935 4.484-1.124 7.383-1.123l2.73-.006 3.004.009 3.188-.003q5.314 0 10.627.01l7.598-.001q8.19 0 16.383.008 11.842.011 23.687.012 19.214.004 38.429.019a94336 94336 0 0 0 51.199.025q47.886.016 95.772.05l-.063-3.406c-.074-4.217-.119-8.434-.157-12.652q-.03-2.725-.082-5.45c-.454-24.273-.454-24.273 8.052-33.43 6.368-6.591 11.094-7.917 20.25-9.062l-1-45-27.417-7.36-2.72-.73-2.736-.734-8.236-2.21a45366 45366 0 0 0-76.39-20.446l-2.863-.764q-6.985-1.866-13.972-3.727c-37.422-9.97-37.422-9.97-54.666-15.029-.078 7.346-.107 14.69-.075 22.037.013 3.411.01 6.821-.031 10.233-.047 3.925-.021 7.848.008 11.773l-.074 3.7c.056 3.325.173 6.083 1.172 9.257 2.735 2.513 5.59 3.645 9 5 2.34 2.246 2.34 2.246 3.938 4.438l1.652 2.183c4.16 7.02 4.266 14.435 3.41 22.379-2.77 8.663-8.184 14.467-16 19-7.723 2.97-16.007 3.098-23.766.168C73.018 250.396 67.71 244.677 65 237c-1.148-3.977-1.58-7.887-1-12 1.95-3.523 3.123-4.702 6.938-6 3.646 0 5.176.835 8.062 3 2.288 2.288 2.456 3.333 3.063 6.438.523 2.623 1.088 5.015 1.937 7.562 3.695 2.006 6.84 2.51 11 2 4.225-2.276 4.225-2.276 7-6 .354-4.324.533-6.91-1.375-10.812-3.234-2.696-6.12-3.418-10.187-4.317-3.102-1.108-4.388-2.288-6.438-4.871-.481-3.063-.481-3.063-.454-6.696l-.002-2.012c.003-2.186.034-4.371.065-6.558q.012-2.277.018-4.556c.015-3.992.054-7.983.098-11.975.041-4.075.06-8.15.08-12.226Q83.87 155.987 84 144l-3.35-.43c-7.53-1.177-13.42-6.528-18.142-12.316C57.35 123.546 55.829 115.127 57 106c2.233-9.385 6.868-17.675 15.113-22.969C82.947 77.11 97.29 76.428 108 83m-31.312 19.563C73.776 106.768 73.225 111.005 74 116c1.783 4.421 4.299 7.885 8.313 10.5 5.41 2.201 9.242 2.363 14.874.375 3.885-2.59 6.7-5.648 8.813-9.875.544-4.955.564-8.871-1.687-13.375-3.166-3.593-6.525-7.32-11.485-7.863-7.356-.212-11.095 1.21-16.14 6.8M123 117a1638 1638 0 0 0-2.5 5.875l-1.406 3.305c-1.215 2.627-1.215 2.627-1.094 4.82 64.803 17.433 64.803 17.433 129.618 34.821l9.266 2.484q5.39 1.446 10.78 2.888l5.773 1.549 3.408.91 2.965.795c1.975.594 1.975.594 3.19.553l2-15c-5.85-1.996-11.697-3.808-17.67-5.397l-2.483-.668q-4.05-1.088-8.1-2.17l-5.766-1.547q-7.686-2.063-15.374-4.12-7.927-2.122-15.855-4.248-9.48-2.541-18.962-5.08c-11.396-3.053-22.789-6.115-34.177-9.195q-6.816-1.842-13.633-3.68l-7.053-1.911q-4.776-1.296-9.556-2.582l-2.755-.753-2.497-.669c-.706-.19-1.411-.382-2.138-.579-2.298-.533-2.298-.533-5.981-.401m179.563 46.625c-3.267 4.966-3.281 9.525-2.563 15.375 2.026 4.681 5.3 7.986 10 10 4.92 1.3 8.457 1.095 13.07-.844 4.339-2.6 7.344-6.397 8.93-11.156.398-5.269-.076-8.566-3-13-3.275-3.799-6.42-6.267-11.437-7.125-6.288-.3-10.801 2.228-15 6.75M368 164v140c24.89.21 24.89.21 49.78.388 4.843.05 4.843.05 7.119.077q2.355.024 4.711.032c12.068.05 22.758.37 32.413 8.405 4.557 4.836 6.547 11.024 8.977 17.098h25v-4l-1.757-.044a947 947 0 0 1-7.93-.269l-2.764-.068c-9.036-.361-9.036-.361-12.549-3.619-3.992-6.128-3.458-12.894-3.391-20.016.016-2.045 0-4.089-.02-6.134l.013-3.948.01-3.578c.43-3.682 1.62-6.096 3.388-9.324v-2c4.914-2.545 9.907-2.441 15.313-2.625L496 274v-22l-6.482-.012c-7.09-.018-14.178-.062-21.266-.12-4.296-.034-8.591-.06-12.887-.064a1269 1269 0 0 1-12.449-.077 427 427 0 0 0-4.736-.013c-16.065.036-16.065.036-22.18-5.714-2.023-2.21-2.023-2.21-3.375-4.375l-1.398-2.148c-3.536-7.14-3.508-13.812-3.457-21.649v-3.513q.006-3.661.024-7.322c.019-3.744.02-7.488.02-11.231q.007-3.561.018-7.121l.003-3.4.02-3.146.011-2.77C408 177 408 177 409 174c3.369-.75 6.526-1.142 9.974-1.205l2.91-.06 3.104-.051 3.207-.063q5.059-.097 10.118-.184l6.869-.13q8.409-.161 16.818-.307c-.86-4.332-.86-4.332-3-8-2.83-.095-5.636-.126-8.467-.114h-2.734q-4.401.002-8.803.016l-5.418.003c-6.713.006-13.427.02-20.14.032zm56 25-.25 19.125-.11 6.004q-.018 2.378-.03 4.754l-.063 2.459c-.003 5.523.942 8.364 4.453 12.658 1.052 1.276 1.052 1.276 3.436 1.12l3.277-.006h3.7l4.028-.016 4.099-.005q5.403-.006 10.806-.024 5.51-.014 11.02-.02 10.816-.016 21.634-.049c-.779-4.283-2.173-7.978-3.984-11.918l-.902-1.992q-.945-2.082-1.896-4.163-1.433-3.133-2.85-6.273l-1.852-4.072-.84-1.85C475.238 199.414 472.62 194.24 470 189zm-116 17v34h15v-34zm-24 54c-4.005 5.452-4.569 9.593-4.454 16.24l-.002 2.722c.003 2.95.034 5.898.065 8.847q.012 3.078.018 6.158c.015 5.387.054 10.774.098 16.161.049 6.472.067 12.944.09 19.416.039 9.82.116 19.637.185 29.456h71V257l-30.687-.187-9.671-.083q-3.795-.014-7.591-.023l-3.98-.046-3.812-.002-3.304-.02c-3.524.43-5.196 1.12-7.955 3.361m200 31v18h12v-18zM16 321c-2.518 20.065-2.518 20.065 2 38 4.37.836 8.81.741 13.25.813l3.723.212c3.605.057 6.558-.027 10.027-1.025 2.254-2.341 3.468-4.47 4.78-7.432 4.64-9.768 16.951-14.874 26.591-18.447 13.36-3.611 27.258-1.057 39.379 5.129 7.029 4.235 12.374 9.001 16.25 16.25 1.678 2.549 2.896 4.142 5.848 5.1 5.056.917 10.228 1.002 15.152-.6 3.385-2.832 4.988-6.128 7-10 7.681-9.625 19.018-15.03 31-17 14.872-.893 29.012 1.527 40.805 11.332 5.16 4.985 8.28 9.404 12.195 15.668h19v-38zm352 0v36c2.789-3.48 2.789-3.48 5.535-6.992C381.612 340.05 393.391 334.014 406 332c16.072-1.156 29.822 2.67 42.188 13.25 2.479 2.187 4.47 3.98 5.823 7.026 1.392 2.918 2.486 4.648 4.989 6.724 5.145 1.067 10.062 1.046 15.296.844 2.462-.094 4.917-.123 7.38-.14a957 957 0 0 0 4.683-.095l2.232-.038c2.286-.062 2.286-.062 5.409-.571 2.136-3.204 2.231-4.02 2.125-7.687l-.055-2.45L496 347l-3.349-.076q-6.147-.142-12.294-.296-2.66-.065-5.323-.125-3.823-.088-7.647-.187l-2.406-.05c-3.228-.087-5.899-.239-8.981-1.266l-.297-2.852c-1.235-10.781-1.235-10.781-7.765-18.96-3.968-2.432-7.673-2.325-12.163-2.302h-2.218c-2.419 0-4.838.009-7.256.016l-5.032.005q-6.621.006-13.242.024c-5.297.012-10.593.017-15.89.023-8.045.01-16.091.029-24.137.046M63 361c-6.392 8.132-8.008 16.803-7 27 1.965 8.744 6.184 16.444 13.465 21.82 9.047 5.633 16.912 7.118 27.535 6.18 8.772-2.115 16.144-6.996 21.313-14.375A128 128 0 0 0 121 397l1.035-1.863c3.778-8.205 3.089-18.155.028-26.45C117.45 358.97 109.933 352.844 100 349c-14.458-4.5-27.275 1.363-37 12m109.059-.812c-5.684 7.403-8.57 15.544-7.996 24.937 1.6 10.325 6.059 17.976 13.937 24.875 9.608 6.054 19.707 7.677 30.86 5.422 9.333-3.27 16.22-9.984 20.702-18.672 4.12-8.822 4.503-17.024 1.477-26.23-4.002-9.704-10.749-16.186-20.047-20.758-13.949-5.334-29.268-.465-38.933 10.426M386 361c-6.387 8.127-8.02 16.807-7 27 2.181 9.32 6.506 16.787 14.375 22.313q2.284 1.392 4.625 2.687l1.863 1.035c7.743 3.565 17.628 3.248 25.512.34 8.536-4.016 14.058-9.109 18.625-17.375l1.035-1.863c3.33-7.231 3.144-15.964 1.016-23.496-4.185-10.615-10.159-16.2-20.051-21.641-15.053-6.295-29.58-.399-40 11"/><path d="M212.809 360.453c5.881 4.152 9.646 9.487 11.191 16.547.963 7.238-.167 13.74-4 20-5.014 5.594-9.85 9.6-17.488 10.336-8.602.088-14.834-.133-21.438-6.066-5.335-5.534-7.622-11.128-8.449-18.707.868-8.251 3.003-14.991 9.375-20.563 9.33-6.624 20.853-7.236 30.809-1.547M191 378c-.997 3.19-1.31 5.07-.25 8.25 1.301 2.04 1.301 2.04 4.25 3.75 3.885.424 6.102.615 9.375-1.625 2.057-3.006 2.698-4.713 2.625-8.375-1.913-3.496-1.913-3.496-5-6-4.963-1.034-7.619.33-11 4M105 361c4.702 3.703 8.793 7.973 10 14 .97 8.93.595 16.683-5 24-7.122 6.892-13.782 8.47-23.547 8.316-7.194-.659-11.79-3.875-16.453-9.316-5.265-7.166-5.752-13.228-5-22 1.78-7.712 6.727-12.475 13-17 8.232-4.39 19.355-2.989 27 2m-23 18c-.833 3-.833 3 0 6 2.632 3.669 4.089 4.84 8.563 5.625 3.528-.339 3.528-.339 5.874-2.75 1.854-3.41 2.279-5.057 1.563-8.875-2.456-3.323-3.926-4.776-8-5.625-4.074.849-5.544 2.302-8 5.625M425.965 359.672c4.914 3.207 9.569 7.47 11.594 13.125 1.684 8.409 1.41 16.576-2.934 24.078-3.79 4.956-8.714 8.21-14.625 10.125-9.454.971-16.488.407-23.93-5.543-6.185-5.608-8.158-11.084-8.57-19.332.206-7.102 2.412-12.656 7.145-17.973 8.78-8.066 20.596-10.008 31.32-4.48M405 379c-.833 3-.833 3 0 6 1.937 3.02 1.937 3.02 5 5 3.99.63 6.017.63 9.438-1.562 2.192-3.421 2.192-5.448 1.562-9.438-2.446-3.381-3.893-4.77-8-5.625-4.074.849-5.544 2.302-8 5.625M396.875 261.75l2.395-.062c4.972-.034 8.47.46 12.73 3.312 1.563 3.313 1.563 3.313 2 7-2.045 5.523-2.045 5.523-5 7-4.118.323-8.245.324-12.375.375l-3.484.113c-8.46.089-8.46.089-11.899-2.824-1.521-3.263-1.835-5.104-1.242-8.664 2.88-4.629 2.88-4.629 5.883-5.624 3.655-.65 7.29-.602 10.992-.626"/></svg>