<?xml version="1.0" encoding="UTF-8"?>
<!DOCTYPE svg PUBLIC "-//W3C//DTD SVG 1.1//EN" "http://www.w3.org/Graphics/SVG/1.1/DTD/svg11.dtd">
<svg xmlns="http://www.w3.org/2000/svg" version="1.1" width="512px" height="512px" style="shape-rendering:geometricPrecision; text-rendering:geometricPrecision; image-rendering:optimizeQuality; fill-rule:evenodd; clip-rule:evenodd" xmlns:xlink="http://www.w3.org/1999/xlink">
<g><path style="opacity:1" fill="#1fce64" d="M 232.5,-0.5 C 247.833,-0.5 263.167,-0.5 278.5,-0.5C 368.144,10.3879 435.644,54.7213 481,132.5C 497.695,163.971 507.861,197.304 511.5,232.5C 511.5,247.833 511.5,263.167 511.5,278.5C 500.612,368.144 456.279,435.644 378.5,481C 347.029,497.695 313.696,507.861 278.5,511.5C 263.167,511.5 247.833,511.5 232.5,511.5C 142.856,500.612 75.3562,456.279 30,378.5C 13.3053,347.029 3.1386,313.696 -0.5,278.5C -0.5,263.167 -0.5,247.833 -0.5,232.5C 10.3875,142.857 54.7208,75.3573 132.5,30C 163.971,13.3053 197.304,3.1386 232.5,-0.5 Z"/></g>
<g><path style="opacity:1" fill="#f8f9f8" d="M 243.5,94.5 C 309.864,92.5892 360.364,119.589 395,175.5C 419.741,222.011 422.074,269.678 402,318.5C 376.549,372.155 334.382,403.322 275.5,412C 253.46,415.165 231.794,413.499 210.5,407C 199.701,403.098 189.035,398.931 178.5,394.5C 151.138,401.507 123.804,408.507 96.5,415.5C 103.021,388.415 110.021,361.415 117.5,334.5C 106.534,312.764 99.7004,289.764 97,265.5C 95.7977,191.706 128.298,138.873 194.5,107C 210.438,100.766 226.772,96.5993 243.5,94.5 Z"/></g>
<g><path style="opacity:1" fill="#20ce64" d="M 136.5,377.5 C 135.508,377.672 134.842,377.338 134.5,376.5C 138.392,360.988 142.392,345.488 146.5,330C 114.69,277.364 115.857,225.531 150,174.5C 193.701,123.199 247.201,109.366 310.5,133C 367.785,162.723 393.285,209.889 387,274.5C 375.754,330.746 342.588,366.913 287.5,383C 250.222,391.259 215.388,385.426 183,365.5C 167.463,369.426 151.963,373.426 136.5,377.5 Z"/></g>
<g><path style="opacity:1" fill="#f8f9f9" d="M 195.5,180.5 C 200.844,180.334 206.177,180.501 211.5,181C 214.106,182.938 215.939,185.438 217,188.5C 221.456,199.075 225.623,209.742 229.5,220.5C 227.184,227.995 223.017,234.329 217,239.5C 216.333,241.5 216.333,243.5 217,245.5C 230.545,268.873 250.045,285.206 275.5,294.5C 276.938,294.281 278.271,293.781 279.5,293C 284.287,287.258 288.953,281.425 293.5,275.5C 294.559,274.304 295.893,273.637 297.5,273.5C 310.521,278.509 323.187,284.343 335.5,291C 338.659,305.404 333.992,316.404 321.5,324C 308.423,331.072 294.756,332.405 280.5,328C 245.457,316.9 217.29,296.4 196,266.5C 186.16,254.82 179.493,241.486 176,226.5C 173.102,206.99 179.602,191.657 195.5,180.5 Z"/></g>
<g><path style="opacity:1" fill="#9ae8b6" d="M 134.5,376.5 C 134.842,377.338 135.508,377.672 136.5,377.5C 135.614,378.776 134.614,378.776 133.5,377.5C 133.624,376.893 133.957,376.56 134.5,376.5 Z"/></g>
</svg>
