<?xml version="1.0" encoding="UTF-8"?>
<svg version="1.1" xmlns="http://www.w3.org/2000/svg" width="512" height="512">
<path d="M0 0 C13.79234343 8.55255205 21.67543687 24.15146414 25.4375 39.5625 C27.14062068 47.0241543 28.1545963 54.27062822 28.203125 61.92578125 C28.21018463 62.66653397 28.21724426 63.40728668 28.22451782 64.17048645 C28.39898632 87.85032355 27.63310043 110.51840554 15.88793945 131.77368164 C15.07689507 133.24581871 15.07689507 133.24581871 14.24946594 134.74769592 C13.83714218 135.49095627 13.42481842 136.23421661 13 137 C13.93703671 137.00081715 13.93703671 137.00081715 14.89300346 137.00165081 C30.12667883 137.01664926 45.36000986 137.05921929 60.59350395 137.13209057 C67.96048129 137.16667363 75.32727281 137.19208727 82.69433594 137.19555664 C89.11906429 137.1986059 95.54346114 137.21922459 101.96806157 137.26052457 C105.36670915 137.28176997 108.76488649 137.2944994 112.16360092 137.28615379 C115.96748684 137.28124054 119.77001204 137.30737709 123.57373047 137.34057617 C124.68791855 137.33195053 125.80210663 137.32332489 126.95005798 137.31443787 C135.65063614 137.44127247 142.07289222 139.77104472 148.8125 145.3125 C155.54020862 153.57797059 158.03654043 160.26541696 157 171 C154.98346069 178.39746026 151.62806717 184.80222413 145 189 C144.34 189 143.68 189 143 189 C143.42152344 189.67546875 143.84304688 190.3509375 144.27734375 191.046875 C145.09912109 192.38492188 145.09912109 192.38492188 145.9375 193.75 C146.75541016 195.07257813 146.75541016 195.07257813 147.58984375 196.421875 C151.16309894 202.95469612 151.2130976 211.54318489 149.28125 218.640625 C146.24131729 225.84820739 141.89038767 231.10543306 135 235 C134.01 235 133.02 235 132 235 C132.34933594 235.66386719 132.69867188 236.32773437 133.05859375 237.01171875 C133.51363281 237.89472656 133.96867187 238.77773438 134.4375 239.6875 C134.88996094 240.55761719 135.34242188 241.42773438 135.80859375 242.32421875 C139.01402075 249.52329251 138.62371366 256.97347756 136.23828125 264.3671875 C133.37524081 270.45453532 128.37823977 276.27699229 122.1875 279.125 C119 280 119 280 115 280 C115.27714844 280.54269531 115.55429687 281.08539063 115.83984375 281.64453125 C116.20207031 282.35996094 116.56429688 283.07539063 116.9375 283.8125 C117.29714844 284.52019531 117.65679687 285.22789062 118.02734375 285.95703125 C121.1857995 292.59105679 120.94859978 300.6918339 118.9375 307.6875 C115.71718652 315.97905481 109.95772966 322.12493165 102 326 C98.55351539 327.1488282 95.87192289 327.1404978 92.2348938 327.16062927 C91.19737624 327.168261 91.19737624 327.168261 90.13889873 327.17604691 C87.81542015 327.19177344 85.49197269 327.20029719 83.16845703 327.20874023 C81.50439761 327.21827901 79.84034018 327.22817018 78.17628479 327.23838806 C72.70348466 327.26978668 67.23066932 327.29004934 61.7578125 327.30859375 C60.35965876 327.31353973 60.35965876 327.31353973 58.93325949 327.31858563 C50.13561022 327.34938019 41.33795747 327.37607897 32.54026985 327.39300442 C21.30369275 327.41487724 10.06759556 327.45676852 -1.16878974 327.52644199 C-9.07726542 327.57380476 -16.98561224 327.59795477 -24.89422524 327.6052013 C-29.61261617 327.61014131 -34.3304664 327.62506281 -39.04870224 327.6649456 C-43.4959854 327.70204021 -47.94242424 327.71014764 -52.38983345 327.69693947 C-54.01309285 327.69699305 -55.63639182 327.70713825 -57.25950813 327.7286911 C-67.88387375 327.86210605 -75.63518414 326.38070917 -85 321 C-85.21039917 322.41031494 -85.21039917 322.41031494 -85.42504883 323.84912109 C-86.52729551 329.88971374 -90.26287818 334.5272228 -94.875 338.4375 C-101.76559545 341.88279772 -108.37284095 342.29567799 -115.92919922 342.2746582 C-116.88966156 342.27976913 -117.8501239 342.28488007 -118.83969116 342.29014587 C-121.99475445 342.30397392 -125.14959762 342.30309017 -128.3046875 342.30078125 C-130.51132284 342.30467196 -132.71795743 342.30900741 -134.92459106 342.31376648 C-139.5426883 342.32121416 -144.16070907 342.32094797 -148.77880859 342.31567383 C-154.67867467 342.30988188 -160.57822654 342.32681089 -166.4780407 342.3500185 C-171.03355724 342.36479455 -175.5889988 342.36562225 -180.14453506 342.36250877 C-182.31890612 342.36302006 -184.49328158 342.36822138 -186.66762924 342.37832069 C-189.71596077 342.39074258 -192.76368889 342.38385884 -195.81201172 342.37231445 C-196.69856445 342.37995819 -197.58511719 342.38760193 -198.49853516 342.39547729 C-206.19652986 342.33147055 -214.57266439 341.14817127 -220.4375 335.75 C-221.05496094 335.20859375 -221.67242187 334.6671875 -222.30859375 334.109375 C-226.58058883 328.7817137 -227.44287955 323.47648703 -227.39440918 316.80909729 C-227.40050028 316.01246813 -227.40659139 315.21583897 -227.41286707 314.39506954 C-227.42944216 311.74052738 -227.42472921 309.08646778 -227.41992188 306.43188477 C-227.42726534 304.52266952 -227.43585237 302.6134587 -227.44558716 300.70425415 C-227.46778112 295.52863733 -227.47073494 290.35317982 -227.46883965 285.17752194 C-227.46871986 280.85343927 -227.47728711 276.52939026 -227.48561716 272.20531696 C-227.50484312 262.00298464 -227.50773777 251.80073414 -227.50097656 241.59838867 C-227.49433408 231.07991583 -227.51721044 220.56179351 -227.55429029 210.04339176 C-227.58499313 201.00538792 -227.59634675 191.96749682 -227.59245348 182.92944187 C-227.59038683 177.53454999 -227.59585265 172.13993099 -227.62034607 166.74508858 C-227.64262053 161.67156639 -227.64072936 156.59861413 -227.62041855 151.52508926 C-227.61700992 149.66593546 -227.62209126 147.80674322 -227.63640213 145.94764137 C-227.71272027 135.29624105 -227.58842253 128.25227401 -220.19140625 119.9765625 C-219.38509766 119.30753906 -219.38509766 119.30753906 -218.5625 118.625 C-217.76005859 117.93277344 -217.76005859 117.93277344 -216.94140625 117.2265625 C-210.87637813 113.39473387 -204.60928998 113.73611835 -197.6953125 113.8046875 C-196.61619598 113.8075174 -195.53707947 113.81034729 -194.42526245 113.81326294 C-190.99172701 113.8244234 -187.55845609 113.8495207 -184.125 113.875 C-181.79167044 113.88503513 -179.45833678 113.89416005 -177.125 113.90234375 C-171.416577 113.92434921 -165.70830741 113.95778573 -160 114 C-159.99576806 114.59691115 -159.99153612 115.19382231 -159.98717594 115.80882168 C-159.88400419 130.31317736 -159.77538693 144.81748464 -159.66066074 159.3217535 C-159.60531291 166.33582305 -159.55182841 173.34989768 -159.50268555 180.36401367 C-159.45529895 187.12671934 -159.40277928 193.88936697 -159.34705925 200.65200996 C-159.32660065 203.23850771 -159.30789352 205.82501989 -159.29092598 208.41154289 C-159.26695931 212.02042768 -159.23689453 215.62921201 -159.20532227 219.23803711 C-159.1995668 220.3191275 -159.19381134 221.4002179 -159.18788147 222.5140686 C-159.17809265 223.49148514 -159.16830383 224.46890167 -159.15821838 225.47593689 C-159.15176583 226.33043899 -159.14531328 227.18494108 -159.1386652 228.06533718 C-159.21173657 230.00651207 -159.21173657 230.00651207 -158 231 C-156.33382885 231.04063832 -154.66611905 231.042721 -153 231 C-151.79852906 228.59705813 -151.86225051 227.07799484 -151.84178162 224.39364624 C-151.8319928 223.4232692 -151.82220398 222.45289215 -151.81211853 221.45310974 C-151.80636307 220.38496536 -151.8006076 219.31682098 -151.79467773 218.21630859 C-151.78477814 217.09435593 -151.77487854 215.97240326 -151.76467896 214.81645203 C-151.73299473 211.09380226 -151.70827916 207.37113972 -151.68359375 203.6484375 C-151.6630302 201.07296408 -151.6420339 198.49749408 -151.62062073 195.92202759 C-151.57099405 189.82702858 -151.5257448 183.73201135 -151.48259836 177.63696349 C-151.43323982 170.69868656 -151.37831658 163.76045721 -151.32291877 156.82222629 C-151.20907385 142.54819553 -151.10224028 128.27411835 -151 114 C-144.32899108 113.89807579 -137.65818507 113.82831558 -130.98657227 113.78027344 C-128.71989437 113.76023293 -126.45326768 113.73299289 -124.18676758 113.69824219 C-120.91735144 113.64939132 -117.64862243 113.62695488 -114.37890625 113.609375 C-113.37541641 113.58872986 -112.37192657 113.56808472 -111.33802795 113.54681396 C-103.74988443 113.54442667 -97.67256393 115.08156856 -91.66015625 119.859375 C-90.86931641 120.79523438 -90.86931641 120.79523438 -90.0625 121.75 C-89.51722656 122.36359375 -88.97195312 122.9771875 -88.41015625 123.609375 C-86.43603638 126.95608236 -85.82147504 130.2061346 -85 134 C-64.77030102 124.80934996 -50.93976269 112.4224641 -42.56640625 91.4296875 C-36.39327502 74.73838848 -34.14280337 57.16562417 -33.8046875 39.48046875 C-33.7886145 38.71293274 -33.7725415 37.94539673 -33.75598145 37.15460205 C-33.67682726 33.26849413 -33.62022817 29.38445088 -33.60449219 25.49755859 C-33.40612749 7.15656989 -33.40612749 7.15656989 -27.51782227 0.26538086 C-19.28337003 -6.97935967 -9.01700778 -4.41091722 0 0 Z M-146.3125 284.5 C-150.32018569 289.29660019 -150.40601221 293.83782236 -150.33984375 299.91796875 C-149.74764565 305.28859288 -147.52241915 308.94491742 -143.35546875 312.33984375 C-138.62164848 315.34256044 -134.07957026 316.46585856 -128.546875 315.62890625 C-123.03957029 314.30154688 -119.51119417 312.47337341 -116.12109375 307.8828125 C-112.67464206 302.09469503 -112.39744946 296.39850471 -114 290 C-116.85603163 284.49949463 -121.02520937 279.99159688 -127 278 C-135.16885857 277.26888013 -140.68011461 278.20184802 -146.3125 284.5 Z " fill="#FF940E" transform="translate(227,161)"/>
<path d="M0 0 C14.41956964 13.34905469 25.91378774 27.54357085 35 45 C35.33628418 45.63599121 35.67256836 46.27198242 36.01904297 46.92724609 C40.33791125 55.19780785 43.71792977 63.5328156 46.3125 72.5 C46.54275879 73.292854 46.77301758 74.08570801 47.01025391 74.90258789 C50.91748322 89.23435089 52.53188756 103.13089254 52.375 117.9375 C52.37034729 118.72536896 52.36569458 119.51323792 52.36090088 120.32498169 C52.28161281 131.79111088 51.88281247 142.84949894 49 154 C48.80132324 154.81355957 48.60264648 155.62711914 48.39794922 156.46533203 C38.37497909 196.94011253 14.97913584 231.50252981 -20.64208984 253.60595703 C-48.30461088 269.96058481 -48.30461088 269.96058481 -61 267 C-64.56006709 265.0321992 -66.68949603 262.93151192 -68 259 C-68.26401367 255.43581552 -68.24395215 252.69932949 -67.0625 249.3125 C-64.55937687 246.50596801 -62.36151817 245.61120766 -58.9140625 244.21875 C-43.72072619 237.8644324 -29.44210806 229.80885198 -17 219 C-15.75089844 217.96939453 -15.75089844 217.96939453 -14.4765625 216.91796875 C10.83815863 195.39646293 25.23651231 162.10126538 28.625 129.5625 C31.41457663 93.55160163 20.11737863 58.66858567 -3 31 C-3.42651855 30.48695312 -3.85303711 29.97390625 -4.29248047 29.4453125 C-25.8217999 3.90507357 -57.91478259 -11.61067443 -90.8125 -15.6875 C-126.77872522 -18.46778386 -162.66841286 -9.14524758 -190.57861328 14.32763672 C-211.62468546 32.37176838 -225.84155002 54.22196377 -233.9296875 80.703125 C-237.49497965 91.68526579 -237.49497965 91.68526579 -242 94 C-246.66616437 94.84218576 -250.75303929 94.62348035 -255 92.5 C-257.91729148 88.85338565 -259.28554977 84.66145364 -258.78515625 79.99755859 C-258.28963137 77.9320184 -257.6815434 75.94927049 -257 73.9375 C-256.76579346 73.20289551 -256.53158691 72.46829102 -256.2902832 71.71142578 C-255.55760782 69.46236151 -254.78825352 67.2301442 -254 65 C-253.76716309 64.33983887 -253.53432617 63.67967773 -253.29443359 62.99951172 C-239.08925353 23.62569227 -209.1582162 -7.8040399 -171.5625 -25.8125 C-114.7965154 -51.15662803 -46.37502047 -41.87916855 0 0 Z " fill="#FF6A1F" transform="translate(460,49)"/>
<path d="M0 0 C5.5 3 5.5 3 7 6 C7.07116382 8.37402501 7.08409085 10.75000677 7.0625 13.125 C7.05347656 14.40632813 7.04445313 15.68765625 7.03515625 17.0078125 C7.02355469 17.99523437 7.01195312 18.98265625 7 20 C8.2375 20.061875 9.475 20.12375 10.75 20.1875 C23.15146053 21.64764056 32.14968377 28.04924041 40.03515625 37.41796875 C45.88871078 45.23513605 49.84420628 53.84678439 49.38671875 63.76953125 C48.77499279 67.29776885 47.40761673 69.3971711 45 72 C41.43251358 74.27922744 38.08280189 74.36341571 33.91796875 73.63671875 C30.32901154 72.44527267 28.66813452 70.21144265 27 67 C25.65439939 63.47502172 24.43824506 59.93987439 23.30859375 56.33984375 C21.64966608 52.10586418 19.78795394 49.13839764 15.9140625 46.671875 C6.40293328 42.84145436 -4.23562884 41.4026001 -14 45 C-20.27608277 47.755675 -24.31720534 51.47414452 -27.3125 57.75 C-28.84851282 65.0111515 -28.75493748 70.8149998 -24.97265625 77.30859375 C-24 79 -24 79 -23 82 C-21.14472384 83.11929108 -21.14472384 83.11929108 -19 84 C-18.42411133 84.32564941 -17.84822266 84.65129883 -17.25488281 84.98681641 C-11.62386324 88.08006211 -6.02413602 89.21226549 0.25 90.375 C15.42434985 93.46569414 27.00283155 98.86225153 36.875 111.375 C43.87202675 121.99460089 45.56249979 135.30271201 43.3515625 147.609375 C40.28269684 159.62254141 34.13343278 168.77330468 24 176 C18.45014869 179.10297667 13.31145396 181.12212573 7 182 C7.05220703 183.53720703 7.05220703 183.53720703 7.10546875 185.10546875 C7.13362035 186.46612936 7.16091904 187.8268078 7.1875 189.1875 C7.21263672 189.86103516 7.23777344 190.53457031 7.26367188 191.22851562 C7.329257 195.71016614 6.72064426 198.42582029 4 202 C0.96754689 204.35857464 -2.26065814 204.35933916 -6.03515625 204.25390625 C-8.95627792 203.87642532 -10.74314524 202.85858628 -13 201 C-14.80665081 198.02129257 -15.36670076 195.44990657 -15.6875 192 C-15.77386719 191.154375 -15.86023438 190.30875 -15.94921875 189.4375 C-15.99852254 187.07091802 -15.69301659 185.25100125 -15 183 C-16.27875 182.9175 -17.5575 182.835 -18.875 182.75 C-30.53140177 181.41627378 -41.01899761 175.20432541 -48.43359375 166.20703125 C-54.62502187 157.48344799 -58.18492998 147.75551828 -57 137 C-55.36095437 133.06629049 -53.86964631 131.60363721 -50 130 C-47.81640625 129.6640625 -47.81640625 129.6640625 -45.5625 129.625 C-44.82128906 129.59664062 -44.08007812 129.56828125 -43.31640625 129.5390625 C-39.93081608 130.21275498 -38.40072943 131.53203433 -36 134 C-34.97967742 136.51112723 -34.18920233 138.78155716 -33.5 141.375 C-31.76868489 147.81292729 -29.56890054 152.57421099 -23.90234375 156.42578125 C-23.25394531 156.71839844 -22.60554688 157.01101562 -21.9375 157.3125 C-21.28652344 157.61800781 -20.63554687 157.92351562 -19.96484375 158.23828125 C-11.66083495 161.45752919 -1.62975384 161.0085787 6.7109375 158.1015625 C12.16535376 155.47674102 16.58341532 151.75620431 19 146.125 C20.9103627 139.69923457 20.82084301 133.10677404 18.15625 126.9140625 C13.62471801 119.41253996 6.18006256 116.12261109 -2 114 C-4.68603348 113.47406337 -7.36719294 112.97119872 -10.0625 112.5 C-23.68815494 110.10744246 -34.84946391 104.88982656 -43.4375 93.625 C-51.08690965 82.32331074 -53.57468827 70.44899081 -51.5390625 56.94140625 C-48.94394022 45.20229431 -43.56417677 35.31502786 -33.6484375 28.34765625 C-28.191894 24.89297159 -21.65776379 21 -15 21 C-15.08701172 19.46279297 -15.08701172 19.46279297 -15.17578125 17.89453125 C-15.22269957 16.53389989 -15.26819752 15.17321904 -15.3125 13.8125 C-15.35439453 13.13896484 -15.39628906 12.46542969 -15.43945312 11.77148438 C-15.53676648 7.78163682 -15.16454409 6.2010498 -12.60546875 3.07421875 C-8.52135149 -0.17715496 -5.14901103 -0.71646721 0 0 Z " fill="#FF711C" transform="translate(359,65)"/>
</svg>
