<svg xmlns="http://www.w3.org/2000/svg" width="2048" height="2048" style="shape-rendering:geometricPrecision;text-rendering:geometricPrecision;image-rendering:optimizeQuality;fill-rule:evenodd;clip-rule:evenodd"><path fill="#25a8ec" d="M978.5-.5h91c148.69 7.007 289.36 44.34 422 112-311.67 1.333-623.333 1.333-935 0q199.09-101.032 422-112" style="opacity:1"/><path fill="#25a8e7" d="M556.5 111.5c311.667 1.333 623.33 1.333 935 0q227.97 117.94 375 329l-1687 2q148.026-212.053 377-331" style="opacity:1"/><path fill="#25a2e7" d="M1866.5 440.5c49.83 70.643 89.49 146.977 119 229-162.17 1-324.5 1.333-487 1-1.03-37.195-20.2-55.528-57.5-55a182.8 182.8 0 0 0-47.5 8.5 2635 2635 0 0 0-129 46.5H61.5q44.902-121.82 118-228z" style="opacity:1"/><path fill="#f9f9f9" d="M1498.5 670.5a546 546 0 0 1-3.5 57c-18.97 146.1-40.8 291.77-65.5 437a14653 14653 0 0 0-27 157c-1.87 6.87-3.2 13.87-4 21-7.07 40.11-14.91 80.11-23.5 120-5.81 21.62-15.81 40.95-30 58-16.46 14.46-35.62 19.62-57.5 15.5-19.94-3.64-38.6-10.64-56-21a69782 69782 0 0 1-256-172.5 842 842 0 0 0-33-22 1596 1596 0 0 1-41-28.5c-12.79-9.45-22.623-21.28-29.5-35.5-5.667-15.68-3.667-30.35 6-44a253 253 0 0 1 13-17 1253 1253 0 0 0 29.5-30c65.797-61.3 131.46-122.8 197-184.5 32.83-31.5 65-63.667 96.5-96.5a110 110 0 0 0 12-16c.9-18.839-7.93-25.672-26.5-20.5a431 431 0 0 0-34 20 27361 27361 0 0 0-403 270 358 358 0 0 1-50 26.5q-40.876 15.555-84 7.5a2181 2181 0 0 0-37-7.5 1812 1812 0 0 1-174-54.5c-12.445-4.8-21.945-12.96-28.5-24.5q-6.405-16.155 4-30c10.644-11.23 22.811-20.4 36.5-27.5a65310 65310 0 0 1 628-272q103.635-42.83 207-85.5a2635 2635 0 0 1 129-46.5 182.8 182.8 0 0 1 47.5-8.5c37.3-.528 56.47 17.805 57.5 55" style="opacity:1"/><path fill="#25a2e1" d="M1985.5 669.5c34.91 94.306 55.58 191.64 62 292v124c-1.94 25.6-4.6 51.27-8 77-203.12 2-406.46 2.66-610 2 24.7-145.23 46.53-290.9 65.5-437a546 546 0 0 0 3.5-57c162.5.333 324.83 0 487-1M61.5 670.5h1203q-103.365 42.67-207 85.5a65310 65310 0 0 0-628 272c-13.689 7.1-25.856 16.27-36.5 27.5q-10.405 13.845-4 30c6.555 11.54 16.055 19.7 28.5 24.5a1812 1812 0 0 0 174 54.5c-194.542-.66-388.876 0-583 2a1587 1587 0 0 1-9-97v-91q7.71-158.545 62-308" style="opacity:1"/><path fill="#26a2e1" d="M920.5 1165.5c-69.165-1-138.498-1.33-208-1a358 358 0 0 0 50-26.5 27361 27361 0 0 1 403-270c11-7.171 22.34-13.838 34-20 18.57-5.172 27.4 1.661 26.5 20.5a110 110 0 0 1-12 16c-31.5 32.833-63.67 65-96.5 96.5-65.54 61.7-131.203 123.2-197 184.5" style="opacity:1"/><path fill="#1fa2e1" d="M591.5 1164.5a2181 2181 0 0 1 37 7.5q43.124 8.055 84-7.5c69.502-.33 138.835 0 208 1a1253 1253 0 0 1-29.5 30 253 253 0 0 0-13 17c-9.667 13.65-11.667 28.32-6 44 6.877 14.22 16.71 26.05 29.5 35.5a1596 1596 0 0 0 41 28.5c-299.667.67-599.333 1.33-899 2q-23.62-76.485-35-156c194.124-2 388.458-2.66 583-2M2039.5 1162.5c-7.12 54.13-18.79 107.13-35 159h-602c8.72-52.41 17.72-104.74 27-157 203.54.66 406.88 0 610-2" style="opacity:1"/><path fill="#1fa2da" d="M942.5 1320.5a842 842 0 0 1 33 22c-308.736.33-617.403 0-926-1a133 133 0 0 1-6-19c299.667-.67 599.333-1.33 899-2M1402.5 1321.5h602a186 186 0 0 1-6 21h-600c.8-7.13 2.13-14.13 4-21" style="opacity:1"/><path fill="#1f9cda" d="M49.5 1341.5c308.597 1 617.264 1.33 926 1 85.18 57.67 170.51 115.17 256 172.5 17.4 10.36 36.06 17.36 56 21 21.88 4.12 41.04-1.04 57.5-15.5 14.19-17.05 24.19-36.38 30-58 8.59-39.89 16.43-79.89 23.5-120h600c-66.49 198.57-181.82 362.4-346 491.5a1150 1150 0 0 1-64 45.5q-564-1.995-1128 0-261.262-173.04-383.5-462a939 939 0 0 1-27.5-76" style="opacity:1"/><path fill="#1f9cd4" d="M1588.5 1879.5c-152.71 99.9-320.38 155.9-503 168h-123c-175.214-11.57-337.214-63.74-486-156.5a199 199 0 0 1-16-11.5q564-1.995 1128 0" style="opacity:1"/></svg>